<svg xmlns="http://www.w3.org/2000/svg" version="1.1" x="0" y="0" viewBox="0 0 128.8 71.7" enable-background="new 0 0 128.8 71.7" xml:space="preserve"><path fill-rule="evenodd" clip-rule="evenodd" fill="#FFFFFF" d="M94.8 16.9c0.1 0.6-0.4 0.8-0.1 1.3 -0.2 0.2-0.3 0.4-0.3 0.8 -0.2 0-0.1 0.3-0.3 0.3 0.1 0.3-0.1 0.4-0.1 0.7 -0.7 1.1-1.1 2.5-1.6 3.8 0.1 0.2 0.3-0.3 0.5-0.3 0-0.2 0.2-0.2 0.1-0.5 0.4-0.1 0.4-0.7 0.8-0.8 0.2-0.7 0.7-1.1 0.9-1.8 0.3 0.1 0.1-0.3 0.4-0.3 0-0.1-0.1-0.1-0.1-0.3 0.2-0.1 0.4-0.2 0.4-0.6 0.2 0 0.2-0.1 0.2-0.3 0.6-0.3 0.6-1.2 1.2-1.6 0-0.1 0-0.3 0-0.4 0.2 0 0.2-0.1 0.2-0.3 0.3 0 0.3-0.3 0.4-0.5 0.4-0.1 0.2 0.3 0.5 0.2 0.1-0.3-0.1-0.3-0.4-0.3 0.3-0.6 0.5-1.2 1-1.6 0.2-1 1-1.5 1.2-2.5 0.1-0.1 0.2-0.1 0.4-0.2 -0.3-0.3 0.3-0.4 0.2-0.8 0.5-0.5 0.7-1.2 1.1-1.8 0.2 0.7-0.6 1.1-0.7 1.9 -0.2 0.1-0.3 0.3-0.3 0.6 -0.4 0.3-0.6 0.7-0.7 1.3 -0.5 0.1-0.4 0.8-0.7 1.1 0 0.2 0.1 0.2 0.2 0.3 0.1 0.4-0.3 0.4-0.4 0.7 0.1 0.3 0.4-0.1 0.4-0.2 0.4 0.3-0.3 0.4-0.2 0.7 -0.2 0.2-0.3 0.5-0.5 0.7 0 0.2 0 0.3 0 0.5 -0.7 1.2-1.5 2.4-2.2 3.7 -0.2 0-0.1 0.3-0.4 0.2 0.2 0.2 0 0.2 0 0.5 -0.4 0.2-0.4 0.9-0.9 1.1 0 0.3-0.2 0.3-0.2 0.6 -0.2 0-0.1 0.3-0.4 0.2 0.2 0.3-0.4 0.5-0.4 1 -0.2 0-0.2 0.3-0.4 0.3 -0.1 0.6-0.6 0.7-0.7 1.3 -0.1 0-0.1 0.1-0.3 0.1 0 0.2 0 0.3-0.2 0.3 -0.2 0.9-1 1.2-1.2 2.1 -0.3 0.2-0.4 0.5-0.5 0.9 0 0.1 0.2 0.1 0.2 0.2 0.6 0.1 0.6-0.3 1.1-0.1 1-0.4 1.6-1 2.5-1.5 0.1-0.1 0.3-0.1 0.3-0.4 0.6-0.1 0.8-0.7 1.4-0.9 0.1-0.4 0.7-0.5 0.8-1 0.4 0.1 0.3-0.4 0.7-0.4 0.1 0 0.1-0.2 0.2-0.3 0.5-0.1 0.6-0.5 1-0.7 0-0.2 0.1-0.2 0.1-0.4 0.3 0 0 0.2 0.3 0.3 0.2 0 0-0.3 0-0.3 0-0.2 0.3-0.2 0.2-0.5 0.2-0.1 0.4-0.2 0.4-0.6 0.1 0 0.1 0 0.2 0 0.1 0 0.1-0.1 0-0.1 0.6-0.5 0.9-1.4 1.5-2 0-0.4 0.1-0.8 0.3-1.1 0-0.1 0-0.2-0.1-0.3 0.1-1.1 0.8-1.6 0.9-2.7 0.3-0.2 0.1-0.7 0.4-0.9 0-0.7 0.2-1.3 0.4-1.9 0-0.4 0-0.6-0.1-0.9 0.5 0 0.4 0.4 1 0.3 0.2 0.1 0.1 0.5 0.4 0.5 0.1 0.9 0.2 1.9 0.3 2.8 -0.2 0.8-0.2 1.2-0.1 2.1 -0.1 0-0.2 0.1-0.3 0 0.2 0.6-0.1 1.4-0.4 1.9 0.1 1.1-0.4 1.8-0.2 2.6 0.4-0.1 0.2-0.6 0.7-0.6 0-0.5 0.4-0.9 0.7-0.8 -0.1 0.1-0.3 0.3-0.4 0.5 -0.2 0.1-0.1 0.5-0.3 0.5 0.2 0.3 0.3 0.1 0.5 0 0.2 0 0.2-0.2 0.2-0.4 0.1 0.1 0.2 0.1 0.4 0 0-0.4 0.1-0.7 0.2-1 -0.1-0.1-0.5 0.2-0.8 0.2 0.2-0.3 0.4-0.6 0.9-0.7 0 0.1 0 0.2 0 0.3 0.5-0.4 0.8-0.9 1.1-1.5 0.2 0 0.2 0.1 0.4 0.1 0-0.1 0-0.3-0.1-0.3 0-0.1 0.2-0.1 0.3-0.1 -0.1-0.4 0.3-0.7 0-0.9 0-0.1 0.3-0.1 0.3 0 0.3-0.2 0.3-0.6 0.8-0.5 -0.1-0.1-0.1-0.5 0-0.6 0.3 0 0.3-0.2 0.3-0.5 -0.1 0-0.1 0.1-0.1 0.2 -0.3-0.3 0.3-0.5 0.3-0.8 0.3 0.1 0.3-0.2 0.6-0.1 0.1 0 0.1-0.2 0.1-0.4 0.1 0 0.2 0 0.3 0 0 0.1 0.1 0.1 0.2 0.1 0-0.1-0.1-0.1-0.2-0.1 0.1-0.2 0.2-0.5 0.5-0.5 -0.1-0.1-0.1-0.3 0.1-0.4 0-0.1-0.1-0.2-0.3-0.2 0-0.1 0.2-0.2-0.1-0.2 0-0.2 0-0.4 0-0.6 0.4-0.1 0.1 0.4 0.4 0.4 0.1 0.1 0.1 0.2 0.1 0.3 0.2 0 0.3-0.4-0.1-0.3 0-0.1 0-0.2 0.2-0.2 -0.2-0.1-0.3-0.2-0.4-0.4 0.3-0.2 0.4-0.7 0.6-1 -0.1 0.4 0.3 0 0 0 0-0.1 0-0.1 0-0.2 0.4-0.3 0.4-0.4 0.5-1.1 0.4 0 0.4 0.3 0.8 0.3 0 0.2 0.2 0.2 0.1 0.5 0.1 0.1 0.2 0 0.2 0 0.2 0.1 0.2 0.7 0.4 0.3 0.2 0 0 0.4-0.1 0.4 0.2 0.5 0 1.3-0.1 1.9 0.3 1.1-0.4 2.4-0.3 3.3 -0.4 1.1-0.3 1.9-0.4 2.9 -0.2 0.8-0.3 1.7-0.4 2.8 -0.3 0.8-0.2 1.3-0.4 2.2 -0.1 0.3 0.1 0.3 0.1 0.5 0 0.6-0.3 1-0.2 1.8 0 0.2-0.1 0.3-0.2 0.4 0.3 0.5 0.2 1.2 0.1 1.9 -0.1 0-0.2 0-0.2 0.2 -0.5 0.1-0.5-0.3-1-0.2 -0.3-0.1 0-0.9-0.5-0.8 0.1-0.2-0.1-0.6 0.1-0.6 -0.1-0.2-0.3-0.3-0.5-0.4 -0.2-3.9 1-8 1.8-12.2 -0.3 0.1-0.4 0.4-0.6 0.7 -0.2 0.2-0.5 0.4-0.5 0.8 -0.1 0.1-0.2 0.1-0.4 0.2 0 0.5-0.2 0.8-0.5 0.9 0 0.1 0 0.3 0.1 0.3 -0.5 0.7-1 1.4-1.5 2.1 0 0.2 0.2 0.2 0.1 0.5 -0.4 0.6-0.8 1.3-1.1 2.1 0 0.1 0 0.2 0.2 0.2 -0.3 0.4-0.4 1-0.4 1.4 0 0.1-0.2 0.1-0.3 0.2 0 0.1 0.1 0.2 0.1 0.4 -0.3 0.2-0.5 0.6-0.6 1 -0.1 0-0.3 0-0.4 0 0.3 0.3-0.2 0.6-0.1 1.1 -0.1 0-0.2 0.1-0.3 0 0 0.3-0.1 0.5-0.3 0.6 0 0.5-0.3 0.7-0.4 1.1 -0.4 0.2-0.5 0.7-1 0.9 0 0.1 0 0.2 0 0.3 -0.5 0.1-0.9 0.3-1.2 0.6 -0.4-0.1-0.6-0.3-0.9-0.5 0-0.1 0-0.2 0-0.3 0.1-0.1 0-0.1 0 0 -0.3-0.1-0.3-0.4-0.6-0.4 0-0.1 0-0.3 0.1-0.3 -0.2-0.2-0.5-0.5-0.7-0.8 -0.1-1.2 0-2.5-0.1-3.3 -0.4 0-0.4 0.3-0.6 0.6 -0.1 0-0.1 0.1-0.3 0.1 -0.3 0.5-0.8 0.7-1.1 1.2 -0.1 0-0.1-0.1-0.2-0.1 -0.1-0.1-0.1 0 0 0 0 0.1 0 0.1 0 0.2 -0.8 0-1.4 0.9-2.2 1.2 -0.4 0.2-0.6 0.6-1.1 0.7 0.1-0.3 0.4-0.3 0.5-0.6 -0.5 0-0.6 0.5-1.1 0.6 -0.2 0.2-0.5 0.3-0.7 0.6 -0.9 0.1-1.3 0.6-2.2 0.6 0-0.1 0-0.2 0-0.3 -0.1 0-0.1 0.2-0.1 0.3 -0.2 0-0.3-0.1-0.3-0.2 -0.1 0.2-0.4 0.2-0.6 0.4 0 0.1 0 0.4-0.1 0.4 0 0.1 0.1 0.2 0.3 0.2 0.2 0.3-0.2 0.5 0.2 0.6 -0.1 0.5 0.1 0.8 0.4 1.1 0 0.9 0.2 1.6 0.4 2.4 -0.3-0.1-0.2 0.2-0.1 0.3C91 35.9 91 36 91 36.1c0.1 0 0.1-0.1 0.1-0.2 0.3 0.3-0.1 1.1 0.2 1.4 -0.2 0.6-0.1 1.3-0.2 2 0.2 0.5 0 1.2 0.2 1.9 -0.1 0.1-0.1 0.4-0.3 0.4 0 0.2 0.3 0.1 0.2 0.4 0 0.1 0 0.2-0.2 0.2 0.3 0.1 0.2 0.9 0 1.1 0 0.3 0.2 0.4 0.2 0.7 -0.4 0 0.1 0.2-0.2 0.4 0 0.3 0 0.5 0 0.8 0 0.2-0.1 0.2-0.1 0.4 -0.1 0.3 0.1 0.3 0.1 0.5 -0.3 0.6 0 1.3-0.5 1.8 0.2 0.4-0.2 0.7-0.1 1.3 -0.3 0.4-0.3 1-0.5 1.5 -0.1 0-0.1 0-0.2 0 0 0.2 0 0.4 0 0.6 -0.2 0.5-0.5 1-0.6 1.7 -0.3 0-0.2 0.4-0.4 0.5 0 0.9-0.6 1.3-0.7 2.2 -0.4 0.3-0.3 1-0.8 1.2 0.1 0.6-0.4 0.6-0.4 1.2 -0.1 0-0.1-0.1-0.2-0.1 -0.2 0 0 0.2 0.1 0.2 -0.2 0.4-0.6 0.7-0.7 1.3 -0.2 0-0.2 0.3-0.5 0.3 0.1 0.6-0.6 0.4-0.5 1 -0.5 0.2-0.8 0.5-1.6 0.4 -0.4-0.3-0.7-0.6-0.9-1.1 0.1 0 0.1-0.2 0.1-0.3 -0.2-0.3-0.3 0.3-0.5 0 -0.1-0.6-0.7-1.1-0.5-1.7 0-0.2-0.3-0.2-0.3-0.4 0-0.3 0-0.6-0.1-0.7 0-0.1 0-0.2 0.2-0.2 -0.2-0.2-0.4-0.7 0-0.9 -0.1-0.1-0.2-0.2-0.3-0.3 0.1-0.5 0.2-0.7 0.1-1.3 0.1 0 0.1-0.1 0.2-0.1 -0.3-1.3 0.3-2.5 0.3-3.6 -0.1-0.3 0.2-0.2 0.2-0.4 0-0.2 0-0.4 0-0.6 0.3-0.3 0.3-0.9 0.4-1.5 0.4 0 0.1-0.7 0.4-0.8 0-0.2-0.1-0.2-0.1-0.4 0.3-0.4 0.4-0.9 0.5-1.6 0.2 0 0.2-0.2 0.2-0.5 0.1 0 0.2 0 0.3 0.1 0.1-0.3-0.3-0.2-0.2-0.5 0.2 0 0.1-0.4 0.3-0.4 0-0.7 0.4-0.9 0.4-1.8 0.3-0.3 0.4-0.9 0.6-1.4 0.1 0 0.1 0.2 0.2 0.2 0.3 0-0.1-0.5 0.3-0.4 0-0.1-0.2-0.1-0.3-0.1 0.1-0.5 0.2-0.8 0.3-1.2 0 0 0.1-0.3 0.1-0.4 0 0 0.2-0.1 0.2-0.1 0-0.1 0-0.2 0-0.3 0.1-0.2 0.3-0.4 0.2-0.8 0.5-0.3 0.4-1.2 0.8-1.7 -0.1-1.2 1-1.7 0.7-2.5 -0.7 0.2-0.9 0.8-1.7 1 0-0.1-0.1-0.1-0.2-0.1 0-0.2-0.5-0.6-0.1-0.7 -0.1-0.2-0.3-0.3-0.4-0.5 0.1-0.5-0.2-1.1-0.3-1.8 -0.4-0.3-0.3-1-0.5-1.5 0.1-1-0.1-2.3 0.3-3.1 -0.2-0.5 0.1-1 0.1-1.6 0.1-0.3-0.2-0.2-0.2-0.4 0-0.4 0.2-0.5 0.1-1 -0.3 0.1-0.2 0.4-0.5 0.5 0 0.7-0.5 1-0.6 1.7 -0.3 0-0.1 0.4-0.4 0.4 -0.1 1.1-0.8 1.5-0.9 2.6 -0.7 1.1-0.6 2.9-1 4.4 0 0.1 0 0.2 0.1 0.3C81.1 34.5 81 35 81 35.7c-0.2 0-0.3 0.1-0.3 0.2 -0.2-0.2-0.5-0.2-0.8-0.3 -0.1-0.3-0.2-0.7-0.5-0.9 -0.2 0-0.3 0-0.3 0.2 -0.2 0-0.3 0-0.3 0.2 0 0.1 0.1 0.1 0.1-0.1 0.1 1-0.7 2-0.9 3 -0.3 0.2-0.4 0.6-0.7 0.9 -0.2 0-0.4 0-0.6 0 -1-0.2-1.5-0.8-2.2-1.3 0-0.4-0.4-0.3-0.4-0.7 -0.2 0-0.2-0.1-0.4-0.1 -0.1-0.6-0.4-1.1-1-1.4 0-0.3-0.2-0.2 0-0.4 -0.2-0.3-0.5-0.5-0.7-0.8 -0.3 0.1-0.5-0.3-0.7 0 -0.2 0-0.1-0.4-0.4-0.3 -0.1 0-0.1 0.2-0.1 0.4 -0.2 0.1-0.3 0.2-0.4 0.4 -0.2 0.1-0.5 0.2-0.5 0.5 -0.3-0.1-0.4 0.1-0.5 0.3 -0.3-0.1-0.4 0.1-0.5 0.3 -0.1 0-0.2 0-0.3 0 -0.2 0.3-0.6 0.5-0.9 0.8 0.1 0.4-0.4 0.3-0.4 0.7 -0.4 0-0.4 0.3-0.7 0.1 -0.2 0.2-0.5 0.4-0.8 0.5 -1.1 0.9-2.4 1.7-3.4 2.6 -0.1 0-0.2 0-0.3-0.1 0 0.2 0 0.4-0.1 0.5 -0.1 0-0.2 0-0.3-0.1 -0.5 0.4-1.2 0.7-1.8 1.1 -0.3 0.3-0.7 0.5-0.9 0.9 -0.1 0-0.1 0-0.2 0 -0.4 0.5-1 0.8-1.5 1.2 -0.4 0.4-0.9 0.7-1.4 1 -0.1 0-0.1 0.2-0.2 0.3 -0.5 0-0.9 0.1-1.3 0.2 -0.3 0.1-0.2-0.2-0.4-0.2 -0.9 0.1-1.2-0.4-1.6-0.9 -0.1-0.3 0.1-0.3 0.1-0.5 0-0.1-0.2 0-0.2 0.1 -0.5-0.7-0.3-1.3-0.6-1.8 -0.4 0.5-0.2 1.7-0.3 2.6 0.2 0.3 0.3 1 0.1 1.4 -0.6 0.1-0.7-0.3-1.1-0.1 0-0.1-0.1-0.1-0.1-0.3 -0.3-0.1-0.3 0.1-0.5 0.1 -0.2-0.2-0.1-0.6-0.5-0.6 0.1-0.4-0.2-0.4-0.1-0.8 -0.2-0.2-0.5-0.5-0.5-1 -0.1-0.3-0.4-0.2-0.4-0.6 0.4 0 0-0.8 0.4-0.8 0-0.2-0.3-0.1-0.3-0.2 -0.1-0.3 0.3-0.2 0.5-0.2 0-0.3 0.2-0.6 0.1-1 0-0.3 0.3-0.2 0.1-0.6 0.2 0 0.3-0.1 0.3-0.2 0-0.2 0-0.3-0.1-0.4 0.1-0.3 0.3-0.4 0.2-0.9 0.1 0 0.1 0 0.2 0 -0.2-0.7 0.2-0.9 0.2-1.8 0.1 0 0.1-0.2 0.2-0.2 0.1 0.1 0.1 0 0 0 0-0.4 0.2-1.2 0.4-1.1 0 0.1 0.1 0.1 0.2 0.1 0-0.1-0.1-0.1-0.2-0.1 0-0.1 0-0.2-0.1-0.3 0.1-0.6 0.4-1.2 0.3-1.7 -0.1-0.3 0.2-0.2 0.3-0.3 -0.2-0.3 0-0.5 0-1 -0.3 0-0.1 0.5-0.4 0.5 -0.1 0.2-0.1 0.5-0.4 0.6 0.1 0.1 0.1 0.3 0.1 0.5 -0.4 0-0.3 0.5-0.5 0.7 -0.1 0.3-0.2 0.6-0.4 0.8 -0.2 1.1-0.5 1.9-0.9 2.5 0 0.1 0 0.3 0.1 0.3 -0.3 0.5-0.5 1.1-0.7 1.8 0 0.2 0.1 0.2 0.2 0.3 -0.1 0.5-0.5 0.7-0.5 1.3 0 0.1 0.1 0.1 0.2 0.1 -0.3 0.1 0 0.4-0.1 0.8 -0.1 0-0.1 0-0.2 0 0 0.6-0.2 1.1-0.5 1.5 -0.2 1.3-0.7 2.4-0.9 3.7 0 0.3 0 0.7 0 1 -0.3 0.1-0.5 0.2-0.6 0.5 -0.7-0.2-1.1-0.7-1.7-1.1 0-0.2-0.1-0.3-0.2-0.3 -0.1-0.9-0.7-1.4-0.8-2.4 0-0.1-0.1-0.2-0.2-0.2 0-0.6-0.1-1.1-0.4-1.5 -0.1-1-0.5-1.9-0.7-2.8 -0.1-0.7-0.4-1.3-0.6-2 -0.1-1-0.3-1.8-0.7-2.5 -0.3 0.2-0.4 0.5-0.4 1 -0.5 0.6-0.7 1.3-0.9 2.2 -0.2 0.2-0.4 0.5-0.4 0.9 -0.4 0.2-0.3 0.9-0.7 1.1 0 0.9-0.6 1.2-0.7 2.1 -0.1 0-0.2 0.2-0.3 0.2 0.2 0.2-0.2 0.4-0.1 0.8 -0.4 0.3-0.5 0.8-0.6 1.4 -0.4 0.3-0.4 1-0.8 1.4 0 0.7-0.5 1-0.5 1.7 -0.3 0-0.1 0.4-0.3 0.4 0-0.1-0.1-0.1-0.2-0.1 0 0.2 0.1 0.1 0.2 0.1 -0.1 0.6-0.4 1-0.5 1.6 -0.1 0-0.1 0.1-0.3 0.1 0.2 0.3-0.1 0.9-0.4 1.1 0.1 0.3-0.1 0.7-0.3 0.9 0 0.9-0.5 1.3-0.6 2.2 -0.1 0.1-0.2 0.2-0.3 0.3 0 0.7-0.2 1.3-0.5 1.7 0-0.1 0-0.2 0-0.3 -0.1 0-0.1 0.3 0 0.3 0 0.1 0 0.3 0 0.4 -0.3 0.7-0.4 1.4-0.5 2.2 -0.2 0-0.1 0.3-0.4 0.2 0 0.1 0.1 0.2 0.1 0.4 -0.3-0.3-0.4 0-0.7 0.1 -0.4-0.1-0.6-0.3-1-0.5 -0.1-0.5-0.4-0.8-0.5-1.3 0.2-0.6 0.1-1 0.2-1.6 0.2 0 0.3 0 0.4 0.1 0.2-0.1 0.2-0.3 0.2-0.6 0-0.2-0.3 0-0.4 0 -0.1-0.6 0.3-0.9 0.1-1.3 0.2 0 0.1-0.4 0.3-0.5 0.1-0.3-0.1-0.8 0.4-0.8 0 0.1 0 0.2-0.1 0.2 -0.1-0.1-0.1 0 0 0 -0.1 0.3-0.1 0.4 0.1 0.6 0.3-0.4 0.5-0.9 0.6-1.5 -0.2 0-0.2 0.1-0.2 0.3 -0.2 0-0.4 0-0.4-0.2 0-0.4 0.1 0 0.3-0.1 0.1-0.3-0.1-0.4-0.1-0.6 0.4-0.3 0.2-0.6 0.4-1.1 0.2 0.1 0.5 0 0.5 0.3 0.2 0-0.1-0.4 0.3-0.3 0-0.6 0.1-1.2 0.6-1.5 0-0.3 0-0.5 0-0.8 -0.1-0.1-0.5 0.2-0.5 0.5 -0.5-0.4 0.4-0.9 0.4-1.4 0.1 0 0.2 0 0.2 0.2 0.3-0.1 1-1 0.6-1.1 0.4-0.3 0.8-1 0.6-1.6 0.3-0.2 0.5-0.6 0.5-1.1 0.2-0.1 0.2-0.4 0.6-0.3 -0.5-0.4 0.6-1 0.1-1.7 -0.4-0.1-0.1 0.5-0.5 0.4 0.1-0.4 0.2-0.7 0.4-1 0.3-0.1 0.2 0 0.6 0 0-0.1 0-0.2 0-0.3 0-0.3-0.3 0.3-0.3 0 -0.1-0.3 0-0.4 0.3-0.3 0-0.2-0.2-0.1-0.2-0.3 0.3-0.3 0.3-1.6 1-1.9 0-0.2 0-0.3 0.2-0.3 -0.1-0.2-0.2-0.7 0.2-0.7 0.4-0.1-0.1 0.3 0.2 0.5 0.1 0 0.5-0.3 0.2-0.4 -0.2-0.2 0.1-0.2 0.1-0.5 0.1 0 0.1 0.1 0.2 0.1 0.1-0.2 0-1.2 0.6-1.2 -0.2-0.5 0.3-0.8 0.2-1.5 0.3 0 0.4-0.1 0.4-0.4 0-0.1-0.2-0.1-0.2-0.2 -0.3 0.1-0.2 0.7-0.6 0.8 0 0.5-0.2 0.9-0.2 1.1 -0.1 0-0.1 0-0.2 0 0-0.2 0.1-0.3 0-0.3 0.4-0.8 0.6-1.9 1.3-2.4 0-0.3-0.2-0.4 0.1-0.5 0 0.2 0.1 0.2 0.2 0.3 0.1-0.2 0.2-0.3 0.5-0.4 0-0.1-0.2-0.2 0.1-0.2 0-0.2 0-0.3 0-0.5 -0.1-0.3-0.4 0-0.6 0 0.4-0.2 0.3-0.7 0.5-1.4 -0.4 0.1-0.5 0.5-0.6 0.9 -0.2 0-0.1 0.3-0.4 0.2 -0.3 0.9-0.8 1.5-1.3 2.2 -0.1 1-0.8 1.4-1.1 2.2 -0.1 0-0.1 0-0.2 0 0 0.1 0 0.3 0 0.4 -0.5 0.5-0.6 1.3-1.2 1.8 0 0.1 0 0.3 0 0.4 -0.3 0.4-0.7 0.9-0.8 1.6 -0.5 0.5-0.7 1.1-1 1.9 -0.4 0.2-0.5 0.7-0.6 1.3 -0.2 0-0.2 0.3-0.4 0.3 0 0.2 0 0.3 0 0.5 -0.4-0.1-0.1 0.4-0.4 0.4 0.1 0.5-0.3 0.4-0.1 0.8 -0.3 0.4-0.5 1-0.7 1.5 -0.2 0.2-0.2 0.5-0.4 0.7 -0.3 0.1-0.1 0.7-0.5 0.7 0.1 0.5-0.3 0.6-0.3 1 -0.1 0.1-0.2 0.1-0.4 0.2 -0.3 0.9-1 1.3-1.4 2.1 -0.2 0-0.3 0.1-0.4 0.2 -0.3 0-0.3-0.3-0.8-0.2 -0.1-0.2-0.5-0.6-0.3-0.8 0-0.2-0.3-0.1-0.4-0.2 0.1-0.3-0.3-0.6 0.1-0.6 0-0.1-0.2-0.1-0.2-0.2 0.2-0.3-0.1-1.1 0.4-1.1 -0.3-0.2 0-0.6 0-0.8 0-0.1-0.1-0.1-0.1-0.2 0-0.3 0.3-0.5 0.2-0.9 0.1 0 0.1 0 0.2 0 -0.2-0.4 0.3-0.8 0.2-1.5 0.4-0.6 0.4-1.6 0.7-2.2 0-0.1 0-0.2 0.2-0.2 0-0.2-0.1-0.2-0.1-0.4 0.2-0.3 0-0.9 0.5-1 -0.4-0.1 0.2-0.8-0.3-0.9 0 0.4-0.6 0.9-0.7 1.5 -0.1 0-0.2 0-0.3 0 0.1 0.4-0.4 0.8-0.2 1.1 -0.5 0.8-0.9 1.5-1.5 2.2 0 0.2 0 0.5 0 0.7 -0.4 0.1-0.2 0.7-0.7 0.8 0 0.4-0.1 0.7-0.5 0.8 0.3 0.3-0.3 0.4-0.2 0.8 -0.3 0.3-0.7 0.7-0.8 1.3 -0.5 0.6-0.9 1.4-1.3 2.2 -0.6 0.3-0.9 1-1.4 1.5 -0.2-0.2-0.2-0.2-0.4 0 -0.3-0.1-0.3-0.4-0.8-0.3 -0.3-0.6-0.1-1.1-0.6-1.5 -0.1-2 0.1-3.8 0.8-5.7 0-0.1-0.1-0.1-0.2-0.1 0.1-0.5 0.7-0.9 0.5-1.5 0.2-0.1 0.2-0.4 0.4-0.5 -0.1-0.6 0.3-0.6 0.1-1.1 0.3-0.1 0.1-0.6 0.5-0.7 0-0.7 0.4-1 0.4-1.6 0.1 0 0.1 0 0.2 0 0-0.1 0-0.2-0.1-0.2 0.1-0.1 0.2-0.4 0.4-0.5 -0.1-0.7 0.4-0.7 0.4-1.3 0.1 0 0.2 0 0.3 0 0-0.2-0.2-0.1-0.2-0.3 0.4 0 0.2-0.5 0.6-0.5 -0.3-0.6 0.3-0.6 0.3-1.2 0.1 0 0.2 0 0.3 0.1 -0.2-0.5 0.2-1.1 0.6-1.4 0.2-0.6 0.4-1.1 0.9-1.4 0-0.1 0-0.3 0-0.4 0.2-0.1 0.4-0.5 0.7-0.3 0-0.2-0.2-0.2-0.1-0.5 0.4 0-0.1-0.3 0.3-0.4 0-0.3 0.3-0.3 0.3-0.7 0.1 0 0.2-0.1 0.4-0.1 0.1-0.2 0.1-0.5 0.2-0.7 0.4 0.3 0.7 0.1 1.1 0.4 0.2 0 0.4-0.2 0.7-0.1 0.3 0 0.4 0.4 0.7 0.1 0.3 0 0.3 0.3 0.7 0.3 0 0.1 0 0.2 0 0.3 0.1 0.2 0.2-0.1 0.3 0.1 0.3 0.7 0.8 1 1.4 1.4 0.2 0 0.5 0 0.7 0 0.1 0.2 0.2 0.3 0.3 0.5 0 0.4-0.1 0.7-0.4 0.8 -0.1 0.6-0.7 1.2-0.6 1.8 -0.2 0.2-0.3 0.5-0.3 0.9 -0.6 0.7-0.6 2-1.1 2.7 0.1 0.8-0.4 1.4-0.3 2 -0.1 0-0.2 0.1-0.2 0.2 0.1 0.7-0.3 1-0.3 1.9 -0.1 0-0.1 0.1-0.3 0.1 0.1 0.6-0.1 1-0.1 1.6 0.3 0 0.2-0.8 0.6-0.4 -0.1-0.3 0.1-0.4 0.3-0.5 -0.2-0.3 0.1-0.7 0.2-1.1 0.3-0.1 0.3 0.2 0.5 0 0.1-0.3-0.3-0.1-0.2-0.5 0.3-0.1 0.8 0 0.7-0.5 0.1 0 0.1 0.2 0.2 0.2 0.2 0 0-0.3 0.1-0.5 0-0.1-0.2-0.1-0.4-0.1 -0.1-0.3 0.1-0.5 0.3-0.3 0-0.2 0.1-0.3 0.2-0.3 0-0.2-0.3-0.1-0.2-0.4 0.3-0.2 0.5-0.5 1-0.6 0-0.2-0.1-0.3-0.3-0.3 0-0.1 0-0.1 0-0.2 0.2-0.1 0.2-0.2 0.4 0 0.2 0 0.2-0.2 0.2-0.4 0 0 0.1 0 0.1 0 0 0.1 0 0.2 0 0.3 0.1-0.2 0.3-0.2 0.4-0.3 0-0.2-0.3 0-0.4 0 0-0.1 0-0.2-0.2-0.2 0.3-0.2 0.2-0.7 0.7-0.7 0-0.2-0.2-0.2-0.1-0.5 0.4-0.1-0.3-0.5 0.2-0.4 0 0.1 0.1 0.1 0.2 0.1 0 0.1-0.2 0.1-0.2 0.2 0.1 0.2 0.2-0.1 0.3 0.1 0-0.1 0-0.3-0.1-0.3 0-0.1-0.1-0.1-0.2-0.1 0-0.1 0-0.1 0-0.2 0.4-0.2 0.1 0.1 0.4 0.2 0.2 0.1 0.2-0.5 0-0.4 0.1-0.2 0.4-0.2 0.4-0.6 0.1 0 0.2 0 0.3 0 0.1-0.4-0.3-0.3-0.1-0.6 0.1 0 0.1-0.1 0.2-0.1 0 0.1 0.2 0.1 0.3 0.1 0-0.1-0.2-0.1-0.3-0.1 0-0.1 0-0.2-0.1-0.2 0.1-0.1 0.1-0.4 0.4-0.3 0.2-0.5 0.1-0.7 0.4-1.2 0.2 0 0.1 0.3 0.2 0.4 0.1-0.1 0.3-0.6 0.1-0.8 0.1-0.1 0.4-0.4 0.2-0.5 0.1-0.2 0.3-0.2 0.5-0.3 0-0.2-0.2-0.3 0-0.5 0 0 0.1 0 0.1 0 0.2 0.2-0.1 0.3 0.1 0.5 0.1-0.1 0.2-0.3 0.3-0.4 -0.1-0.3-0.1-0.1-0.4-0.1 0-0.3 0.2-0.3 0.4-0.2 -0.2-0.4 0.2-0.3 0-0.7 0.1 0 0.2 0 0.3 0 0-0.2-0.2-0.3 0-0.5 0.3-0.1 0.2 0.3 0.2 0.5 0.2-0.1 0.3-0.2 0.5-0.3 0.3-0.6-0.4-1.3 0.4-1.4 0 0 0 0.2 0 0.2 -0.4-0.1-0.2 0.4 0 0.4 0.2 0 0-0.3 0-0.4 0.4 0 0.1-0.6 0.3-0.8 0.3 0-0.1 0.7 0.3 0.6 0.2-0.2 0-0.2-0.1-0.5 0.1 0 0.3 0 0.4 0 0.1-0.1 0.1-0.3 0.1-0.5 0.1-0.1 0.6 0 0.5-0.4 0-0.3-0.4 0.2-0.4-0.1 -0.3-0.4 0.4-0.5 0.4-1 0.2 0 0.1-0.3 0.4-0.2 0-0.2-0.2-0.1-0.2-0.3 0.2-0.2 0.2 0.1 0.4 0.2 0.1-0.2 0.3-0.3 0.4-0.5 0-0.4-0.4-0.4-0.3-0.9 0.3 0 0.3 0.2 0.3 0.5 0.1 0 0.3 0 0.4 0 0 0 0 0.1 0 0.1 0.1 0 0.1-0.1 0-0.1 -0.1-0.3 0.2-0.3 0.1-0.6 0-0.1 0.4-0.3 0.2-0.3 0.2-0.2 0.5-0.4 0.8-0.6 -0.1-0.2-0.2-0.4 0.2-0.4 -0.2-0.5 0.2-0.8 0.1-1.1 0-0.2 0.2-0.1 0.3 0 0-0.3 0.1-0.6-0.3-0.6 0.1-0.2 0.3-0.3 0.7-0.3 -0.1-0.2 0.3-0.4 0-0.5 0-0.1 0.1-0.1 0.2-0.1 0-0.2 0-0.4 0-0.6 0.3 0.1 0.2-0.2 0.4-0.2 0-0.2 0-0.4 0.2-0.4 0-0.1 0-0.3 0-0.4 0.2 0 0.1-0.3 0.3-0.3 0.2-1.2 0.9-2 1.3-3.1 0.2 0 0.1-0.3 0.3-0.3 0-0.1 0-0.3 0-0.4 0.4-0.3 0.3-1 0.7-1.3 0-0.3 0-0.6 0.1-0.7 0.3 0.1 1 0.1 0.9 0.4 -0.1 0.1 0 0.1 0 0 0.1 0 0.4 0.2 0.4 0 0.2 0.1 0.3 0.3 0.7 0.2 0.1 0.2 0.1 0.5 0.5 0.4 -0.2 0.3 0.1 0.2 0.1 0.6 -0.3 0.4-0.7 0.7-0.7 1.4 -0.1 0-0.1 0.1-0.3 0.1 0 0.6-0.2 1-0.4 1.4 -0.1-0.1-0.1 0 0 0 -0.2 0.1-0.1 0.5-0.4 0.6 0.2 0.3-0.3 0.5-0.1 0.6 0 0.1-0.1 0.2-0.3 0.2 0 0.3-0.1 0.5-0.3 0.7 0 0.3 0 0.7-0.3 0.8 -0.1 0.5-0.3 1-0.6 1.3 0.1 0.3-0.1 0.4-0.1 0.7 -0.2 0-0.1 0.3-0.3 0.3 -0.1-0.1-0.1 0 0 0 0 0.1 0.1 0.1 0.1 0.3 -0.3 0.1-0.3 0.4-0.3 0.8 -0.4 0.4-0.5 1-0.6 1.8 -0.1 0-0.2 0-0.3 0.1 -0.1 0.9-0.5 1.2-0.6 2 0.1 0.3 0.2-0.2 0.4-0.2 0.1-0.2 0.3-0.2 0.5-0.3 0.5-0.4 0.9-0.8 1.5-1.1 0.1 0 0.1-0.2 0.2-0.3 0.3 0 0.3-0.2 0.6-0.2 0.6-0.7 1.4-1.2 2.2-1.7 0.1 0 0.1-0.2 0.1-0.3 0.2 0 0.2-0.1 0.4-0.1 0.3-0.3 0.6-0.5 0.8-0.8 0.6 0 0.9-0.8 1.4-0.6 0.1 0 0.2-0.1 0.2-0.3 0.4 0.3 0.8 0.4 0.7 1 0 0.2 0.3 0.1 0.4 0.2 -0.3 0.2-0.7 0.3-1 0.5 -0.4 0.4-0.8 0.9-1.5 1.1C49 28.3 47.7 29 46.6 30c-0.4-0.1-0.5 0.4-0.8 0.2 -0.2 0-0.1 0.3-0.2 0.4 -0.5 0.2-0.9 0.5-1.2 0.9 -0.2 0-0.2 0.1-0.4 0.1 -0.5 0.5-1.3 0.8-1.8 1.3 -0.2 0.9-0.7 1.5-0.9 2.3 0.1 0.9 0.7 1.2 0.7 2.2 0.3 0.5 0.4 1.3 0.8 1.8 0 0.5 0.1 0.9 0.3 1.3 0.1 0.3 0.5 0.9 0.4 1.1 0.2 0.3 0.5 1.1 0.4 1.4 0.5 0 0.2 0.8 0.6 0.9 0 0 0 0.1 0 0.1 0.1 0 0.1-0.1 0-0.1 0.2-0.2 0.2-0.6 0.6-0.6 -0.1-0.5 0.5-0.8 0.3-1 0.1-0.2 0.4-0.3 0.5-0.6 -0.1-0.1-0.3-0.2-0.3-0.4 0.2-0.5 0.3-0.9 0.7-1.2 0-0.2-0.2 0.1-0.2-0.1 0-0.4 0.3 0 0.4-0.2 0-0.2 0-0.5 0-0.7 0.5-0.1 0-0.5 0.5-0.6 0-0.2-0.1-0.2-0.1-0.4 0.4-0.2 0.1-0.4 0.4-0.8 0.2 0.1 0.5 0.1 0.5 0.4 0.1-0.3 0.7-0.4 0.4-0.8 -0.3 0-0.1 0.4-0.3 0.4 -0.2 0-0.3-0.2-0.4-0.4 0.4 0.3 0-0.6 0.5-0.4 -0.2-0.2 0-0.2 0-0.5 0.2 0.2 0.3-0.1 0.3-0.3 0.1 0 0.1-0.1 0.1-0.2 -0.1 0-0.1 0.1-0.1 0.2 -0.3-0.4 0.2-0.7 0.5-0.8 0.2 0.2-0.1 0.8-0.4 0.9 0.1 0.1 0.1 0.4 0.3 0.4 0.5 0 0.3-0.7 0.7-0.8 0-0.1-0.1-0.1-0.1-0.3 0.3-0.2 0.3-0.5 0.6-0.7 0-0.3 0-0.5 0.1-0.8 -0.1-0.3-0.4 0.1-0.5-0.1 0 0.2 0.2 0.2 0.1 0.5 -0.1 0-0.2 0-0.3 0.1 0.1 0.4-0.3 0.2-0.2 0.6 -0.1-0.1-0.3-0.1-0.5-0.1 0.1-0.3 0.5-0.2 0.6-0.4 0.1-0.4-0.2-1 0.2-1.1 0 0.1 0 0.1 0 0.2 0.1 0 0.1-0.2 0-0.2 0-0.2 0.2-0.2 0.1-0.5 0.1 0 0.1 0.1 0.2 0.1 0 0.2-0.1 0.3-0.1 0.4 0.1 0.2 0.3 0.2 0.6 0.2 0-0.1 0.1-0.4 0.3-0.6 -0.2-0.2-0.4 0.1-0.8 0 0-0.2 0-0.3 0.2-0.3 0 0.1 0 0.2 0.1 0.2 0-0.1 0-0.2-0.1-0.2 0-0.1-0.1-0.1-0.2-0.1 0.2-0.1 0.4-0.4 0.7-0.5 0.1-0.3 0-0.4-0.3-0.3 0.2-0.5 0.7-0.9 0.8-1.6 0.3 0.1 0.1-0.3 0.4-0.2 -0.1-0.2 0.3-0.4 0-0.5 0.1-0.3 0.4-0.5 0.4-0.9 0.1 0 0.1-0.1 0.3-0.1 -0.2-0.2 0.3-0.5 0.3-0.9 0.1-0.2 0.5 0 0.4-0.3 0.2 0 0.4 0 0.4-0.2 0-0.2-0.5 0-0.4 0.2 -0.4 0-0.1-0.3-0.1-0.5 0.1 0 0.1 0.1 0.1 0.2 0.4-0.3 0.2-0.3 0.1-0.8 0.1-0.1 0.3-0.1 0.6-0.1 0-0.2-0.2-0.3-0.2-0.5 0.5-1.2 1.1-2.6 1-4 0.4 0 0.5 0.1 0.8 0 0.2 0 0.3 0.2 0.4 0.3 0.3-0.2 0.4 0 0.8 0.1 0.2 1.7-0.8 2.9-1 4.5 -0.1 0.1-0.2 0.3-0.4 0.3 0.1 0.4-0.2 0.6-0.1 1.1 -0.3 0.3-0.1 1.1-0.5 1.3 0.2 0.9-0.5 1.7-0.4 2.9 0 0.2-0.1 0.4-0.3 0.6 0 0.1 0.1 0.1 0.1 0.3 -0.1 0.3-0.1 0.8-0.3 1.1 0 0.2 0.1 0.2 0.1 0.4 -0.2 0.4 0.1 1.3-0.4 1.6 0 0.2 0.2 0.3 0.1 0.6 -0.1 0.3 0 0.9-0.3 1.2 0.1 1.1-0.4 1.6-0.4 2.8 0.2-0.7 0.5-1.4 0.6-2.2 0.3-0.1 0.1-0.6 0.4-0.6 0-0.1-0.1-0.1-0.1-0.3 0.3-0.1 0.2-0.7 0.5-0.9 0-0.4 0.1-0.7 0.2-1.1 0-0.2-0.4 0-0.6-0.1 0-0.2 0.2-0.2 0.1-0.5 0.5 0.1 0.5-0.3 0.9-0.3 0.4-0.3 0.4-1.1 0.9-1.4 -0.1-0.6 0.3-0.8 0.4-1.3 0.1 0 0.1 0.1 0.1 0.2 0.2-0.1 0-0.6 0.1-0.9 0.2-0.4 0.5-0.6 0.6-1.2 0.2-0.2 0.5-0.4 0.5-0.9 0.2 0 0.1-0.3 0.4-0.2 0-0.5 0.4-0.5 0.4-1 0.3-0.2 0.6-0.5 0.7-1 0.1 0 0.2 0 0.3 0 -0.1-0.3 0.1-0.3 0.1-0.5 0.1-0.1 0.2-0.1 0.4-0.2 0-0.5 0.5-0.5 0.5-1 0.5-0.3 0.7-0.9 1.4-1.2 0-0.2 0-0.3 0.1-0.4 0.6-0.3 0.9-0.9 1.7-1.1 0.2-0.1 0.2-0.3 0.4-0.4 0.4 0 1.1-0.1 1.4 0.1 0.3 0 0.2-0.2 0.4 0 0.9 0.2 1.5 0.8 2.2 1.1 0.1 0.1 0.1 0.4 0.4 0.4 0 0.1 0 0.2 0.1 0.2 0.2 0.8-0.1 1-0.1 1.9 -0.3 0.3-0.4 0.8-0.8 1 0 0.1 0 0.2 0 0.3 -0.4 0.4-0.8 0.8-1 1.5 -0.3-0.1-0.2 0.2-0.4 0.2 -0.4 0.4-1 0.7-1.3 1.2 -0.3 0.1-0.5 0.3-0.7 0.5 -0.3 0.1-0.5 0.3-0.7 0.6 -0.1 0-0.1 0-0.2 0 -1 0.7-1.8 1.6-2.9 2.2 -0.1 0-0.1 0.1-0.1 0.2 -0.9 0.4-1.3 0.7-2.3 1 -0.7 0.9-0.8 2.5-1.5 3.4 0 0.1 0 0.4 0.1 0.4 -0.2 0.2-0.2 0.4-0.2 0.8 -0.1 0-0.1 0.2-0.2 0.2 0.3 0.3-0.3 0.4 0 0.6 -0.3 0.4-0.3 1.2-0.6 1.8 0.2 0.2 0.7 0.1 0.7-0.2 0.1 0 0.2 0 0.2 0.2 0.3-0.2 0-0.5 0.4-0.7 0.1 0 0.1 0.2 0.1 0.3 0.1 0 0.2-0.1 0.2-0.2 0.1-0.1 0-0.1 0 0 -0.3 0 0.2-0.6 0.2-0.3 0.1-0.2 0.3-0.3 0.4-0.5 0.1 0 0.3 0 0.3 0.1 0.2-0.4 0.3-0.5 0.9-0.4 0.3-0.1-0.1-0.2 0-0.4 0.3 0.1 0.2-0.2 0.4-0.2 0 0.1 0.1 0.2 0.3 0.2 0.2 0 0-0.3-0.1-0.3 0.1-0.4 0.7-0.3 0.7-0.8 0.7 0 0.8-0.7 1.2-1 0.2 0.2 0.4-0.1 0.6-0.2 0.3-0.1 0.1 0.3 0.4 0.2 0.2-0.1 0.2-0.4 0.2-0.7 0.3-0.1 0.4-0.5 0.8-0.6 0.3-0.1 0.4-0.5 0.8-0.6 0.2 0 0.2-0.3 0.3-0.4 0.1-0.1 0.2 0 0.3 0 0.2-0.1 0.2-0.5 0.6-0.5 0.1 0 0.1-0.2 0.1-0.3 0.1 0 0.3 0 0.3 0.1 0.1 0 0.1-0.2 0.1-0.4 0.1 0 0.1 0 0.2 0 -0.1 0.4 0.3 0.3 0.4 0.2 0.1 0.2-0.3 0.3 0.1 0.3 0.2 0 0-0.3-0.1-0.3 -0.3-0.3 0.1-0.1 0.2-0.3 -0.1-0.3-0.3 0.1-0.5 0 0.1-0.1 0.1-0.3 0.4-0.3 0-0.3 0.1-0.3 0.4-0.3 0 0.1 0 0.1 0 0.2 -0.1 0-0.1 0-0.1 0.1 0.1 0 0.1 0 0.1-0.1 0.1 0 0.2 0 0.3 0 0-0.2-0.1-0.3-0.2-0.3 0-0.4 0.4 0.3 0.6-0.2 0-0.2-0.2 0.1-0.2-0.1 0.2-0.7 0.6-1 1.3-1.2 0.1-0.1 0-0.1 0 0 -0.1-0.3-0.3-0.5-0.5-0.6 0-0.3 0.1-0.4 0.4-0.4 0.1 0 0.5-0.3 0.5-0.1 0.3-0.3 0.7-0.5 1.1-0.8 0.2 0.1-0.1 0.4 0.1 0.7 -0.1 0-0.2 0-0.2 0.1 -0.1 0-0.1 0-0.2 0 0 0.1 0.2 0.1 0.2 0 0.2 0.2 0.5 0.1 0.6-0.1 0.2 0.1 0.3 0.3 0.6 0.4 0.2-0.3 0.5-0.5 0.5-1.1 0.4-0.6 0.9-1.1 1.5-1.5 0.2-0.2 0.4-0.3 0.6-0.5 0-0.4 0.4-0.5 0.5-0.9 0.4-0.1 0.4-0.6 0.8-0.7 0-0.2 0.1-0.2 0.1-0.4 0.8-0.7 1.5-1.5 2.2-2.4 0.3-0.1 0.3-0.4 0.6-0.5 0.3-0.5 0.8-0.8 1.1-1.3 0.1 0 0.1-0.1 0.3-0.1 0.2-0.6 0.8-0.7 0.9-1.4 0.6-0.1 0.5-0.8 1.1-0.9 0.1 0.3 0.2 0.5 0.5 0.6 0 0.2-0.1 0.5 0.2 0.4 -0.5 0.9-0.9 1.9-1.3 2.9 0 0.6-0.1 1-0.2 1.5 0.2 1.1 0.1 2.2 0 3.1 0 0.1 0 0.2 0.2 0.2 -0.1 0.2-0.3 0.7 0 0.7 -0.1 0.2-0.1 0.4 0.1 0.6 0.3 0.1 0.2-0.3 0.2-0.5 0.2-0.1 0.2-0.4 0.5-0.4 0.1-0.3-0.3-0.1-0.2-0.4 0.4-0.3 0.2-0.4 0.3-1 0.1-0.1 0.3-0.3 0.5-0.4 -0.2-0.2 0.1-0.2 0-0.6 0.3 0 0.3-0.4 0.6-0.5 0-0.1-0.1-0.2-0.1-0.4 0.4-0.1 0.3-0.7 0.6-0.9 0-0.5 0.4-0.6 0.4-1.1 0.1 0 0.1-0.1 0.3-0.1 -0.3-0.5 0.5-0.8 0.5-1.4 0.2-0.2 0.2 0.1 0.4-0.1 0-0.1-0.1-0.2-0.1-0.4 0.1-0.4 0.6-0.5 0.6-1 0.1 0 0.2 0 0.3-0.1 0-0.2 0-0.3 0-0.5 0.6-0.4 0.6-1.5 1.4-1.7 0.2-0.3-0.1-0.4 0.1-0.8 0.1 0 0.2 0 0.3 0 -0.1-0.3 0.2-0.3 0.1-0.6 0.5-0.4 0.7-1.2 1.1-1.8 0.1-1 0.6-1.5 0.7-2.4 0.1 0 0.1 0 0.2 0 0-0.2-0.2-0.3-0.1-0.6 -0.7 0-1.1 0.5-2 0.4 -0.1 0-0.1 0.1-0.1 0.2 -0.6 0-0.8 0.4-1.4 0.4 -0.1 0-0.2 0.1-0.2 0.2 -0.4-0.1-0.8 0.3-1 0.1 -0.6 0.2-1.1 0.6-2 0.6 -0.3 0.3-1 0.2-1.2 0.7 -0.3-0.2-0.9 0-1.2 0.2 -0.3-0.1-0.6 0-0.9 0.2 -0.3 0.1-0.4-0.1-0.6-0.1 -1 0.1-1.9 0.7-2.9 0.5 -0.2 0.1-0.7 0-0.9 0.2 -0.3-0.1-0.7-0.1-1.2-0.1 -0.1-0.5-0.8-0.3-1.1-0.7 0-0.5 0.2-1 0.2-1.8 0.4-0.4 1.1-0.4 1.6-0.8 0.1 0.1 0.3 0.2 0.3 0.5 0.5 0.1 0.6-0.3 1-0.1 0.3-0.1 0.5-0.3 0.8-0.4 0.4 0.1 0.4 0.2 0.9 0.1 0.4-0.3 1.1-0.3 1.6-0.6 0.2 0 0.4 0 0.5 0.1 0.1 0 0.1-0.1 0-0.1 0.3-0.2 0.7-0.3 1.1-0.4 0.2 0.2 0 0.2 0 0.5 0.4 0.1 0.3-0.3 0.6-0.3 0-0.1-0.2-0.1-0.3-0.2 0.1-0.2 0.5-0.2 0.8-0.3 0 0.3 0.5 0.1 0.4 0.5 0.1 0 0.4-0.4 0.2-0.5 0.1-0.1 0.4-0.5 0.6-0.2 -0.1 0-0.1 0.2 0 0.2 0.1 0 0-0.1 0-0.2 0.4 0.1 0.3 0.2 0.8 0.1 0 0.1 0.1 0.1 0.1 0 0.2-0.1 0.3-0.3 0.5-0.4 0.1 0 0.3 0 0.4 0 0.1-0.1 0.4-0.1 0.4-0.3 0.1 0.2 0.4 0.1 0.5-0.1 0.3-0.1 0.2 0.2 0.4 0.2 0-0.3 1.3-0.9 1.6-0.4 0-0.2-0.1-0.2-0.1-0.4 0.2 0 0.6-0.3 0.6 0.1 0.2 0 0.1-0.3 0.2-0.4 0.5 0.2 0.8-0.3 1.4-0.3 0.1 0.3-0.3 0.2-0.2 0.5 0.4 0 0.4-0.3 0.3-0.6 0.4 0 0.5-0.2 0.8-0.3 0-0.4 0.2-0.7 0.4-0.9 0-0.2 0-0.4 0-0.6 0.3-0.1 0.1-0.8 0.5-0.8 0.1-0.9 0.6-1.3 0.9-2 0.1 0 0.1 0.1 0.1 0.2 0.3-0.1 0-0.2 0.2-0.4C91.7 4.3 91.8 4 92 3.8c0.5 0 0.5 0.6 1.2 0.5 0.1 0.4 0.3 0.5 0.4 0.9 0.2 0.2 0.5 0.2 0.7 0.4 -0.1 0.3-0.1 0.1-0.4 0.1 -0.1 0.4 0.4 0 0.3 0.4 -0.1 0-0.2 0-0.3 0 -0.1 0.6-0.3 0.7-0.3 1.3 0.1 0.1 0.7 0.2 0.8 0.1 0.1 0.2 0.2 0.5 0.5 0.5 -0.2-0.3-0.1-0.3-0.2-0.8 0.1 0 0.2 0 0.3 0.1 0.2-0.3 0.5 0 0.5-0.3 0.8-0.1 1.6-0.3 2.2-0.6 0.1 0 0.1 0.1 0.1 0.2 -0.1 0.1 0 0.1 0 0 0.5 0.1 0-0.2 0.3-0.4 0.2 0 0.2 0.1 0.4 0.1 0.3-0.1 0.8-0.5 1.1-0.3 0.2-0.1 0.3-0.2 0.5-0.3 0.2 0 0.3 0 0.5 0 0.5-0.2 0.9-0.3 1.6-0.5 0 0.1 0.1 0.2 0.1 0.4 0.4-0.1 0.4-0.2 0.8 0 0.1 0 0.1-0.2 0.1-0.3 0.4 0.1 0-0.3 0 0 -0.3 0.1-0.2-0.2-0.4-0.2 0.1-0.2 0.6-0.1 0.7-0.3 0.1 0 0.2 0.1 0.2 0.2 -0.1 0-0.2 0.1-0.2 0.3 0.1 0 0.2-0.1 0.2-0.3 0.2-0.1 0.5-0.1 0.5-0.4 0.3 0 0.5 0 0.8-0.1 0 0.2 0.1 0.3 0.2 0.3 0.1 0 0.1-0.2 0-0.2 0.2-0.2 0.7-0.2 0.9-0.5 0.2 0.1 0.6-0.1 0.6 0.1 0.3-0.5 1.4-0.3 1.9-0.7 0.2 0.1 0.3 0.2 0.4 0.4 0.2-0.2 0.3 0 0.4 0.1 0.2-0.2 0-0.4-0.3-0.4 0.5-0.3 0.7-0.4 1.4-0.5 0.1 0.1 0.3 0.2 0.3 0.4 0.4 0 0.3-0.5 0.6-0.6 0.4 0 0.3 0.3 0.8 0.2 0-0.2-0.1-0.2-0.3-0.2 0.2-0.2 0.5-0.2 0.9-0.2 0 0.4 0.6-0.1 0 0 0.2-0.1 0.8-0.4 1-0.2 0.2 0 0.5-0.4 0.7-0.1 0.4-0.3 1-0.3 1.6-0.4 0.3 0.1 0.5 0.4 1.1 0.3 0.1-0.3-0.4-0.1-0.3-0.5 0.8 0 1.5-0.5 2.1-0.3 -0.1 0.1-0.4 0-0.3 0.3C118 1.8 118 1.9 118 2c-0.1 0-0.2 0-0.3 0 0 0.2 0.3 0.2 0.3 0 0.2 0 0.2-0.1 0.2-0.2 0.2 0 0.3-0.1 0.3-0.3 0.1 0 0.2 0 0.2-0.2 0.4-0.1 0.7 0.2 0.8-0.1 0.5 0.1 0.7 0.1 1-0.2 0.1 0.1 0.4 0 0.4 0.2 0.5-0.5 0.9-0.1 1.5-0.5 0.1 0.1 0.2 0.1 0.4 0.2 0.6-0.4 1.3-0.3 2.1-0.4 0.1 0 0.2 0 0.2 0.2 0.1 0 0.1-0.2 0.2-0.3 0.9 0 1.2 0 1.9-0.1 0.1 0 0.1-0.2 0-0.2 0.5-0.1 1.3-0.2 1.7-0.1 -0.3 0.3 0.3 0.5 0 0.9 0 0.1 0.1 0.1 0.2 0.1 -0.1 0.2-0.6 0-0.4 0.5 -0.6 0.1-0.6 0-1.1 0.2 -0.3 0.1 0.1 0.3-0.1 0.4 -0.8 0-1.6 0.3-2.2 0.1 -0.2 0.4-1.1 0.6-1.7 0.4 -0.1 0-0.1 0.2 0 0.2 -0.2 0.1-0.7 0.2-1.3 0.2 -0.1 0.1-0.4 0.1-0.4 0.4 -0.4 0-0.7 0.2-1.1 0 -0.1 0.1-0.2 0.2-0.2 0.4 -1 0-2 0.4-2.7 0.3 -0.5 0.3-1.3 0.2-1.8 0.6 -0.6 0.1-1-0.1-1.4 0.3 -0.2 0-0.2-0.1-0.4-0.1 -0.1 0-0.2 0.1-0.3 0.2 -0.5 0-1 0.1-1.4 0.3 -0.2 0-0.3 0-0.5 0 -0.4 0.3-0.9 0.1-1.2 0.4 -0.4-0.1-0.5 0.2-0.7 0 -0.1 0-0.1 0.1-0.1 0.2 -0.8-0.1-1.2 0.3-2.1 0.4 -0.1 0-0.2 0.2-0.3 0.2 -0.8 0-0.9 0.1-1.5 0.4 -0.1-0.1-0.5 0.1-0.5-0.1 -0.6 0.4-1.5 0.4-2.1 0.8 -0.6-0.1-1 0.3-1.4 0.1 -0.3 0.6-1.1 0.1-1.2 0.8 -0.3 0.1-0.2-0.2-0.3-0.3 -0.5 0.3-1 0.5-1.7 0.5 -0.2 0.1-0.4 0.2-0.6 0.3 -0.5 0.4-0.8 1.1-1.3 1.6 0.1 0.4-0.2 0.3-0.2 0.6 -0.2 0-0.1 0.5-0.4 0.4 0 0.1 0 0.3 0 0.4 -0.4 0.2-0.4 0.7-0.6 1.1 -0.3 0.2-0.4 0.8-0.6 1.2 -0.4 0.7-0.6 1.6-1.2 2.2 -0.1 0.5-0.3 1-0.6 1.3 0 0.1 0 0.3 0 0.4 -0.1 0.2-0.5 0.6-0.3 0.8 0.2-0.1 0.3-0.4 0.3-0.7C94.3 17.8 94.5 17.3 94.8 16.9 94.8 16.9 94.8 16.9 94.8 16.9zM122.1 1.1C122.1 1.1 122 1 122.1 1.1 122 1.2 122.1 1.2 122.1 1.1zM123.3 1.2C123.3 1.2 123.2 1.1 123.3 1.2 123.2 1.3 123.2 1.3 123.3 1.2zM122.9 1.3C122.9 1.3 122.8 1.2 122.9 1.3 122.8 1.4 122.9 1.4 122.9 1.3zM127.7 1.2C127.6 1.2 127.5 1.3 127.7 1.2 127.6 1.3 127.7 1.3 127.7 1.2zM119.6 1.7c0.4 0 0 0.7 0.5 0.5 -0.2-0.4 0.1-0.4 0.2-0.7C120 1.5 119.8 1.6 119.6 1.7zM119.1 1.8C118.9 1.9 119.1 1.9 119.1 1.8c0.1-0.1 0.5 0.1 0.5-0.1C119.4 1.7 119 1.4 119.1 1.8zM117.1 1.9C117.1 1.9 117 2 117.1 1.9 117 2 117.2 2 117.1 1.9zM120.8 2.4c0.3 0 0.3 0.3 0.5 0.3 -0.2-0.4-0.2-0.4 0-0.8C121 1.9 120.8 2.1 120.8 2.4zM118.4 2C118.4 2 118.2 2 118.4 2 118.3 2.1 118.4 2.1 118.4 2zM118.6 2C118.5 2 118.4 2 118.6 2 118.5 2.1 118.6 2.1 118.6 2zM114.9 2.4c0.2 0 0.4 0 0.4-0.2C115 2.2 114.9 2.2 114.9 2.4zM115.4 2.2C115.4 2.2 115.3 2.2 115.4 2.2 115.4 2.3 115.5 2.2 115.4 2.2zM114.8 2.3C114.7 2.3 114.6 2.3 114.8 2.3 114.7 2.4 114.8 2.3 114.8 2.3zM115.9 2.4c-0.1 0-0.2 0-0.2 0.1C115.8 2.5 115.9 2.5 115.9 2.4zM120.7 2.4C120.7 2.4 120.6 2.4 120.7 2.4 120.7 2.5 120.8 2.4 120.7 2.4zM113.1 2.9c0.1-0.3 0.2 0.1 0.4 0 0-0.2-0.2-0.3-0.3-0.4C113.2 2.6 112.8 2.8 113.1 2.9zM117.6 2.5C117.6 2.5 117.4 2.5 117.6 2.5 117.5 2.6 117.6 2.5 117.6 2.5zM120.5 2.5C120.5 2.5 120.4 2.5 120.5 2.5 120.5 2.6 120.6 2.5 120.5 2.5zM114.9 2.6c-0.1 0-0.3 0-0.3 0.1C114.7 2.7 114.8 2.7 114.9 2.6zM119 2.7C119 2.6 118.9 2.6 119 2.7 118.9 2.7 118.9 2.8 119 2.7zM112.2 2.8C112.2 2.8 112.1 2.8 112.2 2.8 112.1 2.9 112.3 2.8 112.2 2.8zM115.7 2.8C115.7 2.8 115.6 2.8 115.7 2.8 115.7 2.9 115.8 2.8 115.7 2.8zM118.2 2.9C118.2 2.8 118.1 2.8 118.2 2.9 118.1 2.9 118.2 3 118.2 2.9zM118.4 2.8C118.4 2.8 118.2 2.8 118.4 2.8 118.3 2.9 118.4 2.8 118.4 2.8zM114.6 3.2c0.2 0 0.4-0.1 0.5-0.2C114.9 2.8 114.6 3 114.6 3.2zM119.4 2.9C119.3 2.9 119.2 2.9 119.4 2.9 119.3 3 119.4 2.9 119.4 2.9zM113 3.1c0-0.1-0.2-0.1-0.2 0C112.8 3.2 112.9 3.1 113 3.1zM116.6 3C116.6 3 116.5 3 116.6 3 116.5 3.1 116.7 3 116.6 3zM117.6 3C117.6 3 117.4 3 117.6 3 117.5 3.1 117.6 3 117.6 3zM111.1 3.3C110.8 3.6 111.5 3.4 111.1 3.3 111.1 3.1 111 3.3 111.1 3.3zM112 3.2C112 3.1 111.9 3.2 112 3.2 112 3.3 112.1 3.2 112 3.2zM114.2 3.2c-0.1 0-0.2 0-0.2 0.1C114.1 3.2 114.2 3.3 114.2 3.2zM116.3 3.2c-0.1 0-0.2 0-0.2 0.1C116.2 3.2 116.3 3.3 116.3 3.2zM113.7 3.3C113.7 3.2 113.5 3.3 113.7 3.3 113.6 3.4 113.7 3.3 113.7 3.3zM111.9 3.6C111.9 3.5 111.9 3.3 111.9 3.6 111.8 3.6 111.9 3.7 111.9 3.6zM112 3.7c0.2 0 0.3-0.1 0.4-0.2C112.3 3.3 112 3.4 112 3.7zM113.2 3.4C113.2 3.3 113 3.4 113.2 3.4 113.1 3.5 113.2 3.4 113.2 3.4zM114.8 3.8c0.3 0.1 0.1-0.3 0.3-0.4C114.8 3.3 114.7 3.5 114.8 3.8zM119.4 3.4c-0.1 0-0.2 0-0.2 0.1C119.2 3.4 119.4 3.5 119.4 3.4zM109.7 3.7C109.7 3.6 109.6 3.6 109.7 3.7 109.6 3.7 109.7 3.8 109.7 3.7zM112.5 3.9c0-0.2 0.2-0.1 0.2-0.3C112.5 3.5 112.3 3.8 112.5 3.9zM117.1 3.8C117.1 3.7 117.1 3.5 117.1 3.8 116.9 3.7 116.9 3.8 117.1 3.8zM118.7 3.6C118.6 3.5 118.5 3.6 118.7 3.6 118.6 3.7 118.7 3.6 118.7 3.6zM112.9 3.7C112.9 3.6 112.8 3.7 112.9 3.7 112.8 3.8 113 3.7 112.9 3.7zM108 3.9C108.3 4.4 108.3 3.5 108 3.9L108 3.9zM117.3 3.8C117.3 3.7 117.2 3.8 117.3 3.8 117.2 3.9 117.4 3.8 117.3 3.8zM110.5 3.9C110.4 3.8 110.3 3.9 110.5 3.9 110.4 4 110.5 3.9 110.5 3.9zM110.5 4.1C110.4 4 110.3 4.1 110.5 4.1 110.4 4.2 110.5 4.1 110.5 4.1zM112.9 4.1C112.9 4 112.8 4.1 112.9 4.1 112.8 4.2 113 4.1 112.9 4.1zM111.7 4.2C111.7 4.1 111.6 4.2 111.7 4.2 111.7 4.3 111.8 4.2 111.7 4.2zM107.3 4.3c0-0.1-0.2-0.1-0.2 0C107.2 4.5 107.2 4.4 107.3 4.3zM111.2 4.4c0.2 0 0.3-0.1 0.3-0.2C111.4 4.2 111.3 4.3 111.2 4.4zM115.6 4.2C115.6 4.2 115.5 4.3 115.6 4.2 115.6 4.4 115.7 4.3 115.6 4.2zM108.6 4.3C108.6 4.3 108.5 4.4 108.6 4.3 108.5 4.5 108.7 4.4 108.6 4.3zM114.9 4.3C114.8 4.3 114.7 4.4 114.9 4.3 114.8 4.5 114.9 4.4 114.9 4.3zM92.1 4.5C92.1 4.5 92 4.4 92.1 4.5 92 4.6 92.1 4.7 92.1 4.5zM106.3 4.6c0.1 0.1 0.2 0.1 0.3-0.1C106.5 4.5 106.2 4.3 106.3 4.6zM105.7 4.6c0-0.1-0.2-0.1-0.2 0C105.5 4.8 105.6 4.7 105.7 4.6zM108.9 5.4c0-0.4-0.3 0.1-0.3-0.3 0.1 0 0.1-0.2 0.1-0.4 -0.2 0.1-0.3-0.4-0.5-0.1C108.7 4.8 108.2 5.5 108.9 5.4zM106.2 4.7c0-0.1-0.2-0.1-0.2 0C106.1 4.7 106.1 4.9 106.2 4.7zM111.3 4.8c0.1 0.1 0.2 0.1 0.3-0.1 -0.1 0-0.2 0-0.3-0.1C111.3 4.7 111.3 4.8 111.3 4.8zM113.5 4.7c-0.1 0-0.2-0.1-0.2 0C113.3 4.8 113.5 4.9 113.5 4.7zM110.3 4.7C110.2 4.7 110.1 4.8 110.3 4.7 110.2 4.9 110.3 4.8 110.3 4.7zM105.7 4.9C105.6 4.9 105.5 5 105.7 4.9 105.6 5.1 105.7 5 105.7 4.9zM106.4 4.9C106.3 4.9 106.2 5 106.4 4.9 106.3 5.1 106.4 5 106.4 4.9zM104.4 5.6c0.3 0 0.6-0.3 0.3-0.5C104.7 5.4 104.4 5.4 104.4 5.6zM105.7 5.2C105.7 5.2 105.6 5.1 105.7 5.2 105.6 5.3 105.7 5.3 105.7 5.2zM107.8 5.1C107.8 5.1 107.7 5.2 107.8 5.1 107.8 5.3 107.9 5.2 107.8 5.1zM109.4 5.2C109.4 5.2 109.3 5.2 109.4 5.2c-0.1 0.3 0.1 0.3 0.3 0.3C109.8 5.3 109.5 5 109.4 5.2zM107 5.5C107 5.5 107 5.4 107 5.5 106.9 5.6 107 5.6 107 5.5zM101.8 5.8c0.3-0.1-0.1-0.5-0.2-0.2C101.5 5.7 101.7 5.8 101.8 5.8zM103.5 5.5C103.5 5.5 103.4 5.6 103.5 5.5 103.5 5.6 103.6 5.6 103.5 5.5zM104.2 5.5C104.2 5.5 104.1 5.6 104.2 5.5 104.1 5.6 104.3 5.6 104.2 5.5zM109.3 5.6C108.8 5.9 109.6 5.9 109.3 5.6L109.3 5.6zM101 5.9c0.1 0 0.2 0 0.3 0 0-0.2-0.1-0.2-0.3-0.2C101 5.8 101 5.8 101 5.9zM102.6 5.8c0-0.1-0.2-0.1-0.2 0C102.6 5.8 102.6 6 102.6 5.8zM107.8 5.7C107.8 5.7 107.7 5.8 107.8 5.7 107.8 5.8 107.9 5.8 107.8 5.7zM100.5 6.1C100.5 6 100.5 6 100.5 6.1c0.1-0.2 0.1-0.2 0.1-0.3 -0.1 0-0.3 0-0.3 0.1C100.4 5.9 100.4 6.1 100.5 6.1zM106.4 6.1c0-0.1 0.4-0.2 0.1-0.3C106.5 5.9 106 6 106.4 6.1zM93.6 5.9C93.6 5.9 93.5 6 93.6 5.9 93.6 6 93.7 6 93.6 5.9zM104 6.1c0.2 0 0.3 0 0.3-0.2 -0.1 0-0.1 0-0.2 0C104.1 6 104 6 104 6.1zM99.4 6.4c0.4 0.1 0.3-0.4 0-0.4C99.4 6.1 99.4 6.3 99.4 6.4zM103.8 6.1c-0.1 0-0.3 0-0.3 0.1C103.6 6.2 103.8 6.2 103.8 6.1zM105.7 6.1C105.6 6.1 105.5 6.2 105.7 6.1 105.6 6.2 105.7 6.2 105.7 6.1zM107.3 6.2C107.3 6.2 107.2 6.3 107.3 6.2 107.3 6.3 107.4 6.3 107.3 6.2zM100 6.6c-0.2 0-0.2-0.1-0.3-0.1C99.6 6.7 100 6.8 100 6.6c0.2 0 0.4 0 0.4-0.1C100.3 6.4 100.1 6.4 100 6.6zM102.9 6.7C102.9 6.6 102.9 6.6 102.9 6.7 102.8 6.7 102.9 6.8 102.9 6.7zM97.9 6.7C97.9 6.7 97.8 6.7 97.9 6.7 97.9 6.8 98 6.7 97.9 6.7zM91 6.8c-0.1 0-0.2 0-0.2 0.1C90.9 6.9 91 6.9 91 6.8zM97.2 7c0 0.1 0 0.1 0 0.2 0.1 0 0.1 0 0.2 0C97.5 7 97.5 6.9 97.2 7 97.3 6.9 97.3 7 97.2 7zM102.6 6.9c-0.1 0-0.2 0-0.2 0.1C102.5 7 102.6 7 102.6 6.9zM96 7.3c-0.1 0-0.2-0.1-0.2 0C95.8 7.4 96 7.4 96 7.3zM103.4 7.3c-0.1 0-0.2 0-0.2 0.1C103.3 7.4 103.4 7.4 103.4 7.3zM95.4 7.5c-0.1 0-0.3 0-0.3 0.1C95.2 7.6 95.4 7.6 95.4 7.5zM100.6 7.5C100.6 7.4 100.4 7.5 100.6 7.5 100.5 7.6 100.6 7.5 100.6 7.5zM94 7.7C94 7.6 93.9 7.7 94 7.7 94 7.8 94.1 7.7 94 7.7zM96.3 7.8C96.3 7.7 96.2 7.7 96.3 7.8 96.2 7.8 96.3 7.9 96.3 7.8zM95.9 7.8C95.9 7.7 95.7 7.8 95.9 7.8 95.8 7.9 95.9 7.8 95.9 7.8zM97.7 8.1c-0.1 0-0.1-0.1-0.3-0.1C97.2 8.2 97.7 8.3 97.7 8.1zM94.2 8.2C94 8.5 94.6 7.9 94.2 8.2L94.2 8.2zM97 8.4c0-0.1-0.2-0.1-0.2 0C96.8 8.5 96.9 8.4 97 8.4zM95.1 8.5C95.1 8.5 95 8.6 95.1 8.5 95 8.7 95.2 8.6 95.1 8.5zM95.7 8.5C95.7 8.5 95.6 8.6 95.7 8.5 95.6 8.7 95.8 8.6 95.7 8.5zM93.7 9c-0.1 0-0.2 0-0.2 0.1C93.6 9.1 93.7 9.1 93.7 9zM94.7 9C94.7 9 94.6 9.1 94.7 9 94.7 9.2 94.8 9.1 94.7 9zM91.5 11.3c-0.6 0.9-0.7 2.1-1.2 3.1 -0.4 1.1-0.6 2.4-1 3.4 0 0.2 0 0.5 0 0.7 -0.4 0.5-0.5 1.2-0.6 2.1 -0.3 0.3-0.3 1-0.7 1.2 0.2 0.3 0 0.6 0 1 -0.2 0.4-0.4 0.9-0.4 1.6 -0.5 0.7-0.4 1.6-0.7 2.4 0 0.9-0.2 1-0.2 1.8 0.2 0 0.5 0.4 0.6 0.2 0.1-0.2 0.3 0.3 0.5 0.3 0.3-0.2 0.6 0 1 0 0.3-0.5 0.6-0.8 0.8-1.4 0.3-0.4 0.3-1.1 0.8-1.4 0.2-1 0.4-1.9 1-2.5 -0.1-0.8 0.4-1 0.5-1.7 0.1-0.2 0.2-0.6 0.3-0.8 0.1-0.3 0.3-0.5 0.4-0.8 0.1-0.2 0.2-0.5 0.2-0.8 0.3-0.3 0.4-0.8 0.5-1.4 0.4-0.2 0.4-0.9 0.7-1.3 0.1-0.5 0.4-0.8 0.5-1.4 0.3-0.3 0.3-1 0.7-1.3 0.2-1 0.9-1.7 1.2-2.6 0.4-0.9 1.1-1.5 1.4-2.5C95.5 9.8 93.4 10.4 91.5 11.3zM89 9.5C88.9 9.5 88.8 9.6 89 9.5 88.9 9.7 89 9.6 89 9.5zM88.7 9.9C88.6 9.9 88.5 10 88.7 9.9 88.6 10 88.7 10 88.7 9.9zM87.6 10.2C87.6 10.1 87.5 10 87.6 10.2 87.4 10.1 87.4 10.2 87.6 10.2zM88.7 10.5c0.1-0.1 0.1-0.3-0.1-0.4C88.4 10.2 88.4 10.5 88.7 10.5zM86.3 10.3c-0.1 0-0.2 0-0.2 0.1C86.2 10.4 86.3 10.4 86.3 10.3zM86.7 10.6c-0.1 0-0.2 0-0.2 0.1C86.6 10.7 86.7 10.7 86.7 10.6zM85 10.9c0.1 0 0.2 0 0.3 0 0-0.2-0.1-0.2-0.3-0.2C85 10.8 85 10.8 85 10.9zM86.7 10.8c0 0.2 0.1 0.3 0.2 0.4 -0.1-0.4 0.3-0.2 0.2-0.5C86.9 10.7 86.9 10.8 86.7 10.8zM83.6 11.2c0 0.2 0 0.4 0.1 0.4C83.8 11.4 83.7 11.3 83.6 11.2c0-0.1 0-0.2 0-0.3 -0.2 0-0.3 0.2-0.4 0.3C83.4 11.4 83.3 11.2 83.6 11.2zM82.6 11.4C82.6 11.4 82.5 11.4 82.6 11.4 82.5 11.5 82.7 11.4 82.6 11.4zM80.5 11.7c0.1 0 0.1 0 0.2 0 0-0.1 0-0.1 0-0.2 -0.1 0-0.1 0-0.2 0C80.5 11.5 80.5 11.6 80.5 11.7zM86.7 11.5C86.7 11.5 86.6 11.5 86.7 11.5 86.6 11.6 86.8 11.5 86.7 11.5zM81.5 11.9C81.4 11.9 81.5 12 81.5 11.9c0.1 0.1 0.3 0.2 0.3 0 -0.2 0-0.1-0.3-0.3-0.3C81.5 11.7 81.5 11.8 81.5 11.9zM79.2 12C79.2 11.9 79 12 79.2 12 79.1 12.1 79.2 12 79.2 12zM80.4 12.2c0-0.1-0.2-0.1-0.2 0C80.3 12.2 80.3 12.3 80.4 12.2zM80.6 12.3C80.6 12.2 80.5 12.2 80.6 12.3 80.5 12.3 80.5 12.4 80.6 12.3zM80.7 12.3C80.7 12.2 80.6 12.3 80.7 12.3 80.7 12.4 80.8 12.3 80.7 12.3zM77.1 12.9c0.2 0 0.3-0.2 0.4-0.3C77.3 12.6 77.1 12.6 77.1 12.9zM111.5 12.8c0 0.2 0 0.4 0.2 0.4 0.1-0.1 0.3-0.4 0-0.5C111.7 12.7 111.6 12.8 111.5 12.8zM82.2 12.8C82.2 12.7 82.1 12.8 82.2 12.8 82.1 12.9 82.3 12.8 82.2 12.8zM78.5 12.9C78.5 12.9 78.4 13 78.5 12.9 78.4 13.1 78.5 13 78.5 12.9zM111.6 13.5c0-0.3-0.2-0.4-0.4-0.5C111.1 13.2 111.3 13.6 111.6 13.5zM75.6 13.1C75.5 13.1 75.4 13.2 75.6 13.1 75.5 13.3 75.6 13.2 75.6 13.1zM78.5 13.3C78.5 13.3 78.4 13.4 78.5 13.3 78.4 13.5 78.5 13.4 78.5 13.3zM113 13.3C113 13.3 112.9 13.4 113 13.3 112.9 13.5 113.1 13.4 113 13.3zM111 13.6c0.1 0 0.1 0.1 0.2 0.1 0-0.2 0-0.3-0.2-0.3C111 13.5 111 13.6 111 13.6zM77.4 14.5C77.4 14.5 77.3 14.6 77.4 14.5 77.4 14.6 77.5 14.6 77.4 14.5zM111.2 14.5C111.2 14.5 111.1 14.6 111.2 14.5 111.2 14.6 111.3 14.6 111.2 14.5zM74.6 14.8C74.6 14.8 74.4 14.9 74.6 14.8 74.5 14.9 74.6 14.9 74.6 14.8zM110.9 15.3c-0.1 0-0.2-0.1-0.2 0C110.7 15.4 110.8 15.4 110.9 15.3zM112.4 15.9C112.4 15.9 112.3 15.9 112.4 15.9 112.3 16 112.5 15.9 112.4 15.9zM109.5 16.8c0.2-0.2 0-0.2-0.1-0.4 0.2 0 0.5 0.1 0.4-0.2 -0.3 0.1-0.2 0.1-0.5 0C109.3 16.5 109.1 16.7 109.5 16.8zM102.8 17.9C102.8 17.9 102.7 18 102.8 17.9 102.8 18.1 102.9 18 102.8 17.9zM108.4 18C108.4 18 108.3 17.9 108.4 18 108.3 18.1 108.4 18.1 108.4 18zM85.3 19.3c0.1 0 0.1 0 0.2 0 0-0.1 0.1-0.1 0.1-0.2 -0.1 0-0.1-0.1-0.3-0.1C85.3 19.1 85.3 19.2 85.3 19.3zM85 19.9C85 19.9 84.9 19.9 85 19.9 85 20 85.1 19.9 85 19.9zM96.1 19.9C96.1 19.9 95.9 19.9 96.1 19.9 96 20 96.1 19.9 96.1 19.9zM47 20.4C47 20.3 46.9 20.4 47 20.4 47 20.5 47.1 20.4 47 20.4zM84.9 20.4C84.8 20.3 84.7 20.4 84.9 20.4 84.8 20.5 84.9 20.4 84.9 20.4zM95.1 20.6C95.1 20.5 95 20.6 95.1 20.6 95 20.7 95.2 20.6 95.1 20.6zM87.2 20.9c0-0.1-0.2-0.1-0.2 0C87 21 87.1 20.9 87.2 20.9zM110.5 20.9C110.4 20.8 110.3 20.9 110.5 20.9 110.4 21 110.5 20.9 110.5 20.9zM46.7 21C46.7 20.9 46.6 21 46.7 21 46.7 21.1 46.8 21 46.7 21zM84.4 21.3C84.4 21.2 84.3 21 84.4 21.3 84.2 21.2 84.2 21.3 84.4 21.3zM106.7 21.1C106.7 21 106.6 21.1 106.7 21.1 106.7 21.2 106.8 21.1 106.7 21.1zM106.3 21.2C106.2 21.1 106.1 21.2 106.3 21.2 106.2 21.3 106.3 21.2 106.3 21.2zM106.2 21.4C106.1 21.3 106 21.4 106.2 21.4 106.1 21.5 106.2 21.4 106.2 21.4zM107.2 21.5C107.2 21.5 107.2 21.4 107.2 21.5 107.1 21.6 107.2 21.7 107.2 21.5zM77.1 23.4c-0.5 0.5-0.9 1.1-1.5 1.6 -0.4 0.6-1 1.1-1.4 1.7 -0.3 0.2-0.5 0.4-0.6 0.9 -0.3 0-0.3 0.2-0.4 0.4 0 0.3-0.5 0.1-0.2 0.4 0.5 0.1 0.7-0.1 0.8-0.5 0.3-0.2 0.5-0.4 0.6-0.7 0.3-0.2 0.4-0.4 0.7-0.6 0.1-0.3 0.5-0.3 0.6-0.7 0.9-0.8 1.6-1.8 2.5-2.6 0-0.5 0.4-1.1 0.2-1.5C78.2 22.4 77.6 22.9 77.1 23.4zM110.7 21.7c-0.1 0-0.2 0-0.2 0.1C110.5 21.8 110.7 21.8 110.7 21.7zM100.7 21.9c-0.1 0-0.2 0-0.2 0.1C100.6 22 100.7 22 100.7 21.9zM86.6 22.3C86.6 22.3 86.5 22.4 86.6 22.3 86.5 22.5 86.7 22.4 86.6 22.3zM100.3 22.5c-0.1 0-0.2-0.1-0.2 0C100.1 22.6 100.3 22.6 100.3 22.5zM86.1 22.5C86.1 22.5 86 22.6 86.1 22.5 86.1 22.7 86.2 22.6 86.1 22.5zM100.5 22.6C100.5 22.6 100.4 22.5 100.5 22.6 100.4 22.7 100.5 22.7 100.5 22.6zM105.4 22.7c0-0.1-0.2-0.1-0.2 0C105.2 22.8 105.3 22.8 105.4 22.7zM83.4 22.7C83.4 22.7 83.2 22.8 83.4 22.7 83.3 22.8 83.4 22.8 83.4 22.7zM100.2 22.7C100.2 22.7 100 22.8 100.2 22.7 100.1 22.8 100.2 22.8 100.2 22.7zM104.4 22.8C104.4 22.8 104.3 22.9 104.4 22.8 104.3 22.9 104.5 22.9 104.4 22.8zM104.6 22.9C104.6 22.9 104.4 23 104.6 22.9 104.5 23 104.6 23 104.6 22.9zM84.5 23.2c-0.1 0-0.2 0-0.2 0.1C84.3 23.3 84.5 23.3 84.5 23.2zM100 23.2C100 23.2 99.9 23.3 100 23.2 99.9 23.3 100.1 23.3 100 23.2zM104.6 23.3c0 0.4 0.2 0 0.3 0.2C104.9 23.3 104.7 23.3 104.6 23.3 104.5 23.2 104.5 23.3 104.6 23.3zM110.4 23.3C110.3 23.3 110.2 23.4 110.4 23.3 110.3 23.4 110.4 23.4 110.4 23.3zM85.8 23.5C85.8 23.5 85.7 23.6 85.8 23.5 85.8 23.6 85.9 23.6 85.8 23.5zM77.7 28.4c0-0.3 0-0.5-0.1-0.8 0.3-0.1 0.1-0.8 0.3-1.3 0-0.5 0-0.8 0.1-1.2 0-0.2 0-0.3-0.1-0.4 0.2-0.2 0.2-0.5 0.2-0.9 0-0.1-0.1-0.1-0.2-0.1 -0.1 0.2-0.3 0.4-0.5 0.5 0 0.3-0.3 0.3-0.3 0.7 -0.3 0.1-0.4 0.5-0.7 0.6 -0.2 0.2-0.3 0.5-0.6 0.7 -0.3 0.6-0.9 0.8-1.1 1.5 -0.4 0.2-0.6 0.3-0.6 0.6 0.7 0.1 1.3 0.4 2 0.6 0.3 0.3 0.7 0.6 1.3 0.7C77.5 29.1 77.6 28.8 77.7 28.4zM61.5 24.1C61.5 24 61.4 24 61.5 24.1 61.4 24.1 61.5 24.2 61.5 24.1zM64.5 24.4c-0.5 0.1-0.9 0.3-1.2 0.6 0.1 0 0.1 0.1 0 0.2 -0.7 0.3-0.9 1-1.6 1.3 -0.4 0.7-0.9 1.3-1.6 1.8 0 0.3 0 0.5-0.2 0.6 -0.1 0.1-0.2 0.1-0.4 0 -0.1 0.3 0.1 0.3 0.1 0.5 -0.4 0.3-0.8 0.4-1.1 0.8 0.2 0.2-0.2 0.6-0.1 1.1 -0.3 0-0.3 0.4-0.4 0.6 0.2 0.2 0.5-0.2 0.7-0.4 0.4 0 0.5-0.4 0.9-0.5 0 0.1 0 0.2 0.1 0.2 0.1-0.5 0.3-0.3 0.3-0.7 0.5-0.1 0.6-0.5 1.1-0.6 0-0.1 0-0.2 0-0.3 0.6-0.3 1-0.7 1.5-1.1 0 0.1 0 0.1 0.1 0.1 0.2-0.5 0.5-0.7 0.9-1 0.1-0.2 0.2-0.4 0.4-0.5 0.2-0.2 0.1 0 0.4 0 0-0.2-0.1-0.2-0.1-0.4 0.4 0.1 0.1-0.5 0.5-0.4 0-0.4 0.4-0.6 0.6-0.9 0.1 0 0.3 0 0.3-0.1 -0.1 0-0.2 0-0.2-0.1 0.2-0.3 0.1-0.3 0.2-0.8 -0.3-0.4-1.1 0-1.3-0.3C64.4 24.2 64.5 24.3 64.5 24.4zM105 24.1C105 24.1 104.8 24.1 105 24.1 104.9 24.2 105 24.1 105 24.1zM87.4 24.3c-0.1 0-0.2 0-0.2 0.1C87.3 24.4 87.4 24.4 87.4 24.3zM91.5 24.3c-0.1 0-0.2 0-0.2 0.1C91.4 24.4 91.5 24.4 91.5 24.3zM104.9 24.6C104.9 24.5 104.9 24.5 104.9 24.6c0.1-0.2 0.1-0.3-0.1-0.3C104.8 24.4 104.8 24.6 104.9 24.6zM104.1 24.4c-0.1 0-0.2 0-0.2 0.1C104 24.5 104.1 24.5 104.1 24.4zM104.5 25C104.5 24.9 104.3 25 104.5 25 104.4 25.1 104.5 25 104.5 25zM104.3 25.1C104.3 25 104.2 25.1 104.3 25.1 104.2 25.2 104.4 25.1 104.3 25.1zM105.7 25.1C105.6 25 105.5 25.1 105.7 25.1 105.6 25.2 105.7 25.1 105.7 25.1zM97.7 25.2C97.6 25.1 97.5 25.2 97.7 25.2 97.6 25.3 97.7 25.2 97.7 25.2zM60.7 25.3C60.7 25.2 60.6 25.3 60.7 25.3 60.6 25.4 60.8 25.3 60.7 25.3zM62.5 25.3C62.4 25.2 62.3 25.3 62.5 25.3 62.4 25.4 62.5 25.3 62.5 25.3zM59.8 25.6c0.2 0.1 0.6-0.1 0.3-0.2C60.1 25.5 59.9 25.4 59.8 25.6zM103.5 25.5C103.5 25.4 103.4 25.3 103.5 25.5 103.4 25.5 103.5 25.6 103.5 25.5zM103.8 25.4C103.8 25.3 103.7 25.4 103.8 25.4 103.7 25.5 103.9 25.4 103.8 25.4zM51.2 25.6C51.2 25.5 51.1 25.6 51.2 25.6 51.2 25.7 51.3 25.6 51.2 25.6zM85.7 25.7C85.7 25.6 85.7 25.5 85.7 25.7 85.6 25.7 85.7 25.8 85.7 25.7zM60.3 25.8C60.3 25.7 60.2 25.6 60.3 25.8 60.2 25.8 60.3 25.9 60.3 25.8zM60 26C59.6 26 60 26.3 60 26 60.3 26 59.9 25.6 60 26zM65.3 26C65.3 26 65.2 26.1 65.3 26 65.2 26.2 65.4 26.1 65.3 26zM50.2 26.1C50.1 26.1 50 26.2 50.2 26.1 50.1 26.3 50.2 26.2 50.2 26.1zM100.5 26.2C100.5 26.2 100.4 26.1 100.5 26.2 100.4 26.3 100.5 26.4 100.5 26.2zM104.5 26.2C104.4 26.3 104.5 26.4 104.5 26.2 104.6 26.2 104.5 26.1 104.5 26.2zM65.7 26.3C65.7 26.3 65.5 26.4 65.7 26.3 65.6 26.5 65.7 26.4 65.7 26.3zM105.7 26.3C105.6 26.3 105.5 26.4 105.7 26.3 105.6 26.5 105.7 26.4 105.7 26.3zM65.2 26.6C65.2 26.6 65.1 26.7 65.2 26.6 65.1 26.8 65.3 26.7 65.2 26.6zM81.5 26.6C81.5 26.6 81.4 26.7 81.5 26.6 81.5 26.8 81.6 26.7 81.5 26.6zM105.3 26.9c0-0.1-0.2-0.1-0.2 0C105.2 26.9 105.2 27.1 105.3 26.9zM64.3 27.3C64.3 27.3 64.2 27.2 64.3 27.3 64.2 27.4 64.3 27.4 64.3 27.3zM80.8 27.3C80.8 27.3 80.7 27.4 80.8 27.3 80.8 27.4 80.9 27.4 80.8 27.3zM48.2 27.5C48.3 27.7 48.3 27.5 48.2 27.5 48.1 27.4 48.1 27.5 48.2 27.5zM60.9 27.4C60.9 27.4 60.8 27.5 60.9 27.4 60.8 27.5 61 27.5 60.9 27.4zM81 27.4C81 27.4 80.9 27.5 81 27.4 81 27.5 81.1 27.5 81 27.4zM78.9 27.5C78.9 27.5 78.7 27.6 78.9 27.5 78.8 27.6 78.9 27.6 78.9 27.5zM100.6 27.8c0-0.2-0.1-0.3-0.2-0.3C100.4 27.7 100.4 27.9 100.6 27.8zM40.9 27.6C40.8 27.6 40.7 27.7 40.9 27.6 40.8 27.7 40.9 27.7 40.9 27.6zM48.1 27.7c-0.1 0-0.4 0-0.4 0.1C47.8 27.9 48.1 27.9 48.1 27.7zM84.9 27.8C84.8 27.8 84.7 27.9 84.9 27.8 84.8 27.9 84.9 27.9 84.9 27.8zM47.8 28c-0.1 0-0.1-0.1-0.3-0.1C47.4 28.1 47.8 28.2 47.8 28zM42.1 28C42.1 28 42 28 42.1 28 42.1 28.1 42.2 28.1 42.1 28zM64 28.1c-0.1 0-0.2 0-0.2 0.1C63.9 28.2 64 28.2 64 28.1zM51.7 28.8C52.1 28.8 51.7 28.4 51.7 28.8c-0.1 0.1-0.2 0.2-0.2 0.5 0.3-0.1 0.3-0.1 0.6 0 0.1-0.3 0.7-0.8 0.3-1.1 -0.1 0.1-0.1 0.4-0.4 0.3 -0.1 0.3 0.2 0.2 0.2 0.4 -0.3-0.1-0.3 0.2-0.5 0.2C51.7 29 51.7 28.9 51.7 28.8zM63.6 28.2C63.6 28.2 63.5 28.2 63.6 28.2 63.6 28.3 63.7 28.2 63.6 28.2zM47.7 28.4C47.7 28.3 47.6 28.3 47.7 28.4 47.6 28.4 47.7 28.5 47.7 28.4zM63.2 28.6C63.2 28.7 63.3 28.6 63.2 28.6c0-0.1 0-0.2 0-0.3C62.9 28.1 62.9 28.7 63.2 28.6zM100.6 28.4C100.6 28.4 100.4 28.4 100.6 28.4 100.5 28.5 100.6 28.4 100.6 28.4zM57.7 28.6C57.7 28.6 57.5 28.6 57.7 28.6 57.6 28.7 57.7 28.6 57.7 28.6zM100.5 28.7C100.1 28.7 100.5 29.1 100.5 28.7 100.6 28.6 100.5 28.6 100.5 28.7zM62.5 28.9c0.1 0 0.2 0.1 0.3 0 0-0.1 0-0.1 0-0.2 -0.1 0-0.1 0-0.2 0C62.6 28.8 62.5 28.8 62.5 28.9zM86.8 29.8c-0.1 0-0.2 0-0.2 0.2 0.2 0.3-0.2 0.7 0.1 1 -0.3-0.1-0.2 0.2-0.3 0.3 0.3 0 0.2-0.2 0.4 0 0-0.2 0.1-0.3 0.2-0.3 0.3 0.2 0.8-0.2 0.8-0.7 -0.5 0.1-0.2-0.5-0.1-0.6 -0.2 0-0.2-0.1-0.2-0.3 -0.4 0-0.3-0.5-0.7-0.5C86.6 29.2 86.8 29.4 86.8 29.8zM46.6 29.1C46.6 29 46.5 29.1 46.6 29.1 46.6 29.2 46.7 29.1 46.6 29.1zM104.2 29.1C104.2 29 104.1 29.1 104.2 29.1 104.1 29.2 104.3 29.1 104.2 29.1zM42.2 29.2C42.2 29.1 42.1 29.2 42.2 29.2 42.2 29.3 42.3 29.2 42.2 29.2zM51.7 30.1c-0.1-0.4 0.4-0.4 0.2-0.7 -0.1 0-0.2 0-0.3 0C51.5 29.5 51.4 30.1 51.7 30.1zM101.1 29.4C101.1 29.3 100.9 29.4 101.1 29.4 101 29.5 101.1 29.4 101.1 29.4zM110.2 29.4C110.1 29.3 110 29.4 110.2 29.4 110.1 29.5 110.2 29.4 110.2 29.4zM52.3 29.5C52.3 29.4 52.2 29.5 52.3 29.5 52.2 29.6 52.4 29.5 52.3 29.5zM41 29.8c0.1 0 0.1 0.1 0.2 0.1 0-0.2 0-0.3-0.2-0.3C41 29.6 41 29.7 41 29.8zM39.5 29.8c-0.1 0-0.2 0-0.2 0.1C39.4 29.8 39.5 29.9 39.5 29.8zM45.2 29.8C44.3 30.1 44 31 43 31.2c0 0.2-0.1 0.3-0.3 0.3 0 0.2 0 0.5 0 0.7 0.6-0.2 0.9-0.7 1.4-1.1 0.2-0.2 0.6-0.3 0.7-0.6 0.3-0.2 0.7-0.3 0.7-0.7C45.3 29.9 45.3 29.7 45.2 29.8zM79.9 29.8C79.8 29.7 79.7 29.8 79.9 29.8 79.8 29.9 79.9 29.8 79.9 29.8zM51.2 30C51.2 29.9 51.1 30 51.2 30 51.2 30.1 51.3 30 51.2 30zM40.8 30.8c0-0.3 0.5-0.8-0.1-0.8C40.7 30.3 40.4 30.7 40.8 30.8zM56.8 30.2C56.8 30.1 56.8 30 56.8 30.2 56.7 30.3 56.7 30.4 56.8 30.2zM73.5 30.3c0-0.1 0-0.1 0-0.2 -0.3-0.3-0.1 0.4-0.6 0.2 0 0.2-0.1 0.4-0.4 0.4 0.4 0.5 0 1.6 0.7 1.8 -0.4 0.6 0.6 0.8 0.1 1.1 0.5 0.2 0.4 0.5 0.5 1 0.4 0.3 0.6 0.8 1.2 0.9 0.2-0.3 0.5-0.5 0.8-0.7 0.1-0.7 0.6-1 0.7-1.9 0.3-0.6 0.6-1.2 0.7-2.1 -0.1 0-0.2-0.1-0.2-0.3 -0.6 0-0.5-0.2-1-0.3 -0.4 0.1-0.5-0.1-0.7-0.2C74.8 30.2 74.2 30.1 73.5 30.3zM51 30.2C51 30.1 50.9 30.2 51 30.2 51 30.3 51.1 30.2 51 30.2zM51.3 30.2C51.4 30.4 51.4 30.2 51.3 30.2 51.3 30.1 51.2 30.3 51.3 30.2zM60.4 30.4C60.2 30.4 60.3 30.6 60.4 30.4 60.4 30.7 60.5 30.6 60.4 30.4 60.8 30.6 60.4 30.1 60.4 30.4zM86.5 30.3C86.5 30.3 86.4 30.4 86.5 30.3 86.4 30.5 86.6 30.4 86.5 30.3zM50.8 31c0-0.2-0.1-0.3-0.2-0.3 -0.2 0.2 0 0.3 0.1 0.5 0.3-0.1 0.6-0.3 0.7-0.7 -0.1 0-0.1-0.1-0.3-0.1C51.1 30.7 50.9 30.8 50.8 31zM51.7 31.3c0.3 0 0.5-0.6 0.3-0.8C51.9 30.8 51.7 30.9 51.7 31.3zM61.1 30.5c-0.1 0-0.2 0-0.2 0.1C61 30.6 61.1 30.6 61.1 30.5zM60.7 30.8C60.7 30.8 60.6 30.9 60.7 30.8 60.6 31 60.8 30.9 60.7 30.8zM68.7 31.1c0-0.1 0.2-0.2 0-0.3C68.7 31 68.6 31.1 68.7 31.1zM56.7 31.1c-0.1 0-0.2-0.1-0.2 0C56.5 31.2 56.7 31.3 56.7 31.1zM59.3 31.2C59.3 31.2 59.2 31.3 59.3 31.2 59.3 31.4 59.4 31.3 59.3 31.2zM40.3 31.7c-0.1-0.3 0.2-0.2 0.2-0.4C40.1 31.2 39.8 31.7 40.3 31.7zM56.1 31.4c0 0.1 0 0.1 0 0.2 0.1 0 0.2 0 0.3 0 0-0.1 0-0.2 0-0.3C56.3 31.3 56.3 31.3 56.1 31.4 56.2 31.4 56.2 31.4 56.1 31.4zM57.3 31.5C57.3 31.5 57.1 31.6 57.3 31.5 57.2 31.6 57.3 31.6 57.3 31.5zM51.7 31.6C51.7 31.6 51.6 31.7 51.7 31.6 51.6 31.7 51.8 31.7 51.7 31.6zM40.6 31.8C40.5 31.8 40.4 31.9 40.6 31.8 40.5 31.9 40.6 31.9 40.6 31.8zM59.1 31.8C59.1 31.8 59 31.9 59.1 31.8 59.1 31.9 59.2 31.9 59.1 31.8zM38.4 31.9C38.4 31.9 38.3 32 38.4 31.9 38.4 32 38.5 32 38.4 31.9zM51.5 32.1C51.5 32.1 51.4 32 51.5 32.1 51.4 32.2 51.5 32.2 51.5 32.1zM38.1 32.1C38.1 32.1 38 32.2 38.1 32.1 38.1 32.2 38.2 32.2 38.1 32.1zM55.9 32.2C55.9 32.2 55.8 32.3 55.9 32.2 55.9 32.3 56 32.3 55.9 32.2zM68.6 32.3C68.6 32.2 68.5 32.2 68.6 32.3 68.5 32.4 68.6 32.4 68.6 32.3zM40.1 32.6c0-0.3-0.2-0.3-0.5-0.3C39.6 32.6 39.8 32.6 40.1 32.6zM69 32.3C69 32.3 68.9 32.3 69 32.3 68.9 32.4 69.1 32.4 69 32.3zM89.5 32.7c0-0.1 0.2-0.4 0-0.4C89.5 32.5 89.2 32.6 89.5 32.7zM55.8 32.4C55.8 32.4 55.7 32.4 55.8 32.4 55.8 32.5 55.9 32.4 55.8 32.4zM67.8 32.7c-0.1 0.2-0.2 0.5-0.6 0.4 -0.1 0.3 0.2 0.2 0.3 0.3 0.2-0.6 0.9-0.1 1.2-0.5 -0.5 0.2-0.3-0.8-0.7-0.4C68.3 32.5 68 32.8 67.8 32.7c-0.1-0.1-0.1-0.3-0.2-0.3 0.1 0.2-0.2 0.1-0.2 0.3C67.6 32.7 67.7 32.7 67.8 32.7zM89.9 32.4c-0.1 0-0.2 0-0.2 0.1C89.8 32.5 89.9 32.5 89.9 32.4zM68.7 32.5C68.7 32.5 68.6 32.5 68.7 32.5 68.7 32.6 68.8 32.5 68.7 32.5zM67.4 32.9c-0.2 0 0-0.1 0-0.3C67 32.4 67.2 33.3 67.4 32.9zM67 32.7c-0.1 0-0.2 0-0.2 0.1C66.8 32.8 67 32.8 67 32.7zM84.7 55.4c-0.2 0-0.3 0.1-0.3 0.2 -0.1 0.1 0 0.1 0 0C84.5 55.7 84.7 55.7 84.7 55.4c0.2 0 0.4-0.1 0.5-0.2 -0.2 0 0-0.3 0-0.4 -0.2 0-0.7-0.3-0.5-0.7 0 0.2 0.1 0.2 0.2 0.2 0.4 0.1 0.1-0.4 0.4-0.4 0.2 0 0.4 0.2 0.5-0.1 -0.2-0.2-0.4 0.1-0.6-0.2 0.1-0.1 0.2-0.1 0.4-0.1 0 0 0 0.1 0 0.1 0.3 0.1 0.6-0.3 0.3-0.5 -0.2 0.1-0.2 0.3-0.3 0.4 0-0.1-0.2-0.1-0.2-0.2 0.2-0.2 0.2-0.9 0.6-0.7 0-0.2-0.1-0.6 0.2-0.5 0.1-0.1-0.1-0.5 0.1-0.5 0-0.2-0.1-0.6 0.2-0.5 -0.1 0.1-0.1 0.2-0.1 0.3 0.4 0 0.2-0.1 0.2-0.4 0.2 0.1 0.2-0.2 0.1-0.2 0 0.1-0.1 0.1-0.1 0 -0.1-0.4 0.3-0.4 0.4-0.6 -0.1 0-0.2 0-0.2-0.1 0.2-0.3 0.5-0.5 0.4-1 0.2-0.1 0.4-0.2 0.5-0.5 -0.3 0.1-0.1-0.3-0.3-0.4 0.4 0 0.1-0.8 0.6-0.7 0.1-0.3-0.3-0.2-0.2-0.5 0.2 0 0.2-0.2 0.2-0.4 0.4 0.1 0.4-0.2 0.4-0.5 -0.1 0-0.3 0-0.3-0.1 0-0.1 0-0.1 0.1-0.1 0.1 0.1 0.1 0 0 0 0-0.2 0.1-0.4 0.3-0.6 -0.1-0.3-0.3-0.4 0-0.7 0.1 0 0 0.3 0.2 0.3 0.1-0.3 0.1-0.5 0.2-0.8 -0.3 0.1-0.2-0.6-0.1-0.6 -0.2 0.3 0.5 0.3 0.5 0.1 -0.3-0.1-0.1-0.6 0.1-0.9 0-0.7 0.1-1.3 0.3-1.8 -0.1-0.1-0.1-0.2-0.1-0.3 0.1 0 0.1 0.1 0.2 0.1 0.2-0.5-0.3-0.9-0.4-1.4 0.2-0.2 0.2-0.1 0.4-0.2 0.3-0.6 0-1.4 0.2-2 -0.1 0-0.3 0-0.3-0.1 0.2-0.1 0.1-0.5 0.3-0.5 -0.3-0.1 0.1-0.4 0.1-0.5 -0.2-0.1-0.3-0.7-0.1-0.9 0 0.1 0 0.3 0.1 0.3 0.1-0.1 0.1-0.2-0.1-0.3 -0.2-0.2 0.1-0.4-0.1-0.6 0.1 0 0.3 0 0.3-0.1 -0.4-0.1 0-0.4 0-0.7 -0.5 0 0-0.2 0.1-0.3 -0.6 0.1-0.4-0.7-0.1-0.8 -0.3 0.1-0.1-0.3-0.4-0.3 -0.1 0.2-0.2 0.3-0.4 0.5 0.1 0 0.2 0.1 0.2 0.3 -0.1 0-0.1-0.1-0.2-0.1 0.1 0.3 0 0.5-0.2 0.7 0 1.1-0.9 1.7-0.6 2.5 -0.4 0.4-0.3 1.2-0.8 1.6 0.3 0.5-0.5 1-0.1 1.6 -0.4 0.3-0.3 0.8-0.5 1.2 0 0.7-0.2 1.2-0.5 1.5 0.1 1.2-0.7 1.6-0.7 2.7 -0.3 0.2-0.2 0.9-0.5 1.1 0 0.2 0.1 0.2 0.1 0.4 -0.5 0.4-0.2 1-0.6 1.4 0 0.9-0.3 1.7-0.4 2.7 -0.1 0.2-0.3 0.2-0.4 0.4 0.2 0 0.2 0.1 0.2 0.2 -0.3 1.4-0.5 2.3-0.6 3.9 0.3 0.1 0.2-0.2 0.4-0.2 0 0.2 0.1 0.2 0.2 0.2 0.1-0.2-0.3-0.4 0-0.5 0.1 0.1 0.3 0.1 0.3 0.2C84.2 55 84.8 55.1 84.7 55.4zM88.4 33.2C88.3 33.2 88.2 33.2 88.4 33.2 88.3 33.3 88.4 33.2 88.4 33.2zM52 33.5c0-0.1-0.2-0.1-0.2 0C51.8 33.6 51.9 33.5 52 33.5zM67.4 33.5C67.4 33.4 67.3 33.4 67.4 33.5 67.3 33.5 67.3 33.6 67.4 33.5zM26.3 33.5C26.3 33.4 26.2 33.5 26.3 33.5 26.2 33.6 26.4 33.5 26.3 33.5zM36.9 33.7C36.7 33.7 36.9 33.8 36.9 33.7 37.2 33.6 36.8 33.3 36.9 33.7zM50.8 33.5c-0.1 0-0.2 0-0.2 0.1C50.7 33.5 50.8 33.6 50.8 33.5zM68 33.7C68 33.6 67.9 33.7 68 33.7 68 33.8 68.1 33.7 68 33.7zM26.7 33.8C26.7 33.7 26.5 33.8 26.7 33.8 26.6 33.9 26.7 33.8 26.7 33.8zM67.8 33.8C67.8 33.7 67.7 33.8 67.8 33.8 67.8 33.9 67.9 33.8 67.8 33.8zM76.8 33.8C76.8 33.7 76.7 33.8 76.8 33.8 76.8 33.9 76.9 33.8 76.8 33.8zM37 34.2C37 34.1 36.9 33.9 37 34.2 36.8 34.1 36.8 34.2 37 34.2zM70.7 34.4c0.2-0.2 0-0.3-0.2-0.4C70.5 34.1 70.5 34.3 70.7 34.4zM90.6 34.1C90.6 34 90.5 33.9 90.6 34.1 90.5 34.1 90.6 34.2 90.6 34.1zM66.8 34.1C66.7 34 66.6 34.1 66.8 34.1 66.7 34.2 66.8 34.1 66.8 34.1zM51.5 34.9c0-0.2 0.3-0.6 0.1-0.8C51.6 34.3 51.3 34.8 51.5 34.9zM87.7 34.2C87.7 34.1 87.5 34.2 87.7 34.2 87.6 34.3 87.7 34.2 87.7 34.2zM70.4 34.4C70.4 34.3 70.3 34.2 70.4 34.4 70.3 34.4 70.4 34.5 70.4 34.4zM73.6 34.5C73.6 34.3 73.6 34.2 73.6 34.5 73.4 34.4 73.4 34.5 73.6 34.5zM87.3 34.7c0.4 0.1 0.4-0.5 0-0.4C87.3 34.5 87.3 34.6 87.3 34.7zM39.4 34.5c-0.1 0-0.2 0-0.2 0.1C39.3 34.5 39.4 34.5 39.4 34.5zM66.1 34.5C66.1 34.5 66 34.4 66.1 34.5 66 34.6 66.1 34.7 66.1 34.5zM67 34.5C66.9 34.4 66.8 34.5 67 34.5 66.9 34.6 67 34.5 67 34.5zM52.5 34.7c0-0.1-0.2-0.1-0.2 0C52.3 34.9 52.4 34.8 52.5 34.7zM25.3 34.8C25.3 34.8 25.2 34.9 25.3 34.8 25.3 35 25.4 34.9 25.3 34.8zM36 35.1c0.1 0 0.1 0 0.2 0 0-0.1 0-0.1 0-0.2 -0.1 0-0.1 0-0.2 0C36 35 36 35.1 36 35.1zM65.4 35.1C65.3 35.2 65.4 35.3 65.4 35.1 65.5 35.1 65.4 35 65.4 35.1zM76.1 35C76 35 75.9 35.1 76.1 35 76 35.2 76.1 35.1 76.1 35zM49.9 35.3C49.9 35.3 49.8 35.2 49.9 35.3 49.8 35.4 49.8 35.4 49.9 35.3zM64.7 35.2C64.7 35.2 64.6 35.3 64.7 35.2 64.6 35.4 64.8 35.3 64.7 35.2zM87.9 35.2C87.9 35.2 87.7 35.3 87.9 35.2 87.8 35.4 87.9 35.3 87.9 35.2zM64.1 35.5c-0.1 0-0.1-0.1-0.2-0.1 0 0.2 0.2 0.3 0 0.5 0.4 0 0.3-0.4 0.2-0.6C64.1 35.4 64.1 35.5 64.1 35.5zM90.5 35.3C90.5 35.3 90.4 35.4 90.5 35.3 90.5 35.5 90.6 35.4 90.5 35.3zM40.4 35.4C40.4 35.4 40.2 35.5 40.4 35.4 40.3 35.6 40.4 35.5 40.4 35.4zM63.7 35.4C63.7 35.4 63.6 35.5 63.7 35.4 63.7 35.6 63.8 35.5 63.7 35.4zM87.1 35.6C87.1 35.5 87.1 35.4 87.1 35.6 87 35.6 87 35.8 87.1 35.6zM75.4 35.6C75.4 35.6 75.3 35.5 75.4 35.6 75.3 35.7 75.4 35.7 75.4 35.6zM35.6 35.9c0.1 0 0.1 0 0.2 0 0-0.1 0-0.1 0-0.2 -0.1 0-0.1 0-0.2 0C35.6 35.8 35.6 35.9 35.6 35.9zM63.6 35.7c-0.1 0-0.2 0-0.2 0.1C63.5 35.8 63.6 35.8 63.6 35.7zM75.1 35.9C75.1 35.8 75 35.7 75.1 35.9 74.9 35.8 74.9 35.9 75.1 35.9zM75.3 35.9C75.2 35.9 75.1 36 75.3 35.9 75.2 36 75.3 36 75.3 35.9zM24.8 36C24.8 36 24.7 36.1 24.8 36 24.8 36.1 24.9 36.1 24.8 36zM48.5 36.8c0.2-0.2 0.1-0.8-0.3-0.6C48.4 36.4 48.1 36.7 48.5 36.8zM51.2 36.1C51.2 36.1 51.1 36.2 51.2 36.1 51.2 36.2 51.3 36.2 51.2 36.1zM90.1 36.1c-0.1 0-0.2 0-0.2 0.1C90 36.2 90.1 36.2 90.1 36.1zM25.9 36.2C25.9 36.2 25.8 36.3 25.9 36.2 25.8 36.3 26 36.3 25.9 36.2zM27.4 36.3C27.4 36.3 27.3 36.2 27.4 36.3 27.3 36.4 27.4 36.4 27.4 36.3zM54.3 36.2C54.2 36.2 54.1 36.3 54.3 36.2 54.2 36.3 54.3 36.3 54.3 36.2zM62.9 36.3C62.9 36.3 62.8 36.2 62.9 36.3 62.8 36.4 62.8 36.4 62.9 36.3zM24.7 36.3C24.7 36.3 24.6 36.4 24.7 36.3 24.7 36.4 24.8 36.4 24.7 36.3zM23.4 46.6c0.2 0 0.2 0.1 0.3 0.1 0-0.1 0-0.3 0.1-0.3 0.1 0.1 0.3 0.2 0.3 0 -0.1 0-0.1-0.1-0.1-0.2 0.1 0 0.1-0.1 0-0.1 -0.1-0.5 0.5-0.3 0.4-0.8 -0.6-0.1-0.4 0.5-0.7 0.7 -0.1-0.1-0.1-0.2-0.1-0.3 0.3-0.3 0.4-0.8 0.8-1.1 0 0.1 0 0.1 0.1 0.1 0 0.2-0.3 0.2-0.3 0.4 0.3 0 0.6-0.1 0.8-0.2 -0.2 0-0.1-0.4-0.3-0.4 0 0.1-0.1 0.2-0.2 0.2 0-0.7 0.4-1.1 0.7-1.5 0.1 0 0.1 0 0.2 0 -0.1-0.6 0.5-0.5 0.4-1.1 0.1-0.1 0.4 0 0.4-0.2 -0.3-0.2 0.4-0.4 0.4-0.6 -0.3 0 0.1-0.2 0-0.4 0.3-0.1 0.4-0.5 0.7-0.7 -0.1 0-0.1 0-0.1-0.1 0.4 0 0.3-0.7 0.7-0.7 -0.1 0.3 0 0.2 0 0.6 -0.4-0.1-0.3 0.2-0.3 0.5 -0.1-0.1-0.2-0.1-0.3-0.1 0 0.2 0 0.4 0 0.6 0 0-0.2 0.1-0.2 0.1 0 0 0 0.2 0 0.2 0 0-0.2 0.1-0.2 0.1 -0.1 0.1 0 0.3-0.3 0.3 0.1 0.6-0.4 0.5-0.5 0.8 0.3 0-0.1 0.2 0 0.4 -0.2 0.1-0.3 0.2-0.6 0.2 0 0.2 0.1 0.2 0.1 0.4 -0.4 0.2-0.6 0.5-0.9 0.8 0.2 0 0.1 0.3 0.3 0.3 -0.1-0.5 0.3-0.2 0.5-0.2 0.2-0.4-0.5 0-0.4-0.4 0.3-0.1 0.4 0.1 0.6 0.2 0-0.4 0.1-0.3 0-0.6 0.1 0.1 0.2 0.1 0.3 0.1 0-0.3 0.1-0.4 0.4-0.4 -0.1-0.3 0.1-0.3 0.1-0.5 0.4-0.1 0.3-0.7 0.8-0.8 0-0.5 0.2-0.8 0.6-1 0.1-0.2-0.2-0.1-0.2-0.3 0.3 0.1 0.2-0.2 0.4-0.2 -0.1-0.3 0-0.4 0.1-0.7 -0.4-0.2 0-0.6-0.2-0.8 0.2 0.1 0.1-0.2 0.3-0.2 -0.1-0.3-0.1-0.6-0.1-1 -0.4-0.5-0.2-1-0.3-1.7 -0.6 0.1-0.5 0.7-1.1 0.8 -0.1 0.6-0.6 0.7-0.7 1.4 -0.2 0-0.2 0.1-0.3 0.1 0 0.5-0.3 0.8-0.6 1.1 0.2 0 0 0.4-0.2 0.3 0.1 0.5-0.2 0.6-0.4 0.8 0.2 0.3-0.3 0.7-0.3 1.1 -0.7 0 0 0.9-0.7 1 0 0.2 0 0.4 0 0.6 -0.2 0.1-0.1 0.6-0.4 0.7 0 0.7-0.5 0.7-0.4 1.5 -0.4 0.4-0.4 1.2-0.8 1.6 0.2 0.2-0.3 0.7-0.2 1.2 0.3 0 0.4-0.3 0.5-0.5 0.1-0.1 0.4-0.1 0.4-0.3 -0.2-0.2 0.2-0.6 0.4-0.8C23.1 46.9 23.4 46.6 23.4 46.6zM55.9 36.3C55.9 36.3 55.8 36.4 55.9 36.3 55.9 36.4 56 36.4 55.9 36.3zM28.7 36.4C28.6 36.4 28.5 36.5 28.7 36.4 28.6 36.5 28.7 36.5 28.7 36.4zM63.4 36.5c0-0.1-0.2-0.1-0.2 0C63.3 36.6 63.4 36.6 63.4 36.5zM77.3 36.4C77.3 36.4 77.2 36.5 77.3 36.4 77.3 36.5 77.4 36.5 77.3 36.4zM28.5 36.6C28.5 36.5 28.4 36.5 28.5 36.6 28.4 36.7 28.4 36.7 28.5 36.6zM48 36.6C48 36.5 47.9 36.5 48 36.6 47.9 36.7 48 36.7 48 36.6zM76.2 36.6c-0.1 0-0.2 0-0.2 0.1C76 36.7 76.2 36.7 76.2 36.6zM76.8 36.7c0-0.1-0.2-0.1-0.2 0C76.7 36.8 76.8 36.8 76.8 36.7zM62.8 37C62.8 36.9 62.7 36.7 62.8 37 62.7 37 62.7 37.1 62.8 37zM64.8 36.8c-0.1 0-0.2 0-0.2 0.1C64.7 36.9 64.8 36.9 64.8 36.8zM76.1 36.9C76 36.9 75.9 36.9 76.1 36.9 76 37 76.1 36.9 76.1 36.9zM24.4 37.1C24.4 37 24.3 37 24.4 37.1 24.3 37.1 24.3 37.2 24.4 37.1zM55.4 37.1C55.4 37 55.4 37 55.4 37.1 55.3 37.1 55.4 37.2 55.4 37.1zM34.8 37.2c-0.1 0-0.2-0.1-0.2 0C34.6 37.3 34.8 37.3 34.8 37.2zM61.9 37.4c0.2 0 0.3-0.1 0.3-0.2C62 37.2 61.8 37.2 61.9 37.4zM62.6 37.4C62.2 37.1 62.3 37.7 62.6 37.4L62.6 37.4zM47.5 37.4c-0.1 0-0.2 0-0.2 0.1C47.4 37.5 47.5 37.5 47.5 37.4zM23.8 37.5C23.7 37.5 23.6 37.5 23.8 37.5 23.7 37.6 23.8 37.5 23.8 37.5zM53.6 37.9c0.2 0.1 0.4-0.4 0.2-0.4C53.8 37.7 53.5 37.6 53.6 37.9zM47.6 37.6C47.6 37.6 47.5 37.6 47.6 37.6 47.5 37.7 47.7 37.6 47.6 37.6zM50.7 37.8C50.7 37.7 50.6 37.8 50.7 37.8 50.7 37.9 50.8 37.8 50.7 37.8zM47.6 37.9C47.6 37.8 47.5 37.9 47.6 37.9 47.5 38 47.7 37.9 47.6 37.9zM60.9 38c0-0.1-0.2-0.1-0.2 0C60.7 38.1 60.8 38 60.9 38zM77.9 38C77.9 37.9 77.8 38 77.9 38 77.8 38.1 78 38 77.9 38zM86.1 38C86.1 37.9 86 38 86.1 38 86.1 38.1 86.2 38 86.1 38zM50.6 38.1C50.6 38 50.5 38.1 50.6 38.1 50.6 38.2 50.7 38.1 50.6 38.1zM90 38.1C90 38 89.9 38.1 90 38.1 90 38.2 90.1 38.1 90 38.1zM60.7 38.3C60.7 38.2 60.6 38.2 60.7 38.3 60.6 38.3 60.7 38.4 60.7 38.3zM47.5 38.6c-0.1 0-0.3 0-0.3 0.1 0.1 0 0.1 0.1 0.1 0.2 0.2 0.1 0.4-0.4 0.2-0.5C47.5 38.4 47.5 38.5 47.5 38.6zM60.3 38.5C60.2 38.5 60.3 38.6 60.3 38.5 60.5 38.4 60.3 38.3 60.3 38.5zM77.2 38.4C77.2 38.3 77.1 38.4 77.2 38.4 77.2 38.5 77.3 38.4 77.2 38.4zM86 38.7C86.2 39 86.3 38.3 86 38.7 86.1 38.2 85.6 38.8 86 38.7zM24.2 38.7C24.2 38.6 24.1 38.5 24.2 38.7 24.1 38.7 24.1 38.8 24.2 38.7zM47.1 38.7c0-0.1-0.2-0.1-0.2 0C46.9 38.8 47 38.7 47.1 38.7zM54.8 38.7C55.2 39 55.1 38.3 54.8 38.7L54.8 38.7zM53.6 38.7c-0.1 0-0.2 0-0.2 0.1C53.5 38.7 53.6 38.7 53.6 38.7zM60 38.8c-0.1 0-0.2-0.1-0.2 0C59.8 38.9 60 38.9 60 38.8zM61.1 38.7C61.1 38.6 61 38.7 61.1 38.7 61 38.8 61.2 38.7 61.1 38.7zM23.5 38.8c-0.1 0-0.2 0-0.2 0.1C23.4 38.8 23.5 38.8 23.5 38.8zM34.1 38.8C34.1 38.7 34 38.8 34.1 38.8 34.1 38.9 34.2 38.8 34.1 38.8zM37.5 38.8C37.5 38.7 37.4 38.8 37.5 38.8 37.5 38.9 37.6 38.8 37.5 38.8zM60.2 38.8C60.2 38.8 60.1 38.9 60.2 38.8 60.2 39 60.3 38.9 60.2 38.8zM85.8 39C85.8 39 85.7 39.1 85.8 39 85.8 39.2 85.9 39.1 85.8 39zM23 39.2C23 39.2 22.9 39.1 23 39.2 22.9 39.3 23 39.4 23 39.2zM42.7 39.1C42.7 39.1 42.6 39.2 42.7 39.1 42.7 39.3 42.8 39.2 42.7 39.1zM54.9 39.3C54.9 39.2 54.9 39.1 54.9 39.3 54.7 39.2 54.8 39.4 54.9 39.3zM36.9 39.2C36.8 39.2 36.7 39.3 36.9 39.2 36.8 39.4 36.9 39.3 36.9 39.2zM34.5 39.3c-0.1 0-0.2 0-0.2 0.1C34.4 39.4 34.5 39.4 34.5 39.3zM90.4 39.4C90.4 39.4 90.3 39.3 90.4 39.4 90.3 39.5 90.4 39.5 90.4 39.4zM28.1 39.8c0.1 0 0.1 0 0.2 0 0-0.1 0.1-0.1 0.1-0.3 -0.1 0-0.4 0-0.4 0.1C28 39.7 28.1 39.7 28.1 39.8zM37 39.5C36.9 39.5 36.8 39.6 37 39.5 36.9 39.7 37 39.6 37 39.5zM39 39.5C39 39.5 38.9 39.6 39 39.5 38.9 39.7 39.1 39.6 39 39.5zM33.8 39.7C33.8 39.7 33.7 39.8 33.8 39.7 33.8 39.9 33.9 39.8 33.8 39.7zM90.2 39.8c0-0.1-0.2-0.1-0.2 0C90.1 39.8 90.2 40 90.2 39.8zM22.6 39.8C22.6 39.8 22.4 39.9 22.6 39.8 22.5 40 22.6 39.9 22.6 39.8zM47 39.9C46.6 39.8 47 40.2 47 39.9 47.2 39.9 47 39.8 47 39.9zM36.1 40.4c0.1 0.6-0.4 0.8-0.4 1.4 0.5 0.1 0.6-0.5 0.4-0.8 0.3 0.1 0.2-0.3 0.5-0.2 -0.1-0.5 0.3-0.7-0.1-0.9C36.4 40.2 36.2 40.3 36.1 40.4zM58.5 39.9c-0.1 0-0.2 0-0.2 0.1C58.3 40 58.5 40 58.5 39.9zM33.1 40C33.1 40 33 40.1 33.1 40 33.1 40.1 33.2 40.1 33.1 40zM33.5 40.1C33.6 40.3 33.7 40.1 33.5 40.1 33.5 39.8 33.1 40.2 33.5 40.1zM90.8 40.1C90.8 40.1 90.7 40 90.8 40.1 90.7 40.2 90.8 40.2 90.8 40.1zM50.2 40.3C50.1 40.3 50 40.4 50.2 40.3 50.1 40.4 50.2 40.4 50.2 40.3zM46.2 40.6C46.2 40.5 46.2 40.4 46.2 40.6 46 40.5 46.1 40.6 46.2 40.6zM57.3 40.6c0.3 0.1 0.6 0.2 0.6-0.2C57.6 40.4 57.3 40.4 57.3 40.6zM52.3 40.7C52.3 40.6 52.3 40.5 52.3 40.7 52.2 40.7 52.3 40.9 52.3 40.7zM37.7 40.7c-0.1 0-0.2 0-0.2 0.1C37.6 40.8 37.7 40.8 37.7 40.7zM56.8 40.8C56.8 40.7 56.7 40.7 56.8 40.8 56.7 40.9 56.8 40.9 56.8 40.8zM90 41C90 40.9 90 40.9 90 41c0.1-0.2 0.1-0.3-0.1-0.3C90 40.8 89.9 41 90 41zM22.5 40.8C22.5 40.8 22.3 40.9 22.5 40.8 22.4 40.9 22.5 40.9 22.5 40.8zM54.8 40.8C54.8 40.8 54.7 40.9 54.8 40.8 54.8 40.9 54.9 40.9 54.8 40.8zM57.2 40.9c-0.1 0-0.1-0.1-0.3-0.1C56.7 41 57.2 41.1 57.2 40.9zM46.3 40.9C46.3 40.9 46.2 40.9 46.3 40.9 46.3 41 46.4 41 46.3 40.9zM21.8 41.1C21.8 41.1 21.7 41.1 21.8 41.1 21.7 41.2 21.9 41.1 21.8 41.1zM58 41.1C57.9 41.1 57.8 41.1 58 41.1 57.9 41.2 58 41.1 58 41.1zM37.3 41.4C37.3 41.3 37.2 41.1 37.3 41.4 37.1 41.3 37.1 41.4 37.3 41.4zM22 41.5c-0.1 0-0.2-0.1-0.2 0C21.8 41.6 22 41.6 22 41.5zM90.2 41.4C90.2 41.4 90.1 41.4 90.2 41.4 90.2 41.5 90.3 41.4 90.2 41.4zM37.1 41.6C37.1 41.5 37 41.5 37.1 41.6 37 41.6 37 41.7 37.1 41.6zM46.3 41.5c-0.1 0-0.2 0-0.2 0.1C46.2 41.6 46.3 41.6 46.3 41.5zM51.7 41.5C51.7 41.5 51.6 41.5 51.7 41.5 51.6 41.6 51.8 41.5 51.7 41.5zM32.6 41.8C32.6 41.7 32.5 41.7 32.6 41.8 32.5 41.8 32.5 41.9 32.6 41.8zM56.1 41.7C56.1 41.7 56 41.7 56.1 41.7 56 41.8 56.2 41.7 56.1 41.7zM37.8 41.9C37.2 41.8 37.6 42.2 37.8 41.9L37.8 41.9zM55.9 42c-0.1 0-0.1 0-0.2 0 0 0.1 0 0.1 0 0.2 -0.1 0-0.1-0.1-0.2-0.1 -0.1 0.3 0.3 0.5 0.2 0.1C55.9 42.2 55.9 42.1 55.9 42 56.1 41.9 55.9 41.9 55.9 42zM35.9 42.1C35.9 42 35.7 42.1 35.9 42.1 35.8 42.2 35.9 42.1 35.9 42.1zM52.5 42.2C52.5 42.1 52.4 42.1 52.5 42.2 52.4 42.2 52.5 42.3 52.5 42.2zM86.5 42.2C86.5 42.1 86.4 42.1 86.5 42.2 86.4 42.2 86.5 42.3 86.5 42.2zM37.4 42.2C37.3 42.1 37.2 42.2 37.4 42.2 37.3 42.3 37.4 42.2 37.4 42.2zM45.8 42.3C45.5 42.6 46.1 42 45.8 42.3L45.8 42.3zM53.2 42.5c0-0.2-0.1-0.3-0.2-0.3C53 42.3 53 42.5 53.2 42.5zM32.3 42.3C32.2 42.2 32.1 42.3 32.3 42.3 32.2 42.4 32.3 42.3 32.3 42.3zM28.7 42.4C28.7 42.3 28.6 42.4 28.7 42.4 28.7 42.5 28.8 42.4 28.7 42.4zM55.8 42.6C55.8 42.5 55.7 42.6 55.8 42.6 55.8 42.7 55.9 42.6 55.8 42.6zM37.1 42.7C37 42.6 36.9 42.7 37.1 42.7 37 42.8 37.1 42.7 37.1 42.7zM52.7 42.7C52.7 42.6 52.5 42.7 52.7 42.7 52.6 42.8 52.7 42.7 52.7 42.7zM89.8 42.7c-0.1 0-0.2 0-0.2 0.1C89.7 42.7 89.8 42.8 89.8 42.7zM35.3 42.9C35.5 43.2 35.9 42.7 35.3 42.9 35.2 42.7 35.2 42.9 35.3 42.9zM31.7 42.9C31.7 42.8 31.5 42.9 31.7 42.9 31.6 43 31.7 42.9 31.7 42.9zM47.2 42.9C47.2 42.8 47.1 42.9 47.2 42.9 47.2 43 47.3 42.9 47.2 42.9zM36.5 43.1C36.5 43 36.4 42.9 36.5 43.1 36.4 43.1 36.5 43.2 36.5 43.1zM36.8 43C36.7 42.9 36.6 43 36.8 43 36.7 43.1 36.8 43 36.8 43zM35.5 43.1C35.5 43 35.3 43.1 35.5 43.1 35.4 43.2 35.5 43.1 35.5 43.1zM84.9 43.1C84.8 43 84.7 43.1 84.9 43.1 84.8 43.2 84.9 43.1 84.9 43.1zM46.6 43.4C46.6 43.4 46.5 43.5 46.6 43.4 46.6 43.6 46.7 43.5 46.6 43.4zM47.2 43.6C47.2 43.6 47.1 43.7 47.2 43.6 47.2 43.8 47.3 43.7 47.2 43.6zM90.2 43.6C90.2 43.6 90.1 43.7 90.2 43.6 90.2 43.8 90.3 43.7 90.2 43.6zM36.4 43.8c0 0.1 0 0.1 0 0.2C36.6 44.2 36.7 43.7 36.4 43.8 36.5 43.8 36.5 43.9 36.4 43.8zM20.9 44.1C20.6 44.3 21.2 44.4 20.9 44.1 21.2 44 20.8 43.6 20.9 44.1zM32.1 44.1C32.1 44.1 32 44 32.1 44.1 32 44.2 32.1 44.2 32.1 44.1zM89.1 44.1C89.1 44.1 89 44 89.1 44.1 89 44.2 89 44.2 89.1 44.1zM90.6 44C90.6 44 90.5 44.1 90.6 44 90.5 44.2 90.7 44.1 90.6 44zM35.3 44.3C35.3 44.3 35.1 44.4 35.3 44.3 35.2 44.4 35.3 44.4 35.3 44.3zM29.2 44.4c-0.1 0-0.2 0-0.2 0.1C29.1 44.5 29.2 44.5 29.2 44.4zM30.7 44.5c0-0.1-0.2-0.1-0.2 0C30.5 44.6 30.6 44.6 30.7 44.5zM36.7 44.4C36.6 44.4 36.5 44.5 36.7 44.4 36.6 44.5 36.7 44.5 36.7 44.4zM53.4 44.5C53.4 44.5 53.2 44.6 53.4 44.5 53.3 44.6 53.4 44.6 53.4 44.5zM53.9 44.6C53.9 44.6 53.8 44.5 53.9 44.6 53.8 44.7 53.9 44.7 53.9 44.6zM20.5 45.3c0.3 0 0.3-0.2 0.3-0.4C20.6 44.9 20.5 45 20.5 45.3zM37 45C37 45 36.9 44.9 37 45 36.9 45.1 36.9 45.1 37 45zM36.7 45C36.6 45 36.5 45.1 36.7 45 36.6 45.1 36.7 45.1 36.7 45zM88.9 45.1C88.6 45.1 88.7 45.2 88.9 45.1 88.8 45.6 89.2 45.2 88.9 45.1 88.9 45.2 88.9 45.1 88.9 45.1 89.3 45.2 88.9 44.8 88.9 45.1zM83.6 45.1C83.6 45.1 83.4 45.2 83.6 45.1 83.5 45.2 83.6 45.2 83.6 45.1zM83.8 45.1C83.8 45.1 83.6 45.2 83.8 45.1 83.7 45.2 83.8 45.2 83.8 45.1zM36.5 45.2C36.4 45.2 36.3 45.2 36.5 45.2 36.4 45.3 36.5 45.3 36.5 45.2zM35.4 45.6C35.3 45.7 35.4 45.7 35.4 45.6 35.8 45.6 35.4 45.2 35.4 45.6zM27.9 45.5C27.8 45.5 27.7 45.5 27.9 45.5 27.8 45.6 27.9 45.5 27.9 45.5zM30.2 45.5C30.2 45.5 30.1 45.5 30.2 45.5 30.1 45.6 30.3 45.5 30.2 45.5zM21 45.9c0.1 0 0.1 0 0.2 0 0-0.1 0-0.1 0-0.2 -0.1 0-0.1 0-0.2 0C21 45.8 21 45.8 21 45.9zM36.5 45.9C36.4 45.9 36.3 45.9 36.5 45.9 36.4 46 36.5 45.9 36.5 45.9zM88.4 46C88.3 46 88.2 46 88.4 46 88.3 46.1 88.4 46 88.4 46zM35.1 46.2c0-0.1-0.2-0.1-0.2 0C35 46.2 35.1 46.3 35.1 46.2zM83.3 46.2C83.3 46.2 83.1 46.2 83.3 46.2 83.2 46.3 83.3 46.2 83.3 46.2zM20.4 46.3C20.4 46.3 20.3 46.3 20.4 46.3 20.4 46.4 20.5 46.3 20.4 46.3zM29.6 46.4C29.6 46.3 29.5 46.4 29.6 46.4 29.6 46.5 29.7 46.4 29.6 46.4zM89 46.4C88.9 46.3 88.8 46.4 89 46.4 88.9 46.5 89 46.4 89 46.4zM30 46.6C30 46.5 29.9 46.5 30 46.6 29.9 46.6 30 46.7 30 46.6zM88.5 46.6C88.4 46.5 88.3 46.6 88.5 46.6 88.4 46.7 88.5 46.6 88.5 46.6zM29.1 46.9C28.9 47.2 29.5 46.6 29.1 46.9L29.1 46.9zM89.8 46.9C89.8 46.8 89.8 46.8 89.8 46.9 89.7 46.9 89.8 47 89.8 46.9zM23.9 47c0-0.1-0.2-0.1-0.2 0C23.7 47.1 23.8 47 23.9 47zM24.9 47C24.9 46.9 24.8 47 24.9 47 24.9 47.1 25 47 24.9 47zM89 47C88.9 46.9 88.8 47 89 47 88.9 47.1 89 47 89 47zM87.9 47.4c0.1 0 0.2 0 0.3 0 0-0.2-0.1-0.3-0.2-0.3C88 47.2 87.9 47.3 87.9 47.4zM89.5 47.1c-0.1 0-0.2 0-0.2 0.1C89.4 47.1 89.5 47.2 89.5 47.1zM23.1 47.2C23.1 47.1 22.9 47.2 23.1 47.2 23 47.3 23.1 47.2 23.1 47.2zM35 47.4c0 0.3 0.6 0 0.2-0.1C35.2 47.3 35.1 47.3 35 47.4 35.1 46.9 34.7 47.3 35 47.4zM84.8 47.2C84.7 47.1 84.6 47.2 84.8 47.2 84.7 47.3 84.8 47.2 84.8 47.2zM29.5 47.4C29.5 47.3 29.4 47.4 29.5 47.4 29.5 47.5 29.6 47.4 29.5 47.4zM19.8 47.5C19.7 47.5 19.6 47.6 19.8 47.5 19.7 47.7 19.8 47.6 19.8 47.5zM21.3 47.5C21.3 47.5 21.2 47.6 21.3 47.5 21.3 47.7 21.4 47.6 21.3 47.5zM88.1 47.5C88.1 47.5 87.9 47.6 88.1 47.5 88 47.7 88.1 47.6 88.1 47.5zM33.7 47.6C33.7 47.6 33.6 47.7 33.7 47.6 33.7 47.8 33.8 47.7 33.7 47.6zM35.6 47.7C35.6 47.7 35.5 47.6 35.6 47.7 35.5 47.8 35.6 47.9 35.6 47.7zM23.4 47.7C23.3 47.7 23.2 47.8 23.4 47.7 23.3 47.9 23.4 47.8 23.4 47.7zM90.2 47.7C90.2 47.7 90.1 47.8 90.2 47.7 90.2 47.9 90.3 47.8 90.2 47.7zM34.7 47.8C34.7 47.8 34.6 47.9 34.7 47.8 34.6 48 34.8 47.9 34.7 47.8zM22.9 48.1c0.2 0 0.3-0.1 0.3-0.2C23 47.9 22.9 48 22.9 48.1zM88.5 48.2C88.4 48.2 88.4 48.3 88.5 48.2 88.2 48.4 88.4 48.4 88.5 48.2 88.5 48.3 88.5 48.3 88.5 48.2 88.6 48.2 88.5 48.1 88.5 48.2zM34.6 48.3C34.1 48.2 34.5 48.6 34.6 48.3 34.8 48.3 34.6 48.2 34.6 48.3zM89.3 48.3C89.3 48.3 89.2 48.2 89.3 48.3 89.2 48.4 89.2 48.4 89.3 48.3zM22.7 48.4c-0.1 0.1-0.1 0.2-0.1 0.3 0.1 0 0.1 0 0.2 0 0-0.1 0-0.1 0.1-0.1 0-0.1 0-0.1 0-0.2C22.8 48.4 22.8 48.4 22.7 48.4 22.6 48.3 22.6 48.4 22.7 48.4zM87.8 48.3C87.1 48.2 87.8 49 87.8 48.3L87.8 48.3zM82.8 49c-0.1-0.2 0.3-0.4 0-0.5C82.7 48.6 82.6 49 82.8 49zM90.2 48.6C90.2 48.6 90.1 48.7 90.2 48.6 90.2 48.7 90.3 48.7 90.2 48.6zM22.6 48.9C22.6 48.9 22.5 48.8 22.6 48.9 22.5 49 22.6 49 22.6 48.9zM22 48.9C22 48.9 21.9 49 22 48.9 21.9 49 22.1 49 22 48.9zM89.1 49C88.6 49 89 49.4 89.1 49 89.2 49 89 48.9 89.1 49zM19.4 49C19.3 49 19.2 49.1 19.4 49 19.3 49.1 19.4 49.1 19.4 49zM33 49.1c-0.1 0-0.2-0.1-0.2 0C32.8 49.2 32.9 49.2 33 49.1zM23 49.1C23 49.1 22.8 49.2 23 49.1 22.9 49.2 23 49.2 23 49.1zM82.7 49.1C82.7 49.1 82.6 49.2 82.7 49.1 82.6 49.2 82.8 49.2 82.7 49.1zM34.3 49.2C34.3 49.2 34.2 49.3 34.3 49.2 34.2 49.3 34.4 49.3 34.3 49.2zM87.6 49.2C87.6 49.2 87.4 49.3 87.6 49.2 87.5 49.3 87.6 49.3 87.6 49.2zM87.8 49.2C87.8 49.2 87.6 49.3 87.8 49.2 87.7 49.3 87.8 49.3 87.8 49.2zM87.3 49.4C87.2 49.8 87.6 49.4 87.3 49.4 87.2 49.3 87.2 49.4 87.3 49.4zM26.9 49.5c0-0.1-0.2-0.1-0.2 0C26.8 49.5 26.8 49.6 26.9 49.5zM19.3 50C19.3 49.9 19.2 49.9 19.3 50 19.2 50 19.3 50.1 19.3 50zM87.2 50C87.1 50.1 87.2 50.1 87.2 50 87.3 49.9 87.2 49.9 87.2 50zM27.1 50.1c-0.1 0-0.2-0.1-0.2 0C26.9 50.2 27.1 50.2 27.1 50.1zM19.1 50.1C19 50.1 18.9 50.1 19.1 50.1 19 50.2 19.1 50.1 19.1 50.1zM19.4 50.2C19.3 50.2 19.2 50.2 19.4 50.2 19.3 50.3 19.4 50.2 19.4 50.2zM82.6 50.3C82.6 50.3 82.5 50.3 82.6 50.3 82.5 50.4 82.7 50.3 82.6 50.3zM87.6 50.7c-0.2-0.2-0.3 0.3-0.1 0.3C87.5 50.8 87.6 50.8 87.6 50.7c0.1 0 0.3-0.4 0.1-0.4C87.6 50.4 87.6 50.5 87.6 50.7zM26.6 50.5C26.6 50.5 26.5 50.5 26.6 50.5 26.5 50.6 26.6 50.5 26.6 50.5zM19.2 50.6c-0.1 0-0.2 0-0.2 0.1C19.1 50.7 19.2 50.7 19.2 50.6zM32.7 50.7C32.5 50.7 32.6 50.8 32.7 50.7 32.7 50.9 32.8 50.8 32.7 50.7 32.7 50.7 32.7 50.7 32.7 50.7 32.8 50.6 32.6 50.6 32.7 50.7zM34.5 50.6C34.5 50.6 34.4 50.6 34.5 50.6 34.4 50.7 34.6 50.6 34.5 50.6zM33.5 50.9C33.5 50.8 33.4 50.9 33.5 50.9 33.5 51 33.6 50.9 33.5 50.9zM82.5 50.9C82.5 50.8 82.4 50.9 82.5 50.9 82.4 51 82.6 50.9 82.5 50.9zM19.9 51.1C19.8 51 19.7 51.1 19.9 51.1 19.8 51.2 19.9 51.1 19.9 51.1zM88.1 51.1C88.1 51 87.9 51.1 88.1 51.1 88 51.2 88.1 51.1 88.1 51.1zM33 51.3c-0.1 0-0.2 0-0.2 0.1C32.8 51.3 32.9 51.4 33 51.3zM87.5 51.3C87.5 51.2 87.3 51.3 87.5 51.3 87.4 51.4 87.5 51.3 87.5 51.3zM89.3 51.3C89.2 51.2 89.1 51.3 89.3 51.3 89.2 51.4 89.3 51.3 89.3 51.3zM19.2 51.6c-0.1 0-0.2 0-0.2 0.1C19.1 51.6 19.2 51.7 19.2 51.6zM87.2 51.7c0 0.1 0 0.1 0 0.2C87.4 52 87.5 51.5 87.2 51.7 87.3 51.6 87.3 51.7 87.2 51.7zM82.5 51.8C82.5 51.7 82.4 51.8 82.5 51.8 82.4 51.9 82.6 51.8 82.5 51.8zM86.3 51.8c0 0.1 0 0.2 0.1 0.3 0.1 0 0.1 0 0.2 0 0-0.1 0-0.2 0.1-0.3C86.5 51.7 86.6 51.9 86.3 51.8zM19.3 52c-0.1 0-0.2 0-0.2 0.1C19.1 52.1 19.3 52.1 19.3 52zM87 52C87 52 86.9 52.1 87 52 86.9 52.2 87.1 52.1 87 52zM34 52.2C34 52.2 33.9 52.1 34 52.2 33.9 52.3 34 52.4 34 52.2zM31.5 53.2c0.2-0.3 0.5-0.8-0.1-1C31.4 52.7 31 53 31.5 53.2zM19.3 52.7c0-0.2 0-0.4-0.3-0.4C19 52.6 19.1 52.6 19.3 52.7zM86.1 52.3C86.1 52.3 86 52.4 86.1 52.3 86.1 52.5 86.2 52.4 86.1 52.3zM86.2 52.5C86.2 52.5 86.1 52.6 86.2 52.5 86.2 52.7 86.3 52.6 86.2 52.5zM86.1 53C86.1 52.9 86.1 52.8 86.1 53 85.9 52.9 85.9 53 86.1 53zM88.7 53C88.6 53 88.5 53.1 88.7 53 88.6 53.1 88.7 53.1 88.7 53zM82 53.3C82 53.3 81.9 53.4 82 53.3 81.9 53.4 82.1 53.4 82 53.3zM82.1 53.5C82.1 53.5 82 53.6 82.1 53.5 82 53.6 82.2 53.6 82.1 53.5zM33.1 53.6C33.1 53.6 33 53.7 33.1 53.6 33.1 53.7 33.2 53.7 33.1 53.6zM82.1 53.7C82.1 53.7 82 53.8 82.1 53.7 82 53.8 82.2 53.8 82.1 53.7zM82.1 53.9C82.1 53.9 82 53.9 82.1 53.9 82 54 82.2 54 82.1 53.9zM85.9 53.9C85.9 53.9 85.8 53.9 85.9 53.9 85.9 54 86 54 85.9 53.9zM31.6 54.3C31.6 54.2 31.5 54 31.6 54.3 31.4 54.2 31.4 54.3 31.6 54.3zM85.2 54.5c0.3 0 0.3-0.2 0.3-0.4C85.1 54.1 85.4 54.3 85.2 54.5zM87.1 54.3C87.1 54.3 87 54.3 87.1 54.3 87 54.4 87.2 54.3 87.1 54.3zM32.4 55C32.4 54.9 32.3 54.9 32.4 55 32.3 55 32.3 55.1 32.4 55zM30.7 55.1C30.7 55 30.6 55 30.7 55.1 30.6 55.1 30.7 55.2 30.7 55.1zM81.7 55C81.7 54.9 81.6 55 81.7 55 81.7 55.1 81.8 55 81.7 55zM85.3 55C85.3 54.9 85.2 55 85.3 55 85.3 55.1 85.4 55 85.3 55zM83 55.2C83 55.1 82.8 55.2 83 55.2 82.9 55.3 83 55.2 83 55.2zM84 55.6c0.1 0 0.1 0 0.2 0 0-0.1 0-0.1 0-0.2 -0.1 0-0.1 0-0.2 0C84 55.4 84 55.5 84 55.6zM30.5 55.6C30.5 55.5 30.4 55.6 30.5 55.6 30.4 55.7 30.6 55.6 30.5 55.6zM32.6 55.8c-0.1 0-0.2 0-0.2 0.1C32.4 55.8 32.6 55.9 32.6 55.8zM84.8 55.9c0-0.1-0.2-0.1-0.2 0C84.6 56 84.7 55.9 84.8 55.9zM85 56.7c-0.1 0-0.2-0.1-0.2 0C84.9 56.8 85 56.9 85 56.7zM30.9 56.8c-0.1 0-0.2-0.1-0.2 0C30.7 56.9 30.9 57 30.9 56.8zM31.7 57.3C31.7 57.2 31.6 57.1 31.7 57.3 31.5 57.2 31.5 57.3 31.7 57.3zM32 57.1C31.9 57.1 31.8 57.2 32 57.1 31.9 57.3 32 57.2 32 57.1zM82.4 57.2c-0.1 0-0.2 0-0.2 0.1C82.3 57.3 82.4 57.3 82.4 57.2zM85.6 57.3C85.6 57.3 85.5 57.4 85.6 57.3 85.6 57.4 85.7 57.4 85.6 57.3zM30 57.7C30 57.7 30 57.6 30 57.7c0.1-0.2 0.1-0.3-0.1-0.3C29.9 57.5 29.9 57.7 30 57.7zM82.3 57.7C82.3 57.7 82.2 57.8 82.3 57.7 82.2 57.8 82.4 57.8 82.3 57.7zM30.5 57.8C30.5 57.8 30.4 57.9 30.5 57.8 30.4 57.9 30.6 57.9 30.5 57.8zM32 58C32 58.1 32.1 58 32 58 31.9 57.9 31.9 58 32 58zM82.2 57.9C82.2 57.9 82.1 58 82.2 57.9 82.1 58 82.3 58 82.2 57.9zM30 58.3c0-0.1-0.2-0.1-0.2 0C29.9 58.3 30 58.4 30 58.3zM31.9 58.3C31.9 58.3 31.7 58.3 31.9 58.3 31.8 58.4 31.9 58.4 31.9 58.3zM30.6 58.4C30.6 58.4 30.5 58.4 30.6 58.4 30.5 58.5 30.7 58.4 30.6 58.4zM31.8 58.6C31.8 58.6 31.6 58.6 31.8 58.6 31.7 58.7 31.8 58.6 31.8 58.6zM31.6 59.3C31.9 59.3 31.7 58.9 31.6 59.3 31.5 59.2 31.5 59.3 31.6 59.3zM31.7 59.5C31.7 59.4 31.5 59.5 31.7 59.5 31.6 59.6 31.7 59.5 31.7 59.5zM84 60.1C83.9 60 83.8 60.1 84 60.1 83.9 60.2 84 60.1 84 60.1zM126.3 0.1c0-0.1 0.1-0.1 0.2-0.1C126.5 0.1 126.4 0.1 126.3 0.1zM126.7 0.1C126.6 0.1 126.8 0 126.7 0.1 126.8 0.1 126.7 0.2 126.7 0.1zM123.8 0.3C123.7 0.3 123.8 0.2 123.8 0.3 123.9 0.3 123.8 0.4 123.8 0.3zM124.3 0.3C124.3 0.3 124.4 0.2 124.3 0.3 124.5 0.3 124.4 0.4 124.3 0.3zM123.2 0.4C123.1 0.4 123.2 0.3 123.2 0.4 123.3 0.4 123.2 0.5 123.2 0.4zM116.2 1.9C116.2 1.8 116.4 1.8 116.2 1.9L116.2 1.9zM116.2 1.9C116.3 2.3 115.9 1.9 116.2 1.9L116.2 1.9zM109.4 5.2C109.5 5.2 109.4 5.4 109.4 5.2L109.4 5.2zM60.5 8.2c-0.1 0.3-0.1 0.4 0 0.7 0 0.3-0.3 0.8-0.1 0.9 -0.2 0.2-0.3 0.5-0.3 0.9 -0.4 0.3-0.3 1-0.8 1.2 -0.1 0.6-0.4 1.1-0.8 1.6 -0.1 0.1-0.2 0.1-0.3 0.2 -0.1 0.1-0.1 0.5-0.3 0.6 -0.2 0-0.1-0.5 0-0.6 -0.3 0.1-0.4 0.4-0.5 0.7 -0.3 0-0.6 0.1-0.7 0.6 -0.2-0.2-0.3-0.2-0.6-0.1 0.2-0.2 0-0.1 0-0.4 -0.3-0.1-0.3 0.2-0.6 0.1 0.2-1.5 0.7-2.6 0.9-4.1 0.3 0 0.2-0.4 0.4-0.5 -0.2-0.5 0.1-1.2 0.5-1.5 -0.2-0.3 0.1-1 0.2-1.4 0.1-0.3-0.2-0.3 0-0.5 0.3-0.2 0.4 0.4 0.9 0.1 0.1 0.2 0.3 0.3 0.4 0.5C59.8 7.1 60 7.8 60.5 8.2zM57.4 12.1c-0.1 0-0.2 0-0.2 0.1C57.3 12.1 57.4 12.2 57.4 12.1zM58.1 12.2c-0.1 0.1-0.5-0.1-0.5 0.1C57.8 12.3 57.9 12.4 58.1 12.2zM56.4 12.8C56.4 12.7 56.3 12.8 56.4 12.8 56.3 12.9 56.5 12.8 56.4 12.8zM58 13c0.2 0.1 0.4-0.3 0.2-0.3C58.1 12.9 58 12.9 58 13zM57.6 13C57.6 13 57.4 13.1 57.6 13 57.5 13.2 57.6 13.1 57.6 13zM57.6 13.4C57.6 13.4 57.4 13.5 57.6 13.4 57.5 13.6 57.6 13.5 57.6 13.4zM101.7 8.5C101.6 8.4 101.7 8.3 101.7 8.5 101.8 8.4 101.7 8.5 101.7 8.5zM101.6 8.7C101.5 8.7 101.6 8.6 101.6 8.7 101.7 8.7 101.6 8.8 101.6 8.7zM101.5 8.9C101.5 8.8 101.6 8.9 101.5 8.9 101.4 9.1 101.4 8.9 101.5 8.9zM82.1 10.9C82.1 10.8 82.2 10.8 82.1 10.9 82.3 10.8 82.1 10.9 82.1 10.9zM82.6 11.2C82.6 11.1 82.7 11.1 82.6 11.2 82.7 11.2 82.6 11.2 82.6 11.2zM26.3 11.3c0.2-0.1 0.6 0.5 0.7 0 0.3 0.3 0.6 0.5 1.2 0.5 0.1 0.2 0 0.6 0.4 0.6 -0.1 0.2-0.2 0.5 0.2 0.5 -0.3 0.5-0.8 0.8-0.9 1.5 -0.5 0.4-0.9 1-1.2 1.7 -0.4 0-0.3 0.5-0.6 0.6 0 0.4-0.4 0.4-0.4 0.8 -0.1 0.1-0.2 0.1-0.4 0.1 0 0.4-0.3 0.5-0.3 0.9 -0.2 0-0.3 0.1-0.3 0.2 -0.6 0.2-0.5-0.2-1.2-0.1 0-0.7 0.4-1 0.3-1.8 0.5-0.5 0.4-1.6 1-2.1 0.1-0.6 0.4-1 0.7-1.4 0.1-0.5 0.4-0.9 0.7-1.3C26.2 11.7 26.2 11.4 26.3 11.3zM25.1 14.3C25.1 14.3 25 14.4 25.1 14.3 25.1 14.4 25.2 14.4 25.1 14.3zM26.3 15.9C26.3 15.9 26.2 15.9 26.3 15.9 26.2 16 26.4 15.9 26.3 15.9zM24.7 16.8C24.7 16.7 24.7 16.6 24.7 16.8 24.6 16.8 24.7 16.9 24.7 16.8zM100.9 11.8c0.3 0.1-0.2 0.4-0.2 0.6C100.4 12.2 100.9 12 100.9 11.8zM100.4 12.8c0-0.1 0.1-0.1 0.1-0.3C100.7 12.4 100.6 12.9 100.4 12.8zM100.4 12.8c0 0.3-0.1 0.4-0.3 0.5C100.1 13 100.3 12.9 100.4 12.8 100.3 12.8 100.4 12.8 100.4 12.8zM100.1 13.2c0 0.3-0.1 0.4-0.2 0.6C99.6 13.7 100 13.4 100.1 13.2 100 13.2 100.1 13.2 100.1 13.2zM99.7 14C99.7 14 99.8 13.9 99.7 14 99.9 14 99.7 14.1 99.7 14zM99.4 14.5c0-0.2 0-0.4 0.3-0.4C99.6 14.3 99.6 14.5 99.4 14.5zM110.2 14.2c0-0.1 0.1 0 0.2 0C110.3 14.3 110.2 14.3 110.2 14.2zM99.4 14.5C99.4 14.6 99.3 14.6 99.4 14.5L99.4 14.5zM109.9 14.6C109.9 14.5 110 14.5 109.9 14.6L109.9 14.6zM110.4 14.6C110.3 14.6 110.4 14.5 110.4 14.6 110.5 14.6 110.4 14.6 110.4 14.6zM33 14.6c0.1 0 0.1 0 0.2 0 0 0.1 0 0.1 0 0.2 -0.1 0-0.1 0-0.2 0C33 14.7 33 14.7 33 14.6zM109.9 14.6c0 0.1 0 0.2-0.1 0.2C109.8 14.7 109.8 14.6 109.9 14.6zM110.3 14.8C110.2 14.8 110.3 14.7 110.3 14.8 110.4 14.8 110.3 14.8 110.3 14.8zM109.7 14.9C109.7 14.8 109.7 14.8 109.7 14.9 109.8 14.9 109.8 14.9 109.7 14.9zM109.7 14.9c0 0.2-0.1 0.2-0.1 0.4 -0.4-0.1-0.2 0.4-0.5 0.3C109.3 15.3 109.4 15 109.7 14.9zM109.9 15.2C109.8 15.1 109.9 15.1 109.9 15.2 110 15.1 109.9 15.2 109.9 15.2zM109.8 15.4C109.8 15.3 109.9 15.3 109.8 15.4 109.9 15.5 109.8 15.4 109.8 15.4zM108.8 16C108.7 15.9 108.9 15.9 108.8 16 108.9 15.9 108.8 16 108.8 16zM108.2 16.7c0-0.1 0.1-0.1 0.2-0.1C108.4 16.7 108.3 16.6 108.2 16.7zM94.8 16.9C94.7 16.5 95.1 16.8 94.8 16.9L94.8 16.9zM108.8 17.1C108.3 17.2 108.9 16.6 108.8 17.1L108.8 17.1zM108.1 17.1c-0.1 0.3-0.3 0.5-0.5 0.7C107.5 17.6 107.8 17.1 108.1 17.1zM108.1 17.7C108.1 17.7 108.2 17.6 108.1 17.7 108.3 17.7 108.1 17.8 108.1 17.7zM107.1 18.2C107.2 18.1 107.2 18.2 107.1 18.2 107.2 18.3 107.1 18.3 107.1 18.2zM106.8 18.7C106.8 18.6 107 18.7 106.8 18.7L106.8 18.7zM106.7 18.8C106.8 18.8 106.8 18.7 106.7 18.8 106.8 18.8 106.8 18.8 106.7 18.8zM106.7 18.8C106.8 19.2 106.5 18.8 106.7 18.8L106.7 18.8zM101.5 19.3C101.5 19.2 101.6 19.2 101.5 19.3 101.5 19.4 101.5 19.4 101.5 19.3zM106.5 19.3C106.4 19.3 106.5 19.2 106.5 19.3 106.6 19.3 106.5 19.3 106.5 19.3zM106.5 19.9c0-0.2 0-0.3 0.2-0.3C106.6 19.7 106.5 19.8 106.5 19.9zM106.5 19.9C106.5 20 106.3 19.9 106.5 19.9L106.5 19.9zM106.1 20.5C106.1 20.4 106.2 20.4 106.1 20.5L106.1 20.5zM105 21.8c0.1 0 0.1 0.1 0.3 0.1 0 0.1-0.2 0.1-0.2 0.2C105 22.1 105 22 105 21.8zM19.2 40.1C19.2 40.1 19.2 40.1 19.2 40.1 19.1 40 19.1 40.1 19.2 40.1c0 0.7-0.6 1.2-0.7 2.1 -0.2 0-0.2 0.3-0.4 0.3 0.1 0.6-0.4 0.7-0.2 1.1 -0.3 0-0.1 0.4-0.4 0.4 0 0.1 0 0.3 0 0.4 -0.5 0.6-0.6 1.6-1.2 2.2 0 0.4-0.3 0.4-0.2 0.9 -0.2 0-0.2 0.2-0.2 0.4 -0.1 0-0.1-0.1-0.2-0.1 0.1 0.4-0.6 0.5-0.1 0.7 0 0.1-0.1 0.2-0.3 0.2 0 0.8-0.6 1-0.7 1.8 -0.1 0-0.2 0.1-0.3 0 0 0.2 0 0.4 0 0.6 -0.2 0.4-0.4 0.7-0.7 1 0 0.1 0.1 0.2 0.1 0.4 -0.1 0.1-0.2 0.1-0.4 0.2 0 0.2 0.1 0.2 0.1 0.4 0 0-0.2 0-0.2 0 -0.1 0.1 0 0.5-0.1 0.6 -0.1 0-0.2 0-0.3 0 0.2 0.3-0.2 0.6-0.2 1.1 -0.4 0-0.3 0.4-0.6 0.4 0.4 0.2 0 0.9-0.4 0.9 0.1 0.1 0.1 0.3 0.1 0.5 -0.4 0.2-0.3 0.3-0.4 0.7 -0.1 0-0.2 0-0.2-0.1 0.1 0 0.1-0.1 0.1-0.2 -0.1 0-0.1 0.1-0.1 0.2 -0.1 0-0.1 0.2 0.1 0.2 -0.2 0.4-0.5 0.8-0.6 1.4 -0.3-0.3-0.1 0.2-0.4 0.2 0 0.2 0 0.4 0 0.6 -0.2 0.2-0.6 0.7-0.5 0.9 -0.1 0.1-0.6 0.5-0.4 0.6 0 0.1-0.2 0.1-0.3 0.1 0.3 0.9-0.9 1.2-0.6 2.1 -0.3 0-0.3 0.3-0.7 0.2 0 0.1 0.2 0.1 0.3 0.2 -0.1 0.4-0.6 0.5-0.5 1.2 -0.3 0.1-0.5 0.3-0.5 0.7 -0.5 0.1-0.7 0.8-0.7 1.2 -0.1 0-0.2 0-0.2-0.2 -0.3 0-0.2 0.5-0.2 0.8C6 66.9 6 67.1 5.8 66.9c0.3 0.4-0.3 0.3-0.2 0.9 -0.1 0-0.1 0-0.2 0 0.1 0.4-0.3 0.3-0.3 0.7 -0.2 0-0.1-0.3-0.3-0.3 -0.2 0.2 0.2 0.3 0.1 0.7 -0.2 0.1-0.2 0.4-0.4 0.2 0.1 0.3 0.1 0.4-0.3 0.4 0 0.2 0.2 0.1 0.2 0.3 -0.3 0-0.2 0.4-0.3 0.7 -0.1 0-0.2 0.1-0.4 0.1 0 0.4-0.3 0.5-0.5 0.7 0 0.2 0.2 0.2 0.1 0.5 -0.4 0.1-0.3 0.1-0.7 0 -0.1 0-0.2 0-0.2-0.2 -0.2 0-0.4 0.2-0.7 0.1 0-0.3-0.2-0.4-0.4-0.6 0-0.4-0.2-0.6-0.5-0.8 0-0.1 0-0.3 0-0.4 -0.1-0.1-0.3-0.2-0.3-0.4 0.1-0.3 0.2-0.2 0.1-0.6 -0.2 0 0.1 0.4-0.3 0.3 -0.1-0.5 0-0.6-0.1-1.2 0.1 0.1 0.2 0.3 0.4 0.3 0.1-0.3-0.5-0.4-0.2-0.6 0-0.1-0.2-0.1-0.4-0.1 0-0.1 0-0.2 0-0.3 0-0.3 0.3-0.1 0.5-0.4 -0.2-0.1-0.3-0.5 0-0.7 0-0.1-0.2-0.1-0.2-0.2 0-0.4 0.2-1 0-1.5 0.1-0.1 0.1-0.2 0.2-0.4 -0.1-1.1 0.1-2 0-3 0-0.2 0.1-0.3 0.2-0.3 -0.3-0.7 0.1-1.5-0.1-2 0.1-0.7 0-2 0.4-2.4 -0.2-0.5-0.1-1 0.1-1.4 0.2 0 0 0.3 0.1 0.5 0.5 0 0.1-0.7 0.1-1.1 0.3 0 0.1-0.4 0.4-0.4 0-0.2-0.3-0.1-0.2-0.4 -0.1 0.1-0.2 0.2-0.2 0.5 -0.5-0.2 0.3-0.6 0-0.8 0.1-0.2 0.3-0.4 0.5-0.5 0-0.4 0-0.6 0.2-0.8 0-0.2-0.2-0.2-0.4-0.2 -0.2-0.6 0.1-1.6 0.3-2.2 -0.1-0.5 0.2-1.2-0.1-1.8 0.2-0.4 0.2-0.8 0.3-1.5 0.3-0.2 0.3-0.6 0.4-1.1C2.9 45.3 3 45 3 44.6c0.2-0.1 0.4-0.3 0.5-0.5 0-0.1-0.1-0.1-0.1 0 -0.1-0.1-0.1-0.4 0-0.6 0 0 0.2 0 0.2 0 0.1-0.1 0-0.3 0-0.4C4 43.1 4 42.7 4.2 42.6 4.6 42.6 4 42.9 4.5 43c0.3 0-0.2-0.4 0.1-0.4 0.2-0.2 0.5 0 0.7 0.1 0.3-0.1 0.6-0.7 1.1-0.4 0.1-0.3 0.6-0.4 0.7 0 -0.2 0-0.3-0.2-0.5 0 0 0.2 0.5 0.2 0.5 0 0.1 0 0.2 0 0.2-0.2 0.4 0 0.3 0.1 0.5-0.1 0.1 0 0.3 0 0.4 0 0.3-0.1 0.2 0.2 0.4 0.3 0.2 0.1 0.8-0.1 0.6 0.2 0 0-0.1 0-0.1 0 0 0.1 0.1 0.1 0.1 0 0.1 0 0.2 0.1 0.4 0.1 0 0.3 0 0.5 0.1 0.8 -0.1 0.2-0.7 0.1-0.6 0.6 -0.3-0.1-0.4 0.1-0.7 0.1 -0.6 0.5-1.2 1-1.9 1.5 0 0.1-0.1 0.2 0 0.2 -0.4 0.5-0.7 1-0.9 1.7 -0.3 0-0.1 0.4-0.4 0.3 0 0.1 0 0.2 0.2 0.2 -0.1 0.4-0.3 0.7-0.2 1C5.1 48.8 5 49 4.9 49c0.2 0.3 0 0.3 0.1 0.6 -0.1 0-0.2 0.2-0.3 0.2 0.1 0.3 0.2 0.8-0.2 0.9 0.1 0.2 0.2 0.2 0.1 0.5 0 0.3-0.2 0.4-0.4 0.5 0 0.6-0.2 0.9-0.2 1.5 -0.2 0-0.1 0.3-0.3 0.3 0 0.9-0.3 1.7-0.4 2.5 -0.1 0-0.2 0-0.3-0.1C3 56.2 3.4 56 3.3 56.2c0 0.6-0.2 0.9-0.2 1.5 0 0.1 0 0.2-0.2 0.2 0.1 0.2 0.3 0.5-0.1 0.6 0.3 0.3 0.1 1.2-0.1 1.6 0 0.1 0.1 0.1 0.1 0 0.2 0.2 0.1 0.3 0.1 0.7 -0.1 0-0.1-0.1-0.2-0.1 0.1 0.4 0.2 0.6-0.1 0.8 0 0.3 0.2 0.3 0.3 0.6 -0.2 0-0.1 0.2-0.3 0.2 -0.1 0.5 0.1 1.2-0.1 1.5 0.3 0.1 0 0.5 0.3 0.5 -0.2 0.1-0.3 0.9 0 1 0 0.2-0.1 0.2-0.3 0.2 0.1 0.1 0.1 0.3 0.1 0.6 0.3-0.1 0.1-0.1 0.1-0.4 0.1 0 0.3 0 0.4 0 0.2-0.7 0.6-1.2 0.9-1.9 0.4-0.5 0.5-1.3 1-1.8 0-0.2 0-0.3 0-0.5 0.1 0 0.2 0 0.3-0.1 0.4-1.1 0.9-2.2 1.6-3 0-0.7 0.5-0.9 0.6-1.6 0.1 0 0.1 0 0.2 0 0.2-0.8 0.7-1.3 0.9-2.2 0.2 0 0.2-0.3 0.4-0.3 0.1-0.8 0.7-1.2 0.8-2 0.1 0 0.1-0.1 0.3-0.1 -0.2-0.3 0.3-0.5 0.2-0.9 0.3 0 0.1-0.4 0.4-0.4 0.3-1.5 1.3-2.2 1.6-3.7 0.3-0.2 0.4-0.7 0.7-0.9 0.1-0.8 0.6-1.1 0.7-1.9 0.5-0.5 0.8-1.1 0.8-1.8 0.5-0.2 0.4-0.8 0.8-1.1 -0.1-0.4 0.3-0.4 0.2-0.8 0.4-0.3 0.4-1 0.8-1.3 0-0.1 0-0.3 0-0.4 0.7-0.8 0.9-2.2 1.6-3 0-0.2 0-0.3 0-0.5 0.7-0.5 0.7-1.8 1.2-2.6 -0.4 0.1-0.6 0.4-0.7 0.8 -0.4 0-0.2 0.6-0.7 0.5 0.6-2.1 2-3.3 2.8-5.1 0.1 0 0.2 0 0.3-0.1 0.4-1 1-1.9 1.3-3.1 0.1 0 0.1-0.2 0.2-0.2 0-0.2 0-0.4 0-0.6 0.3 0 0.3 0.3 0.5 0.3 0.2 0 0.2-0.3 0.5-0.2 0.4-0.7 0.7-1.4 1.1-2.2 0.3 0 0.2 0.4 0.4 0.5 -0.4 0.7-1 1.1-1.1 2.1 0.1 0.1 0.3 0.1 0.4 0.3 -0.3 0.2 0 0.2 0 0.5 -0.2 0.1 0 0.6-0.2 0.7 0 0.1 0.1 0.1 0.2 0.1 -0.3 0.4-0.2 1.2-0.5 1.6 0 0.2 0 0.4 0 0.6C23 29.9 23 30 23 30.6c-0.3 0.1-0.1 0.6-0.4 0.6 0.1 0.1 0.1 0.3 0.1 0.5 -0.1 0-0.1 0-0.2 0 0 0.7-0.5 1.1-0.6 1.9 -0.3 0-0.1 0.4-0.4 0.3 0.1 0.3 0 0.2 0 0.6 -0.5 0.4-0.5 1.1-0.9 1.6 0 0.1 0.1 0.2 0.1 0.4 -0.3 0.2-0.3 0.7-0.4 1.1 -0.1 0-0.2 0.2-0.3 0.2 -0.1 0.5-0.3 1-0.6 1.3 0.1 0.1 0 0.5-0.2 0.6 0 0.2 0.1 0.3 0.2 0.3 0 0.1-0.1 0.1-0.2 0.1C19.2 40 19.3 40.1 19.2 40.1zM18.4 35.9C18.2 36.2 18.7 35.7 18.4 35.9L18.4 35.9zM19.6 37C19.5 37 19.4 37 19.6 37 19.5 37.1 19.6 37 19.6 37zM18 37.2C17.8 37.5 18.3 37 18 37.2L18 37.2zM18.7 38.1c0.3 0.1 0.3-0.4 0-0.3C18.7 37.9 18.7 38 18.7 38.1zM18.1 38.3c0.1 0 0.1 0 0.2 0 0-0.1 0-0.1 0-0.2 -0.1 0-0.1 0-0.2 0C18.1 38.1 18.1 38.2 18.1 38.3zM17.4 38.4c-0.1 0-0.2 0-0.2 0.1C17.3 38.4 17.4 38.5 17.4 38.4zM16.6 39.8c0.1-0.3 0-0.3 0-0.7 0.1 0 0.1-0.1-0.1-0.1C16.5 39.3 16.2 39.7 16.6 39.8zM16.3 39.8C16.3 39.8 16.2 39.9 16.3 39.8 16.3 40 16.4 39.9 16.3 39.8zM17.5 40.1c-0.1 0-0.2 0-0.2 0.1C17.4 40.2 17.5 40.2 17.5 40.1zM18.7 41.1C18.7 41.1 18.5 41.1 18.7 41.1 18.6 41.2 18.7 41.1 18.7 41.1zM15.5 42c0.3 0 0.7-0.4 0.3-0.5C15.8 41.8 15.4 41.6 15.5 42zM16.7 42.9C16.7 42.8 16.7 42.7 16.7 42.9c0.1-0.2 0.1-0.3-0.1-0.3C16.6 42.7 16.6 42.8 16.7 42.9zM7.2 42.7c-0.1 0-0.2 0-0.2 0.1C7.1 42.7 7.2 42.8 7.2 42.7zM4.1 43.1c0 0.2-0.1 0.2-0.1 0.3 0.1 0 0.1 0 0.2 0C4.3 43.3 4.3 43.2 4.1 43.1 4.1 43 4 43.2 4.1 43.1zM16.8 43.5C16.8 43.5 16.7 43.6 16.8 43.5 16.8 43.7 16.9 43.6 16.8 43.5zM15.2 44.2c0-0.2 0.2-0.3-0.1-0.4C15.1 44 15 44.2 15.2 44.2zM14.3 44.2c0.1 0 0.1 0.1 0.2 0.1 0-0.1 0-0.2 0.1-0.3 -0.1 0-0.2 0-0.3 0C14.3 44.1 14.3 44.2 14.3 44.2zM14.1 44.7C14.1 44.7 13.9 44.8 14.1 44.7 14 44.8 14.1 44.8 14.1 44.7zM15 45.3c0.1-0.1 0.1-0.2 0.2-0.4C14.8 44.8 14.6 45.3 15 45.3zM14 45.4c0.1-0.2-0.3-0.4-0.3-0.2C13.9 45.2 13.8 45.5 14 45.4zM16.5 45.1C16.5 45.1 16.4 45.2 16.5 45.1 16.5 45.2 16.6 45.2 16.5 45.1zM13.7 45.9C13.6 45.9 13.7 46 13.7 45.9 13.8 45.8 13.7 45.8 13.7 45.9zM13.4 46.1C13.4 46 13.3 46 13.4 46.1 13.3 46.1 13.4 46.2 13.4 46.1zM13.6 46.2C13.6 46.2 13.5 46.2 13.6 46.2 13.5 46.3 13.7 46.2 13.6 46.2zM14.1 46.7c0-0.1-0.2-0.1-0.2 0C14 46.7 14 46.8 14.1 46.7zM15.1 47.7C14.7 47.4 14.8 48.1 15.1 47.7L15.1 47.7zM13.7 47.7C13.7 47.7 13.5 47.8 13.7 47.7 13.6 47.9 13.7 47.8 13.7 47.7zM12.5 48C12.5 48 12.4 47.9 12.5 48 12.4 48.1 12.5 48.1 12.5 48zM13.4 48.2C13.4 48.2 13.3 48.3 13.4 48.2 13.3 48.4 13.5 48.3 13.4 48.2zM13.2 48.7C12.9 48.4 12.9 49.1 13.2 48.7L13.2 48.7zM14.5 48.6c-0.1 0-0.2 0-0.2 0.1C14.4 48.7 14.5 48.7 14.5 48.6zM4.5 48.7C4.5 48.7 4.4 48.8 4.5 48.7 4.4 48.8 4.6 48.8 4.5 48.7zM11.8 49.1C11.6 49.4 12.2 48.9 11.8 49.1L11.8 49.1zM3.8 49.5C3.8 49.5 3.7 49.6 3.8 49.5 3.8 49.6 3.9 49.6 3.8 49.5zM4.3 49.9c-0.1 0-0.2 0-0.2 0.1C4.2 50 4.3 50 4.3 49.9zM12.7 50.3C12.7 50.3 12.7 50.3 12.7 50.3 12.6 50.3 12.6 50.2 12.7 50.3c-0.2-0.1-0.2-0.1-0.2-0.2 -0.1 0-0.1 0-0.2 0C12.3 50.3 12.5 50.3 12.7 50.3 12.6 50.5 12.7 50.5 12.7 50.3c0.1-0.1 0.2-0.1 0.4-0.1 0-0.1 0-0.1 0-0.2 -0.1 0-0.1-0.1-0.2-0.1C13 50.2 12.6 50 12.7 50.3zM2.3 50.5C2.2 50.5 2.1 50.5 2.3 50.5 2.2 50.6 2.3 50.5 2.3 50.5zM3.3 50.9c0.3 0.1 0.2-0.2 0.3-0.3 -0.1 0-0.2 0-0.3 0C3.3 50.7 3.3 50.8 3.3 50.9zM2.1 51C2.1 50.9 2.1 50.9 2.1 51c0.1-0.2 0.1-0.3-0.1-0.3C2 50.8 2 51 2.1 51zM2.6 50.9C2.5 50.8 2.4 50.9 2.6 50.9 2.5 51 2.6 50.9 2.6 50.9zM4.5 51.1C4.5 51 4.4 51.1 4.5 51.1 4.4 51.2 4.6 51.1 4.5 51.1zM12.1 51.2c0 0.1 0 0.4 0.1 0.4 0-0.3 0.4-0.1 0.4-0.3 -0.1 0-0.1-0.2-0.2-0.2C12.4 51.2 12.3 51.2 12.1 51.2zM2 51.6c0-0.1-0.2-0.1-0.2 0C1.9 51.5 1.9 51.7 2 51.6zM12.6 51.5C12.6 51.4 12.5 51.5 12.6 51.5 12.6 51.6 12.7 51.5 12.6 51.5zM12.4 51.7C12.4 51.6 12.3 51.7 12.4 51.7 12.4 51.8 12.5 51.7 12.4 51.7zM12.9 51.9C12.8 52.5 13.2 52.1 12.9 51.9 12.9 51.8 12.8 52 12.9 51.9zM11.7 52.4C11.7 52.4 11.6 52.5 11.7 52.4 11.7 52.6 11.8 52.5 11.7 52.4zM2.2 53C2 53.1 2.2 53.1 2.2 53 2.3 53 2.2 52.9 2.2 53zM2.5 53.2C2.4 53.2 2.3 53.3 2.5 53.2 2.4 53.3 2.5 53.3 2.5 53.2zM1.6 53.5c0.1 0.1 0.2 0.1 0.3-0.1 -0.1 0-0.1-0.1-0.3-0.1C1.6 53.4 1.6 53.4 1.6 53.5zM12.4 53.3C12.4 53.3 12.3 53.4 12.4 53.3 12.4 53.4 12.5 53.4 12.4 53.3zM2.2 53.4C2.1 53.4 2 53.5 2.2 53.4 2.1 53.5 2.2 53.5 2.2 53.4zM3 53.4c-0.1 0-0.2 0-0.2 0.1C2.9 53.5 3 53.5 3 53.4zM3.3 54.4C3.3 54.3 3.3 54.3 3.3 54.4 3.2 54.4 3.3 54.5 3.3 54.4zM10.9 54.5c0-0.1-0.2-0.1-0.2 0C10.7 54.6 10.8 54.5 10.9 54.5zM9 54.9C9 54.9 8.9 54.9 9 54.9 8.9 55 9.1 54.9 9 54.9zM10.7 54.9C10.6 54.9 10.5 54.9 10.7 54.9 10.6 55 10.7 54.9 10.7 54.9zM2 55C1.9 54.9 1.8 55 2 55 1.9 55.1 2 55 2 55zM2.3 55.2c-0.1 0-0.2 0-0.2 0.1C2.1 55.2 2.3 55.3 2.3 55.2zM10.8 55.5C10.7 55.4 10.6 55.5 10.8 55.5 10.7 55.6 10.8 55.5 10.8 55.5zM1.4 56.4c0-0.3 0.2-0.5-0.2-0.5C1.2 56.1 1.2 56.4 1.4 56.4zM10.3 56.1C9.7 56 10.1 56.4 10.3 56.1L10.3 56.1zM11.5 56.1c-0.1 0-0.3 0-0.3 0.1C11.4 56.2 11.5 56.3 11.5 56.1zM2.7 56.3C2.4 56.4 2.7 56.8 2.7 56.3 2.8 56.3 2.6 56.2 2.7 56.3zM1.9 56.3C1.8 56.3 1.7 56.4 1.9 56.3 1.8 56.5 1.9 56.4 1.9 56.3zM9.7 56.6c0.2 0 0.3 0 0.5 0 0-0.2-0.1-0.3-0.3-0.3C9.9 56.5 9.8 56.5 9.7 56.6zM2.2 56.5C2.1 56.5 2 56.6 2.2 56.5 2.1 56.7 2.2 56.6 2.2 56.5zM8 56.5C8 56.5 7.9 56.6 8 56.5 8 56.7 8.1 56.6 8 56.5zM1.3 56.6C1.3 56.6 1.1 56.7 1.3 56.6 1.2 56.8 1.3 56.7 1.3 56.6zM11.1 57C11 57 10.9 57.1 11.1 57 11 57.2 11.1 57.1 11.1 57zM2.1 57.2C2 57.2 1.9 57.3 2.1 57.2 2 57.3 2.1 57.3 2.1 57.2zM2.5 57.5C2.4 57.5 2.3 57.6 2.5 57.5 2.4 57.6 2.5 57.6 2.5 57.5zM9.2 57.5C9.2 57.5 9.1 57.6 9.2 57.5 9.1 57.6 9.3 57.6 9.2 57.5zM1.2 58.1C1.2 58 1.1 57.9 1.2 58.1 1.1 58.1 1.1 58.3 1.2 58.1zM9.3 58.1C9.3 58.1 9.2 58.2 9.3 58.1 9.2 58.2 9.3 58.2 9.3 58.1zM9.8 58.3c-0.1 0-0.2 0-0.2 0.1C9.7 58.4 9.8 58.4 9.8 58.3zM10.5 58.3C10.4 58.3 10.3 58.3 10.5 58.3 10.4 58.4 10.5 58.4 10.5 58.3zM9.2 58.5C9.2 58.5 9.1 58.5 9.2 58.5 9.1 58.6 9.3 58.5 9.2 58.5zM2.4 58.8c0 0.1 0 0.1 0 0.2 0.1 0 0.1 0 0.2 0 0-0.1 0-0.1 0.1-0.1 0-0.1 0-0.1 0-0.2C2.6 58.7 2.5 58.7 2.4 58.8 2.5 58.8 2.4 58.8 2.4 58.8zM6.8 59.2C6.7 59.2 6.6 59.2 6.8 59.2 6.7 59.3 6.8 59.2 6.8 59.2zM9.1 59.3C9.1 59.2 9 59.3 9.1 59.3 9 59.4 9.2 59.3 9.1 59.3zM10 59.4C10 59.3 9.9 59.3 10 59.4 9.9 59.4 10 59.5 10 59.4zM1.2 59.5c-0.1 0-0.2-0.1-0.2 0C1 59.6 1.2 59.6 1.2 59.5zM8.6 59.5C8.6 59.4 8.5 59.5 8.6 59.5 8.5 59.6 8.7 59.5 8.6 59.5zM9.2 59.5C9.2 59.4 9.1 59.5 9.2 59.5 9.1 59.6 9.3 59.5 9.2 59.5zM8.3 59.7C8.3 59.6 8.2 59.7 8.3 59.7 8.3 59.8 8.4 59.7 8.3 59.7zM1 60.4c0.1 0 0.1 0.1 0.2 0.1 0-0.2 0-0.3-0.2-0.3C1 60.2 1 60.3 1 60.4zM1.6 60.3C1.6 60.2 1.4 60.3 1.6 60.3 1.5 60.4 1.6 60.3 1.6 60.3zM1.7 60.5c0.1 0 0.1 0 0.2 0 0-0.1 0-0.1 0-0.2 -0.1 0-0.1 0-0.2 0C1.7 60.4 1.7 60.5 1.7 60.5zM8.1 60.5C8.1 60.5 8 60.6 8.1 60.5 8.1 60.7 8.2 60.6 8.1 60.5zM2.5 60.8C2.4 60.8 2.3 60.9 2.5 60.8 2.4 61 2.5 60.9 2.5 60.8zM1.1 61.3c0-0.2-0.1-0.3-0.2-0.3C0.9 61.2 1 61.3 1.1 61.3zM9 61.3C9 61.3 8.9 61.4 9 61.3 8.9 61.5 9.1 61.4 9 61.3zM8.8 61.4C8.8 61.4 8.7 61.5 8.8 61.4 8.7 61.6 8.9 61.5 8.8 61.4zM8.1 61.5C8.1 61.5 8 61.6 8.1 61.5 8.1 61.6 8.2 61.6 8.1 61.5zM8 62C8 62 7.9 62.1 8 62 8 62.1 8.1 62.1 8 62zM2.5 62.2C2.4 62.2 2.3 62.3 2.5 62.2 2.4 62.3 2.5 62.3 2.5 62.2zM1.1 62.5c0-0.1-0.2-0.1-0.2 0C0.9 62.6 1 62.6 1.1 62.5zM7.1 62.4c-0.1 0-0.2 0-0.2 0.1C7 62.5 7.1 62.5 7.1 62.4zM1 62.8C1 62.8 0.8 62.8 1 62.8 0.9 62.9 1 62.8 1 62.8zM1 63.5c0-0.2 0.1-0.5-0.2-0.4C0.8 63.3 0.8 63.5 1 63.5zM1.4 63.5c0.2 0 0.1 0.3 0.2 0.3 0-0.1 0.2-0.1 0.2-0.2 -0.1 0-0.2 0-0.2-0.1 0.1 0 0.1-0.2 0-0.2C1.6 63.4 1.4 63.4 1.4 63.5zM7.7 63.3C7.7 63.3 7.6 63.3 7.7 63.3 7.7 63.4 7.8 63.3 7.7 63.3zM6.8 63.5C6.5 63.8 7.1 63.2 6.8 63.5L6.8 63.5zM2.4 63.7C2.3 63.6 2.2 63.7 2.4 63.7 2.3 63.8 2.4 63.7 2.4 63.7zM2.1 63.8C2 63.7 1.9 63.8 2.1 63.8 2 63.9 2.1 63.8 2.1 63.8zM2.4 64c-0.1 0-0.2 0-0.2 0.1C2.2 64 2.4 64.1 2.4 64zM7.3 64.2c0.2 0 0.3 0 0.3-0.2 -0.1 0-0.1 0-0.2 0C7.4 64.1 7.4 64.1 7.3 64.2zM0.9 64.5C1 64.6 1 64.4 0.9 64.5 0.9 64.2 0.5 64.6 0.9 64.5zM2.3 64.6C2.3 64.5 2.2 64.3 2.3 64.6 2.2 64.6 2.2 64.7 2.3 64.6zM7.1 64.5C7.2 64.4 7 64.3 7.1 64.5 6.7 64.1 6.9 64.8 7.1 64.5zM0.7 64.9c0.1 0 0.1 0.1 0.2 0.1 0-0.1 0-0.2 0.1-0.3 -0.1 0-0.2 0-0.3 0C0.7 64.8 0.7 64.9 0.7 64.9zM6.8 64.9c0.1 0 0.2 0 0.3 0 0-0.2-0.1-0.2-0.3-0.2C6.8 64.8 6.8 64.9 6.8 64.9zM6.1 64.9c-0.1 0-0.2 0-0.2 0.1C6 65 6.1 65 6.1 64.9zM2.1 65.3c0.1 0 0.1 0 0.2 0 0-0.1 0-0.1 0-0.2 -0.1 0-0.1 0-0.2 0C2.1 65.2 2.1 65.3 2.1 65.3zM5.5 65.3C5.3 65.4 5.5 65.5 5.5 65.3c0.1 0 0.1 0 0.2 0 0-0.1 0-0.1 0-0.2C5.5 65.1 5.5 65.2 5.5 65.3zM0.8 65.4C0.8 65.4 0.7 65.3 0.8 65.4 0.7 65.5 0.8 65.5 0.8 65.4zM1.6 65.3c-0.1 0-0.2 0-0.2 0.1C1.5 65.4 1.6 65.4 1.6 65.3zM2.3 65.6c-0.2-0.1-0.3-0.2-0.5-0.3C1.7 65.6 2.1 65.9 2.3 65.6zM6.3 65.9c0-0.2 0.2-0.1 0.2-0.3C6.3 65.5 6 65.9 6.3 65.9zM5.5 65.7c-0.1 0-0.2 0-0.2 0.1C5.4 65.8 5.5 65.8 5.5 65.7zM1.5 66.1C1.4 66.5 1.8 66.1 1.5 66.1c0-0.1 0-0.1 0-0.2 -0.1 0-0.1 0-0.2 0C1.2 66.1 1.4 66.1 1.5 66.1zM5.5 65.9C5.3 66 5 65.8 5 66 5.2 66.1 5.4 66.2 5.5 65.9zM0.9 66.4C0.9 66.4 0.8 66.3 0.9 66.4 0.8 66.5 0.9 66.5 0.9 66.4zM1.5 66.5C1.5 66.5 1.3 66.6 1.5 66.5 1.4 66.6 1.5 66.6 1.5 66.5zM5.2 66.5C5.2 66.5 5 66.6 5.2 66.5 5.1 66.6 5.2 66.6 5.2 66.5zM5.7 66.5C5.7 66.5 5.5 66.6 5.7 66.5 5.6 66.6 5.7 66.6 5.7 66.5zM5.4 66.6C5.4 66.6 5.2 66.7 5.4 66.6 5.3 66.7 5.4 66.7 5.4 66.6zM0.8 66.8C0.7 67.2 1.1 66.8 0.8 66.8 0.7 66.7 0.7 66.8 0.8 66.8zM4.4 67c0.1 0 0.1 0.1 0.2 0.1 0-0.1 0.1-0.1 0.1-0.2 -0.1 0-0.1-0.1-0.2-0.1C4.5 66.9 4.4 66.9 4.4 67zM1.7 67.3C1.6 67.3 1.5 67.3 1.7 67.3 1.6 67.4 1.7 67.3 1.7 67.3zM4.2 67.3C4.2 67.3 4.1 67.3 4.2 67.3 4.1 67.4 4.3 67.3 4.2 67.3zM1.6 67.5C1.6 67.5 1.4 67.5 1.6 67.5 1.5 67.6 1.6 67.5 1.6 67.5zM4.5 68c0-0.2 0.3-0.4-0.1-0.5C4.5 67.8 4.2 67.9 4.5 68zM1.4 67.6C1.4 67.6 1.2 67.6 1.4 67.6 1.3 67.7 1.4 67.6 1.4 67.6zM4.2 67.7C4.2 67.7 4.1 67.7 4.2 67.7 4.1 67.8 4.3 67.7 4.2 67.7zM5 68C5 67.9 4.9 68 5 68 4.9 68.1 5 68 5 68zM4.3 68.1C4.3 68 4.2 68.1 4.3 68.1 4.2 68.2 4.4 68.1 4.3 68.1zM3.6 68.7c0.2 0.2 0.4-0.3 0.7 0 -0.1-0.2-0.2-0.5-0.5-0.5C3.8 68.4 3.6 68.4 3.6 68.7zM0.7 68.5C0.7 68.4 0.5 68.5 0.7 68.5 0.6 68.6 0.7 68.5 0.7 68.5zM0.9 68.5C0.9 68.4 0.7 68.5 0.9 68.5 0.8 68.6 0.9 68.5 0.9 68.5zM4.7 68.7c-0.1 0-0.2 0-0.2 0.1C4.6 68.7 4.7 68.8 4.7 68.7zM3.4 69.2c0-0.2 0.3-0.1 0.3-0.3C3.5 68.8 3.2 69.2 3.4 69.2zM4.2 69.1c0.1 0 0.1 0 0.2 0C4.6 68.9 4.1 68.9 4.2 69.1 4.2 69.1 4.2 69.1 4.2 69.1zM3.8 69.2C3.8 69.2 3.7 69.3 3.8 69.2 3.8 69.4 3.9 69.3 3.8 69.2zM4.1 69.3C4.1 69.3 4 69.4 4.1 69.3 4 69.5 4.2 69.4 4.1 69.3zM3.2 69.5C3.2 69.5 3.2 69.4 3.2 69.5 3.1 69.6 3.2 69.7 3.2 69.5zM3.3 69.7c0.1 0 0.1 0.1 0 0.2 0.3 0 0.3-0.3 0.4-0.5C3.5 69.4 3.5 69.7 3.3 69.7zM4 69.7C4 69.7 3.9 69.6 4 69.7 3.9 69.8 4 69.8 4 69.7zM3.1 70.6c0 0.2-0.1 0.2-0.1 0.3 0.2 0 0.3-0.1 0.3-0.3C3.3 70.6 3.2 70.6 3.1 70.6c0-0.2 0.1-0.2 0.1-0.3C3 70.4 3.5 69.6 3 69.7 2.9 69.9 3.1 70.4 3.1 70.6zM3.7 70C3.7 70.1 3.7 70.1 3.7 70 3.3 70.2 3.8 70.7 3.7 70 3.8 70.1 3.8 70 3.7 70 3.7 69.9 3.6 70 3.7 70zM4 70.1C4 70.1 3.9 70 4 70.1 3.9 70.2 4 70.2 4 70.1zM3.5 70.7C3.4 70.8 3.5 70.8 3.5 70.7 3.7 70.7 3.5 70.6 3.5 70.7zM98.5 23.4C98.5 23.4 98.6 23.3 98.5 23.4 98.7 23.4 98.6 23.4 98.5 23.4zM98.1 23.8C98.1 23.7 98.3 23.7 98.1 23.8L98.1 23.8zM98.1 23.8C98.2 23.9 98 23.9 98.1 23.8L98.1 23.8zM97.6 24.5C97.5 24.4 97.6 24.4 97.6 24.5 97.7 24.4 97.6 24.5 97.6 24.5zM41.3 25.6C41.2 25.5 41.3 25.4 41.3 25.6 41.4 25.5 41.3 25.6 41.3 25.6zM41.5 25.7C41.5 25.5 41.6 25.6 41.5 25.7 41.5 25.8 41.5 25.7 41.5 25.7zM40.7 26.8c0.1-0.1 0.6-0.6 0.1-0.6 0.1-0.2 0.2-0.3 0.5-0.4C41.1 26.3 41.3 26.9 40.7 26.8zM40.6 26.9C40.6 26.9 40.6 26.8 40.6 26.9 40.7 26.9 40.7 26.9 40.6 26.9zM40.6 26.9c0 0.1 0 0.2-0.1 0.2C40.5 27 40.5 26.9 40.6 26.9zM40.5 27.1c0.1 0.3-0.2 0.2-0.2 0.4C40 27.4 40.4 27.2 40.5 27.1zM39.5 28.3c0.1 0.1 0.1 0.2 0.3 0.2 0 0.1-0.2 0.1-0.4 0.1C39.5 28.5 39.5 28.4 39.5 28.3zM48.6 28.9C48.5 28.8 48.7 28.8 48.6 28.9 48.7 28.8 48.6 28.9 48.6 28.9zM39.2 28.9c0.3 0.1-0.1 0.3-0.1 0.4C38.8 29.2 39.2 29 39.2 28.9zM94.3 29.8C94.3 29.7 94.4 29.6 94.3 29.8 94.5 29.7 94.4 29.8 94.3 29.8zM38.5 30.2C38.5 30.1 38.6 30 38.5 30.2 38.7 30.1 38.6 30.2 38.5 30.2zM38.3 30.3C38.3 30.3 38.4 30.2 38.3 30.3 38.5 30.3 38.4 30.4 38.3 30.3zM73.5 30.3C73.5 30.4 73.4 30.5 73.5 30.3 73.4 30.3 73.5 30.3 73.5 30.3zM60.4 30.5C60.4 30.5 60.4 30.5 60.4 30.5 60.5 30.4 60.5 30.5 60.4 30.5 60.5 30.5 60.5 30.5 60.4 30.5zM37.7 31.2C37.7 31.2 37.8 31.1 37.7 31.2 37.9 31.2 37.8 31.3 37.7 31.2zM37.8 31.5C37.5 31.9 37.5 31.2 37.8 31.5L37.8 31.5zM37.1 32.7c0-0.1 0.1-0.1 0.2-0.1C37.3 32.7 37.1 32.7 37.1 32.7zM38.9 34c-0.1-0.4 0.1-0.5 0.2-0.7C39.4 33.4 39 33.8 38.9 34 39 34 38.9 34 38.9 34zM66 33.6C66 33.5 66 33.5 66 33.6 66.1 33.6 66 33.6 66 33.6zM49 33.9C48.9 33.5 49.3 33.8 49 33.9L49 33.9zM49 33.9C49.3 34.2 48.6 34 49 33.9L49 33.9zM65.1 34.3C65.1 34.2 65.1 34.1 65.1 34.3 65.2 34.2 65.2 34.3 65.1 34.3zM48.5 34.7C48.4 34.7 48.6 34.6 48.5 34.7 48.6 34.7 48.5 34.8 48.5 34.7zM37.5 37.2c0 0.1 0 0.2-0.1 0.2C37.5 37.3 37.5 37.2 37.5 37.2zM61.3 37.3C61.2 37.2 61.4 37.2 61.3 37.3 61.4 37.2 61.3 37.3 61.3 37.3zM34.1 37.4C34.1 37.5 34 37.4 34.1 37.4L34.1 37.4zM37.4 37.4c0 0.3 0 0.6-0.4 0.5 0-0.1 0.1-0.2 0.3-0.2 0-0.1-0.1-0.1-0.1-0.3C37.3 37.4 37.4 37.4 37.4 37.4zM37 38.3C37 38.2 37.1 38.2 37 38.3 37 38.4 37 38.3 37 38.3zM33.4 38.6C33.5 38.4 33.5 38.5 33.4 38.6 33.5 38.7 33.4 38.6 33.4 38.6zM36.8 38.6C36.8 38.4 36.9 38.5 36.8 38.6 36.8 38.7 36.8 38.6 36.8 38.6zM33.1 39C32.6 39.1 33 38.8 33.1 39L33.1 39zM46.2 39.4c0-0.1 0.1-0.1 0.2-0.1C46.4 39.4 46.3 39.4 46.2 39.4zM58.5 39.4C58.5 39.3 58.6 39.4 58.5 39.4L58.5 39.4zM85 40.5C84.9 40.5 85 40.4 85 40.5 85.1 40.5 85 40.5 85 40.5zM89.2 40.5C89.1 40.5 89.2 40.4 89.2 40.5 89.3 40.5 89.2 40.5 89.2 40.5zM32.1 40.6C32.4 40.8 31.8 41.1 32.1 40.6L32.1 40.6zM89.2 40.7C89.1 40.7 89.2 40.6 89.2 40.7 89.3 40.7 89.2 40.7 89.2 40.7zM32.1 41.1C32 41 32.1 41 32.1 41.1 32.2 41.1 32.1 41.1 32.1 41.1zM89 41.4C89 41.3 89.1 41.3 89 41.4 89 41.5 89 41.4 89 41.4zM45.7 41.4c0 0.2-0.1 0.3-0.3 0.3C45.5 41.6 45.4 41.3 45.7 41.4zM31.8 41.6C31.8 41.9 31.4 41.5 31.8 41.6L31.8 41.6zM88.9 42.1C88.9 42 89 42 88.9 42.1 88.9 42.2 88.9 42.1 88.9 42.1zM30.8 43.4c0 0.2 0 0.3-0.1 0.4 0 0-0.1 0-0.1 0C30.6 43.7 30.6 43.5 30.8 43.4 30.7 43.4 30.8 43.4 30.8 43.4zM88.6 43.5C88.6 43.4 88.7 43.5 88.6 43.5 88.6 43.7 88.6 43.6 88.6 43.5zM34.7 43.5c0.1 0.1 0.1 0.6-0.2 0.6C34.5 43.8 34.5 43.6 34.7 43.5zM9.2 43.9C9.2 43.9 9.3 43.8 9.2 43.9 9.3 43.9 9.2 44 9.2 43.9zM30.6 43.8C30.7 44.2 30.3 43.9 30.6 43.8L30.6 43.8zM88.4 44.4C88.3 44.4 88.4 44.3 88.4 44.4 88.5 44.4 88.4 44.4 88.4 44.4zM34.2 44.6C34.2 44.5 34.3 44.5 34.2 44.6c0.2-0.1 0.2-0.1 0.3-0.1 -0.2 0.1-0.1 0.5-0.4 0.5C34 44.8 34.5 44.7 34.2 44.6zM34 45.2C34 45.1 34.2 45.1 34 45.2L34 45.2zM34 45.2C34.1 45.7 33.7 45.3 34 45.2L34 45.2zM23.7 46c0 0.1 0.2 0.1 0.3 0.1 0 0 0 0.1 0 0.1C23.8 46.3 23.4 46.1 23.7 46zM23.4 46.6c-0.2 0-0.3-0.1-0.3-0.2 0.3 0 0.1-0.4 0.4-0.3C23.5 46.3 23.3 46.3 23.4 46.6zM33.5 46.3c0.4 0 0 0.2 0.1 0.5 -0.3 0.1 0 0.2-0.2 0.4C33.2 46.9 33.6 46.6 33.5 46.3zM33.2 47.3c0.2 0 0 0.3 0.1 0.5 -0.5-0.1-0.2 0.6-0.6 0.6C32.7 47.8 33.1 47.6 33.2 47.3zM31.8 51c-0.1-0.2 0.1-0.7 0.4-0.8C32.1 50.6 32 50.8 31.8 51zM31.8 51C31.8 51.1 31.6 51 31.8 51L31.8 51zM31.6 51.4C31.5 51.3 31.7 51.2 31.6 51.4 31.7 51.3 31.6 51.4 31.6 51.4zM1.7 51.9c0 0.5 0 0.8-0.2 1.1 -0.2-0.1-0.1-0.6 0.1-0.6C1.4 52.3 1.4 52 1.7 51.9zM84.7 54.1C84.6 54 84.8 54 84.7 54.1L84.7 54.1zM84.5 54.6C84.4 54.5 84.5 54.5 84.5 54.6 84.6 54.5 84.5 54.6 84.5 54.6zM1.2 55.1c-0.2 0-0.1-0.4 0-0.5C1.5 54.7 1.1 54.8 1.2 55.1zM30 56.6c0 0.2 0 0.3-0.2 0.3C29.9 56.8 29.9 56.7 30 56.6zM82.7 59.6C82.6 59.6 82.6 59.4 82.7 59.6L82.7 59.6zM0.1 61.7C0.1 61.7 0.2 61.6 0.1 61.7 0.3 61.7 0.1 61.7 0.1 61.7zM0.3 63.5C0.3 63.4 0.4 63.4 0.3 63.5 0.5 63.4 0.3 63.5 0.3 63.5zM0.2 63.7C0.3 63.5 0.3 63.7 0.2 63.7 0.3 63.9 0.2 63.8 0.2 63.7zM0 64c0-0.1 0.1 0 0.2 0C0.2 64.1 0 64.1 0 64zM0 64.7C0 64.6 0.1 64.5 0 64.7 0.2 64.6 0 64.7 0 64.7zM0.1 65C-0.2 65 0.2 64.6 0.1 65L0.1 65zM0.1 65.1C0.1 65.1 0.1 65.1 0.1 65.1 0.2 65 0.2 65.1 0.1 65.1zM0.1 65.1C0.2 65.5-0.2 65.2 0.1 65.1L0.1 65.1zM0 66.2C0 66.2 0.1 66.1 0 66.2 0.2 66.2 0 66.2 0 66.2z"/></svg>