<?xml version="1.0" encoding="utf-8"?>
<!-- Generator: Adobe Illustrator 18.1.1, SVG Export Plug-In . SVG Version: 6.00 Build 0)  -->
<svg version="1.1" id="Layer_1" xmlns="http://www.w3.org/2000/svg" xmlns:xlink="http://www.w3.org/1999/xlink" x="0px" y="0px"
	 viewBox="0 0 128.8 71.7" enable-background="new 0 0 128.8 71.7" xml:space="preserve">
  <defs>
    <linearGradient id="gradient" x1="0%" y1="0%" x2="100%" y2="0%">
      <stop offset="0%" style="stop-color: #ed4264;stop-opacity:1" />
      <stop offset="100%" style="stop-color: #ffedbc;stop-opacity:1" />
    </linearGradient>
  </defs>
<path fill-rule="evenodd" clip-rule="evenodd" fill="url(#gradient)" d="M94.8,16.9c0.1,0.6-0.4,0.8-0.1,1.3c-0.2,0.2-0.3,0.4-0.3,0.8
	c-0.2,0-0.1,0.3-0.3,0.3c0.1,0.3-0.1,0.4-0.1,0.7c-0.7,1.1-1.1,2.5-1.6,3.8c0.1,0.2,0.3-0.3,0.5-0.3c0-0.2,0.2-0.2,0.1-0.5
	c0.4-0.1,0.4-0.7,0.8-0.8c0.2-0.7,0.7-1.1,0.9-1.8c0.3,0.1,0.1-0.3,0.4-0.3c0-0.1-0.1-0.1-0.1-0.3c0.2-0.1,0.4-0.2,0.4-0.6
	c0.2,0,0.2-0.1,0.2-0.3c0.6-0.3,0.6-1.2,1.2-1.6c0-0.1,0-0.3,0-0.4c0.2,0,0.2-0.1,0.2-0.3c0.3,0,0.3-0.3,0.4-0.5
	c0.4-0.1,0.2,0.3,0.5,0.2c0.1-0.3-0.1-0.3-0.4-0.3c0.3-0.6,0.5-1.2,1-1.6c0.2-1,1-1.5,1.2-2.5c0.1-0.1,0.2-0.1,0.4-0.2
	c-0.3-0.3,0.3-0.4,0.2-0.8c0.5-0.5,0.7-1.2,1.1-1.8c0.2,0.7-0.6,1.1-0.7,1.9c-0.2,0.1-0.3,0.3-0.3,0.6c-0.4,0.3-0.6,0.7-0.7,1.3
	c-0.5,0.1-0.4,0.8-0.7,1.1c0,0.2,0.1,0.2,0.2,0.3c0.1,0.4-0.3,0.4-0.4,0.7c0.1,0.3,0.4-0.1,0.4-0.2c0.4,0.3-0.3,0.4-0.2,0.7
	c-0.2,0.2-0.3,0.5-0.5,0.7c0,0.2,0,0.3,0,0.5c-0.7,1.2-1.5,2.4-2.2,3.7c-0.2,0-0.1,0.3-0.4,0.2c0.2,0.2,0,0.2,0,0.5
	c-0.4,0.2-0.4,0.9-0.9,1.1c0,0.3-0.2,0.3-0.2,0.6c-0.2,0-0.1,0.3-0.4,0.2c0.2,0.3-0.4,0.5-0.4,1c-0.2,0-0.2,0.3-0.4,0.3
	c-0.1,0.6-0.6,0.7-0.7,1.3c-0.1,0-0.1,0.1-0.3,0.1c0,0.2,0,0.3-0.2,0.3c-0.2,0.9-1,1.2-1.2,2.1c-0.3,0.2-0.4,0.5-0.5,0.9
	c0,0.1,0.2,0.1,0.2,0.2c0.6,0.1,0.6-0.3,1.1-0.1c1-0.4,1.6-1,2.5-1.5c0.1-0.1,0.3-0.1,0.3-0.4c0.6-0.1,0.8-0.7,1.4-0.9
	c0.1-0.4,0.7-0.5,0.8-1c0.4,0.1,0.3-0.4,0.7-0.4c0.1,0,0.1-0.2,0.2-0.3c0.5-0.1,0.6-0.5,1-0.7c0-0.2,0.1-0.2,0.1-0.4
	c0.3,0,0,0.2,0.3,0.3c0.2,0,0-0.3,0-0.3c0-0.2,0.3-0.2,0.2-0.5c0.2-0.1,0.4-0.2,0.4-0.6c0.1,0,0.1,0,0.2,0c0.1,0,0.1-0.1,0-0.1
	c0.6-0.5,0.9-1.4,1.5-2c0-0.4,0.1-0.8,0.3-1.1c0-0.1,0-0.2-0.1-0.3c0.1-1.1,0.8-1.6,0.9-2.7c0.3-0.2,0.1-0.7,0.4-0.9
	c0-0.7,0.2-1.3,0.4-1.9c0-0.4,0-0.6-0.1-0.9c0.5,0,0.4,0.4,1,0.3c0.2,0.1,0.1,0.5,0.4,0.5c0.1,0.9,0.2,1.9,0.3,2.8
	c-0.2,0.8-0.2,1.2-0.1,2.1c-0.1,0-0.2,0.1-0.3,0c0.2,0.6-0.1,1.4-0.4,1.9c0.1,1.1-0.4,1.8-0.2,2.6c0.4-0.1,0.2-0.6,0.7-0.6
	c0-0.5,0.4-0.9,0.7-0.8c-0.1,0.1-0.3,0.3-0.4,0.5c-0.2,0.1-0.1,0.5-0.3,0.5c0.2,0.3,0.3,0.1,0.5,0c0.2,0,0.2-0.2,0.2-0.4
	c0.1,0.1,0.2,0.1,0.4,0c0-0.4,0.1-0.7,0.2-1c-0.1-0.1-0.5,0.2-0.8,0.2c0.2-0.3,0.4-0.6,0.9-0.7c0,0.1,0,0.2,0,0.3
	c0.5-0.4,0.8-0.9,1.1-1.5c0.2,0,0.2,0.1,0.4,0.1c0-0.1,0-0.3-0.1-0.3c0-0.1,0.2-0.1,0.3-0.1c-0.1-0.4,0.3-0.7,0-0.9
	c0-0.1,0.3-0.1,0.3,0c0.3-0.2,0.3-0.6,0.8-0.5c-0.1-0.1-0.1-0.5,0-0.6c0.3,0,0.3-0.2,0.3-0.5c-0.1,0-0.1,0.1-0.1,0.2
	c-0.3-0.3,0.3-0.5,0.3-0.8c0.3,0.1,0.3-0.2,0.6-0.1c0.1,0,0.1-0.2,0.1-0.4c0.1,0,0.2,0,0.3,0c0,0.1,0.1,0.1,0.2,0.1
	c0-0.1-0.1-0.1-0.2-0.1c0.1-0.2,0.2-0.5,0.5-0.5c-0.1-0.1-0.1-0.3,0.1-0.4c0-0.1-0.1-0.2-0.3-0.2c0-0.1,0.2-0.2-0.1-0.2
	c0-0.2,0-0.4,0-0.6c0.4-0.1,0.1,0.4,0.4,0.4c0.1,0.1,0.1,0.2,0.1,0.3c0.2,0,0.3-0.4-0.1-0.3c0-0.1,0-0.2,0.2-0.2
	c-0.2-0.1-0.3-0.2-0.4-0.4c0.3-0.2,0.4-0.7,0.6-1c-0.1,0.4,0.3,0,0,0c0-0.1,0-0.1,0-0.2c0.4-0.3,0.4-0.4,0.5-1.1
	c0.4,0,0.4,0.3,0.8,0.3c0,0.2,0.2,0.2,0.1,0.5c0.1,0.1,0.2,0,0.2,0c0.2,0.1,0.2,0.7,0.4,0.3c0.2,0,0,0.4-0.1,0.4
	c0.2,0.5,0,1.3-0.1,1.9c0.3,1.1-0.4,2.4-0.3,3.3c-0.4,1.1-0.3,1.9-0.4,2.9c-0.2,0.8-0.3,1.7-0.4,2.8c-0.3,0.8-0.2,1.3-0.4,2.2
	c-0.1,0.3,0.1,0.3,0.1,0.5c0,0.6-0.3,1-0.2,1.8c0,0.2-0.1,0.3-0.2,0.4c0.3,0.5,0.2,1.2,0.1,1.9c-0.1,0-0.2,0-0.2,0.2
	c-0.5,0.1-0.5-0.3-1-0.2c-0.3-0.1,0-0.9-0.5-0.8c0.1-0.2-0.1-0.6,0.1-0.6c-0.1-0.2-0.3-0.3-0.5-0.4c-0.2-3.9,1-8,1.8-12.2
	c-0.3,0.1-0.4,0.4-0.6,0.7c-0.2,0.2-0.5,0.4-0.5,0.8c-0.1,0.1-0.2,0.1-0.4,0.2c0,0.5-0.2,0.8-0.5,0.9c0,0.1,0,0.3,0.1,0.3
	c-0.5,0.7-1,1.4-1.5,2.1c0,0.2,0.2,0.2,0.1,0.5c-0.4,0.6-0.8,1.3-1.1,2.1c0,0.1,0,0.2,0.2,0.2c-0.3,0.4-0.4,1-0.4,1.4
	c0,0.1-0.2,0.1-0.3,0.2c0,0.1,0.1,0.2,0.1,0.4c-0.3,0.2-0.5,0.6-0.6,1c-0.1,0-0.3,0-0.4,0c0.3,0.3-0.2,0.6-0.1,1.1
	c-0.1,0-0.2,0.1-0.3,0c0,0.3-0.1,0.5-0.3,0.6c0,0.5-0.3,0.7-0.4,1.1c-0.4,0.2-0.5,0.7-1,0.9c0,0.1,0,0.2,0,0.3
	c-0.5,0.1-0.9,0.3-1.2,0.6c-0.4-0.1-0.6-0.3-0.9-0.5c0-0.1,0-0.2,0-0.3c0.1-0.1,0-0.1,0,0c-0.3-0.1-0.3-0.4-0.6-0.4
	c0-0.1,0-0.3,0.1-0.3c-0.2-0.2-0.5-0.5-0.7-0.8c-0.1-1.2,0-2.5-0.1-3.3c-0.4,0-0.4,0.3-0.6,0.6c-0.1,0-0.1,0.1-0.3,0.1
	c-0.3,0.5-0.8,0.7-1.1,1.2c-0.1,0-0.1-0.1-0.2-0.1c-0.1-0.1-0.1,0,0,0c0,0.1,0,0.1,0,0.2c-0.8,0-1.4,0.9-2.2,1.2
	c-0.4,0.2-0.6,0.6-1.1,0.7c0.1-0.3,0.4-0.3,0.5-0.6c-0.5,0-0.6,0.5-1.1,0.6c-0.2,0.2-0.5,0.3-0.7,0.6c-0.9,0.1-1.3,0.6-2.2,0.6
	c0-0.1,0-0.2,0-0.3c-0.1,0-0.1,0.2-0.1,0.3c-0.2,0-0.3-0.1-0.3-0.2c-0.1,0.2-0.4,0.2-0.6,0.4c0,0.1,0,0.4-0.1,0.4
	c0,0.1,0.1,0.2,0.3,0.2c0.2,0.3-0.2,0.5,0.2,0.6c-0.1,0.5,0.1,0.8,0.4,1.1c0,0.9,0.2,1.6,0.4,2.4c-0.3-0.1-0.2,0.2-0.1,0.3
	C91,35.9,91,36,91,36.1c0.1,0,0.1-0.1,0.1-0.2c0.3,0.3-0.1,1.1,0.2,1.4c-0.2,0.6-0.1,1.3-0.2,2c0.2,0.5,0,1.2,0.2,1.9
	c-0.1,0.1-0.1,0.4-0.3,0.4c0,0.2,0.3,0.1,0.2,0.4c0,0.1,0,0.2-0.2,0.2c0.3,0.1,0.2,0.9,0,1.1c0,0.3,0.2,0.4,0.2,0.7
	c-0.4,0,0.1,0.2-0.2,0.4c0,0.3,0,0.5,0,0.8c0,0.2-0.1,0.2-0.1,0.4c-0.1,0.3,0.1,0.3,0.1,0.5c-0.3,0.6,0,1.3-0.5,1.8
	c0.2,0.4-0.2,0.7-0.1,1.3c-0.3,0.4-0.3,1-0.5,1.5c-0.1,0-0.1,0-0.2,0c0,0.2,0,0.4,0,0.6c-0.2,0.5-0.5,1-0.6,1.7
	c-0.3,0-0.2,0.4-0.4,0.5c0,0.9-0.6,1.3-0.7,2.2c-0.4,0.3-0.3,1-0.8,1.2c0.1,0.6-0.4,0.6-0.4,1.2c-0.1,0-0.1-0.1-0.2-0.1
	c-0.2,0,0,0.2,0.1,0.2c-0.2,0.4-0.6,0.7-0.7,1.3c-0.2,0-0.2,0.3-0.5,0.3c0.1,0.6-0.6,0.4-0.5,1c-0.5,0.2-0.8,0.5-1.6,0.4
	c-0.4-0.3-0.7-0.6-0.9-1.1c0.1,0,0.1-0.2,0.1-0.3c-0.2-0.3-0.3,0.3-0.5,0c-0.1-0.6-0.7-1.1-0.5-1.7c0-0.2-0.3-0.2-0.3-0.4
	c0-0.3,0-0.6-0.1-0.7c0-0.1,0-0.2,0.2-0.2c-0.2-0.2-0.4-0.7,0-0.9c-0.1-0.1-0.2-0.2-0.3-0.3c0.1-0.5,0.2-0.7,0.1-1.3
	c0.1,0,0.1-0.1,0.2-0.1c-0.3-1.3,0.3-2.5,0.3-3.6c-0.1-0.3,0.2-0.2,0.2-0.4c0-0.2,0-0.4,0-0.6c0.3-0.3,0.3-0.9,0.4-1.5
	c0.4,0,0.1-0.7,0.4-0.8c0-0.2-0.1-0.2-0.1-0.4c0.3-0.4,0.4-0.9,0.5-1.6c0.2,0,0.2-0.2,0.2-0.5c0.1,0,0.2,0,0.3,0.1
	c0.1-0.3-0.3-0.2-0.2-0.5c0.2,0,0.1-0.4,0.3-0.4c0-0.7,0.4-0.9,0.4-1.8c0.3-0.3,0.4-0.9,0.6-1.4c0.1,0,0.1,0.2,0.2,0.2
	c0.3,0-0.1-0.5,0.3-0.4c0-0.1-0.2-0.1-0.3-0.1c0.1-0.5,0.2-0.8,0.3-1.2c0,0,0.1-0.3,0.1-0.4c0,0,0.2-0.1,0.2-0.1c0-0.1,0-0.2,0-0.3
	c0.1-0.2,0.3-0.4,0.2-0.8c0.5-0.3,0.4-1.2,0.8-1.7c-0.1-1.2,1-1.7,0.7-2.5c-0.7,0.2-0.9,0.8-1.7,1c0-0.1-0.1-0.1-0.2-0.1
	c0-0.2-0.5-0.6-0.1-0.7c-0.1-0.2-0.3-0.3-0.4-0.5c0.1-0.5-0.2-1.1-0.3-1.8c-0.4-0.3-0.3-1-0.5-1.5c0.1-1-0.1-2.3,0.3-3.1
	c-0.2-0.5,0.1-1,0.1-1.6c0.1-0.3-0.2-0.2-0.2-0.4c0-0.4,0.2-0.5,0.1-1c-0.3,0.1-0.2,0.4-0.5,0.5c0,0.7-0.5,1-0.6,1.7
	c-0.3,0-0.1,0.4-0.4,0.4c-0.1,1.1-0.8,1.5-0.9,2.6c-0.7,1.1-0.6,2.9-1,4.4c0,0.1,0,0.2,0.1,0.3C81.1,34.5,81,35,81,35.7
	c-0.2,0-0.3,0.1-0.3,0.2c-0.2-0.2-0.5-0.2-0.8-0.3c-0.1-0.3-0.2-0.7-0.5-0.9c-0.2,0-0.3,0-0.3,0.2c-0.2,0-0.3,0-0.3,0.2
	c0,0.1,0.1,0.1,0.1-0.1c0.1,1-0.7,2-0.9,3c-0.3,0.2-0.4,0.6-0.7,0.9c-0.2,0-0.4,0-0.6,0c-1-0.2-1.5-0.8-2.2-1.3
	c0-0.4-0.4-0.3-0.4-0.7c-0.2,0-0.2-0.1-0.4-0.1c-0.1-0.6-0.4-1.1-1-1.4c0-0.3-0.2-0.2,0-0.4c-0.2-0.3-0.5-0.5-0.7-0.8
	c-0.3,0.1-0.5-0.3-0.7,0c-0.2,0-0.1-0.4-0.4-0.3c-0.1,0-0.1,0.2-0.1,0.4c-0.2,0.1-0.3,0.2-0.4,0.4c-0.2,0.1-0.5,0.2-0.5,0.5
	c-0.3-0.1-0.4,0.1-0.5,0.3c-0.3-0.1-0.4,0.1-0.5,0.3c-0.1,0-0.2,0-0.3,0c-0.2,0.3-0.6,0.5-0.9,0.8c0.1,0.4-0.4,0.3-0.4,0.7
	c-0.4,0-0.4,0.3-0.7,0.1c-0.2,0.2-0.5,0.4-0.8,0.5c-1.1,0.9-2.4,1.7-3.4,2.6c-0.1,0-0.2,0-0.3-0.1c0,0.2,0,0.4-0.1,0.5
	c-0.1,0-0.2,0-0.3-0.1c-0.5,0.4-1.2,0.7-1.8,1.1c-0.3,0.3-0.7,0.5-0.9,0.9c-0.1,0-0.1,0-0.2,0c-0.4,0.5-1,0.8-1.5,1.2
	c-0.4,0.4-0.9,0.7-1.4,1c-0.1,0-0.1,0.2-0.2,0.3c-0.5,0-0.9,0.1-1.3,0.2c-0.3,0.1-0.2-0.2-0.4-0.2c-0.9,0.1-1.2-0.4-1.6-0.9
	c-0.1-0.3,0.1-0.3,0.1-0.5c0-0.1-0.2,0-0.2,0.1c-0.5-0.7-0.3-1.3-0.6-1.8c-0.4,0.5-0.2,1.7-0.3,2.6c0.2,0.3,0.3,1,0.1,1.4
	c-0.6,0.1-0.7-0.3-1.1-0.1c0-0.1-0.1-0.1-0.1-0.3c-0.3-0.1-0.3,0.1-0.5,0.1c-0.2-0.2-0.1-0.6-0.5-0.6c0.1-0.4-0.2-0.4-0.1-0.8
	c-0.2-0.2-0.5-0.5-0.5-1c-0.1-0.3-0.4-0.2-0.4-0.6c0.4,0,0-0.8,0.4-0.8c0-0.2-0.3-0.1-0.3-0.2c-0.1-0.3,0.3-0.2,0.5-0.2
	c0-0.3,0.2-0.6,0.1-1c0-0.3,0.3-0.2,0.1-0.6c0.2,0,0.3-0.1,0.3-0.2c0-0.2,0-0.3-0.1-0.4c0.1-0.3,0.3-0.4,0.2-0.9c0.1,0,0.1,0,0.2,0
	c-0.2-0.7,0.2-0.9,0.2-1.8c0.1,0,0.1-0.2,0.2-0.2c0.1,0.1,0.1,0,0,0c0-0.4,0.2-1.2,0.4-1.1c0,0.1,0.1,0.1,0.2,0.1
	c0-0.1-0.1-0.1-0.2-0.1c0-0.1,0-0.2-0.1-0.3c0.1-0.6,0.4-1.2,0.3-1.7c-0.1-0.3,0.2-0.2,0.3-0.3c-0.2-0.3,0-0.5,0-1
	c-0.3,0-0.1,0.5-0.4,0.5c-0.1,0.2-0.1,0.5-0.4,0.6c0.1,0.1,0.1,0.3,0.1,0.5c-0.4,0-0.3,0.5-0.5,0.7c-0.1,0.3-0.2,0.6-0.4,0.8
	c-0.2,1.1-0.5,1.9-0.9,2.5c0,0.1,0,0.3,0.1,0.3c-0.3,0.5-0.5,1.1-0.7,1.8c0,0.2,0.1,0.2,0.2,0.3c-0.1,0.5-0.5,0.7-0.5,1.3
	c0,0.1,0.1,0.1,0.2,0.1c-0.3,0.1,0,0.4-0.1,0.8c-0.1,0-0.1,0-0.2,0c0,0.6-0.2,1.1-0.5,1.5c-0.2,1.3-0.7,2.4-0.9,3.7c0,0.3,0,0.7,0,1
	c-0.3,0.1-0.5,0.2-0.6,0.5c-0.7-0.2-1.1-0.7-1.7-1.1c0-0.2-0.1-0.3-0.2-0.3c-0.1-0.9-0.7-1.4-0.8-2.4c0-0.1-0.1-0.2-0.2-0.2
	c0-0.6-0.1-1.1-0.4-1.5c-0.1-1-0.5-1.9-0.7-2.8c-0.1-0.7-0.4-1.3-0.6-2c-0.1-1-0.3-1.8-0.7-2.5c-0.3,0.2-0.4,0.5-0.4,1
	c-0.5,0.6-0.7,1.3-0.9,2.2c-0.2,0.2-0.4,0.5-0.4,0.9c-0.4,0.2-0.3,0.9-0.7,1.1c0,0.9-0.6,1.2-0.7,2.1c-0.1,0-0.2,0.2-0.3,0.2
	c0.2,0.2-0.2,0.4-0.1,0.8c-0.4,0.3-0.5,0.8-0.6,1.4c-0.4,0.3-0.4,1-0.8,1.4c0,0.7-0.5,1-0.5,1.7c-0.3,0-0.1,0.4-0.3,0.4
	c0-0.1-0.1-0.1-0.2-0.1c0,0.2,0.1,0.1,0.2,0.1c-0.1,0.6-0.4,1-0.5,1.6c-0.1,0-0.1,0.1-0.3,0.1c0.2,0.3-0.1,0.9-0.4,1.1
	c0.1,0.3-0.1,0.7-0.3,0.9c0,0.9-0.5,1.3-0.6,2.2c-0.1,0.1-0.2,0.2-0.3,0.3c0,0.7-0.2,1.3-0.5,1.7c0-0.1,0-0.2,0-0.3
	c-0.1,0-0.1,0.3,0,0.3c0,0.1,0,0.3,0,0.4c-0.3,0.7-0.4,1.4-0.5,2.2c-0.2,0-0.1,0.3-0.4,0.2c0,0.1,0.1,0.2,0.1,0.4
	c-0.3-0.3-0.4,0-0.7,0.1c-0.4-0.1-0.6-0.3-1-0.5c-0.1-0.5-0.4-0.8-0.5-1.3c0.2-0.6,0.1-1,0.2-1.6c0.2,0,0.3,0,0.4,0.1
	c0.2-0.1,0.2-0.3,0.2-0.6c0-0.2-0.3,0-0.4,0c-0.1-0.6,0.3-0.9,0.1-1.3c0.2,0,0.1-0.4,0.3-0.5c0.1-0.3-0.1-0.8,0.4-0.8
	c0,0.1,0,0.2-0.1,0.2c-0.1-0.1-0.1,0,0,0c-0.1,0.3-0.1,0.4,0.1,0.6c0.3-0.4,0.5-0.9,0.6-1.5c-0.2,0-0.2,0.1-0.2,0.3
	c-0.2,0-0.4,0-0.4-0.2c0-0.4,0.1,0,0.3-0.1c0.1-0.3-0.1-0.4-0.1-0.6c0.4-0.3,0.2-0.6,0.4-1.1c0.2,0.1,0.5,0,0.5,0.3
	c0.2,0-0.1-0.4,0.3-0.3c0-0.6,0.1-1.2,0.6-1.5c0-0.3,0-0.5,0-0.8c-0.1-0.1-0.5,0.2-0.5,0.5c-0.5-0.4,0.4-0.9,0.4-1.4
	c0.1,0,0.2,0,0.2,0.2c0.3-0.1,1-1,0.6-1.1c0.4-0.3,0.8-1,0.6-1.6c0.3-0.2,0.5-0.6,0.5-1.1c0.2-0.1,0.2-0.4,0.6-0.3
	c-0.5-0.4,0.6-1,0.1-1.7c-0.4-0.1-0.1,0.5-0.5,0.4c0.1-0.4,0.2-0.7,0.4-1c0.3-0.1,0.2,0,0.6,0c0-0.1,0-0.2,0-0.3
	c0-0.3-0.3,0.3-0.3,0c-0.1-0.3,0-0.4,0.3-0.3c0-0.2-0.2-0.1-0.2-0.3c0.3-0.3,0.3-1.6,1-1.9c0-0.2,0-0.3,0.2-0.3
	c-0.1-0.2-0.2-0.7,0.2-0.7c0.4-0.1-0.1,0.3,0.2,0.5c0.1,0,0.5-0.3,0.2-0.4c-0.2-0.2,0.1-0.2,0.1-0.5c0.1,0,0.1,0.1,0.2,0.1
	c0.1-0.2,0-1.2,0.6-1.2c-0.2-0.5,0.3-0.8,0.2-1.5c0.3,0,0.4-0.1,0.4-0.4c0-0.1-0.2-0.1-0.2-0.2c-0.3,0.1-0.2,0.7-0.6,0.8
	c0,0.5-0.2,0.9-0.2,1.1c-0.1,0-0.1,0-0.2,0c0-0.2,0.1-0.3,0-0.3c0.4-0.8,0.6-1.9,1.3-2.4c0-0.3-0.2-0.4,0.1-0.5
	c0,0.2,0.1,0.2,0.2,0.3c0.1-0.2,0.2-0.3,0.5-0.4c0-0.1-0.2-0.2,0.1-0.2c0-0.2,0-0.3,0-0.5c-0.1-0.3-0.4,0-0.6,0
	c0.4-0.2,0.3-0.7,0.5-1.4c-0.4,0.1-0.5,0.5-0.6,0.9c-0.2,0-0.1,0.3-0.4,0.2c-0.3,0.9-0.8,1.5-1.3,2.2c-0.1,1-0.8,1.4-1.1,2.2
	c-0.1,0-0.1,0-0.2,0c0,0.1,0,0.3,0,0.4c-0.5,0.5-0.6,1.3-1.2,1.8c0,0.1,0,0.3,0,0.4c-0.3,0.4-0.7,0.9-0.8,1.6
	c-0.5,0.5-0.7,1.1-1,1.9c-0.4,0.2-0.5,0.7-0.6,1.3c-0.2,0-0.2,0.3-0.4,0.3c0,0.2,0,0.3,0,0.5c-0.4-0.1-0.1,0.4-0.4,0.4
	c0.1,0.5-0.3,0.4-0.1,0.8c-0.3,0.4-0.5,1-0.7,1.5c-0.2,0.2-0.2,0.5-0.4,0.7c-0.3,0.1-0.1,0.7-0.5,0.7c0.1,0.5-0.3,0.6-0.3,1
	c-0.1,0.1-0.2,0.1-0.4,0.2c-0.3,0.9-1,1.3-1.4,2.1c-0.2,0-0.3,0.1-0.4,0.2c-0.3,0-0.3-0.3-0.8-0.2c-0.1-0.2-0.5-0.6-0.3-0.8
	c0-0.2-0.3-0.1-0.4-0.2c0.1-0.3-0.3-0.6,0.1-0.6c0-0.1-0.2-0.1-0.2-0.2c0.2-0.3-0.1-1.1,0.4-1.1c-0.3-0.2,0-0.6,0-0.8
	c0-0.1-0.1-0.1-0.1-0.2c0-0.3,0.3-0.5,0.2-0.9c0.1,0,0.1,0,0.2,0c-0.2-0.4,0.3-0.8,0.2-1.5c0.4-0.6,0.4-1.6,0.7-2.2
	c0-0.1,0-0.2,0.2-0.2c0-0.2-0.1-0.2-0.1-0.4c0.2-0.3,0-0.9,0.5-1c-0.4-0.1,0.2-0.8-0.3-0.9c0,0.4-0.6,0.9-0.7,1.5
	c-0.1,0-0.2,0-0.3,0c0.1,0.4-0.4,0.8-0.2,1.1c-0.5,0.8-0.9,1.5-1.5,2.2c0,0.2,0,0.5,0,0.7c-0.4,0.1-0.2,0.7-0.7,0.8
	c0,0.4-0.1,0.7-0.5,0.8c0.3,0.3-0.3,0.4-0.2,0.8c-0.3,0.3-0.7,0.7-0.8,1.3c-0.5,0.6-0.9,1.4-1.3,2.2c-0.6,0.3-0.9,1-1.4,1.5
	c-0.2-0.2-0.2-0.2-0.4,0c-0.3-0.1-0.3-0.4-0.8-0.3c-0.3-0.6-0.1-1.1-0.6-1.5c-0.1-2,0.1-3.8,0.8-5.7c0-0.1-0.1-0.1-0.2-0.1
	c0.1-0.5,0.7-0.9,0.5-1.5c0.2-0.1,0.2-0.4,0.4-0.5c-0.1-0.6,0.3-0.6,0.1-1.1c0.3-0.1,0.1-0.6,0.5-0.7c0-0.7,0.4-1,0.4-1.6
	c0.1,0,0.1,0,0.2,0c0-0.1,0-0.2-0.1-0.2c0.1-0.1,0.2-0.4,0.4-0.5c-0.1-0.7,0.4-0.7,0.4-1.3c0.1,0,0.2,0,0.3,0c0-0.2-0.2-0.1-0.2-0.3
	c0.4,0,0.2-0.5,0.6-0.5c-0.3-0.6,0.3-0.6,0.3-1.2c0.1,0,0.2,0,0.3,0.1c-0.2-0.5,0.2-1.1,0.6-1.4c0.2-0.6,0.4-1.1,0.9-1.4
	c0-0.1,0-0.3,0-0.4c0.2-0.1,0.4-0.5,0.7-0.3c0-0.2-0.2-0.2-0.1-0.5c0.4,0-0.1-0.3,0.3-0.4c0-0.3,0.3-0.3,0.3-0.7
	c0.1,0,0.2-0.1,0.4-0.1c0.1-0.2,0.1-0.5,0.2-0.7c0.4,0.3,0.7,0.1,1.1,0.4c0.2,0,0.4-0.2,0.7-0.1c0.3,0,0.4,0.4,0.7,0.1
	c0.3,0,0.3,0.3,0.7,0.3c0,0.1,0,0.2,0,0.3c0.1,0.2,0.2-0.1,0.3,0.1c0.3,0.7,0.8,1,1.4,1.4c0.2,0,0.5,0,0.7,0
	c0.1,0.2,0.2,0.3,0.3,0.5c0,0.4-0.1,0.7-0.4,0.8c-0.1,0.6-0.7,1.2-0.6,1.8c-0.2,0.2-0.3,0.5-0.3,0.9c-0.6,0.7-0.6,2-1.1,2.7
	c0.1,0.8-0.4,1.4-0.3,2c-0.1,0-0.2,0.1-0.2,0.2c0.1,0.7-0.3,1-0.3,1.9c-0.1,0-0.1,0.1-0.3,0.1c0.1,0.6-0.1,1-0.1,1.6
	c0.3,0,0.2-0.8,0.6-0.4c-0.1-0.3,0.1-0.4,0.3-0.5c-0.2-0.3,0.1-0.7,0.2-1.1c0.3-0.1,0.3,0.2,0.5,0c0.1-0.3-0.3-0.1-0.2-0.5
	c0.3-0.1,0.8,0,0.7-0.5c0.1,0,0.1,0.2,0.2,0.2c0.2,0,0-0.3,0.1-0.5c0-0.1-0.2-0.1-0.4-0.1c-0.1-0.3,0.1-0.5,0.3-0.3
	c0-0.2,0.1-0.3,0.2-0.3c0-0.2-0.3-0.1-0.2-0.4c0.3-0.2,0.5-0.5,1-0.6c0-0.2-0.1-0.3-0.3-0.3c0-0.1,0-0.1,0-0.2
	c0.2-0.1,0.2-0.2,0.4,0c0.2,0,0.2-0.2,0.2-0.4c0,0,0.1,0,0.1,0c0,0.1,0,0.2,0,0.3c0.1-0.2,0.3-0.2,0.4-0.3c0-0.2-0.3,0-0.4,0
	c0-0.1,0-0.2-0.2-0.2c0.3-0.2,0.2-0.7,0.7-0.7c0-0.2-0.2-0.2-0.1-0.5c0.4-0.1-0.3-0.5,0.2-0.4c0,0.1,0.1,0.1,0.2,0.1
	c0,0.1-0.2,0.1-0.2,0.2c0.1,0.2,0.2-0.1,0.3,0.1c0-0.1,0-0.3-0.1-0.3c0-0.1-0.1-0.1-0.2-0.1c0-0.1,0-0.1,0-0.2
	c0.4-0.2,0.1,0.1,0.4,0.2c0.2,0.1,0.2-0.5,0-0.4c0.1-0.2,0.4-0.2,0.4-0.6c0.1,0,0.2,0,0.3,0c0.1-0.4-0.3-0.3-0.1-0.6
	c0.1,0,0.1-0.1,0.2-0.1c0,0.1,0.2,0.1,0.3,0.1c0-0.1-0.2-0.1-0.3-0.1c0-0.1,0-0.2-0.1-0.2c0.1-0.1,0.1-0.4,0.4-0.3
	c0.2-0.5,0.1-0.7,0.4-1.2c0.2,0,0.1,0.3,0.2,0.4c0.1-0.1,0.3-0.6,0.1-0.8c0.1-0.1,0.4-0.4,0.2-0.5c0.1-0.2,0.3-0.2,0.5-0.3
	c0-0.2-0.2-0.3,0-0.5c0,0,0.1,0,0.1,0c0.2,0.2-0.1,0.3,0.1,0.5c0.1-0.1,0.2-0.3,0.3-0.4c-0.1-0.3-0.1-0.1-0.4-0.1
	c0-0.3,0.2-0.3,0.4-0.2c-0.2-0.4,0.2-0.3,0-0.7c0.1,0,0.2,0,0.3,0c0-0.2-0.2-0.3,0-0.5c0.3-0.1,0.2,0.3,0.2,0.5
	c0.2-0.1,0.3-0.2,0.5-0.3c0.3-0.6-0.4-1.3,0.4-1.4c0,0,0,0.2,0,0.2c-0.4-0.1-0.2,0.4,0,0.4c0.2,0,0-0.3,0-0.4c0.4,0,0.1-0.6,0.3-0.8
	c0.3,0-0.1,0.7,0.3,0.6c0.2-0.2,0-0.2-0.1-0.5c0.1,0,0.3,0,0.4,0c0.1-0.1,0.1-0.3,0.1-0.5c0.1-0.1,0.6,0,0.5-0.4
	c0-0.3-0.4,0.2-0.4-0.1c-0.3-0.4,0.4-0.5,0.4-1c0.2,0,0.1-0.3,0.4-0.2c0-0.2-0.2-0.1-0.2-0.3c0.2-0.2,0.2,0.1,0.4,0.2
	c0.1-0.2,0.3-0.3,0.4-0.5c0-0.4-0.4-0.4-0.3-0.9c0.3,0,0.3,0.2,0.3,0.5c0.1,0,0.3,0,0.4,0c0,0,0,0.1,0,0.1c0.1,0,0.1-0.1,0-0.1
	c-0.1-0.3,0.2-0.3,0.1-0.6c0-0.1,0.4-0.3,0.2-0.3c0.2-0.2,0.5-0.4,0.8-0.6c-0.1-0.2-0.2-0.4,0.2-0.4c-0.2-0.5,0.2-0.8,0.1-1.1
	c0-0.2,0.2-0.1,0.3,0c0-0.3,0.1-0.6-0.3-0.6c0.1-0.2,0.3-0.3,0.7-0.3c-0.1-0.2,0.3-0.4,0-0.5c0-0.1,0.1-0.1,0.2-0.1
	c0-0.2,0-0.4,0-0.6c0.3,0.1,0.2-0.2,0.4-0.2c0-0.2,0-0.4,0.2-0.4c0-0.1,0-0.3,0-0.4c0.2,0,0.1-0.3,0.3-0.3c0.2-1.2,0.9-2,1.3-3.1
	c0.2,0,0.1-0.3,0.3-0.3c0-0.1,0-0.3,0-0.4c0.4-0.3,0.3-1,0.7-1.3c0-0.3,0-0.6,0.1-0.7c0.3,0.1,1,0.1,0.9,0.4c-0.1,0.1,0,0.1,0,0
	c0.1,0,0.4,0.2,0.4,0c0.2,0.1,0.3,0.3,0.7,0.2c0.1,0.2,0.1,0.5,0.5,0.4c-0.2,0.3,0.1,0.2,0.1,0.6c-0.3,0.4-0.7,0.7-0.7,1.4
	c-0.1,0-0.1,0.1-0.3,0.1c0,0.6-0.2,1-0.4,1.4c-0.1-0.1-0.1,0,0,0c-0.2,0.1-0.1,0.5-0.4,0.6c0.2,0.3-0.3,0.5-0.1,0.6
	c0,0.1-0.1,0.2-0.3,0.2c0,0.3-0.1,0.5-0.3,0.7c0,0.3,0,0.7-0.3,0.8c-0.1,0.5-0.3,1-0.6,1.3c0.1,0.3-0.1,0.4-0.1,0.7
	c-0.2,0-0.1,0.3-0.3,0.3c-0.1-0.1-0.1,0,0,0c0,0.1,0.1,0.1,0.1,0.3c-0.3,0.1-0.3,0.4-0.3,0.8c-0.4,0.4-0.5,1-0.6,1.8
	c-0.1,0-0.2,0-0.3,0.1c-0.1,0.9-0.5,1.2-0.6,2c0.1,0.3,0.2-0.2,0.4-0.2c0.1-0.2,0.3-0.2,0.5-0.3c0.5-0.4,0.9-0.8,1.5-1.1
	c0.1,0,0.1-0.2,0.2-0.3c0.3,0,0.3-0.2,0.6-0.2c0.6-0.7,1.4-1.2,2.2-1.7c0.1,0,0.1-0.2,0.1-0.3c0.2,0,0.2-0.1,0.4-0.1
	c0.3-0.3,0.6-0.5,0.8-0.8c0.6,0,0.9-0.8,1.4-0.6c0.1,0,0.2-0.1,0.2-0.3c0.4,0.3,0.8,0.4,0.7,1c0,0.2,0.3,0.1,0.4,0.2
	c-0.3,0.2-0.7,0.3-1,0.5c-0.4,0.4-0.8,0.9-1.5,1.1C49,28.3,47.7,29,46.6,30c-0.4-0.1-0.5,0.4-0.8,0.2c-0.2,0-0.1,0.3-0.2,0.4
	c-0.5,0.2-0.9,0.5-1.2,0.9c-0.2,0-0.2,0.1-0.4,0.1c-0.5,0.5-1.3,0.8-1.8,1.3c-0.2,0.9-0.7,1.5-0.9,2.3c0.1,0.9,0.7,1.2,0.7,2.2
	c0.3,0.5,0.4,1.3,0.8,1.8c0,0.5,0.1,0.9,0.3,1.3c0.1,0.3,0.5,0.9,0.4,1.1c0.2,0.3,0.5,1.1,0.4,1.4c0.5,0,0.2,0.8,0.6,0.9
	c0,0,0,0.1,0,0.1c0.1,0,0.1-0.1,0-0.1c0.2-0.2,0.2-0.6,0.6-0.6c-0.1-0.5,0.5-0.8,0.3-1c0.1-0.2,0.4-0.3,0.5-0.6
	c-0.1-0.1-0.3-0.2-0.3-0.4c0.2-0.5,0.3-0.9,0.7-1.2c0-0.2-0.2,0.1-0.2-0.1c0-0.4,0.3,0,0.4-0.2c0-0.2,0-0.5,0-0.7
	c0.5-0.1,0-0.5,0.5-0.6c0-0.2-0.1-0.2-0.1-0.4c0.4-0.2,0.1-0.4,0.4-0.8c0.2,0.1,0.5,0.1,0.5,0.4c0.1-0.3,0.7-0.4,0.4-0.8
	c-0.3,0-0.1,0.4-0.3,0.4c-0.2,0-0.3-0.2-0.4-0.4c0.4,0.3,0-0.6,0.5-0.4c-0.2-0.2,0-0.2,0-0.5c0.2,0.2,0.3-0.1,0.3-0.3
	c0.1,0,0.1-0.1,0.1-0.2c-0.1,0-0.1,0.1-0.1,0.2c-0.3-0.4,0.2-0.7,0.5-0.8c0.2,0.2-0.1,0.8-0.4,0.9c0.1,0.1,0.1,0.4,0.3,0.4
	c0.5,0,0.3-0.7,0.7-0.8c0-0.1-0.1-0.1-0.1-0.3c0.3-0.2,0.3-0.5,0.6-0.7c0-0.3,0-0.5,0.1-0.8c-0.1-0.3-0.4,0.1-0.5-0.1
	c0,0.2,0.2,0.2,0.1,0.5c-0.1,0-0.2,0-0.3,0.1c0.1,0.4-0.3,0.2-0.2,0.6c-0.1-0.1-0.3-0.1-0.5-0.1c0.1-0.3,0.5-0.2,0.6-0.4
	c0.1-0.4-0.2-1,0.2-1.1c0,0.1,0,0.1,0,0.2c0.1,0,0.1-0.2,0-0.2c0-0.2,0.2-0.2,0.1-0.5c0.1,0,0.1,0.1,0.2,0.1c0,0.2-0.1,0.3-0.1,0.4
	c0.1,0.2,0.3,0.2,0.6,0.2c0-0.1,0.1-0.4,0.3-0.6c-0.2-0.2-0.4,0.1-0.8,0c0-0.2,0-0.3,0.2-0.3c0,0.1,0,0.2,0.1,0.2
	c0-0.1,0-0.2-0.1-0.2c0-0.1-0.1-0.1-0.2-0.1c0.2-0.1,0.4-0.4,0.7-0.5c0.1-0.3,0-0.4-0.3-0.3c0.2-0.5,0.7-0.9,0.8-1.6
	c0.3,0.1,0.1-0.3,0.4-0.2c-0.1-0.2,0.3-0.4,0-0.5c0.1-0.3,0.4-0.5,0.4-0.9c0.1,0,0.1-0.1,0.3-0.1c-0.2-0.2,0.3-0.5,0.3-0.9
	c0.1-0.2,0.5,0,0.4-0.3c0.2,0,0.4,0,0.4-0.2c0-0.2-0.5,0-0.4,0.2c-0.4,0-0.1-0.3-0.1-0.5c0.1,0,0.1,0.1,0.1,0.2
	c0.4-0.3,0.2-0.3,0.1-0.8c0.1-0.1,0.3-0.1,0.6-0.1c0-0.2-0.2-0.3-0.2-0.5c0.5-1.2,1.1-2.6,1-4c0.4,0,0.5,0.1,0.8,0
	c0.2,0,0.3,0.2,0.4,0.3c0.3-0.2,0.4,0,0.8,0.1c0.2,1.7-0.8,2.9-1,4.5c-0.1,0.1-0.2,0.3-0.4,0.3c0.1,0.4-0.2,0.6-0.1,1.1
	c-0.3,0.3-0.1,1.1-0.5,1.3c0.2,0.9-0.5,1.7-0.4,2.9c0,0.2-0.1,0.4-0.3,0.6c0,0.1,0.1,0.1,0.1,0.3c-0.1,0.3-0.1,0.8-0.3,1.1
	c0,0.2,0.1,0.2,0.1,0.4c-0.2,0.4,0.1,1.3-0.4,1.6c0,0.2,0.2,0.3,0.1,0.6c-0.1,0.3,0,0.9-0.3,1.2c0.1,1.1-0.4,1.6-0.4,2.8
	c0.2-0.7,0.5-1.4,0.6-2.2c0.3-0.1,0.1-0.6,0.4-0.6c0-0.1-0.1-0.1-0.1-0.3c0.3-0.1,0.2-0.7,0.5-0.9c0-0.4,0.1-0.7,0.2-1.1
	c0-0.2-0.4,0-0.6-0.1c0-0.2,0.2-0.2,0.1-0.5c0.5,0.1,0.5-0.3,0.9-0.3c0.4-0.3,0.4-1.1,0.9-1.4c-0.1-0.6,0.3-0.8,0.4-1.3
	c0.1,0,0.1,0.1,0.1,0.2c0.2-0.1,0-0.6,0.1-0.9c0.2-0.4,0.5-0.6,0.6-1.2c0.2-0.2,0.5-0.4,0.5-0.9c0.2,0,0.1-0.3,0.4-0.2
	c0-0.5,0.4-0.5,0.4-1c0.3-0.2,0.6-0.5,0.7-1c0.1,0,0.2,0,0.3,0c-0.1-0.3,0.1-0.3,0.1-0.5c0.1-0.1,0.2-0.1,0.4-0.2
	c0-0.5,0.5-0.5,0.5-1c0.5-0.3,0.7-0.9,1.4-1.2c0-0.2,0-0.3,0.1-0.4c0.6-0.3,0.9-0.9,1.7-1.1c0.2-0.1,0.2-0.3,0.4-0.4
	c0.4,0,1.1-0.1,1.4,0.1c0.3,0,0.2-0.2,0.4,0c0.9,0.2,1.5,0.8,2.2,1.1c0.1,0.1,0.1,0.4,0.4,0.4c0,0.1,0,0.2,0.1,0.2
	c0.2,0.8-0.1,1-0.1,1.9c-0.3,0.3-0.4,0.8-0.8,1c0,0.1,0,0.2,0,0.3c-0.4,0.4-0.8,0.8-1,1.5c-0.3-0.1-0.2,0.2-0.4,0.2
	c-0.4,0.4-1,0.7-1.3,1.2c-0.3,0.1-0.5,0.3-0.7,0.5c-0.3,0.1-0.5,0.3-0.7,0.6c-0.1,0-0.1,0-0.2,0c-1,0.7-1.8,1.6-2.9,2.2
	c-0.1,0-0.1,0.1-0.1,0.2c-0.9,0.4-1.3,0.7-2.3,1c-0.7,0.9-0.8,2.5-1.5,3.4c0,0.1,0,0.4,0.1,0.4c-0.2,0.2-0.2,0.4-0.2,0.8
	c-0.1,0-0.1,0.2-0.2,0.2c0.3,0.3-0.3,0.4,0,0.6c-0.3,0.4-0.3,1.2-0.6,1.8c0.2,0.2,0.7,0.1,0.7-0.2c0.1,0,0.2,0,0.2,0.2
	c0.3-0.2,0-0.5,0.4-0.7c0.1,0,0.1,0.2,0.1,0.3c0.1,0,0.2-0.1,0.2-0.2c0.1-0.1,0-0.1,0,0c-0.3,0,0.2-0.6,0.2-0.3
	c0.1-0.2,0.3-0.3,0.4-0.5c0.1,0,0.3,0,0.3,0.1c0.2-0.4,0.3-0.5,0.9-0.4c0.3-0.1-0.1-0.2,0-0.4c0.3,0.1,0.2-0.2,0.4-0.2
	c0,0.1,0.1,0.2,0.3,0.2c0.2,0,0-0.3-0.1-0.3c0.1-0.4,0.7-0.3,0.7-0.8c0.7,0,0.8-0.7,1.2-1c0.2,0.2,0.4-0.1,0.6-0.2
	c0.3-0.1,0.1,0.3,0.4,0.2c0.2-0.1,0.2-0.4,0.2-0.7c0.3-0.1,0.4-0.5,0.8-0.6c0.3-0.1,0.4-0.5,0.8-0.6c0.2,0,0.2-0.3,0.3-0.4
	c0.1-0.1,0.2,0,0.3,0c0.2-0.1,0.2-0.5,0.6-0.5c0.1,0,0.1-0.2,0.1-0.3c0.1,0,0.3,0,0.3,0.1c0.1,0,0.1-0.2,0.1-0.4c0.1,0,0.1,0,0.2,0
	c-0.1,0.4,0.3,0.3,0.4,0.2c0.1,0.2-0.3,0.3,0.1,0.3c0.2,0,0-0.3-0.1-0.3c-0.3-0.3,0.1-0.1,0.2-0.3c-0.1-0.3-0.3,0.1-0.5,0
	c0.1-0.1,0.1-0.3,0.4-0.3c0-0.3,0.1-0.3,0.4-0.3c0,0.1,0,0.1,0,0.2c-0.1,0-0.1,0-0.1,0.1c0.1,0,0.1,0,0.1-0.1c0.1,0,0.2,0,0.3,0
	c0-0.2-0.1-0.3-0.2-0.3c0-0.4,0.4,0.3,0.6-0.2c0-0.2-0.2,0.1-0.2-0.1c0.2-0.7,0.6-1,1.3-1.2c0.1-0.1,0-0.1,0,0
	c-0.1-0.3-0.3-0.5-0.5-0.6c0-0.3,0.1-0.4,0.4-0.4c0.1,0,0.5-0.3,0.5-0.1c0.3-0.3,0.7-0.5,1.1-0.8c0.2,0.1-0.1,0.4,0.1,0.7
	c-0.1,0-0.2,0-0.2,0.1c-0.1,0-0.1,0-0.2,0c0,0.1,0.2,0.1,0.2,0c0.2,0.2,0.5,0.1,0.6-0.1c0.2,0.1,0.3,0.3,0.6,0.4
	c0.2-0.3,0.5-0.5,0.5-1.1c0.4-0.6,0.9-1.1,1.5-1.5c0.2-0.2,0.4-0.3,0.6-0.5c0-0.4,0.4-0.5,0.5-0.9c0.4-0.1,0.4-0.6,0.8-0.7
	c0-0.2,0.1-0.2,0.1-0.4c0.8-0.7,1.5-1.5,2.2-2.4c0.3-0.1,0.3-0.4,0.6-0.5c0.3-0.5,0.8-0.8,1.1-1.3c0.1,0,0.1-0.1,0.3-0.1
	c0.2-0.6,0.8-0.7,0.9-1.4c0.6-0.1,0.5-0.8,1.1-0.9c0.1,0.3,0.2,0.5,0.5,0.6c0,0.2-0.1,0.5,0.2,0.4c-0.5,0.9-0.9,1.9-1.3,2.9
	c0,0.6-0.1,1-0.2,1.5c0.2,1.1,0.1,2.2,0,3.1c0,0.1,0,0.2,0.2,0.2c-0.1,0.2-0.3,0.7,0,0.7c-0.1,0.2-0.1,0.4,0.1,0.6
	c0.3,0.1,0.2-0.3,0.2-0.5c0.2-0.1,0.2-0.4,0.5-0.4c0.1-0.3-0.3-0.1-0.2-0.4c0.4-0.3,0.2-0.4,0.3-1c0.1-0.1,0.3-0.3,0.5-0.4
	c-0.2-0.2,0.1-0.2,0-0.6c0.3,0,0.3-0.4,0.6-0.5c0-0.1-0.1-0.2-0.1-0.4c0.4-0.1,0.3-0.7,0.6-0.9c0-0.5,0.4-0.6,0.4-1.1
	c0.1,0,0.1-0.1,0.3-0.1c-0.3-0.5,0.5-0.8,0.5-1.4c0.2-0.2,0.2,0.1,0.4-0.1c0-0.1-0.1-0.2-0.1-0.4c0.1-0.4,0.6-0.5,0.6-1
	c0.1,0,0.2,0,0.3-0.1c0-0.2,0-0.3,0-0.5c0.6-0.4,0.6-1.5,1.4-1.7c0.2-0.3-0.1-0.4,0.1-0.8c0.1,0,0.2,0,0.3,0
	c-0.1-0.3,0.2-0.3,0.1-0.6c0.5-0.4,0.7-1.2,1.1-1.8c0.1-1,0.6-1.5,0.7-2.4c0.1,0,0.1,0,0.2,0c0-0.2-0.2-0.3-0.1-0.6
	c-0.7,0-1.1,0.5-2,0.4c-0.1,0-0.1,0.1-0.1,0.2c-0.6,0-0.8,0.4-1.4,0.4c-0.1,0-0.2,0.1-0.2,0.2c-0.4-0.1-0.8,0.3-1,0.1
	c-0.6,0.2-1.1,0.6-2,0.6c-0.3,0.3-1,0.2-1.2,0.7c-0.3-0.2-0.9,0-1.2,0.2c-0.3-0.1-0.6,0-0.9,0.2c-0.3,0.1-0.4-0.1-0.6-0.1
	c-1,0.1-1.9,0.7-2.9,0.5c-0.2,0.1-0.7,0-0.9,0.2c-0.3-0.1-0.7-0.1-1.2-0.1c-0.1-0.5-0.8-0.3-1.1-0.7c0-0.5,0.2-1,0.2-1.8
	c0.4-0.4,1.1-0.4,1.6-0.8c0.1,0.1,0.3,0.2,0.3,0.5c0.5,0.1,0.6-0.3,1-0.1c0.3-0.1,0.5-0.3,0.8-0.4c0.4,0.1,0.4,0.2,0.9,0.1
	c0.4-0.3,1.1-0.3,1.6-0.6c0.2,0,0.4,0,0.5,0.1c0.1,0,0.1-0.1,0-0.1c0.3-0.2,0.7-0.3,1.1-0.4c0.2,0.2,0,0.2,0,0.5
	c0.4,0.1,0.3-0.3,0.6-0.3c0-0.1-0.2-0.1-0.3-0.2c0.1-0.2,0.5-0.2,0.8-0.3c0,0.3,0.5,0.1,0.4,0.5c0.1,0,0.4-0.4,0.2-0.5
	c0.1-0.1,0.4-0.5,0.6-0.2c-0.1,0-0.1,0.2,0,0.2c0.1,0,0-0.1,0-0.2c0.4,0.1,0.3,0.2,0.8,0.1c0,0.1,0.1,0.1,0.1,0
	c0.2-0.1,0.3-0.3,0.5-0.4c0.1,0,0.3,0,0.4,0c0.1-0.1,0.4-0.1,0.4-0.3c0.1,0.2,0.4,0.1,0.5-0.1c0.3-0.1,0.2,0.2,0.4,0.2
	c0-0.3,1.3-0.9,1.6-0.4c0-0.2-0.1-0.2-0.1-0.4c0.2,0,0.6-0.3,0.6,0.1c0.2,0,0.1-0.3,0.2-0.4c0.5,0.2,0.8-0.3,1.4-0.3
	c0.1,0.3-0.3,0.2-0.2,0.5c0.4,0,0.4-0.3,0.3-0.6c0.4,0,0.5-0.2,0.8-0.3c0-0.4,0.2-0.7,0.4-0.9c0-0.2,0-0.4,0-0.6
	c0.3-0.1,0.1-0.8,0.5-0.8c0.1-0.9,0.6-1.3,0.9-2c0.1,0,0.1,0.1,0.1,0.2c0.3-0.1,0-0.2,0.2-0.4C91.7,4.3,91.8,4,92,3.8
	c0.5,0,0.5,0.6,1.2,0.5c0.1,0.4,0.3,0.5,0.4,0.9c0.2,0.2,0.5,0.2,0.7,0.4c-0.1,0.3-0.1,0.1-0.4,0.1c-0.1,0.4,0.4,0,0.3,0.4
	c-0.1,0-0.2,0-0.3,0c-0.1,0.6-0.3,0.7-0.3,1.3c0.1,0.1,0.7,0.2,0.8,0.1c0.1,0.2,0.2,0.5,0.5,0.5c-0.2-0.3-0.1-0.3-0.2-0.8
	c0.1,0,0.2,0,0.3,0.1c0.2-0.3,0.5,0,0.5-0.3c0.8-0.1,1.6-0.3,2.2-0.6c0.1,0,0.1,0.1,0.1,0.2c-0.1,0.1,0,0.1,0,0
	c0.5,0.1,0-0.2,0.3-0.4c0.2,0,0.2,0.1,0.4,0.1c0.3-0.1,0.8-0.5,1.1-0.3c0.2-0.1,0.3-0.2,0.5-0.3c0.2,0,0.3,0,0.5,0
	c0.5-0.2,0.9-0.3,1.6-0.5c0,0.1,0.1,0.2,0.1,0.4c0.4-0.1,0.4-0.2,0.8,0c0.1,0,0.1-0.2,0.1-0.3c0.4,0.1,0-0.3,0,0
	c-0.3,0.1-0.2-0.2-0.4-0.2c0.1-0.2,0.6-0.1,0.7-0.3c0.1,0,0.2,0.1,0.2,0.2c-0.1,0-0.2,0.1-0.2,0.3c0.1,0,0.2-0.1,0.2-0.3
	c0.2-0.1,0.5-0.1,0.5-0.4c0.3,0,0.5,0,0.8-0.1c0,0.2,0.1,0.3,0.2,0.3c0.1,0,0.1-0.2,0-0.2c0.2-0.2,0.7-0.2,0.9-0.5
	c0.2,0.1,0.6-0.1,0.6,0.1c0.3-0.5,1.4-0.3,1.9-0.7c0.2,0.1,0.3,0.2,0.4,0.4c0.2-0.2,0.3,0,0.4,0.1c0.2-0.2,0-0.4-0.3-0.4
	c0.5-0.3,0.7-0.4,1.4-0.5c0.1,0.1,0.3,0.2,0.3,0.4c0.4,0,0.3-0.5,0.6-0.6c0.4,0,0.3,0.3,0.8,0.2c0-0.2-0.1-0.2-0.3-0.2
	c0.2-0.2,0.5-0.2,0.9-0.2c0,0.4,0.6-0.1,0,0c0.2-0.1,0.8-0.4,1-0.2c0.2,0,0.5-0.4,0.7-0.1c0.4-0.3,1-0.3,1.6-0.4
	c0.3,0.1,0.5,0.4,1.1,0.3c0.1-0.3-0.4-0.1-0.3-0.5c0.8,0,1.5-0.5,2.1-0.3c-0.1,0.1-0.4,0-0.3,0.3C118,1.8,118,1.9,118,2
	c-0.1,0-0.2,0-0.3,0c0,0.2,0.3,0.2,0.3,0c0.2,0,0.2-0.1,0.2-0.2c0.2,0,0.3-0.1,0.3-0.3c0.1,0,0.2,0,0.2-0.2c0.4-0.1,0.7,0.2,0.8-0.1
	c0.5,0.1,0.7,0.1,1-0.2c0.1,0.1,0.4,0,0.4,0.2c0.5-0.5,0.9-0.1,1.5-0.5c0.1,0.1,0.2,0.1,0.4,0.2c0.6-0.4,1.3-0.3,2.1-0.4
	c0.1,0,0.2,0,0.2,0.2c0.1,0,0.1-0.2,0.2-0.3c0.9,0,1.2,0,1.9-0.1c0.1,0,0.1-0.2,0-0.2c0.5-0.1,1.3-0.2,1.7-0.1
	c-0.3,0.3,0.3,0.5,0,0.9c0,0.1,0.1,0.1,0.2,0.1c-0.1,0.2-0.6,0-0.4,0.5c-0.6,0.1-0.6,0-1.1,0.2c-0.3,0.1,0.1,0.3-0.1,0.4
	c-0.8,0-1.6,0.3-2.2,0.1c-0.2,0.4-1.1,0.6-1.7,0.4c-0.1,0-0.1,0.2,0,0.2c-0.2,0.1-0.7,0.2-1.3,0.2c-0.1,0.1-0.4,0.1-0.4,0.4
	c-0.4,0-0.7,0.2-1.1,0c-0.1,0.1-0.2,0.2-0.2,0.4c-1,0-2,0.4-2.7,0.3c-0.5,0.3-1.3,0.2-1.8,0.6c-0.6,0.1-1-0.1-1.4,0.3
	c-0.2,0-0.2-0.1-0.4-0.1c-0.1,0-0.2,0.1-0.3,0.2c-0.5,0-1,0.1-1.4,0.3c-0.2,0-0.3,0-0.5,0c-0.4,0.3-0.9,0.1-1.2,0.4
	c-0.4-0.1-0.5,0.2-0.7,0c-0.1,0-0.1,0.1-0.1,0.2c-0.8-0.1-1.2,0.3-2.1,0.4c-0.1,0-0.2,0.2-0.3,0.2c-0.8,0-0.9,0.1-1.5,0.4
	c-0.1-0.1-0.5,0.1-0.5-0.1c-0.6,0.4-1.5,0.4-2.1,0.8c-0.6-0.1-1,0.3-1.4,0.1c-0.3,0.6-1.1,0.1-1.2,0.8c-0.3,0.1-0.2-0.2-0.3-0.3
	c-0.5,0.3-1,0.5-1.7,0.5c-0.2,0.1-0.4,0.2-0.6,0.3c-0.5,0.4-0.8,1.1-1.3,1.6c0.1,0.4-0.2,0.3-0.2,0.6c-0.2,0-0.1,0.5-0.4,0.4
	c0,0.1,0,0.3,0,0.4c-0.4,0.2-0.4,0.7-0.6,1.1c-0.3,0.2-0.4,0.8-0.6,1.2c-0.4,0.7-0.6,1.6-1.2,2.2c-0.1,0.5-0.3,1-0.6,1.3
	c0,0.1,0,0.3,0,0.4c-0.1,0.2-0.5,0.6-0.3,0.8c0.2-0.1,0.3-0.4,0.3-0.7C94.3,17.8,94.5,17.3,94.8,16.9C94.8,16.9,94.8,16.9,94.8,16.9
	z M122.1,1.1C122.1,1.1,122,1,122.1,1.1C122,1.2,122.1,1.2,122.1,1.1z M123.3,1.2C123.3,1.2,123.2,1.1,123.3,1.2
	C123.2,1.3,123.2,1.3,123.3,1.2z M122.9,1.3C122.9,1.3,122.8,1.2,122.9,1.3C122.8,1.4,122.9,1.4,122.9,1.3z M127.7,1.2
	C127.6,1.2,127.5,1.3,127.7,1.2C127.6,1.3,127.7,1.3,127.7,1.2z M119.6,1.7c0.4,0,0,0.7,0.5,0.5c-0.2-0.4,0.1-0.4,0.2-0.7
	C120,1.5,119.8,1.6,119.6,1.7z M119.1,1.8C118.9,1.9,119.1,1.9,119.1,1.8c0.1-0.1,0.5,0.1,0.5-0.1C119.4,1.7,119,1.4,119.1,1.8z
	 M117.1,1.9C117.1,1.9,117,2,117.1,1.9C117,2,117.2,2,117.1,1.9z M120.8,2.4c0.3,0,0.3,0.3,0.5,0.3c-0.2-0.4-0.2-0.4,0-0.8
	C121,1.9,120.8,2.1,120.8,2.4z M118.4,2C118.4,2,118.2,2,118.4,2C118.3,2.1,118.4,2.1,118.4,2z M118.6,2C118.5,2,118.4,2,118.6,2
	C118.5,2.1,118.6,2.1,118.6,2z M114.9,2.4c0.2,0,0.4,0,0.4-0.2C115,2.2,114.9,2.2,114.9,2.4z M115.4,2.2
	C115.4,2.2,115.3,2.2,115.4,2.2C115.4,2.3,115.5,2.2,115.4,2.2z M114.8,2.3C114.7,2.3,114.6,2.3,114.8,2.3
	C114.7,2.4,114.8,2.3,114.8,2.3z M115.9,2.4c-0.1,0-0.2,0-0.2,0.1C115.8,2.5,115.9,2.5,115.9,2.4z M120.7,2.4
	C120.7,2.4,120.6,2.4,120.7,2.4C120.7,2.5,120.8,2.4,120.7,2.4z M113.1,2.9c0.1-0.3,0.2,0.1,0.4,0c0-0.2-0.2-0.3-0.3-0.4
	C113.2,2.6,112.8,2.8,113.1,2.9z M117.6,2.5C117.6,2.5,117.4,2.5,117.6,2.5C117.5,2.6,117.6,2.5,117.6,2.5z M120.5,2.5
	C120.5,2.5,120.4,2.5,120.5,2.5C120.5,2.6,120.6,2.5,120.5,2.5z M114.9,2.6c-0.1,0-0.3,0-0.3,0.1C114.7,2.7,114.8,2.7,114.9,2.6z
	 M119,2.7C119,2.6,118.9,2.6,119,2.7C118.9,2.7,118.9,2.8,119,2.7z M112.2,2.8C112.2,2.8,112.1,2.8,112.2,2.8
	C112.1,2.9,112.3,2.8,112.2,2.8z M115.7,2.8C115.7,2.8,115.6,2.8,115.7,2.8C115.7,2.9,115.8,2.8,115.7,2.8z M118.2,2.9
	C118.2,2.8,118.1,2.8,118.2,2.9C118.1,2.9,118.2,3,118.2,2.9z M118.4,2.8C118.4,2.8,118.2,2.8,118.4,2.8
	C118.3,2.9,118.4,2.8,118.4,2.8z M114.6,3.2c0.2,0,0.4-0.1,0.5-0.2C114.9,2.8,114.6,3,114.6,3.2z M119.4,2.9
	C119.3,2.9,119.2,2.9,119.4,2.9C119.3,3,119.4,2.9,119.4,2.9z M113,3.1c0-0.1-0.2-0.1-0.2,0C112.8,3.2,112.9,3.1,113,3.1z M116.6,3
	C116.6,3,116.5,3,116.6,3C116.5,3.1,116.7,3,116.6,3z M117.6,3C117.6,3,117.4,3,117.6,3C117.5,3.1,117.6,3,117.6,3z M111.1,3.3
	C110.8,3.6,111.5,3.4,111.1,3.3C111.1,3.1,111,3.3,111.1,3.3z M112,3.2C112,3.1,111.9,3.2,112,3.2C112,3.3,112.1,3.2,112,3.2z
	 M114.2,3.2c-0.1,0-0.2,0-0.2,0.1C114.1,3.2,114.2,3.3,114.2,3.2z M116.3,3.2c-0.1,0-0.2,0-0.2,0.1C116.2,3.2,116.3,3.3,116.3,3.2z
	 M113.7,3.3C113.7,3.2,113.5,3.3,113.7,3.3C113.6,3.4,113.7,3.3,113.7,3.3z M111.9,3.6C111.9,3.5,111.9,3.3,111.9,3.6
	C111.8,3.6,111.9,3.7,111.9,3.6z M112,3.7c0.2,0,0.3-0.1,0.4-0.2C112.3,3.3,112,3.4,112,3.7z M113.2,3.4
	C113.2,3.3,113,3.4,113.2,3.4C113.1,3.5,113.2,3.4,113.2,3.4z M114.8,3.8c0.3,0.1,0.1-0.3,0.3-0.4C114.8,3.3,114.7,3.5,114.8,3.8z
	 M119.4,3.4c-0.1,0-0.2,0-0.2,0.1C119.2,3.4,119.4,3.5,119.4,3.4z M109.7,3.7C109.7,3.6,109.6,3.6,109.7,3.7
	C109.6,3.7,109.7,3.8,109.7,3.7z M112.5,3.9c0-0.2,0.2-0.1,0.2-0.3C112.5,3.5,112.3,3.8,112.5,3.9z M117.1,3.8
	C117.1,3.7,117.1,3.5,117.1,3.8C116.9,3.7,116.9,3.8,117.1,3.8z M118.7,3.6C118.6,3.5,118.5,3.6,118.7,3.6
	C118.6,3.7,118.7,3.6,118.7,3.6z M112.9,3.7C112.9,3.6,112.8,3.7,112.9,3.7C112.8,3.8,113,3.7,112.9,3.7z M108,3.9
	C108.3,4.4,108.3,3.5,108,3.9L108,3.9z M117.3,3.8C117.3,3.7,117.2,3.8,117.3,3.8C117.2,3.9,117.4,3.8,117.3,3.8z M110.5,3.9
	C110.4,3.8,110.3,3.9,110.5,3.9C110.4,4,110.5,3.9,110.5,3.9z M110.5,4.1C110.4,4,110.3,4.1,110.5,4.1
	C110.4,4.2,110.5,4.1,110.5,4.1z M112.9,4.1C112.9,4,112.8,4.1,112.9,4.1C112.8,4.2,113,4.1,112.9,4.1z M111.7,4.2
	C111.7,4.1,111.6,4.2,111.7,4.2C111.7,4.3,111.8,4.2,111.7,4.2z M107.3,4.3c0-0.1-0.2-0.1-0.2,0C107.2,4.5,107.2,4.4,107.3,4.3z
	 M111.2,4.4c0.2,0,0.3-0.1,0.3-0.2C111.4,4.2,111.3,4.3,111.2,4.4z M115.6,4.2C115.6,4.2,115.5,4.3,115.6,4.2
	C115.6,4.4,115.7,4.3,115.6,4.2z M108.6,4.3C108.6,4.3,108.5,4.4,108.6,4.3C108.5,4.5,108.7,4.4,108.6,4.3z M114.9,4.3
	C114.8,4.3,114.7,4.4,114.9,4.3C114.8,4.5,114.9,4.4,114.9,4.3z M92.1,4.5C92.1,4.5,92,4.4,92.1,4.5C92,4.6,92.1,4.7,92.1,4.5z
	 M106.3,4.6c0.1,0.1,0.2,0.1,0.3-0.1C106.5,4.5,106.2,4.3,106.3,4.6z M105.7,4.6c0-0.1-0.2-0.1-0.2,0C105.5,4.8,105.6,4.7,105.7,4.6
	z M108.9,5.4c0-0.4-0.3,0.1-0.3-0.3c0.1,0,0.1-0.2,0.1-0.4c-0.2,0.1-0.3-0.4-0.5-0.1C108.7,4.8,108.2,5.5,108.9,5.4z M106.2,4.7
	c0-0.1-0.2-0.1-0.2,0C106.1,4.7,106.1,4.9,106.2,4.7z M111.3,4.8c0.1,0.1,0.2,0.1,0.3-0.1c-0.1,0-0.2,0-0.3-0.1
	C111.3,4.7,111.3,4.8,111.3,4.8z M113.5,4.7c-0.1,0-0.2-0.1-0.2,0C113.3,4.8,113.5,4.9,113.5,4.7z M110.3,4.7
	C110.2,4.7,110.1,4.8,110.3,4.7C110.2,4.9,110.3,4.8,110.3,4.7z M105.7,4.9C105.6,4.9,105.5,5,105.7,4.9
	C105.6,5.1,105.7,5,105.7,4.9z M106.4,4.9C106.3,4.9,106.2,5,106.4,4.9C106.3,5.1,106.4,5,106.4,4.9z M104.4,5.6
	c0.3,0,0.6-0.3,0.3-0.5C104.7,5.4,104.4,5.4,104.4,5.6z M105.7,5.2C105.7,5.2,105.6,5.1,105.7,5.2C105.6,5.3,105.7,5.3,105.7,5.2z
	 M107.8,5.1C107.8,5.1,107.7,5.2,107.8,5.1C107.8,5.3,107.9,5.2,107.8,5.1z M109.4,5.2C109.4,5.2,109.3,5.2,109.4,5.2
	c-0.1,0.3,0.1,0.3,0.3,0.3C109.8,5.3,109.5,5,109.4,5.2z M107,5.5C107,5.5,107,5.4,107,5.5C106.9,5.6,107,5.6,107,5.5z M101.8,5.8
	c0.3-0.1-0.1-0.5-0.2-0.2C101.5,5.7,101.7,5.8,101.8,5.8z M103.5,5.5C103.5,5.5,103.4,5.6,103.5,5.5C103.5,5.6,103.6,5.6,103.5,5.5z
	 M104.2,5.5C104.2,5.5,104.1,5.6,104.2,5.5C104.1,5.6,104.3,5.6,104.2,5.5z M109.3,5.6C108.8,5.9,109.6,5.9,109.3,5.6L109.3,5.6z
	 M101,5.9c0.1,0,0.2,0,0.3,0c0-0.2-0.1-0.2-0.3-0.2C101,5.8,101,5.8,101,5.9z M102.6,5.8c0-0.1-0.2-0.1-0.2,0
	C102.6,5.8,102.6,6,102.6,5.8z M107.8,5.7C107.8,5.7,107.7,5.8,107.8,5.7C107.8,5.8,107.9,5.8,107.8,5.7z M100.5,6.1
	C100.5,6,100.5,6,100.5,6.1c0.1-0.2,0.1-0.2,0.1-0.3c-0.1,0-0.3,0-0.3,0.1C100.4,5.9,100.4,6.1,100.5,6.1z M106.4,6.1
	c0-0.1,0.4-0.2,0.1-0.3C106.5,5.9,106,6,106.4,6.1z M93.6,5.9C93.6,5.9,93.5,6,93.6,5.9C93.6,6,93.7,6,93.6,5.9z M104,6.1
	c0.2,0,0.3,0,0.3-0.2c-0.1,0-0.1,0-0.2,0C104.1,6,104,6,104,6.1z M99.4,6.4c0.4,0.1,0.3-0.4,0-0.4C99.4,6.1,99.4,6.3,99.4,6.4z
	 M103.8,6.1c-0.1,0-0.3,0-0.3,0.1C103.6,6.2,103.8,6.2,103.8,6.1z M105.7,6.1C105.6,6.1,105.5,6.2,105.7,6.1
	C105.6,6.2,105.7,6.2,105.7,6.1z M107.3,6.2C107.3,6.2,107.2,6.3,107.3,6.2C107.3,6.3,107.4,6.3,107.3,6.2z M100,6.6
	c-0.2,0-0.2-0.1-0.3-0.1C99.6,6.7,100,6.8,100,6.6c0.2,0,0.4,0,0.4-0.1C100.3,6.4,100.1,6.4,100,6.6z M102.9,6.7
	C102.9,6.6,102.9,6.6,102.9,6.7C102.8,6.7,102.9,6.8,102.9,6.7z M97.9,6.7C97.9,6.7,97.8,6.7,97.9,6.7C97.9,6.8,98,6.7,97.9,6.7z
	 M91,6.8c-0.1,0-0.2,0-0.2,0.1C90.9,6.9,91,6.9,91,6.8z M97.2,7c0,0.1,0,0.1,0,0.2c0.1,0,0.1,0,0.2,0C97.5,7,97.5,6.9,97.2,7
	C97.3,6.9,97.3,7,97.2,7z M102.6,6.9c-0.1,0-0.2,0-0.2,0.1C102.5,7,102.6,7,102.6,6.9z M96,7.3c-0.1,0-0.2-0.1-0.2,0
	C95.8,7.4,96,7.4,96,7.3z M103.4,7.3c-0.1,0-0.2,0-0.2,0.1C103.3,7.4,103.4,7.4,103.4,7.3z M95.4,7.5c-0.1,0-0.3,0-0.3,0.1
	C95.2,7.6,95.4,7.6,95.4,7.5z M100.6,7.5C100.6,7.4,100.4,7.5,100.6,7.5C100.5,7.6,100.6,7.5,100.6,7.5z M94,7.7
	C94,7.6,93.9,7.7,94,7.7C94,7.8,94.1,7.7,94,7.7z M96.3,7.8C96.3,7.7,96.2,7.7,96.3,7.8C96.2,7.8,96.3,7.9,96.3,7.8z M95.9,7.8
	C95.9,7.7,95.7,7.8,95.9,7.8C95.8,7.9,95.9,7.8,95.9,7.8z M97.7,8.1c-0.1,0-0.1-0.1-0.3-0.1C97.2,8.2,97.7,8.3,97.7,8.1z M94.2,8.2
	C94,8.5,94.6,7.9,94.2,8.2L94.2,8.2z M97,8.4c0-0.1-0.2-0.1-0.2,0C96.8,8.5,96.9,8.4,97,8.4z M95.1,8.5C95.1,8.5,95,8.6,95.1,8.5
	C95,8.7,95.2,8.6,95.1,8.5z M95.7,8.5C95.7,8.5,95.6,8.6,95.7,8.5C95.6,8.7,95.8,8.6,95.7,8.5z M93.7,9c-0.1,0-0.2,0-0.2,0.1
	C93.6,9.1,93.7,9.1,93.7,9z M94.7,9C94.7,9,94.6,9.1,94.7,9C94.7,9.2,94.8,9.1,94.7,9z M91.5,11.3c-0.6,0.9-0.7,2.1-1.2,3.1
	c-0.4,1.1-0.6,2.4-1,3.4c0,0.2,0,0.5,0,0.7c-0.4,0.5-0.5,1.2-0.6,2.1c-0.3,0.3-0.3,1-0.7,1.2c0.2,0.3,0,0.6,0,1
	c-0.2,0.4-0.4,0.9-0.4,1.6c-0.5,0.7-0.4,1.6-0.7,2.4c0,0.9-0.2,1-0.2,1.8c0.2,0,0.5,0.4,0.6,0.2c0.1-0.2,0.3,0.3,0.5,0.3
	c0.3-0.2,0.6,0,1,0c0.3-0.5,0.6-0.8,0.8-1.4c0.3-0.4,0.3-1.1,0.8-1.4c0.2-1,0.4-1.9,1-2.5c-0.1-0.8,0.4-1,0.5-1.7
	c0.1-0.2,0.2-0.6,0.3-0.8c0.1-0.3,0.3-0.5,0.4-0.8c0.1-0.2,0.2-0.5,0.2-0.8c0.3-0.3,0.4-0.8,0.5-1.4c0.4-0.2,0.4-0.9,0.7-1.3
	c0.1-0.5,0.4-0.8,0.5-1.4c0.3-0.3,0.3-1,0.7-1.3c0.2-1,0.9-1.7,1.2-2.6c0.4-0.9,1.1-1.5,1.4-2.5C95.5,9.8,93.4,10.4,91.5,11.3z
	 M89,9.5C88.9,9.5,88.8,9.6,89,9.5C88.9,9.7,89,9.6,89,9.5z M88.7,9.9C88.6,9.9,88.5,10,88.7,9.9C88.6,10,88.7,10,88.7,9.9z
	 M87.6,10.2C87.6,10.1,87.5,10,87.6,10.2C87.4,10.1,87.4,10.2,87.6,10.2z M88.7,10.5c0.1-0.1,0.1-0.3-0.1-0.4
	C88.4,10.2,88.4,10.5,88.7,10.5z M86.3,10.3c-0.1,0-0.2,0-0.2,0.1C86.2,10.4,86.3,10.4,86.3,10.3z M86.7,10.6c-0.1,0-0.2,0-0.2,0.1
	C86.6,10.7,86.7,10.7,86.7,10.6z M85,10.9c0.1,0,0.2,0,0.3,0c0-0.2-0.1-0.2-0.3-0.2C85,10.8,85,10.8,85,10.9z M86.7,10.8
	c0,0.2,0.1,0.3,0.2,0.4c-0.1-0.4,0.3-0.2,0.2-0.5C86.9,10.7,86.9,10.8,86.7,10.8z M83.6,11.2c0,0.2,0,0.4,0.1,0.4
	C83.8,11.4,83.7,11.3,83.6,11.2c0-0.1,0-0.2,0-0.3c-0.2,0-0.3,0.2-0.4,0.3C83.4,11.4,83.3,11.2,83.6,11.2z M82.6,11.4
	C82.6,11.4,82.5,11.4,82.6,11.4C82.5,11.5,82.7,11.4,82.6,11.4z M80.5,11.7c0.1,0,0.1,0,0.2,0c0-0.1,0-0.1,0-0.2c-0.1,0-0.1,0-0.2,0
	C80.5,11.5,80.5,11.6,80.5,11.7z M86.7,11.5C86.7,11.5,86.6,11.5,86.7,11.5C86.6,11.6,86.8,11.5,86.7,11.5z M81.5,11.9
	C81.4,11.9,81.5,12,81.5,11.9c0.1,0.1,0.3,0.2,0.3,0c-0.2,0-0.1-0.3-0.3-0.3C81.5,11.7,81.5,11.8,81.5,11.9z M79.2,12
	C79.2,11.9,79,12,79.2,12C79.1,12.1,79.2,12,79.2,12z M80.4,12.2c0-0.1-0.2-0.1-0.2,0C80.3,12.2,80.3,12.3,80.4,12.2z M80.6,12.3
	C80.6,12.2,80.5,12.2,80.6,12.3C80.5,12.3,80.5,12.4,80.6,12.3z M80.7,12.3C80.7,12.2,80.6,12.3,80.7,12.3
	C80.7,12.4,80.8,12.3,80.7,12.3z M77.1,12.9c0.2,0,0.3-0.2,0.4-0.3C77.3,12.6,77.1,12.6,77.1,12.9z M111.5,12.8c0,0.2,0,0.4,0.2,0.4
	c0.1-0.1,0.3-0.4,0-0.5C111.7,12.7,111.6,12.8,111.5,12.8z M82.2,12.8C82.2,12.7,82.1,12.8,82.2,12.8C82.1,12.9,82.3,12.8,82.2,12.8
	z M78.5,12.9C78.5,12.9,78.4,13,78.5,12.9C78.4,13.1,78.5,13,78.5,12.9z M111.6,13.5c0-0.3-0.2-0.4-0.4-0.5
	C111.1,13.2,111.3,13.6,111.6,13.5z M75.6,13.1C75.5,13.1,75.4,13.2,75.6,13.1C75.5,13.3,75.6,13.2,75.6,13.1z M78.5,13.3
	C78.5,13.3,78.4,13.4,78.5,13.3C78.4,13.5,78.5,13.4,78.5,13.3z M113,13.3C113,13.3,112.9,13.4,113,13.3
	C112.9,13.5,113.1,13.4,113,13.3z M111,13.6c0.1,0,0.1,0.1,0.2,0.1c0-0.2,0-0.3-0.2-0.3C111,13.5,111,13.6,111,13.6z M77.4,14.5
	C77.4,14.5,77.3,14.6,77.4,14.5C77.4,14.6,77.5,14.6,77.4,14.5z M111.2,14.5C111.2,14.5,111.1,14.6,111.2,14.5
	C111.2,14.6,111.3,14.6,111.2,14.5z M74.6,14.8C74.6,14.8,74.4,14.9,74.6,14.8C74.5,14.9,74.6,14.9,74.6,14.8z M110.9,15.3
	c-0.1,0-0.2-0.1-0.2,0C110.7,15.4,110.8,15.4,110.9,15.3z M112.4,15.9C112.4,15.9,112.3,15.9,112.4,15.9
	C112.3,16,112.5,15.9,112.4,15.9z M109.5,16.8c0.2-0.2,0-0.2-0.1-0.4c0.2,0,0.5,0.1,0.4-0.2c-0.3,0.1-0.2,0.1-0.5,0
	C109.3,16.5,109.1,16.7,109.5,16.8z M102.8,17.9C102.8,17.9,102.7,18,102.8,17.9C102.8,18.1,102.9,18,102.8,17.9z M108.4,18
	C108.4,18,108.3,17.9,108.4,18C108.3,18.1,108.4,18.1,108.4,18z M85.3,19.3c0.1,0,0.1,0,0.2,0c0-0.1,0.1-0.1,0.1-0.2
	c-0.1,0-0.1-0.1-0.3-0.1C85.3,19.1,85.3,19.2,85.3,19.3z M85,19.9C85,19.9,84.9,19.9,85,19.9C85,20,85.1,19.9,85,19.9z M96.1,19.9
	C96.1,19.9,95.9,19.9,96.1,19.9C96,20,96.1,19.9,96.1,19.9z M47,20.4C47,20.3,46.9,20.4,47,20.4C47,20.5,47.1,20.4,47,20.4z
	 M84.9,20.4C84.8,20.3,84.7,20.4,84.9,20.4C84.8,20.5,84.9,20.4,84.9,20.4z M95.1,20.6C95.1,20.5,95,20.6,95.1,20.6
	C95,20.7,95.2,20.6,95.1,20.6z M87.2,20.9c0-0.1-0.2-0.1-0.2,0C87,21,87.1,20.9,87.2,20.9z M110.5,20.9
	C110.4,20.8,110.3,20.9,110.5,20.9C110.4,21,110.5,20.9,110.5,20.9z M46.7,21C46.7,20.9,46.6,21,46.7,21C46.7,21.1,46.8,21,46.7,21z
	 M84.4,21.3C84.4,21.2,84.3,21,84.4,21.3C84.2,21.2,84.2,21.3,84.4,21.3z M106.7,21.1C106.7,21,106.6,21.1,106.7,21.1
	C106.7,21.2,106.8,21.1,106.7,21.1z M106.3,21.2C106.2,21.1,106.1,21.2,106.3,21.2C106.2,21.3,106.3,21.2,106.3,21.2z M106.2,21.4
	C106.1,21.3,106,21.4,106.2,21.4C106.1,21.5,106.2,21.4,106.2,21.4z M107.2,21.5C107.2,21.5,107.2,21.4,107.2,21.5
	C107.1,21.6,107.2,21.7,107.2,21.5z M77.1,23.4c-0.5,0.5-0.9,1.1-1.5,1.6c-0.4,0.6-1,1.1-1.4,1.7c-0.3,0.2-0.5,0.4-0.6,0.9
	c-0.3,0-0.3,0.2-0.4,0.4c0,0.3-0.5,0.1-0.2,0.4c0.5,0.1,0.7-0.1,0.8-0.5c0.3-0.2,0.5-0.4,0.6-0.7c0.3-0.2,0.4-0.4,0.7-0.6
	c0.1-0.3,0.5-0.3,0.6-0.7c0.9-0.8,1.6-1.8,2.5-2.6c0-0.5,0.4-1.1,0.2-1.5C78.2,22.4,77.6,22.9,77.1,23.4z M110.7,21.7
	c-0.1,0-0.2,0-0.2,0.1C110.5,21.8,110.7,21.8,110.7,21.7z M100.7,21.9c-0.1,0-0.2,0-0.2,0.1C100.6,22,100.7,22,100.7,21.9z
	 M86.6,22.3C86.6,22.3,86.5,22.4,86.6,22.3C86.5,22.5,86.7,22.4,86.6,22.3z M100.3,22.5c-0.1,0-0.2-0.1-0.2,0
	C100.1,22.6,100.3,22.6,100.3,22.5z M86.1,22.5C86.1,22.5,86,22.6,86.1,22.5C86.1,22.7,86.2,22.6,86.1,22.5z M100.5,22.6
	C100.5,22.6,100.4,22.5,100.5,22.6C100.4,22.7,100.5,22.7,100.5,22.6z M105.4,22.7c0-0.1-0.2-0.1-0.2,0
	C105.2,22.8,105.3,22.8,105.4,22.7z M83.4,22.7C83.4,22.7,83.2,22.8,83.4,22.7C83.3,22.8,83.4,22.8,83.4,22.7z M100.2,22.7
	C100.2,22.7,100,22.8,100.2,22.7C100.1,22.8,100.2,22.8,100.2,22.7z M104.4,22.8C104.4,22.8,104.3,22.9,104.4,22.8
	C104.3,22.9,104.5,22.9,104.4,22.8z M104.6,22.9C104.6,22.9,104.4,23,104.6,22.9C104.5,23,104.6,23,104.6,22.9z M84.5,23.2
	c-0.1,0-0.2,0-0.2,0.1C84.3,23.3,84.5,23.3,84.5,23.2z M100,23.2C100,23.2,99.9,23.3,100,23.2C99.9,23.3,100.1,23.3,100,23.2z
	 M104.6,23.3c0,0.4,0.2,0,0.3,0.2C104.9,23.3,104.7,23.3,104.6,23.3C104.5,23.2,104.5,23.3,104.6,23.3z M110.4,23.3
	C110.3,23.3,110.2,23.4,110.4,23.3C110.3,23.4,110.4,23.4,110.4,23.3z M85.8,23.5C85.8,23.5,85.7,23.6,85.8,23.5
	C85.8,23.6,85.9,23.6,85.8,23.5z M77.7,28.4c0-0.3,0-0.5-0.1-0.8c0.3-0.1,0.1-0.8,0.3-1.3c0-0.5,0-0.8,0.1-1.2c0-0.2,0-0.3-0.1-0.4
	c0.2-0.2,0.2-0.5,0.2-0.9c0-0.1-0.1-0.1-0.2-0.1c-0.1,0.2-0.3,0.4-0.5,0.5c0,0.3-0.3,0.3-0.3,0.7c-0.3,0.1-0.4,0.5-0.7,0.6
	c-0.2,0.2-0.3,0.5-0.6,0.7c-0.3,0.6-0.9,0.8-1.1,1.5c-0.4,0.2-0.6,0.3-0.6,0.6c0.7,0.1,1.3,0.4,2,0.6c0.3,0.3,0.7,0.6,1.3,0.7
	C77.5,29.1,77.6,28.8,77.7,28.4z M61.5,24.1C61.5,24,61.4,24,61.5,24.1C61.4,24.1,61.5,24.2,61.5,24.1z M64.5,24.4
	c-0.5,0.1-0.9,0.3-1.2,0.6c0.1,0,0.1,0.1,0,0.2c-0.7,0.3-0.9,1-1.6,1.3c-0.4,0.7-0.9,1.3-1.6,1.8c0,0.3,0,0.5-0.2,0.6
	c-0.1,0.1-0.2,0.1-0.4,0c-0.1,0.3,0.1,0.3,0.1,0.5c-0.4,0.3-0.8,0.4-1.1,0.8c0.2,0.2-0.2,0.6-0.1,1.1c-0.3,0-0.3,0.4-0.4,0.6
	c0.2,0.2,0.5-0.2,0.7-0.4c0.4,0,0.5-0.4,0.9-0.5c0,0.1,0,0.2,0.1,0.2c0.1-0.5,0.3-0.3,0.3-0.7c0.5-0.1,0.6-0.5,1.1-0.6
	c0-0.1,0-0.2,0-0.3c0.6-0.3,1-0.7,1.5-1.1c0,0.1,0,0.1,0.1,0.1c0.2-0.5,0.5-0.7,0.9-1c0.1-0.2,0.2-0.4,0.4-0.5c0.2-0.2,0.1,0,0.4,0
	c0-0.2-0.1-0.2-0.1-0.4c0.4,0.1,0.1-0.5,0.5-0.4c0-0.4,0.4-0.6,0.6-0.9c0.1,0,0.3,0,0.3-0.1c-0.1,0-0.2,0-0.2-0.1
	c0.2-0.3,0.1-0.3,0.2-0.8c-0.3-0.4-1.1,0-1.3-0.3C64.4,24.2,64.5,24.3,64.5,24.4z M105,24.1C105,24.1,104.8,24.1,105,24.1
	C104.9,24.2,105,24.1,105,24.1z M87.4,24.3c-0.1,0-0.2,0-0.2,0.1C87.3,24.4,87.4,24.4,87.4,24.3z M91.5,24.3c-0.1,0-0.2,0-0.2,0.1
	C91.4,24.4,91.5,24.4,91.5,24.3z M104.9,24.6C104.9,24.5,104.9,24.5,104.9,24.6c0.1-0.2,0.1-0.3-0.1-0.3
	C104.8,24.4,104.8,24.6,104.9,24.6z M104.1,24.4c-0.1,0-0.2,0-0.2,0.1C104,24.5,104.1,24.5,104.1,24.4z M104.5,25
	C104.5,24.9,104.3,25,104.5,25C104.4,25.1,104.5,25,104.5,25z M104.3,25.1C104.3,25,104.2,25.1,104.3,25.1
	C104.2,25.2,104.4,25.1,104.3,25.1z M105.7,25.1C105.6,25,105.5,25.1,105.7,25.1C105.6,25.2,105.7,25.1,105.7,25.1z M97.7,25.2
	C97.6,25.1,97.5,25.2,97.7,25.2C97.6,25.3,97.7,25.2,97.7,25.2z M60.7,25.3C60.7,25.2,60.6,25.3,60.7,25.3
	C60.6,25.4,60.8,25.3,60.7,25.3z M62.5,25.3C62.4,25.2,62.3,25.3,62.5,25.3C62.4,25.4,62.5,25.3,62.5,25.3z M59.8,25.6
	c0.2,0.1,0.6-0.1,0.3-0.2C60.1,25.5,59.9,25.4,59.8,25.6z M103.5,25.5C103.5,25.4,103.4,25.3,103.5,25.5
	C103.4,25.5,103.5,25.6,103.5,25.5z M103.8,25.4C103.8,25.3,103.7,25.4,103.8,25.4C103.7,25.5,103.9,25.4,103.8,25.4z M51.2,25.6
	C51.2,25.5,51.1,25.6,51.2,25.6C51.2,25.7,51.3,25.6,51.2,25.6z M85.7,25.7C85.7,25.6,85.7,25.5,85.7,25.7
	C85.6,25.7,85.7,25.8,85.7,25.7z M60.3,25.8C60.3,25.7,60.2,25.6,60.3,25.8C60.2,25.8,60.3,25.9,60.3,25.8z M60,26
	C59.6,26,60,26.3,60,26C60.3,26,59.9,25.6,60,26z M65.3,26C65.3,26,65.2,26.1,65.3,26C65.2,26.2,65.4,26.1,65.3,26z M50.2,26.1
	C50.1,26.1,50,26.2,50.2,26.1C50.1,26.3,50.2,26.2,50.2,26.1z M100.5,26.2C100.5,26.2,100.4,26.1,100.5,26.2
	C100.4,26.3,100.5,26.4,100.5,26.2z M104.5,26.2C104.4,26.3,104.5,26.4,104.5,26.2C104.6,26.2,104.5,26.1,104.5,26.2z M65.7,26.3
	C65.7,26.3,65.5,26.4,65.7,26.3C65.6,26.5,65.7,26.4,65.7,26.3z M105.7,26.3C105.6,26.3,105.5,26.4,105.7,26.3
	C105.6,26.5,105.7,26.4,105.7,26.3z M65.2,26.6C65.2,26.6,65.1,26.7,65.2,26.6C65.1,26.8,65.3,26.7,65.2,26.6z M81.5,26.6
	C81.5,26.6,81.4,26.7,81.5,26.6C81.5,26.8,81.6,26.7,81.5,26.6z M105.3,26.9c0-0.1-0.2-0.1-0.2,0C105.2,26.9,105.2,27.1,105.3,26.9z
	 M64.3,27.3C64.3,27.3,64.2,27.2,64.3,27.3C64.2,27.4,64.3,27.4,64.3,27.3z M80.8,27.3C80.8,27.3,80.7,27.4,80.8,27.3
	C80.8,27.4,80.9,27.4,80.8,27.3z M48.2,27.5C48.3,27.7,48.3,27.5,48.2,27.5C48.1,27.4,48.1,27.5,48.2,27.5z M60.9,27.4
	C60.9,27.4,60.8,27.5,60.9,27.4C60.8,27.5,61,27.5,60.9,27.4z M81,27.4C81,27.4,80.9,27.5,81,27.4C81,27.5,81.1,27.5,81,27.4z
	 M78.9,27.5C78.9,27.5,78.7,27.6,78.9,27.5C78.8,27.6,78.9,27.6,78.9,27.5z M100.6,27.8c0-0.2-0.1-0.3-0.2-0.3
	C100.4,27.7,100.4,27.9,100.6,27.8z M40.9,27.6C40.8,27.6,40.7,27.7,40.9,27.6C40.8,27.7,40.9,27.7,40.9,27.6z M48.1,27.7
	c-0.1,0-0.4,0-0.4,0.1C47.8,27.9,48.1,27.9,48.1,27.7z M84.9,27.8C84.8,27.8,84.7,27.9,84.9,27.8C84.8,27.9,84.9,27.9,84.9,27.8z
	 M47.8,28c-0.1,0-0.1-0.1-0.3-0.1C47.4,28.1,47.8,28.2,47.8,28z M42.1,28C42.1,28,42,28,42.1,28C42.1,28.1,42.2,28.1,42.1,28z
	 M64,28.1c-0.1,0-0.2,0-0.2,0.1C63.9,28.2,64,28.2,64,28.1z M51.7,28.8C52.1,28.8,51.7,28.4,51.7,28.8c-0.1,0.1-0.2,0.2-0.2,0.5
	c0.3-0.1,0.3-0.1,0.6,0c0.1-0.3,0.7-0.8,0.3-1.1c-0.1,0.1-0.1,0.4-0.4,0.3c-0.1,0.3,0.2,0.2,0.2,0.4c-0.3-0.1-0.3,0.2-0.5,0.2
	C51.7,29,51.7,28.9,51.7,28.8z M63.6,28.2C63.6,28.2,63.5,28.2,63.6,28.2C63.6,28.3,63.7,28.2,63.6,28.2z M47.7,28.4
	C47.7,28.3,47.6,28.3,47.7,28.4C47.6,28.4,47.7,28.5,47.7,28.4z M63.2,28.6C63.2,28.7,63.3,28.6,63.2,28.6c0-0.1,0-0.2,0-0.3
	C62.9,28.1,62.9,28.7,63.2,28.6z M100.6,28.4C100.6,28.4,100.4,28.4,100.6,28.4C100.5,28.5,100.6,28.4,100.6,28.4z M57.7,28.6
	C57.7,28.6,57.5,28.6,57.7,28.6C57.6,28.7,57.7,28.6,57.7,28.6z M100.5,28.7C100.1,28.7,100.5,29.1,100.5,28.7
	C100.6,28.6,100.5,28.6,100.5,28.7z M62.5,28.9c0.1,0,0.2,0.1,0.3,0c0-0.1,0-0.1,0-0.2c-0.1,0-0.1,0-0.2,0
	C62.6,28.8,62.5,28.8,62.5,28.9z M86.8,29.8c-0.1,0-0.2,0-0.2,0.2c0.2,0.3-0.2,0.7,0.1,1c-0.3-0.1-0.2,0.2-0.3,0.3
	c0.3,0,0.2-0.2,0.4,0c0-0.2,0.1-0.3,0.2-0.3c0.3,0.2,0.8-0.2,0.8-0.7c-0.5,0.1-0.2-0.5-0.1-0.6c-0.2,0-0.2-0.1-0.2-0.3
	c-0.4,0-0.3-0.5-0.7-0.5C86.6,29.2,86.8,29.4,86.8,29.8z M46.6,29.1C46.6,29,46.5,29.1,46.6,29.1C46.6,29.2,46.7,29.1,46.6,29.1z
	 M104.2,29.1C104.2,29,104.1,29.1,104.2,29.1C104.1,29.2,104.3,29.1,104.2,29.1z M42.2,29.2C42.2,29.1,42.1,29.2,42.2,29.2
	C42.2,29.3,42.3,29.2,42.2,29.2z M51.7,30.1c-0.1-0.4,0.4-0.4,0.2-0.7c-0.1,0-0.2,0-0.3,0C51.5,29.5,51.4,30.1,51.7,30.1z
	 M101.1,29.4C101.1,29.3,100.9,29.4,101.1,29.4C101,29.5,101.1,29.4,101.1,29.4z M110.2,29.4C110.1,29.3,110,29.4,110.2,29.4
	C110.1,29.5,110.2,29.4,110.2,29.4z M52.3,29.5C52.3,29.4,52.2,29.5,52.3,29.5C52.2,29.6,52.4,29.5,52.3,29.5z M41,29.8
	c0.1,0,0.1,0.1,0.2,0.1c0-0.2,0-0.3-0.2-0.3C41,29.6,41,29.7,41,29.8z M39.5,29.8c-0.1,0-0.2,0-0.2,0.1
	C39.4,29.8,39.5,29.9,39.5,29.8z M45.2,29.8C44.3,30.1,44,31,43,31.2c0,0.2-0.1,0.3-0.3,0.3c0,0.2,0,0.5,0,0.7
	c0.6-0.2,0.9-0.7,1.4-1.1c0.2-0.2,0.6-0.3,0.7-0.6c0.3-0.2,0.7-0.3,0.7-0.7C45.3,29.9,45.3,29.7,45.2,29.8z M79.9,29.8
	C79.8,29.7,79.7,29.8,79.9,29.8C79.8,29.9,79.9,29.8,79.9,29.8z M51.2,30C51.2,29.9,51.1,30,51.2,30C51.2,30.1,51.3,30,51.2,30z
	 M40.8,30.8c0-0.3,0.5-0.8-0.1-0.8C40.7,30.3,40.4,30.7,40.8,30.8z M56.8,30.2C56.8,30.1,56.8,30,56.8,30.2
	C56.7,30.3,56.7,30.4,56.8,30.2z M73.5,30.3c0-0.1,0-0.1,0-0.2c-0.3-0.3-0.1,0.4-0.6,0.2c0,0.2-0.1,0.4-0.4,0.4
	c0.4,0.5,0,1.6,0.7,1.8c-0.4,0.6,0.6,0.8,0.1,1.1c0.5,0.2,0.4,0.5,0.5,1c0.4,0.3,0.6,0.8,1.2,0.9c0.2-0.3,0.5-0.5,0.8-0.7
	c0.1-0.7,0.6-1,0.7-1.9c0.3-0.6,0.6-1.2,0.7-2.1c-0.1,0-0.2-0.1-0.2-0.3c-0.6,0-0.5-0.2-1-0.3c-0.4,0.1-0.5-0.1-0.7-0.2
	C74.8,30.2,74.2,30.1,73.5,30.3z M51,30.2C51,30.1,50.9,30.2,51,30.2C51,30.3,51.1,30.2,51,30.2z M51.3,30.2
	C51.4,30.4,51.4,30.2,51.3,30.2C51.3,30.1,51.2,30.3,51.3,30.2z M60.4,30.4C60.2,30.4,60.3,30.6,60.4,30.4
	C60.4,30.7,60.5,30.6,60.4,30.4C60.8,30.6,60.4,30.1,60.4,30.4z M86.5,30.3C86.5,30.3,86.4,30.4,86.5,30.3
	C86.4,30.5,86.6,30.4,86.5,30.3z M50.8,31c0-0.2-0.1-0.3-0.2-0.3c-0.2,0.2,0,0.3,0.1,0.5c0.3-0.1,0.6-0.3,0.7-0.7
	c-0.1,0-0.1-0.1-0.3-0.1C51.1,30.7,50.9,30.8,50.8,31z M51.7,31.3c0.3,0,0.5-0.6,0.3-0.8C51.9,30.8,51.7,30.9,51.7,31.3z M61.1,30.5
	c-0.1,0-0.2,0-0.2,0.1C61,30.6,61.1,30.6,61.1,30.5z M60.7,30.8C60.7,30.8,60.6,30.9,60.7,30.8C60.6,31,60.8,30.9,60.7,30.8z
	 M68.7,31.1c0-0.1,0.2-0.2,0-0.3C68.7,31,68.6,31.1,68.7,31.1z M56.7,31.1c-0.1,0-0.2-0.1-0.2,0C56.5,31.2,56.7,31.3,56.7,31.1z
	 M59.3,31.2C59.3,31.2,59.2,31.3,59.3,31.2C59.3,31.4,59.4,31.3,59.3,31.2z M40.3,31.7c-0.1-0.3,0.2-0.2,0.2-0.4
	C40.1,31.2,39.8,31.7,40.3,31.7z M56.1,31.4c0,0.1,0,0.1,0,0.2c0.1,0,0.2,0,0.3,0c0-0.1,0-0.2,0-0.3C56.3,31.3,56.3,31.3,56.1,31.4
	C56.2,31.4,56.2,31.4,56.1,31.4z M57.3,31.5C57.3,31.5,57.1,31.6,57.3,31.5C57.2,31.6,57.3,31.6,57.3,31.5z M51.7,31.6
	C51.7,31.6,51.6,31.7,51.7,31.6C51.6,31.7,51.8,31.7,51.7,31.6z M40.6,31.8C40.5,31.8,40.4,31.9,40.6,31.8
	C40.5,31.9,40.6,31.9,40.6,31.8z M59.1,31.8C59.1,31.8,59,31.9,59.1,31.8C59.1,31.9,59.2,31.9,59.1,31.8z M38.4,31.9
	C38.4,31.9,38.3,32,38.4,31.9C38.4,32,38.5,32,38.4,31.9z M51.5,32.1C51.5,32.1,51.4,32,51.5,32.1C51.4,32.2,51.5,32.2,51.5,32.1z
	 M38.1,32.1C38.1,32.1,38,32.2,38.1,32.1C38.1,32.2,38.2,32.2,38.1,32.1z M55.9,32.2C55.9,32.2,55.8,32.3,55.9,32.2
	C55.9,32.3,56,32.3,55.9,32.2z M68.6,32.3C68.6,32.2,68.5,32.2,68.6,32.3C68.5,32.4,68.6,32.4,68.6,32.3z M40.1,32.6
	c0-0.3-0.2-0.3-0.5-0.3C39.6,32.6,39.8,32.6,40.1,32.6z M69,32.3C69,32.3,68.9,32.3,69,32.3C68.9,32.4,69.1,32.4,69,32.3z
	 M89.5,32.7c0-0.1,0.2-0.4,0-0.4C89.5,32.5,89.2,32.6,89.5,32.7z M55.8,32.4C55.8,32.4,55.7,32.4,55.8,32.4
	C55.8,32.5,55.9,32.4,55.8,32.4z M67.8,32.7c-0.1,0.2-0.2,0.5-0.6,0.4c-0.1,0.3,0.2,0.2,0.3,0.3c0.2-0.6,0.9-0.1,1.2-0.5
	c-0.5,0.2-0.3-0.8-0.7-0.4C68.3,32.5,68,32.8,67.8,32.7c-0.1-0.1-0.1-0.3-0.2-0.3c0.1,0.2-0.2,0.1-0.2,0.3
	C67.6,32.7,67.7,32.7,67.8,32.7z M89.9,32.4c-0.1,0-0.2,0-0.2,0.1C89.8,32.5,89.9,32.5,89.9,32.4z M68.7,32.5
	C68.7,32.5,68.6,32.5,68.7,32.5C68.7,32.6,68.8,32.5,68.7,32.5z M67.4,32.9c-0.2,0,0-0.1,0-0.3C67,32.4,67.2,33.3,67.4,32.9z
	 M67,32.7c-0.1,0-0.2,0-0.2,0.1C66.8,32.8,67,32.8,67,32.7z M84.7,55.4c-0.2,0-0.3,0.1-0.3,0.2c-0.1,0.1,0,0.1,0,0
	C84.5,55.7,84.7,55.7,84.7,55.4c0.2,0,0.4-0.1,0.5-0.2c-0.2,0,0-0.3,0-0.4c-0.2,0-0.7-0.3-0.5-0.7c0,0.2,0.1,0.2,0.2,0.2
	c0.4,0.1,0.1-0.4,0.4-0.4c0.2,0,0.4,0.2,0.5-0.1c-0.2-0.2-0.4,0.1-0.6-0.2c0.1-0.1,0.2-0.1,0.4-0.1c0,0,0,0.1,0,0.1
	c0.3,0.1,0.6-0.3,0.3-0.5c-0.2,0.1-0.2,0.3-0.3,0.4c0-0.1-0.2-0.1-0.2-0.2c0.2-0.2,0.2-0.9,0.6-0.7c0-0.2-0.1-0.6,0.2-0.5
	c0.1-0.1-0.1-0.5,0.1-0.5c0-0.2-0.1-0.6,0.2-0.5c-0.1,0.1-0.1,0.2-0.1,0.3c0.4,0,0.2-0.1,0.2-0.4c0.2,0.1,0.2-0.2,0.1-0.2
	c0,0.1-0.1,0.1-0.1,0c-0.1-0.4,0.3-0.4,0.4-0.6c-0.1,0-0.2,0-0.2-0.1c0.2-0.3,0.5-0.5,0.4-1c0.2-0.1,0.4-0.2,0.5-0.5
	c-0.3,0.1-0.1-0.3-0.3-0.4c0.4,0,0.1-0.8,0.6-0.7c0.1-0.3-0.3-0.2-0.2-0.5c0.2,0,0.2-0.2,0.2-0.4c0.4,0.1,0.4-0.2,0.4-0.5
	c-0.1,0-0.3,0-0.3-0.1c0-0.1,0-0.1,0.1-0.1c0.1,0.1,0.1,0,0,0c0-0.2,0.1-0.4,0.3-0.6c-0.1-0.3-0.3-0.4,0-0.7c0.1,0,0,0.3,0.2,0.3
	c0.1-0.3,0.1-0.5,0.2-0.8c-0.3,0.1-0.2-0.6-0.1-0.6c-0.2,0.3,0.5,0.3,0.5,0.1c-0.3-0.1-0.1-0.6,0.1-0.9c0-0.7,0.1-1.3,0.3-1.8
	c-0.1-0.1-0.1-0.2-0.1-0.3c0.1,0,0.1,0.1,0.2,0.1c0.2-0.5-0.3-0.9-0.4-1.4c0.2-0.2,0.2-0.1,0.4-0.2c0.3-0.6,0-1.4,0.2-2
	c-0.1,0-0.3,0-0.3-0.1c0.2-0.1,0.1-0.5,0.3-0.5c-0.3-0.1,0.1-0.4,0.1-0.5c-0.2-0.1-0.3-0.7-0.1-0.9c0,0.1,0,0.3,0.1,0.3
	c0.1-0.1,0.1-0.2-0.1-0.3c-0.2-0.2,0.1-0.4-0.1-0.6c0.1,0,0.3,0,0.3-0.1c-0.4-0.1,0-0.4,0-0.7c-0.5,0,0-0.2,0.1-0.3
	c-0.6,0.1-0.4-0.7-0.1-0.8c-0.3,0.1-0.1-0.3-0.4-0.3c-0.1,0.2-0.2,0.3-0.4,0.5c0.1,0,0.2,0.1,0.2,0.3c-0.1,0-0.1-0.1-0.2-0.1
	c0.1,0.3,0,0.5-0.2,0.7c0,1.1-0.9,1.7-0.6,2.5c-0.4,0.4-0.3,1.2-0.8,1.6c0.3,0.5-0.5,1-0.1,1.6c-0.4,0.3-0.3,0.8-0.5,1.2
	c0,0.7-0.2,1.2-0.5,1.5c0.1,1.2-0.7,1.6-0.7,2.7c-0.3,0.2-0.2,0.9-0.5,1.1c0,0.2,0.1,0.2,0.1,0.4c-0.5,0.4-0.2,1-0.6,1.4
	c0,0.9-0.3,1.7-0.4,2.7c-0.1,0.2-0.3,0.2-0.4,0.4c0.2,0,0.2,0.1,0.2,0.2c-0.3,1.4-0.5,2.3-0.6,3.9c0.3,0.1,0.2-0.2,0.4-0.2
	c0,0.2,0.1,0.2,0.2,0.2c0.1-0.2-0.3-0.4,0-0.5c0.1,0.1,0.3,0.1,0.3,0.2C84.2,55,84.8,55.1,84.7,55.4z M88.4,33.2
	C88.3,33.2,88.2,33.2,88.4,33.2C88.3,33.3,88.4,33.2,88.4,33.2z M52,33.5c0-0.1-0.2-0.1-0.2,0C51.8,33.6,51.9,33.5,52,33.5z
	 M67.4,33.5C67.4,33.4,67.3,33.4,67.4,33.5C67.3,33.5,67.3,33.6,67.4,33.5z M26.3,33.5C26.3,33.4,26.2,33.5,26.3,33.5
	C26.2,33.6,26.4,33.5,26.3,33.5z M36.9,33.7C36.7,33.7,36.9,33.8,36.9,33.7C37.2,33.6,36.8,33.3,36.9,33.7z M50.8,33.5
	c-0.1,0-0.2,0-0.2,0.1C50.7,33.5,50.8,33.6,50.8,33.5z M68,33.7C68,33.6,67.9,33.7,68,33.7C68,33.8,68.1,33.7,68,33.7z M26.7,33.8
	C26.7,33.7,26.5,33.8,26.7,33.8C26.6,33.9,26.7,33.8,26.7,33.8z M67.8,33.8C67.8,33.7,67.7,33.8,67.8,33.8
	C67.8,33.9,67.9,33.8,67.8,33.8z M76.8,33.8C76.8,33.7,76.7,33.8,76.8,33.8C76.8,33.9,76.9,33.8,76.8,33.8z M37,34.2
	C37,34.1,36.9,33.9,37,34.2C36.8,34.1,36.8,34.2,37,34.2z M70.7,34.4c0.2-0.2,0-0.3-0.2-0.4C70.5,34.1,70.5,34.3,70.7,34.4z
	 M90.6,34.1C90.6,34,90.5,33.9,90.6,34.1C90.5,34.1,90.6,34.2,90.6,34.1z M66.8,34.1C66.7,34,66.6,34.1,66.8,34.1
	C66.7,34.2,66.8,34.1,66.8,34.1z M51.5,34.9c0-0.2,0.3-0.6,0.1-0.8C51.6,34.3,51.3,34.8,51.5,34.9z M87.7,34.2
	C87.7,34.1,87.5,34.2,87.7,34.2C87.6,34.3,87.7,34.2,87.7,34.2z M70.4,34.4C70.4,34.3,70.3,34.2,70.4,34.4
	C70.3,34.4,70.4,34.5,70.4,34.4z M73.6,34.5C73.6,34.3,73.6,34.2,73.6,34.5C73.4,34.4,73.4,34.5,73.6,34.5z M87.3,34.7
	c0.4,0.1,0.4-0.5,0-0.4C87.3,34.5,87.3,34.6,87.3,34.7z M39.4,34.5c-0.1,0-0.2,0-0.2,0.1C39.3,34.5,39.4,34.5,39.4,34.5z M66.1,34.5
	C66.1,34.5,66,34.4,66.1,34.5C66,34.6,66.1,34.7,66.1,34.5z M67,34.5C66.9,34.4,66.8,34.5,67,34.5C66.9,34.6,67,34.5,67,34.5z
	 M52.5,34.7c0-0.1-0.2-0.1-0.2,0C52.3,34.9,52.4,34.8,52.5,34.7z M25.3,34.8C25.3,34.8,25.2,34.9,25.3,34.8
	C25.3,35,25.4,34.9,25.3,34.8z M36,35.1c0.1,0,0.1,0,0.2,0c0-0.1,0-0.1,0-0.2c-0.1,0-0.1,0-0.2,0C36,35,36,35.1,36,35.1z M65.4,35.1
	C65.3,35.2,65.4,35.3,65.4,35.1C65.5,35.1,65.4,35,65.4,35.1z M76.1,35C76,35,75.9,35.1,76.1,35C76,35.2,76.1,35.1,76.1,35z
	 M49.9,35.3C49.9,35.3,49.8,35.2,49.9,35.3C49.8,35.4,49.8,35.4,49.9,35.3z M64.7,35.2C64.7,35.2,64.6,35.3,64.7,35.2
	C64.6,35.4,64.8,35.3,64.7,35.2z M87.9,35.2C87.9,35.2,87.7,35.3,87.9,35.2C87.8,35.4,87.9,35.3,87.9,35.2z M64.1,35.5
	c-0.1,0-0.1-0.1-0.2-0.1c0,0.2,0.2,0.3,0,0.5c0.4,0,0.3-0.4,0.2-0.6C64.1,35.4,64.1,35.5,64.1,35.5z M90.5,35.3
	C90.5,35.3,90.4,35.4,90.5,35.3C90.5,35.5,90.6,35.4,90.5,35.3z M40.4,35.4C40.4,35.4,40.2,35.5,40.4,35.4
	C40.3,35.6,40.4,35.5,40.4,35.4z M63.7,35.4C63.7,35.4,63.6,35.5,63.7,35.4C63.7,35.6,63.8,35.5,63.7,35.4z M87.1,35.6
	C87.1,35.5,87.1,35.4,87.1,35.6C87,35.6,87,35.8,87.1,35.6z M75.4,35.6C75.4,35.6,75.3,35.5,75.4,35.6
	C75.3,35.7,75.4,35.7,75.4,35.6z M35.6,35.9c0.1,0,0.1,0,0.2,0c0-0.1,0-0.1,0-0.2c-0.1,0-0.1,0-0.2,0C35.6,35.8,35.6,35.9,35.6,35.9
	z M63.6,35.7c-0.1,0-0.2,0-0.2,0.1C63.5,35.8,63.6,35.8,63.6,35.7z M75.1,35.9C75.1,35.8,75,35.7,75.1,35.9
	C74.9,35.8,74.9,35.9,75.1,35.9z M75.3,35.9C75.2,35.9,75.1,36,75.3,35.9C75.2,36,75.3,36,75.3,35.9z M24.8,36
	C24.8,36,24.7,36.1,24.8,36C24.8,36.1,24.9,36.1,24.8,36z M48.5,36.8c0.2-0.2,0.1-0.8-0.3-0.6C48.4,36.4,48.1,36.7,48.5,36.8z
	 M51.2,36.1C51.2,36.1,51.1,36.2,51.2,36.1C51.2,36.2,51.3,36.2,51.2,36.1z M90.1,36.1c-0.1,0-0.2,0-0.2,0.1
	C90,36.2,90.1,36.2,90.1,36.1z M25.9,36.2C25.9,36.2,25.8,36.3,25.9,36.2C25.8,36.3,26,36.3,25.9,36.2z M27.4,36.3
	C27.4,36.3,27.3,36.2,27.4,36.3C27.3,36.4,27.4,36.4,27.4,36.3z M54.3,36.2C54.2,36.2,54.1,36.3,54.3,36.2
	C54.2,36.3,54.3,36.3,54.3,36.2z M62.9,36.3C62.9,36.3,62.8,36.2,62.9,36.3C62.8,36.4,62.8,36.4,62.9,36.3z M24.7,36.3
	C24.7,36.3,24.6,36.4,24.7,36.3C24.7,36.4,24.8,36.4,24.7,36.3z M23.4,46.6c0.2,0,0.2,0.1,0.3,0.1c0-0.1,0-0.3,0.1-0.3
	c0.1,0.1,0.3,0.2,0.3,0c-0.1,0-0.1-0.1-0.1-0.2c0.1,0,0.1-0.1,0-0.1c-0.1-0.5,0.5-0.3,0.4-0.8c-0.6-0.1-0.4,0.5-0.7,0.7
	c-0.1-0.1-0.1-0.2-0.1-0.3c0.3-0.3,0.4-0.8,0.8-1.1c0,0.1,0,0.1,0.1,0.1c0,0.2-0.3,0.2-0.3,0.4c0.3,0,0.6-0.1,0.8-0.2
	c-0.2,0-0.1-0.4-0.3-0.4c0,0.1-0.1,0.2-0.2,0.2c0-0.7,0.4-1.1,0.7-1.5c0.1,0,0.1,0,0.2,0c-0.1-0.6,0.5-0.5,0.4-1.1
	c0.1-0.1,0.4,0,0.4-0.2c-0.3-0.2,0.4-0.4,0.4-0.6c-0.3,0,0.1-0.2,0-0.4c0.3-0.1,0.4-0.5,0.7-0.7c-0.1,0-0.1,0-0.1-0.1
	c0.4,0,0.3-0.7,0.7-0.7c-0.1,0.3,0,0.2,0,0.6c-0.4-0.1-0.3,0.2-0.3,0.5c-0.1-0.1-0.2-0.1-0.3-0.1c0,0.2,0,0.4,0,0.6
	c0,0-0.2,0.1-0.2,0.1c0,0,0,0.2,0,0.2c0,0-0.2,0.1-0.2,0.1c-0.1,0.1,0,0.3-0.3,0.3c0.1,0.6-0.4,0.5-0.5,0.8c0.3,0-0.1,0.2,0,0.4
	c-0.2,0.1-0.3,0.2-0.6,0.2c0,0.2,0.1,0.2,0.1,0.4c-0.4,0.2-0.6,0.5-0.9,0.8c0.2,0,0.1,0.3,0.3,0.3c-0.1-0.5,0.3-0.2,0.5-0.2
	c0.2-0.4-0.5,0-0.4-0.4c0.3-0.1,0.4,0.1,0.6,0.2c0-0.4,0.1-0.3,0-0.6c0.1,0.1,0.2,0.1,0.3,0.1c0-0.3,0.1-0.4,0.4-0.4
	c-0.1-0.3,0.1-0.3,0.1-0.5c0.4-0.1,0.3-0.7,0.8-0.8c0-0.5,0.2-0.8,0.6-1c0.1-0.2-0.2-0.1-0.2-0.3c0.3,0.1,0.2-0.2,0.4-0.2
	c-0.1-0.3,0-0.4,0.1-0.7c-0.4-0.2,0-0.6-0.2-0.8c0.2,0.1,0.1-0.2,0.3-0.2c-0.1-0.3-0.1-0.6-0.1-1c-0.4-0.5-0.2-1-0.3-1.7
	c-0.6,0.1-0.5,0.7-1.1,0.8c-0.1,0.6-0.6,0.7-0.7,1.4c-0.2,0-0.2,0.1-0.3,0.1c0,0.5-0.3,0.8-0.6,1.1c0.2,0,0,0.4-0.2,0.3
	c0.1,0.5-0.2,0.6-0.4,0.8c0.2,0.3-0.3,0.7-0.3,1.1c-0.7,0,0,0.9-0.7,1c0,0.2,0,0.4,0,0.6c-0.2,0.1-0.1,0.6-0.4,0.7
	c0,0.7-0.5,0.7-0.4,1.5c-0.4,0.4-0.4,1.2-0.8,1.6c0.2,0.2-0.3,0.7-0.2,1.2c0.3,0,0.4-0.3,0.5-0.5c0.1-0.1,0.4-0.1,0.4-0.3
	c-0.2-0.2,0.2-0.6,0.4-0.8C23.1,46.9,23.4,46.6,23.4,46.6z M55.9,36.3C55.9,36.3,55.8,36.4,55.9,36.3C55.9,36.4,56,36.4,55.9,36.3z
	 M28.7,36.4C28.6,36.4,28.5,36.5,28.7,36.4C28.6,36.5,28.7,36.5,28.7,36.4z M63.4,36.5c0-0.1-0.2-0.1-0.2,0
	C63.3,36.6,63.4,36.6,63.4,36.5z M77.3,36.4C77.3,36.4,77.2,36.5,77.3,36.4C77.3,36.5,77.4,36.5,77.3,36.4z M28.5,36.6
	C28.5,36.5,28.4,36.5,28.5,36.6C28.4,36.7,28.4,36.7,28.5,36.6z M48,36.6C48,36.5,47.9,36.5,48,36.6C47.9,36.7,48,36.7,48,36.6z
	 M76.2,36.6c-0.1,0-0.2,0-0.2,0.1C76,36.7,76.2,36.7,76.2,36.6z M76.8,36.7c0-0.1-0.2-0.1-0.2,0C76.7,36.8,76.8,36.8,76.8,36.7z
	 M62.8,37C62.8,36.9,62.7,36.7,62.8,37C62.7,37,62.7,37.1,62.8,37z M64.8,36.8c-0.1,0-0.2,0-0.2,0.1C64.7,36.9,64.8,36.9,64.8,36.8z
	 M76.1,36.9C76,36.9,75.9,36.9,76.1,36.9C76,37,76.1,36.9,76.1,36.9z M24.4,37.1C24.4,37,24.3,37,24.4,37.1
	C24.3,37.1,24.3,37.2,24.4,37.1z M55.4,37.1C55.4,37,55.4,37,55.4,37.1C55.3,37.1,55.4,37.2,55.4,37.1z M34.8,37.2
	c-0.1,0-0.2-0.1-0.2,0C34.6,37.3,34.8,37.3,34.8,37.2z M61.9,37.4c0.2,0,0.3-0.1,0.3-0.2C62,37.2,61.8,37.2,61.9,37.4z M62.6,37.4
	C62.2,37.1,62.3,37.7,62.6,37.4L62.6,37.4z M47.5,37.4c-0.1,0-0.2,0-0.2,0.1C47.4,37.5,47.5,37.5,47.5,37.4z M23.8,37.5
	C23.7,37.5,23.6,37.5,23.8,37.5C23.7,37.6,23.8,37.5,23.8,37.5z M53.6,37.9c0.2,0.1,0.4-0.4,0.2-0.4C53.8,37.7,53.5,37.6,53.6,37.9z
	 M47.6,37.6C47.6,37.6,47.5,37.6,47.6,37.6C47.5,37.7,47.7,37.6,47.6,37.6z M50.7,37.8C50.7,37.7,50.6,37.8,50.7,37.8
	C50.7,37.9,50.8,37.8,50.7,37.8z M47.6,37.9C47.6,37.8,47.5,37.9,47.6,37.9C47.5,38,47.7,37.9,47.6,37.9z M60.9,38
	c0-0.1-0.2-0.1-0.2,0C60.7,38.1,60.8,38,60.9,38z M77.9,38C77.9,37.9,77.8,38,77.9,38C77.8,38.1,78,38,77.9,38z M86.1,38
	C86.1,37.9,86,38,86.1,38C86.1,38.1,86.2,38,86.1,38z M50.6,38.1C50.6,38,50.5,38.1,50.6,38.1C50.6,38.2,50.7,38.1,50.6,38.1z
	 M90,38.1C90,38,89.9,38.1,90,38.1C90,38.2,90.1,38.1,90,38.1z M60.7,38.3C60.7,38.2,60.6,38.2,60.7,38.3
	C60.6,38.3,60.7,38.4,60.7,38.3z M47.5,38.6c-0.1,0-0.3,0-0.3,0.1c0.1,0,0.1,0.1,0.1,0.2c0.2,0.1,0.4-0.4,0.2-0.5
	C47.5,38.4,47.5,38.5,47.5,38.6z M60.3,38.5C60.2,38.5,60.3,38.6,60.3,38.5C60.5,38.4,60.3,38.3,60.3,38.5z M77.2,38.4
	C77.2,38.3,77.1,38.4,77.2,38.4C77.2,38.5,77.3,38.4,77.2,38.4z M86,38.7C86.2,39,86.3,38.3,86,38.7C86.1,38.2,85.6,38.8,86,38.7z
	 M24.2,38.7C24.2,38.6,24.1,38.5,24.2,38.7C24.1,38.7,24.1,38.8,24.2,38.7z M47.1,38.7c0-0.1-0.2-0.1-0.2,0
	C46.9,38.8,47,38.7,47.1,38.7z M54.8,38.7C55.2,39,55.1,38.3,54.8,38.7L54.8,38.7z M53.6,38.7c-0.1,0-0.2,0-0.2,0.1
	C53.5,38.7,53.6,38.7,53.6,38.7z M60,38.8c-0.1,0-0.2-0.1-0.2,0C59.8,38.9,60,38.9,60,38.8z M61.1,38.7C61.1,38.6,61,38.7,61.1,38.7
	C61,38.8,61.2,38.7,61.1,38.7z M23.5,38.8c-0.1,0-0.2,0-0.2,0.1C23.4,38.8,23.5,38.8,23.5,38.8z M34.1,38.8
	C34.1,38.7,34,38.8,34.1,38.8C34.1,38.9,34.2,38.8,34.1,38.8z M37.5,38.8C37.5,38.7,37.4,38.8,37.5,38.8
	C37.5,38.9,37.6,38.8,37.5,38.8z M60.2,38.8C60.2,38.8,60.1,38.9,60.2,38.8C60.2,39,60.3,38.9,60.2,38.8z M85.8,39
	C85.8,39,85.7,39.1,85.8,39C85.8,39.2,85.9,39.1,85.8,39z M23,39.2C23,39.2,22.9,39.1,23,39.2C22.9,39.3,23,39.4,23,39.2z
	 M42.7,39.1C42.7,39.1,42.6,39.2,42.7,39.1C42.7,39.3,42.8,39.2,42.7,39.1z M54.9,39.3C54.9,39.2,54.9,39.1,54.9,39.3
	C54.7,39.2,54.8,39.4,54.9,39.3z M36.9,39.2C36.8,39.2,36.7,39.3,36.9,39.2C36.8,39.4,36.9,39.3,36.9,39.2z M34.5,39.3
	c-0.1,0-0.2,0-0.2,0.1C34.4,39.4,34.5,39.4,34.5,39.3z M90.4,39.4C90.4,39.4,90.3,39.3,90.4,39.4C90.3,39.5,90.4,39.5,90.4,39.4z
	 M28.1,39.8c0.1,0,0.1,0,0.2,0c0-0.1,0.1-0.1,0.1-0.3c-0.1,0-0.4,0-0.4,0.1C28,39.7,28.1,39.7,28.1,39.8z M37,39.5
	C36.9,39.5,36.8,39.6,37,39.5C36.9,39.7,37,39.6,37,39.5z M39,39.5C39,39.5,38.9,39.6,39,39.5C38.9,39.7,39.1,39.6,39,39.5z
	 M33.8,39.7C33.8,39.7,33.7,39.8,33.8,39.7C33.8,39.9,33.9,39.8,33.8,39.7z M90.2,39.8c0-0.1-0.2-0.1-0.2,0
	C90.1,39.8,90.2,40,90.2,39.8z M22.6,39.8C22.6,39.8,22.4,39.9,22.6,39.8C22.5,40,22.6,39.9,22.6,39.8z M47,39.9
	C46.6,39.8,47,40.2,47,39.9C47.2,39.9,47,39.8,47,39.9z M36.1,40.4c0.1,0.6-0.4,0.8-0.4,1.4c0.5,0.1,0.6-0.5,0.4-0.8
	c0.3,0.1,0.2-0.3,0.5-0.2c-0.1-0.5,0.3-0.7-0.1-0.9C36.4,40.2,36.2,40.3,36.1,40.4z M58.5,39.9c-0.1,0-0.2,0-0.2,0.1
	C58.3,40,58.5,40,58.5,39.9z M33.1,40C33.1,40,33,40.1,33.1,40C33.1,40.1,33.2,40.1,33.1,40z M33.5,40.1
	C33.6,40.3,33.7,40.1,33.5,40.1C33.5,39.8,33.1,40.2,33.5,40.1z M90.8,40.1C90.8,40.1,90.7,40,90.8,40.1
	C90.7,40.2,90.8,40.2,90.8,40.1z M50.2,40.3C50.1,40.3,50,40.4,50.2,40.3C50.1,40.4,50.2,40.4,50.2,40.3z M46.2,40.6
	C46.2,40.5,46.2,40.4,46.2,40.6C46,40.5,46.1,40.6,46.2,40.6z M57.3,40.6c0.3,0.1,0.6,0.2,0.6-0.2C57.6,40.4,57.3,40.4,57.3,40.6z
	 M52.3,40.7C52.3,40.6,52.3,40.5,52.3,40.7C52.2,40.7,52.3,40.9,52.3,40.7z M37.7,40.7c-0.1,0-0.2,0-0.2,0.1
	C37.6,40.8,37.7,40.8,37.7,40.7z M56.8,40.8C56.8,40.7,56.7,40.7,56.8,40.8C56.7,40.9,56.8,40.9,56.8,40.8z M90,41
	C90,40.9,90,40.9,90,41c0.1-0.2,0.1-0.3-0.1-0.3C90,40.8,89.9,41,90,41z M22.5,40.8C22.5,40.8,22.3,40.9,22.5,40.8
	C22.4,40.9,22.5,40.9,22.5,40.8z M54.8,40.8C54.8,40.8,54.7,40.9,54.8,40.8C54.8,40.9,54.9,40.9,54.8,40.8z M57.2,40.9
	c-0.1,0-0.1-0.1-0.3-0.1C56.7,41,57.2,41.1,57.2,40.9z M46.3,40.9C46.3,40.9,46.2,40.9,46.3,40.9C46.3,41,46.4,41,46.3,40.9z
	 M21.8,41.1C21.8,41.1,21.7,41.1,21.8,41.1C21.7,41.2,21.9,41.1,21.8,41.1z M58,41.1C57.9,41.1,57.8,41.1,58,41.1
	C57.9,41.2,58,41.1,58,41.1z M37.3,41.4C37.3,41.3,37.2,41.1,37.3,41.4C37.1,41.3,37.1,41.4,37.3,41.4z M22,41.5
	c-0.1,0-0.2-0.1-0.2,0C21.8,41.6,22,41.6,22,41.5z M90.2,41.4C90.2,41.4,90.1,41.4,90.2,41.4C90.2,41.5,90.3,41.4,90.2,41.4z
	 M37.1,41.6C37.1,41.5,37,41.5,37.1,41.6C37,41.6,37,41.7,37.1,41.6z M46.3,41.5c-0.1,0-0.2,0-0.2,0.1
	C46.2,41.6,46.3,41.6,46.3,41.5z M51.7,41.5C51.7,41.5,51.6,41.5,51.7,41.5C51.6,41.6,51.8,41.5,51.7,41.5z M32.6,41.8
	C32.6,41.7,32.5,41.7,32.6,41.8C32.5,41.8,32.5,41.9,32.6,41.8z M56.1,41.7C56.1,41.7,56,41.7,56.1,41.7
	C56,41.8,56.2,41.7,56.1,41.7z M37.8,41.9C37.2,41.8,37.6,42.2,37.8,41.9L37.8,41.9z M55.9,42c-0.1,0-0.1,0-0.2,0c0,0.1,0,0.1,0,0.2
	c-0.1,0-0.1-0.1-0.2-0.1c-0.1,0.3,0.3,0.5,0.2,0.1C55.9,42.2,55.9,42.1,55.9,42C56.1,41.9,55.9,41.9,55.9,42z M35.9,42.1
	C35.9,42,35.7,42.1,35.9,42.1C35.8,42.2,35.9,42.1,35.9,42.1z M52.5,42.2C52.5,42.1,52.4,42.1,52.5,42.2
	C52.4,42.2,52.5,42.3,52.5,42.2z M86.5,42.2C86.5,42.1,86.4,42.1,86.5,42.2C86.4,42.2,86.5,42.3,86.5,42.2z M37.4,42.2
	C37.3,42.1,37.2,42.2,37.4,42.2C37.3,42.3,37.4,42.2,37.4,42.2z M45.8,42.3C45.5,42.6,46.1,42,45.8,42.3L45.8,42.3z M53.2,42.5
	c0-0.2-0.1-0.3-0.2-0.3C53,42.3,53,42.5,53.2,42.5z M32.3,42.3C32.2,42.2,32.1,42.3,32.3,42.3C32.2,42.4,32.3,42.3,32.3,42.3z
	 M28.7,42.4C28.7,42.3,28.6,42.4,28.7,42.4C28.7,42.5,28.8,42.4,28.7,42.4z M55.8,42.6C55.8,42.5,55.7,42.6,55.8,42.6
	C55.8,42.7,55.9,42.6,55.8,42.6z M37.1,42.7C37,42.6,36.9,42.7,37.1,42.7C37,42.8,37.1,42.7,37.1,42.7z M52.7,42.7
	C52.7,42.6,52.5,42.7,52.7,42.7C52.6,42.8,52.7,42.7,52.7,42.7z M89.8,42.7c-0.1,0-0.2,0-0.2,0.1C89.7,42.7,89.8,42.8,89.8,42.7z
	 M35.3,42.9C35.5,43.2,35.9,42.7,35.3,42.9C35.2,42.7,35.2,42.9,35.3,42.9z M31.7,42.9C31.7,42.8,31.5,42.9,31.7,42.9
	C31.6,43,31.7,42.9,31.7,42.9z M47.2,42.9C47.2,42.8,47.1,42.9,47.2,42.9C47.2,43,47.3,42.9,47.2,42.9z M36.5,43.1
	C36.5,43,36.4,42.9,36.5,43.1C36.4,43.1,36.5,43.2,36.5,43.1z M36.8,43C36.7,42.9,36.6,43,36.8,43C36.7,43.1,36.8,43,36.8,43z
	 M35.5,43.1C35.5,43,35.3,43.1,35.5,43.1C35.4,43.2,35.5,43.1,35.5,43.1z M84.9,43.1C84.8,43,84.7,43.1,84.9,43.1
	C84.8,43.2,84.9,43.1,84.9,43.1z M46.6,43.4C46.6,43.4,46.5,43.5,46.6,43.4C46.6,43.6,46.7,43.5,46.6,43.4z M47.2,43.6
	C47.2,43.6,47.1,43.7,47.2,43.6C47.2,43.8,47.3,43.7,47.2,43.6z M90.2,43.6C90.2,43.6,90.1,43.7,90.2,43.6
	C90.2,43.8,90.3,43.7,90.2,43.6z M36.4,43.8c0,0.1,0,0.1,0,0.2C36.6,44.2,36.7,43.7,36.4,43.8C36.5,43.8,36.5,43.9,36.4,43.8z
	 M20.9,44.1C20.6,44.3,21.2,44.4,20.9,44.1C21.2,44,20.8,43.6,20.9,44.1z M32.1,44.1C32.1,44.1,32,44,32.1,44.1
	C32,44.2,32.1,44.2,32.1,44.1z M89.1,44.1C89.1,44.1,89,44,89.1,44.1C89,44.2,89,44.2,89.1,44.1z M90.6,44
	C90.6,44,90.5,44.1,90.6,44C90.5,44.2,90.7,44.1,90.6,44z M35.3,44.3C35.3,44.3,35.1,44.4,35.3,44.3C35.2,44.4,35.3,44.4,35.3,44.3z
	 M29.2,44.4c-0.1,0-0.2,0-0.2,0.1C29.1,44.5,29.2,44.5,29.2,44.4z M30.7,44.5c0-0.1-0.2-0.1-0.2,0C30.5,44.6,30.6,44.6,30.7,44.5z
	 M36.7,44.4C36.6,44.4,36.5,44.5,36.7,44.4C36.6,44.5,36.7,44.5,36.7,44.4z M53.4,44.5C53.4,44.5,53.2,44.6,53.4,44.5
	C53.3,44.6,53.4,44.6,53.4,44.5z M53.9,44.6C53.9,44.6,53.8,44.5,53.9,44.6C53.8,44.7,53.9,44.7,53.9,44.6z M20.5,45.3
	c0.3,0,0.3-0.2,0.3-0.4C20.6,44.9,20.5,45,20.5,45.3z M37,45C37,45,36.9,44.9,37,45C36.9,45.1,36.9,45.1,37,45z M36.7,45
	C36.6,45,36.5,45.1,36.7,45C36.6,45.1,36.7,45.1,36.7,45z M88.9,45.1C88.6,45.1,88.7,45.2,88.9,45.1C88.8,45.6,89.2,45.2,88.9,45.1
	C88.9,45.2,88.9,45.1,88.9,45.1C89.3,45.2,88.9,44.8,88.9,45.1z M83.6,45.1C83.6,45.1,83.4,45.2,83.6,45.1
	C83.5,45.2,83.6,45.2,83.6,45.1z M83.8,45.1C83.8,45.1,83.6,45.2,83.8,45.1C83.7,45.2,83.8,45.2,83.8,45.1z M36.5,45.2
	C36.4,45.2,36.3,45.2,36.5,45.2C36.4,45.3,36.5,45.3,36.5,45.2z M35.4,45.6C35.3,45.7,35.4,45.7,35.4,45.6
	C35.8,45.6,35.4,45.2,35.4,45.6z M27.9,45.5C27.8,45.5,27.7,45.5,27.9,45.5C27.8,45.6,27.9,45.5,27.9,45.5z M30.2,45.5
	C30.2,45.5,30.1,45.5,30.2,45.5C30.1,45.6,30.3,45.5,30.2,45.5z M21,45.9c0.1,0,0.1,0,0.2,0c0-0.1,0-0.1,0-0.2c-0.1,0-0.1,0-0.2,0
	C21,45.8,21,45.8,21,45.9z M36.5,45.9C36.4,45.9,36.3,45.9,36.5,45.9C36.4,46,36.5,45.9,36.5,45.9z M88.4,46
	C88.3,46,88.2,46,88.4,46C88.3,46.1,88.4,46,88.4,46z M35.1,46.2c0-0.1-0.2-0.1-0.2,0C35,46.2,35.1,46.3,35.1,46.2z M83.3,46.2
	C83.3,46.2,83.1,46.2,83.3,46.2C83.2,46.3,83.3,46.2,83.3,46.2z M20.4,46.3C20.4,46.3,20.3,46.3,20.4,46.3
	C20.4,46.4,20.5,46.3,20.4,46.3z M29.6,46.4C29.6,46.3,29.5,46.4,29.6,46.4C29.6,46.5,29.7,46.4,29.6,46.4z M89,46.4
	C88.9,46.3,88.8,46.4,89,46.4C88.9,46.5,89,46.4,89,46.4z M30,46.6C30,46.5,29.9,46.5,30,46.6C29.9,46.6,30,46.7,30,46.6z
	 M88.5,46.6C88.4,46.5,88.3,46.6,88.5,46.6C88.4,46.7,88.5,46.6,88.5,46.6z M29.1,46.9C28.9,47.2,29.5,46.6,29.1,46.9L29.1,46.9z
	 M89.8,46.9C89.8,46.8,89.8,46.8,89.8,46.9C89.7,46.9,89.8,47,89.8,46.9z M23.9,47c0-0.1-0.2-0.1-0.2,0C23.7,47.1,23.8,47,23.9,47z
	 M24.9,47C24.9,46.9,24.8,47,24.9,47C24.9,47.1,25,47,24.9,47z M89,47C88.9,46.9,88.8,47,89,47C88.9,47.1,89,47,89,47z M87.9,47.4
	c0.1,0,0.2,0,0.3,0c0-0.2-0.1-0.3-0.2-0.3C88,47.2,87.9,47.3,87.9,47.4z M89.5,47.1c-0.1,0-0.2,0-0.2,0.1
	C89.4,47.1,89.5,47.2,89.5,47.1z M23.1,47.2C23.1,47.1,22.9,47.2,23.1,47.2C23,47.3,23.1,47.2,23.1,47.2z M35,47.4
	c0,0.3,0.6,0,0.2-0.1C35.2,47.3,35.1,47.3,35,47.4C35.1,46.9,34.7,47.3,35,47.4z M84.8,47.2C84.7,47.1,84.6,47.2,84.8,47.2
	C84.7,47.3,84.8,47.2,84.8,47.2z M29.5,47.4C29.5,47.3,29.4,47.4,29.5,47.4C29.5,47.5,29.6,47.4,29.5,47.4z M19.8,47.5
	C19.7,47.5,19.6,47.6,19.8,47.5C19.7,47.7,19.8,47.6,19.8,47.5z M21.3,47.5C21.3,47.5,21.2,47.6,21.3,47.5
	C21.3,47.7,21.4,47.6,21.3,47.5z M88.1,47.5C88.1,47.5,87.9,47.6,88.1,47.5C88,47.7,88.1,47.6,88.1,47.5z M33.7,47.6
	C33.7,47.6,33.6,47.7,33.7,47.6C33.7,47.8,33.8,47.7,33.7,47.6z M35.6,47.7C35.6,47.7,35.5,47.6,35.6,47.7
	C35.5,47.8,35.6,47.9,35.6,47.7z M23.4,47.7C23.3,47.7,23.2,47.8,23.4,47.7C23.3,47.9,23.4,47.8,23.4,47.7z M90.2,47.7
	C90.2,47.7,90.1,47.8,90.2,47.7C90.2,47.9,90.3,47.8,90.2,47.7z M34.7,47.8C34.7,47.8,34.6,47.9,34.7,47.8
	C34.6,48,34.8,47.9,34.7,47.8z M22.9,48.1c0.2,0,0.3-0.1,0.3-0.2C23,47.9,22.9,48,22.9,48.1z M88.5,48.2
	C88.4,48.2,88.4,48.3,88.5,48.2C88.2,48.4,88.4,48.4,88.5,48.2C88.5,48.3,88.5,48.3,88.5,48.2C88.6,48.2,88.5,48.1,88.5,48.2z
	 M34.6,48.3C34.1,48.2,34.5,48.6,34.6,48.3C34.8,48.3,34.6,48.2,34.6,48.3z M89.3,48.3C89.3,48.3,89.2,48.2,89.3,48.3
	C89.2,48.4,89.2,48.4,89.3,48.3z M22.7,48.4c-0.1,0.1-0.1,0.2-0.1,0.3c0.1,0,0.1,0,0.2,0c0-0.1,0-0.1,0.1-0.1c0-0.1,0-0.1,0-0.2
	C22.8,48.4,22.8,48.4,22.7,48.4C22.6,48.3,22.6,48.4,22.7,48.4z M87.8,48.3C87.1,48.2,87.8,49,87.8,48.3L87.8,48.3z M82.8,49
	c-0.1-0.2,0.3-0.4,0-0.5C82.7,48.6,82.6,49,82.8,49z M90.2,48.6C90.2,48.6,90.1,48.7,90.2,48.6C90.2,48.7,90.3,48.7,90.2,48.6z
	 M22.6,48.9C22.6,48.9,22.5,48.8,22.6,48.9C22.5,49,22.6,49,22.6,48.9z M22,48.9C22,48.9,21.9,49,22,48.9C21.9,49,22.1,49,22,48.9z
	 M89.1,49C88.6,49,89,49.4,89.1,49C89.2,49,89,48.9,89.1,49z M19.4,49C19.3,49,19.2,49.1,19.4,49C19.3,49.1,19.4,49.1,19.4,49z
	 M33,49.1c-0.1,0-0.2-0.1-0.2,0C32.8,49.2,32.9,49.2,33,49.1z M23,49.1C23,49.1,22.8,49.2,23,49.1C22.9,49.2,23,49.2,23,49.1z
	 M82.7,49.1C82.7,49.1,82.6,49.2,82.7,49.1C82.6,49.2,82.8,49.2,82.7,49.1z M34.3,49.2C34.3,49.2,34.2,49.3,34.3,49.2
	C34.2,49.3,34.4,49.3,34.3,49.2z M87.6,49.2C87.6,49.2,87.4,49.3,87.6,49.2C87.5,49.3,87.6,49.3,87.6,49.2z M87.8,49.2
	C87.8,49.2,87.6,49.3,87.8,49.2C87.7,49.3,87.8,49.3,87.8,49.2z M87.3,49.4C87.2,49.8,87.6,49.4,87.3,49.4
	C87.2,49.3,87.2,49.4,87.3,49.4z M26.9,49.5c0-0.1-0.2-0.1-0.2,0C26.8,49.5,26.8,49.6,26.9,49.5z M19.3,50
	C19.3,49.9,19.2,49.9,19.3,50C19.2,50,19.3,50.1,19.3,50z M87.2,50C87.1,50.1,87.2,50.1,87.2,50C87.3,49.9,87.2,49.9,87.2,50z
	 M27.1,50.1c-0.1,0-0.2-0.1-0.2,0C26.9,50.2,27.1,50.2,27.1,50.1z M19.1,50.1C19,50.1,18.9,50.1,19.1,50.1
	C19,50.2,19.1,50.1,19.1,50.1z M19.4,50.2C19.3,50.2,19.2,50.2,19.4,50.2C19.3,50.3,19.4,50.2,19.4,50.2z M82.6,50.3
	C82.6,50.3,82.5,50.3,82.6,50.3C82.5,50.4,82.7,50.3,82.6,50.3z M87.6,50.7c-0.2-0.2-0.3,0.3-0.1,0.3C87.5,50.8,87.6,50.8,87.6,50.7
	c0.1,0,0.3-0.4,0.1-0.4C87.6,50.4,87.6,50.5,87.6,50.7z M26.6,50.5C26.6,50.5,26.5,50.5,26.6,50.5C26.5,50.6,26.6,50.5,26.6,50.5z
	 M19.2,50.6c-0.1,0-0.2,0-0.2,0.1C19.1,50.7,19.2,50.7,19.2,50.6z M32.7,50.7C32.5,50.7,32.6,50.8,32.7,50.7
	C32.7,50.9,32.8,50.8,32.7,50.7C32.7,50.7,32.7,50.7,32.7,50.7C32.8,50.6,32.6,50.6,32.7,50.7z M34.5,50.6
	C34.5,50.6,34.4,50.6,34.5,50.6C34.4,50.7,34.6,50.6,34.5,50.6z M33.5,50.9C33.5,50.8,33.4,50.9,33.5,50.9
	C33.5,51,33.6,50.9,33.5,50.9z M82.5,50.9C82.5,50.8,82.4,50.9,82.5,50.9C82.4,51,82.6,50.9,82.5,50.9z M19.9,51.1
	C19.8,51,19.7,51.1,19.9,51.1C19.8,51.2,19.9,51.1,19.9,51.1z M88.1,51.1C88.1,51,87.9,51.1,88.1,51.1C88,51.2,88.1,51.1,88.1,51.1z
	 M33,51.3c-0.1,0-0.2,0-0.2,0.1C32.8,51.3,32.9,51.4,33,51.3z M87.5,51.3C87.5,51.2,87.3,51.3,87.5,51.3
	C87.4,51.4,87.5,51.3,87.5,51.3z M89.3,51.3C89.2,51.2,89.1,51.3,89.3,51.3C89.2,51.4,89.3,51.3,89.3,51.3z M19.2,51.6
	c-0.1,0-0.2,0-0.2,0.1C19.1,51.6,19.2,51.7,19.2,51.6z M87.2,51.7c0,0.1,0,0.1,0,0.2C87.4,52,87.5,51.5,87.2,51.7
	C87.3,51.6,87.3,51.7,87.2,51.7z M82.5,51.8C82.5,51.7,82.4,51.8,82.5,51.8C82.4,51.9,82.6,51.8,82.5,51.8z M86.3,51.8
	c0,0.1,0,0.2,0.1,0.3c0.1,0,0.1,0,0.2,0c0-0.1,0-0.2,0.1-0.3C86.5,51.7,86.6,51.9,86.3,51.8z M19.3,52c-0.1,0-0.2,0-0.2,0.1
	C19.1,52.1,19.3,52.1,19.3,52z M87,52C87,52,86.9,52.1,87,52C86.9,52.2,87.1,52.1,87,52z M34,52.2C34,52.2,33.9,52.1,34,52.2
	C33.9,52.3,34,52.4,34,52.2z M31.5,53.2c0.2-0.3,0.5-0.8-0.1-1C31.4,52.7,31,53,31.5,53.2z M19.3,52.7c0-0.2,0-0.4-0.3-0.4
	C19,52.6,19.1,52.6,19.3,52.7z M86.1,52.3C86.1,52.3,86,52.4,86.1,52.3C86.1,52.5,86.2,52.4,86.1,52.3z M86.2,52.5
	C86.2,52.5,86.1,52.6,86.2,52.5C86.2,52.7,86.3,52.6,86.2,52.5z M86.1,53C86.1,52.9,86.1,52.8,86.1,53C85.9,52.9,85.9,53,86.1,53z
	 M88.7,53C88.6,53,88.5,53.1,88.7,53C88.6,53.1,88.7,53.1,88.7,53z M82,53.3C82,53.3,81.9,53.4,82,53.3C81.9,53.4,82.1,53.4,82,53.3
	z M82.1,53.5C82.1,53.5,82,53.6,82.1,53.5C82,53.6,82.2,53.6,82.1,53.5z M33.1,53.6C33.1,53.6,33,53.7,33.1,53.6
	C33.1,53.7,33.2,53.7,33.1,53.6z M82.1,53.7C82.1,53.7,82,53.8,82.1,53.7C82,53.8,82.2,53.8,82.1,53.7z M82.1,53.9
	C82.1,53.9,82,53.9,82.1,53.9C82,54,82.2,54,82.1,53.9z M85.9,53.9C85.9,53.9,85.8,53.9,85.9,53.9C85.9,54,86,54,85.9,53.9z
	 M31.6,54.3C31.6,54.2,31.5,54,31.6,54.3C31.4,54.2,31.4,54.3,31.6,54.3z M85.2,54.5c0.3,0,0.3-0.2,0.3-0.4
	C85.1,54.1,85.4,54.3,85.2,54.5z M87.1,54.3C87.1,54.3,87,54.3,87.1,54.3C87,54.4,87.2,54.3,87.1,54.3z M32.4,55
	C32.4,54.9,32.3,54.9,32.4,55C32.3,55,32.3,55.1,32.4,55z M30.7,55.1C30.7,55,30.6,55,30.7,55.1C30.6,55.1,30.7,55.2,30.7,55.1z
	 M81.7,55C81.7,54.9,81.6,55,81.7,55C81.7,55.1,81.8,55,81.7,55z M85.3,55C85.3,54.9,85.2,55,85.3,55C85.3,55.1,85.4,55,85.3,55z
	 M83,55.2C83,55.1,82.8,55.2,83,55.2C82.9,55.3,83,55.2,83,55.2z M84,55.6c0.1,0,0.1,0,0.2,0c0-0.1,0-0.1,0-0.2c-0.1,0-0.1,0-0.2,0
	C84,55.4,84,55.5,84,55.6z M30.5,55.6C30.5,55.5,30.4,55.6,30.5,55.6C30.4,55.7,30.6,55.6,30.5,55.6z M32.6,55.8
	c-0.1,0-0.2,0-0.2,0.1C32.4,55.8,32.6,55.9,32.6,55.8z M84.8,55.9c0-0.1-0.2-0.1-0.2,0C84.6,56,84.7,55.9,84.8,55.9z M85,56.7
	c-0.1,0-0.2-0.1-0.2,0C84.9,56.8,85,56.9,85,56.7z M30.9,56.8c-0.1,0-0.2-0.1-0.2,0C30.7,56.9,30.9,57,30.9,56.8z M31.7,57.3
	C31.7,57.2,31.6,57.1,31.7,57.3C31.5,57.2,31.5,57.3,31.7,57.3z M32,57.1C31.9,57.1,31.8,57.2,32,57.1C31.9,57.3,32,57.2,32,57.1z
	 M82.4,57.2c-0.1,0-0.2,0-0.2,0.1C82.3,57.3,82.4,57.3,82.4,57.2z M85.6,57.3C85.6,57.3,85.5,57.4,85.6,57.3
	C85.6,57.4,85.7,57.4,85.6,57.3z M30,57.7C30,57.7,30,57.6,30,57.7c0.1-0.2,0.1-0.3-0.1-0.3C29.9,57.5,29.9,57.7,30,57.7z
	 M82.3,57.7C82.3,57.7,82.2,57.8,82.3,57.7C82.2,57.8,82.4,57.8,82.3,57.7z M30.5,57.8C30.5,57.8,30.4,57.9,30.5,57.8
	C30.4,57.9,30.6,57.9,30.5,57.8z M32,58C32,58.1,32.1,58,32,58C31.9,57.9,31.9,58,32,58z M82.2,57.9C82.2,57.9,82.1,58,82.2,57.9
	C82.1,58,82.3,58,82.2,57.9z M30,58.3c0-0.1-0.2-0.1-0.2,0C29.9,58.3,30,58.4,30,58.3z M31.9,58.3C31.9,58.3,31.7,58.3,31.9,58.3
	C31.8,58.4,31.9,58.4,31.9,58.3z M30.6,58.4C30.6,58.4,30.5,58.4,30.6,58.4C30.5,58.5,30.7,58.4,30.6,58.4z M31.8,58.6
	C31.8,58.6,31.6,58.6,31.8,58.6C31.7,58.7,31.8,58.6,31.8,58.6z M31.6,59.3C31.9,59.3,31.7,58.9,31.6,59.3
	C31.5,59.2,31.5,59.3,31.6,59.3z M31.7,59.5C31.7,59.4,31.5,59.5,31.7,59.5C31.6,59.6,31.7,59.5,31.7,59.5z M84,60.1
	C83.9,60,83.8,60.1,84,60.1C83.9,60.2,84,60.1,84,60.1z M126.5,0c-0.1,0-0.2,0-0.2,0.1C126.4,0.1,126.5,0.1,126.5,0z M126.8,0
	C126.8,0,126.6,0.1,126.8,0C126.7,0.2,126.8,0.1,126.8,0z M123.9,0.2C123.8,0.2,123.7,0.3,123.9,0.2C123.8,0.4,123.9,0.3,123.9,0.2z
	 M124.4,0.2C124.4,0.2,124.3,0.3,124.4,0.2C124.4,0.4,124.5,0.3,124.4,0.2z M123.3,0.3C123.2,0.3,123.1,0.4,123.3,0.3
	C123.2,0.5,123.3,0.4,123.3,0.3z M116.2,1.9C116.4,1.8,116.2,1.8,116.2,1.9L116.2,1.9z M116.2,1.9C115.9,1.9,116.3,2.3,116.2,1.9
	L116.2,1.9z M109.4,5.2C109.4,5.4,109.5,5.2,109.4,5.2L109.4,5.2z M60.5,8.2c-0.1,0.3-0.1,0.4,0,0.7c0,0.3-0.3,0.8-0.1,0.9
	c-0.2,0.2-0.3,0.5-0.3,0.9c-0.4,0.3-0.3,1-0.8,1.2c-0.1,0.6-0.4,1.1-0.8,1.6c-0.1,0.1-0.2,0.1-0.3,0.2c-0.1,0.1-0.1,0.5-0.3,0.6
	c-0.2,0-0.1-0.5,0-0.6c-0.3,0.1-0.4,0.4-0.5,0.7c-0.3,0-0.6,0.1-0.7,0.6c-0.2-0.2-0.3-0.2-0.6-0.1c0.2-0.2,0-0.1,0-0.4
	c-0.3-0.1-0.3,0.2-0.6,0.1c0.2-1.5,0.7-2.6,0.9-4.1c0.3,0,0.2-0.4,0.4-0.5c-0.2-0.5,0.1-1.2,0.5-1.5c-0.2-0.3,0.1-1,0.2-1.4
	c0.1-0.3-0.2-0.3,0-0.5c0.3-0.2,0.4,0.4,0.9,0.1c0.1,0.2,0.3,0.3,0.4,0.5C59.8,7.1,60,7.8,60.5,8.2z M57.4,12.1
	c-0.1,0-0.2,0-0.2,0.1C57.3,12.1,57.4,12.2,57.4,12.1z M58.1,12.2c-0.1,0.1-0.5-0.1-0.5,0.1C57.8,12.3,57.9,12.4,58.1,12.2z
	 M56.4,12.8C56.4,12.7,56.3,12.8,56.4,12.8C56.3,12.9,56.5,12.8,56.4,12.8z M58,13c0.2,0.1,0.4-0.3,0.2-0.3C58.1,12.9,58,12.9,58,13
	z M57.6,13C57.6,13,57.4,13.1,57.6,13C57.5,13.2,57.6,13.1,57.6,13z M57.6,13.4C57.6,13.4,57.4,13.5,57.6,13.4
	C57.5,13.6,57.6,13.5,57.6,13.4z M101.8,8.4C101.7,8.3,101.6,8.4,101.8,8.4C101.7,8.5,101.8,8.4,101.8,8.4z M101.7,8.6
	C101.6,8.6,101.5,8.7,101.7,8.6C101.6,8.8,101.7,8.7,101.7,8.6z M101.6,9C101.6,8.9,101.5,8.8,101.6,9C101.4,8.9,101.4,9.1,101.6,9z
	 M82.2,10.8C82.2,10.8,82.1,10.8,82.2,10.8C82.1,10.9,82.3,10.8,82.2,10.8z M82.7,11.2C82.7,11.1,82.6,11.1,82.7,11.2
	C82.6,11.2,82.7,11.2,82.7,11.2z M26.3,11.3c0.2-0.1,0.6,0.5,0.7,0c0.3,0.3,0.6,0.5,1.2,0.5c0.1,0.2,0,0.6,0.4,0.6
	c-0.1,0.2-0.2,0.5,0.2,0.5c-0.3,0.5-0.8,0.8-0.9,1.5c-0.5,0.4-0.9,1-1.2,1.7c-0.4,0-0.3,0.5-0.6,0.6c0,0.4-0.4,0.4-0.4,0.8
	c-0.1,0.1-0.2,0.1-0.4,0.1c0,0.4-0.3,0.5-0.3,0.9c-0.2,0-0.3,0.1-0.3,0.2c-0.6,0.2-0.5-0.2-1.2-0.1c0-0.7,0.4-1,0.3-1.8
	c0.5-0.5,0.4-1.6,1-2.1c0.1-0.6,0.4-1,0.7-1.4c0.1-0.5,0.4-0.9,0.7-1.3C26.2,11.7,26.2,11.4,26.3,11.3z M25.1,14.3
	C25.1,14.3,25,14.4,25.1,14.3C25.1,14.4,25.2,14.4,25.1,14.3z M26.3,15.9C26.3,15.9,26.2,15.9,26.3,15.9
	C26.2,16,26.4,15.9,26.3,15.9z M24.7,16.8C24.7,16.7,24.7,16.6,24.7,16.8C24.6,16.8,24.7,16.9,24.7,16.8z M100.7,12.4
	c0-0.2,0.5-0.4,0.2-0.6C100.9,12,100.4,12.2,100.7,12.4z M100.5,12.5c0,0.2-0.1,0.2-0.1,0.3C100.6,12.9,100.7,12.4,100.5,12.5z
	 M100.3,12.8c0,0.2-0.2,0.2-0.2,0.5C100.3,13.2,100.4,13.1,100.3,12.8C100.4,12.8,100.3,12.8,100.3,12.8z M100,13.2
	c0,0.2-0.4,0.5-0.1,0.6C100,13.6,100.1,13.5,100,13.2C100.1,13.2,100,13.2,100,13.2z M99.8,13.9C99.8,13.9,99.7,14,99.8,13.9
	C99.7,14.1,99.9,14,99.8,13.9z M99.7,14.1c-0.3,0-0.3,0.2-0.3,0.4C99.6,14.5,99.6,14.3,99.7,14.1z M110.4,14.2c-0.1,0-0.2-0.1-0.2,0
	C110.2,14.3,110.3,14.3,110.4,14.2z M99.4,14.5C99.3,14.6,99.4,14.6,99.4,14.5L99.4,14.5z M109.9,14.6
	C110,14.5,109.9,14.5,109.9,14.6L109.9,14.6z M110.5,14.5C110.4,14.5,110.3,14.6,110.5,14.5C110.4,14.6,110.5,14.6,110.5,14.5z
	 M33,14.8c0.1,0,0.1,0,0.2,0c0-0.1,0-0.1,0-0.2c-0.1,0-0.1,0-0.2,0C33,14.7,33,14.7,33,14.8z M109.8,14.8c0.1,0,0.1-0.1,0.1-0.2
	C109.8,14.6,109.8,14.7,109.8,14.8z M110.4,14.7C110.3,14.7,110.2,14.8,110.4,14.7C110.3,14.8,110.4,14.8,110.4,14.7z M109.8,14.8
	C109.7,14.8,109.7,14.8,109.8,14.8C109.8,14.9,109.8,14.9,109.8,14.8z M109.1,15.6c0.3,0.1,0.1-0.4,0.5-0.3c0-0.2,0.1-0.2,0.1-0.4
	C109.4,15,109.3,15.3,109.1,15.6z M110,15.1C109.9,15.1,109.8,15.1,110,15.1C109.9,15.2,110,15.1,110,15.1z M109.9,15.4
	C109.9,15.3,109.8,15.3,109.9,15.4C109.8,15.4,109.9,15.5,109.9,15.4z M108.9,15.9C108.9,15.9,108.7,15.9,108.9,15.9
	C108.8,16,108.9,15.9,108.9,15.9z M108.4,16.6c-0.1,0-0.2,0-0.2,0.1C108.3,16.6,108.4,16.7,108.4,16.6z M94.8,16.9
	C95.1,16.8,94.7,16.5,94.8,16.9L94.8,16.9z M108.8,17.1C108.9,16.6,108.3,17.2,108.8,17.1L108.8,17.1z M107.6,17.7
	c0.2-0.2,0.4-0.4,0.5-0.7C107.8,17.1,107.5,17.6,107.6,17.7z M108.2,17.6C108.2,17.6,108.1,17.7,108.2,17.6
	C108.1,17.8,108.3,17.7,108.2,17.6z M107.2,18.2C107.2,18.2,107.2,18.1,107.2,18.2C107.1,18.3,107.2,18.3,107.2,18.2z M106.8,18.7
	C107,18.7,106.8,18.6,106.8,18.7L106.8,18.7z M106.8,18.7C106.8,18.7,106.8,18.8,106.8,18.7C106.8,18.8,106.8,18.8,106.8,18.7z
	 M106.7,18.8C106.5,18.8,106.8,19.2,106.7,18.8L106.7,18.8z M101.6,19.3C101.6,19.2,101.5,19.2,101.6,19.3
	C101.5,19.4,101.5,19.4,101.6,19.3z M106.6,19.2C106.5,19.2,106.4,19.3,106.6,19.2C106.5,19.3,106.6,19.3,106.6,19.2z M106.6,19.6
	c-0.2,0-0.2,0.1-0.2,0.3C106.5,19.8,106.6,19.7,106.6,19.6z M106.5,19.9C106.3,19.9,106.5,20,106.5,19.9L106.5,19.9z M106.1,20.5
	C106.2,20.4,106.1,20.4,106.1,20.5L106.1,20.5z M105.1,22.1c0-0.1,0.2-0.1,0.2-0.2c-0.2,0-0.2-0.1-0.3-0.1
	C105,22,105,22.1,105.1,22.1z M19.2,40.1C19.2,40.1,19.2,40.1,19.2,40.1C19.1,40,19.1,40.1,19.2,40.1c0,0.7-0.6,1.2-0.7,2.1
	c-0.2,0-0.2,0.3-0.4,0.3c0.1,0.6-0.4,0.7-0.2,1.1c-0.3,0-0.1,0.4-0.4,0.4c0,0.1,0,0.3,0,0.4c-0.5,0.6-0.6,1.6-1.2,2.2
	c0,0.4-0.3,0.4-0.2,0.9c-0.2,0-0.2,0.2-0.2,0.4c-0.1,0-0.1-0.1-0.2-0.1c0.1,0.4-0.6,0.5-0.1,0.7c0,0.1-0.1,0.2-0.3,0.2
	c0,0.8-0.6,1-0.7,1.8c-0.1,0-0.2,0.1-0.3,0c0,0.2,0,0.4,0,0.6c-0.2,0.4-0.4,0.7-0.7,1c0,0.1,0.1,0.2,0.1,0.4
	c-0.1,0.1-0.2,0.1-0.4,0.2c0,0.2,0.1,0.2,0.1,0.4c0,0-0.2,0-0.2,0c-0.1,0.1,0,0.5-0.1,0.6c-0.1,0-0.2,0-0.3,0
	c0.2,0.3-0.2,0.6-0.2,1.1c-0.4,0-0.3,0.4-0.6,0.4c0.4,0.2,0,0.9-0.4,0.9c0.1,0.1,0.1,0.3,0.1,0.5c-0.4,0.2-0.3,0.3-0.4,0.7
	c-0.1,0-0.2,0-0.2-0.1c0.1,0,0.1-0.1,0.1-0.2c-0.1,0-0.1,0.1-0.1,0.2c-0.1,0-0.1,0.2,0.1,0.2c-0.2,0.4-0.5,0.8-0.6,1.4
	c-0.3-0.3-0.1,0.2-0.4,0.2c0,0.2,0,0.4,0,0.6c-0.2,0.2-0.6,0.7-0.5,0.9c-0.1,0.1-0.6,0.5-0.4,0.6c0,0.1-0.2,0.1-0.3,0.1
	c0.3,0.9-0.9,1.2-0.6,2.1c-0.3,0-0.3,0.3-0.7,0.2c0,0.1,0.2,0.1,0.3,0.2c-0.1,0.4-0.6,0.5-0.5,1.2c-0.3,0.1-0.5,0.3-0.5,0.7
	c-0.5,0.1-0.7,0.8-0.7,1.2c-0.1,0-0.2,0-0.2-0.2c-0.3,0-0.2,0.5-0.2,0.8C6,66.9,6,67.1,5.8,66.9c0.3,0.4-0.3,0.3-0.2,0.9
	c-0.1,0-0.1,0-0.2,0c0.1,0.4-0.3,0.3-0.3,0.7c-0.2,0-0.1-0.3-0.3-0.3c-0.2,0.2,0.2,0.3,0.1,0.7c-0.2,0.1-0.2,0.4-0.4,0.2
	c0.1,0.3,0.1,0.4-0.3,0.4c0,0.2,0.2,0.1,0.2,0.3c-0.3,0-0.2,0.4-0.3,0.7c-0.1,0-0.2,0.1-0.4,0.1c0,0.4-0.3,0.5-0.5,0.7
	c0,0.2,0.2,0.2,0.1,0.5c-0.4,0.1-0.3,0.1-0.7,0c-0.1,0-0.2,0-0.2-0.2c-0.2,0-0.4,0.2-0.7,0.1c0-0.3-0.2-0.4-0.4-0.6
	c0-0.4-0.2-0.6-0.5-0.8c0-0.1,0-0.3,0-0.4c-0.1-0.1-0.3-0.2-0.3-0.4c0.1-0.3,0.2-0.2,0.1-0.6c-0.2,0,0.1,0.4-0.3,0.3
	c-0.1-0.5,0-0.6-0.1-1.2c0.1,0.1,0.2,0.3,0.4,0.3c0.1-0.3-0.5-0.4-0.2-0.6c0-0.1-0.2-0.1-0.4-0.1c0-0.1,0-0.2,0-0.3
	c0-0.3,0.3-0.1,0.5-0.4c-0.2-0.1-0.3-0.5,0-0.7c0-0.1-0.2-0.1-0.2-0.2c0-0.4,0.2-1,0-1.5c0.1-0.1,0.1-0.2,0.2-0.4
	c-0.1-1.1,0.1-2,0-3c0-0.2,0.1-0.3,0.2-0.3c-0.3-0.7,0.1-1.5-0.1-2c0.1-0.7,0-2,0.4-2.4c-0.2-0.5-0.1-1,0.1-1.4c0.2,0,0,0.3,0.1,0.5
	c0.5,0,0.1-0.7,0.1-1.1c0.3,0,0.1-0.4,0.4-0.4c0-0.2-0.3-0.1-0.2-0.4c-0.1,0.1-0.2,0.2-0.2,0.5c-0.5-0.2,0.3-0.6,0-0.8
	c0.1-0.2,0.3-0.4,0.5-0.5c0-0.4,0-0.6,0.2-0.8c0-0.2-0.2-0.2-0.4-0.2c-0.2-0.6,0.1-1.6,0.3-2.2c-0.1-0.5,0.2-1.2-0.1-1.8
	c0.2-0.4,0.2-0.8,0.3-1.5c0.3-0.2,0.3-0.6,0.4-1.1C2.9,45.3,3,45,3,44.6c0.2-0.1,0.4-0.3,0.5-0.5c0-0.1-0.1-0.1-0.1,0
	c-0.1-0.1-0.1-0.4,0-0.6c0,0,0.2,0,0.2,0c0.1-0.1,0-0.3,0-0.4C4,43.1,4,42.7,4.2,42.6C4.6,42.6,4,42.9,4.5,43c0.3,0-0.2-0.4,0.1-0.4
	c0.2-0.2,0.5,0,0.7,0.1c0.3-0.1,0.6-0.7,1.1-0.4c0.1-0.3,0.6-0.4,0.7,0c-0.2,0-0.3-0.2-0.5,0c0,0.2,0.5,0.2,0.5,0
	c0.1,0,0.2,0,0.2-0.2c0.4,0,0.3,0.1,0.5-0.1c0.1,0,0.3,0,0.4,0c0.3-0.1,0.2,0.2,0.4,0.3c0.2,0.1,0.8-0.1,0.6,0.2c0,0-0.1,0-0.1,0
	c0,0.1,0.1,0.1,0.1,0c0.1,0,0.2,0.1,0.4,0.1c0,0.3,0,0.5,0.1,0.8c-0.1,0.2-0.7,0.1-0.6,0.6c-0.3-0.1-0.4,0.1-0.7,0.1
	c-0.6,0.5-1.2,1-1.9,1.5c0,0.1-0.1,0.2,0,0.2c-0.4,0.5-0.7,1-0.9,1.7c-0.3,0-0.1,0.4-0.4,0.3c0,0.1,0,0.2,0.2,0.2
	c-0.1,0.4-0.3,0.7-0.2,1C5.1,48.8,5,49,4.9,49c0.2,0.3,0,0.3,0.1,0.6c-0.1,0-0.2,0.2-0.3,0.2c0.1,0.3,0.2,0.8-0.2,0.9
	c0.1,0.2,0.2,0.2,0.1,0.5c0,0.3-0.2,0.4-0.4,0.5c0,0.6-0.2,0.9-0.2,1.5c-0.2,0-0.1,0.3-0.3,0.3c0,0.9-0.3,1.7-0.4,2.5
	c-0.1,0-0.2,0-0.3-0.1C3,56.2,3.4,56,3.3,56.2c0,0.6-0.2,0.9-0.2,1.5c0,0.1,0,0.2-0.2,0.2c0.1,0.2,0.3,0.5-0.1,0.6
	c0.3,0.3,0.1,1.2-0.1,1.6c0,0.1,0.1,0.1,0.1,0c0.2,0.2,0.1,0.3,0.1,0.7c-0.1,0-0.1-0.1-0.2-0.1c0.1,0.4,0.2,0.6-0.1,0.8
	c0,0.3,0.2,0.3,0.3,0.6c-0.2,0-0.1,0.2-0.3,0.2c-0.1,0.5,0.1,1.2-0.1,1.5c0.3,0.1,0,0.5,0.3,0.5c-0.2,0.1-0.3,0.9,0,1
	c0,0.2-0.1,0.2-0.3,0.2c0.1,0.1,0.1,0.3,0.1,0.6c0.3-0.1,0.1-0.1,0.1-0.4c0.1,0,0.3,0,0.4,0c0.2-0.7,0.6-1.2,0.9-1.9
	c0.4-0.5,0.5-1.3,1-1.8c0-0.2,0-0.3,0-0.5c0.1,0,0.2,0,0.3-0.1c0.4-1.1,0.9-2.2,1.6-3c0-0.7,0.5-0.9,0.6-1.6c0.1,0,0.1,0,0.2,0
	c0.2-0.8,0.7-1.3,0.9-2.2c0.2,0,0.2-0.3,0.4-0.3c0.1-0.8,0.7-1.2,0.8-2c0.1,0,0.1-0.1,0.3-0.1c-0.2-0.3,0.3-0.5,0.2-0.9
	c0.3,0,0.1-0.4,0.4-0.4c0.3-1.5,1.3-2.2,1.6-3.7c0.3-0.2,0.4-0.7,0.7-0.9c0.1-0.8,0.6-1.1,0.7-1.9c0.5-0.5,0.8-1.1,0.8-1.8
	c0.5-0.2,0.4-0.8,0.8-1.1c-0.1-0.4,0.3-0.4,0.2-0.8c0.4-0.3,0.4-1,0.8-1.3c0-0.1,0-0.3,0-0.4c0.7-0.8,0.9-2.2,1.6-3
	c0-0.2,0-0.3,0-0.5c0.7-0.5,0.7-1.8,1.2-2.6c-0.4,0.1-0.6,0.4-0.7,0.8c-0.4,0-0.2,0.6-0.7,0.5c0.6-2.1,2-3.3,2.8-5.1
	c0.1,0,0.2,0,0.3-0.1c0.4-1,1-1.9,1.3-3.1c0.1,0,0.1-0.2,0.2-0.2c0-0.2,0-0.4,0-0.6c0.3,0,0.3,0.3,0.5,0.3c0.2,0,0.2-0.3,0.5-0.2
	c0.4-0.7,0.7-1.4,1.1-2.2c0.3,0,0.2,0.4,0.4,0.5c-0.4,0.7-1,1.1-1.1,2.1c0.1,0.1,0.3,0.1,0.4,0.3c-0.3,0.2,0,0.2,0,0.5
	c-0.2,0.1,0,0.6-0.2,0.7c0,0.1,0.1,0.1,0.2,0.1c-0.3,0.4-0.2,1.2-0.5,1.6c0,0.2,0,0.4,0,0.6C23,29.9,23,30,23,30.6
	c-0.3,0.1-0.1,0.6-0.4,0.6c0.1,0.1,0.1,0.3,0.1,0.5c-0.1,0-0.1,0-0.2,0c0,0.7-0.5,1.1-0.6,1.9c-0.3,0-0.1,0.4-0.4,0.3
	c0.1,0.3,0,0.2,0,0.6c-0.5,0.4-0.5,1.1-0.9,1.6c0,0.1,0.1,0.2,0.1,0.4c-0.3,0.2-0.3,0.7-0.4,1.1c-0.1,0-0.2,0.2-0.3,0.2
	c-0.1,0.5-0.3,1-0.6,1.3c0.1,0.1,0,0.5-0.2,0.6c0,0.2,0.1,0.3,0.2,0.3c0,0.1-0.1,0.1-0.2,0.1C19.2,40,19.3,40.1,19.2,40.1z
	 M18.4,35.9C18.2,36.2,18.7,35.7,18.4,35.9L18.4,35.9z M19.6,37C19.5,37,19.4,37,19.6,37C19.5,37.1,19.6,37,19.6,37z M18,37.2
	C17.8,37.5,18.3,37,18,37.2L18,37.2z M18.7,38.1c0.3,0.1,0.3-0.4,0-0.3C18.7,37.9,18.7,38,18.7,38.1z M18.1,38.3c0.1,0,0.1,0,0.2,0
	c0-0.1,0-0.1,0-0.2c-0.1,0-0.1,0-0.2,0C18.1,38.1,18.1,38.2,18.1,38.3z M17.4,38.4c-0.1,0-0.2,0-0.2,0.1
	C17.3,38.4,17.4,38.5,17.4,38.4z M16.6,39.8c0.1-0.3,0-0.3,0-0.7c0.1,0,0.1-0.1-0.1-0.1C16.5,39.3,16.2,39.7,16.6,39.8z M16.3,39.8
	C16.3,39.8,16.2,39.9,16.3,39.8C16.3,40,16.4,39.9,16.3,39.8z M17.5,40.1c-0.1,0-0.2,0-0.2,0.1C17.4,40.2,17.5,40.2,17.5,40.1z
	 M18.7,41.1C18.7,41.1,18.5,41.1,18.7,41.1C18.6,41.2,18.7,41.1,18.7,41.1z M15.5,42c0.3,0,0.7-0.4,0.3-0.5
	C15.8,41.8,15.4,41.6,15.5,42z M16.7,42.9C16.7,42.8,16.7,42.7,16.7,42.9c0.1-0.2,0.1-0.3-0.1-0.3C16.6,42.7,16.6,42.8,16.7,42.9z
	 M7.2,42.7c-0.1,0-0.2,0-0.2,0.1C7.1,42.7,7.2,42.8,7.2,42.7z M4.1,43.1c0,0.2-0.1,0.2-0.1,0.3c0.1,0,0.1,0,0.2,0
	C4.3,43.3,4.3,43.2,4.1,43.1C4.1,43,4,43.2,4.1,43.1z M16.8,43.5C16.8,43.5,16.7,43.6,16.8,43.5C16.8,43.7,16.9,43.6,16.8,43.5z
	 M15.2,44.2c0-0.2,0.2-0.3-0.1-0.4C15.1,44,15,44.2,15.2,44.2z M14.3,44.2c0.1,0,0.1,0.1,0.2,0.1c0-0.1,0-0.2,0.1-0.3
	c-0.1,0-0.2,0-0.3,0C14.3,44.1,14.3,44.2,14.3,44.2z M14.1,44.7C14.1,44.7,13.9,44.8,14.1,44.7C14,44.8,14.1,44.8,14.1,44.7z
	 M15,45.3c0.1-0.1,0.1-0.2,0.2-0.4C14.8,44.8,14.6,45.3,15,45.3z M14,45.4c0.1-0.2-0.3-0.4-0.3-0.2C13.9,45.2,13.8,45.5,14,45.4z
	 M16.5,45.1C16.5,45.1,16.4,45.2,16.5,45.1C16.5,45.2,16.6,45.2,16.5,45.1z M13.7,45.9C13.6,45.9,13.7,46,13.7,45.9
	C13.8,45.8,13.7,45.8,13.7,45.9z M13.4,46.1C13.4,46,13.3,46,13.4,46.1C13.3,46.1,13.4,46.2,13.4,46.1z M13.6,46.2
	C13.6,46.2,13.5,46.2,13.6,46.2C13.5,46.3,13.7,46.2,13.6,46.2z M14.1,46.7c0-0.1-0.2-0.1-0.2,0C14,46.7,14,46.8,14.1,46.7z
	 M15.1,47.7C14.7,47.4,14.8,48.1,15.1,47.7L15.1,47.7z M13.7,47.7C13.7,47.7,13.5,47.8,13.7,47.7C13.6,47.9,13.7,47.8,13.7,47.7z
	 M12.5,48C12.5,48,12.4,47.9,12.5,48C12.4,48.1,12.5,48.1,12.5,48z M13.4,48.2C13.4,48.2,13.3,48.3,13.4,48.2
	C13.3,48.4,13.5,48.3,13.4,48.2z M13.2,48.7C12.9,48.4,12.9,49.1,13.2,48.7L13.2,48.7z M14.5,48.6c-0.1,0-0.2,0-0.2,0.1
	C14.4,48.7,14.5,48.7,14.5,48.6z M4.5,48.7C4.5,48.7,4.4,48.8,4.5,48.7C4.4,48.8,4.6,48.8,4.5,48.7z M11.8,49.1
	C11.6,49.4,12.2,48.9,11.8,49.1L11.8,49.1z M3.8,49.5C3.8,49.5,3.7,49.6,3.8,49.5C3.8,49.6,3.9,49.6,3.8,49.5z M4.3,49.9
	c-0.1,0-0.2,0-0.2,0.1C4.2,50,4.3,50,4.3,49.9z M12.7,50.3C12.7,50.3,12.7,50.3,12.7,50.3C12.6,50.3,12.6,50.2,12.7,50.3
	c-0.2-0.1-0.2-0.1-0.2-0.2c-0.1,0-0.1,0-0.2,0C12.3,50.3,12.5,50.3,12.7,50.3C12.6,50.5,12.7,50.5,12.7,50.3
	c0.1-0.1,0.2-0.1,0.4-0.1c0-0.1,0-0.1,0-0.2c-0.1,0-0.1-0.1-0.2-0.1C13,50.2,12.6,50,12.7,50.3z M2.3,50.5
	C2.2,50.5,2.1,50.5,2.3,50.5C2.2,50.6,2.3,50.5,2.3,50.5z M3.3,50.9c0.3,0.1,0.2-0.2,0.3-0.3c-0.1,0-0.2,0-0.3,0
	C3.3,50.7,3.3,50.8,3.3,50.9z M2.1,51C2.1,50.9,2.1,50.9,2.1,51c0.1-0.2,0.1-0.3-0.1-0.3C2,50.8,2,51,2.1,51z M2.6,50.9
	C2.5,50.8,2.4,50.9,2.6,50.9C2.5,51,2.6,50.9,2.6,50.9z M4.5,51.1C4.5,51,4.4,51.1,4.5,51.1C4.4,51.2,4.6,51.1,4.5,51.1z M12.1,51.2
	c0,0.1,0,0.4,0.1,0.4c0-0.3,0.4-0.1,0.4-0.3c-0.1,0-0.1-0.2-0.2-0.2C12.4,51.2,12.3,51.2,12.1,51.2z M2,51.6c0-0.1-0.2-0.1-0.2,0
	C1.9,51.5,1.9,51.7,2,51.6z M12.6,51.5C12.6,51.4,12.5,51.5,12.6,51.5C12.6,51.6,12.7,51.5,12.6,51.5z M12.4,51.7
	C12.4,51.6,12.3,51.7,12.4,51.7C12.4,51.8,12.5,51.7,12.4,51.7z M12.9,51.9C12.8,52.5,13.2,52.1,12.9,51.9
	C12.9,51.8,12.8,52,12.9,51.9z M11.7,52.4C11.7,52.4,11.6,52.5,11.7,52.4C11.7,52.6,11.8,52.5,11.7,52.4z M2.2,53
	C2,53.1,2.2,53.1,2.2,53C2.3,53,2.2,52.9,2.2,53z M2.5,53.2C2.4,53.2,2.3,53.3,2.5,53.2C2.4,53.3,2.5,53.3,2.5,53.2z M1.6,53.5
	c0.1,0.1,0.2,0.1,0.3-0.1c-0.1,0-0.1-0.1-0.3-0.1C1.6,53.4,1.6,53.4,1.6,53.5z M12.4,53.3C12.4,53.3,12.3,53.4,12.4,53.3
	C12.4,53.4,12.5,53.4,12.4,53.3z M2.2,53.4C2.1,53.4,2,53.5,2.2,53.4C2.1,53.5,2.2,53.5,2.2,53.4z M3,53.4c-0.1,0-0.2,0-0.2,0.1
	C2.9,53.5,3,53.5,3,53.4z M3.3,54.4C3.3,54.3,3.3,54.3,3.3,54.4C3.2,54.4,3.3,54.5,3.3,54.4z M10.9,54.5c0-0.1-0.2-0.1-0.2,0
	C10.7,54.6,10.8,54.5,10.9,54.5z M9,54.9C9,54.9,8.9,54.9,9,54.9C8.9,55,9.1,54.9,9,54.9z M10.7,54.9C10.6,54.9,10.5,54.9,10.7,54.9
	C10.6,55,10.7,54.9,10.7,54.9z M2,55C1.9,54.9,1.8,55,2,55C1.9,55.1,2,55,2,55z M2.3,55.2c-0.1,0-0.2,0-0.2,0.1
	C2.1,55.2,2.3,55.3,2.3,55.2z M10.8,55.5C10.7,55.4,10.6,55.5,10.8,55.5C10.7,55.6,10.8,55.5,10.8,55.5z M1.4,56.4
	c0-0.3,0.2-0.5-0.2-0.5C1.2,56.1,1.2,56.4,1.4,56.4z M10.3,56.1C9.7,56,10.1,56.4,10.3,56.1L10.3,56.1z M11.5,56.1
	c-0.1,0-0.3,0-0.3,0.1C11.4,56.2,11.5,56.3,11.5,56.1z M2.7,56.3C2.4,56.4,2.7,56.8,2.7,56.3C2.8,56.3,2.6,56.2,2.7,56.3z M1.9,56.3
	C1.8,56.3,1.7,56.4,1.9,56.3C1.8,56.5,1.9,56.4,1.9,56.3z M9.7,56.6c0.2,0,0.3,0,0.5,0c0-0.2-0.1-0.3-0.3-0.3
	C9.9,56.5,9.8,56.5,9.7,56.6z M2.2,56.5C2.1,56.5,2,56.6,2.2,56.5C2.1,56.7,2.2,56.6,2.2,56.5z M8,56.5C8,56.5,7.9,56.6,8,56.5
	C8,56.7,8.1,56.6,8,56.5z M1.3,56.6C1.3,56.6,1.1,56.7,1.3,56.6C1.2,56.8,1.3,56.7,1.3,56.6z M11.1,57C11,57,10.9,57.1,11.1,57
	C11,57.2,11.1,57.1,11.1,57z M2.1,57.2C2,57.2,1.9,57.3,2.1,57.2C2,57.3,2.1,57.3,2.1,57.2z M2.5,57.5C2.4,57.5,2.3,57.6,2.5,57.5
	C2.4,57.6,2.5,57.6,2.5,57.5z M9.2,57.5C9.2,57.5,9.1,57.6,9.2,57.5C9.1,57.6,9.3,57.6,9.2,57.5z M1.2,58.1
	C1.2,58,1.1,57.9,1.2,58.1C1.1,58.1,1.1,58.3,1.2,58.1z M9.3,58.1C9.3,58.1,9.2,58.2,9.3,58.1C9.2,58.2,9.3,58.2,9.3,58.1z
	 M9.8,58.3c-0.1,0-0.2,0-0.2,0.1C9.7,58.4,9.8,58.4,9.8,58.3z M10.5,58.3C10.4,58.3,10.3,58.3,10.5,58.3
	C10.4,58.4,10.5,58.4,10.5,58.3z M9.2,58.5C9.2,58.5,9.1,58.5,9.2,58.5C9.1,58.6,9.3,58.5,9.2,58.5z M2.4,58.8c0,0.1,0,0.1,0,0.2
	c0.1,0,0.1,0,0.2,0c0-0.1,0-0.1,0.1-0.1c0-0.1,0-0.1,0-0.2C2.6,58.7,2.5,58.7,2.4,58.8C2.5,58.8,2.4,58.8,2.4,58.8z M6.8,59.2
	C6.7,59.2,6.6,59.2,6.8,59.2C6.7,59.3,6.8,59.2,6.8,59.2z M9.1,59.3C9.1,59.2,9,59.3,9.1,59.3C9,59.4,9.2,59.3,9.1,59.3z M10,59.4
	C10,59.3,9.9,59.3,10,59.4C9.9,59.4,10,59.5,10,59.4z M1.2,59.5c-0.1,0-0.2-0.1-0.2,0C1,59.6,1.2,59.6,1.2,59.5z M8.6,59.5
	C8.6,59.4,8.5,59.5,8.6,59.5C8.5,59.6,8.7,59.5,8.6,59.5z M9.2,59.5C9.2,59.4,9.1,59.5,9.2,59.5C9.1,59.6,9.3,59.5,9.2,59.5z
	 M8.3,59.7C8.3,59.6,8.2,59.7,8.3,59.7C8.3,59.8,8.4,59.7,8.3,59.7z M1,60.4c0.1,0,0.1,0.1,0.2,0.1c0-0.2,0-0.3-0.2-0.3
	C1,60.2,1,60.3,1,60.4z M1.6,60.3C1.6,60.2,1.4,60.3,1.6,60.3C1.5,60.4,1.6,60.3,1.6,60.3z M1.7,60.5c0.1,0,0.1,0,0.2,0
	c0-0.1,0-0.1,0-0.2c-0.1,0-0.1,0-0.2,0C1.7,60.4,1.7,60.5,1.7,60.5z M8.1,60.5C8.1,60.5,8,60.6,8.1,60.5C8.1,60.7,8.2,60.6,8.1,60.5
	z M2.5,60.8C2.4,60.8,2.3,60.9,2.5,60.8C2.4,61,2.5,60.9,2.5,60.8z M1.1,61.3c0-0.2-0.1-0.3-0.2-0.3C0.9,61.2,1,61.3,1.1,61.3z
	 M9,61.3C9,61.3,8.9,61.4,9,61.3C8.9,61.5,9.1,61.4,9,61.3z M8.8,61.4C8.8,61.4,8.7,61.5,8.8,61.4C8.7,61.6,8.9,61.5,8.8,61.4z
	 M8.1,61.5C8.1,61.5,8,61.6,8.1,61.5C8.1,61.6,8.2,61.6,8.1,61.5z M8,62C8,62,7.9,62.1,8,62C8,62.1,8.1,62.1,8,62z M2.5,62.2
	C2.4,62.2,2.3,62.3,2.5,62.2C2.4,62.3,2.5,62.3,2.5,62.2z M1.1,62.5c0-0.1-0.2-0.1-0.2,0C0.9,62.6,1,62.6,1.1,62.5z M7.1,62.4
	c-0.1,0-0.2,0-0.2,0.1C7,62.5,7.1,62.5,7.1,62.4z M1,62.8C1,62.8,0.8,62.8,1,62.8C0.9,62.9,1,62.8,1,62.8z M1,63.5
	c0-0.2,0.1-0.5-0.2-0.4C0.8,63.3,0.8,63.5,1,63.5z M1.4,63.5c0.2,0,0.1,0.3,0.2,0.3c0-0.1,0.2-0.1,0.2-0.2c-0.1,0-0.2,0-0.2-0.1
	c0.1,0,0.1-0.2,0-0.2C1.6,63.4,1.4,63.4,1.4,63.5z M7.7,63.3C7.7,63.3,7.6,63.3,7.7,63.3C7.7,63.4,7.8,63.3,7.7,63.3z M6.8,63.5
	C6.5,63.8,7.1,63.2,6.8,63.5L6.8,63.5z M2.4,63.7C2.3,63.6,2.2,63.7,2.4,63.7C2.3,63.8,2.4,63.7,2.4,63.7z M2.1,63.8
	C2,63.7,1.9,63.8,2.1,63.8C2,63.9,2.1,63.8,2.1,63.8z M2.4,64c-0.1,0-0.2,0-0.2,0.1C2.2,64,2.4,64.1,2.4,64z M7.3,64.2
	c0.2,0,0.3,0,0.3-0.2c-0.1,0-0.1,0-0.2,0C7.4,64.1,7.4,64.1,7.3,64.2z M0.9,64.5C1,64.6,1,64.4,0.9,64.5C0.9,64.2,0.5,64.6,0.9,64.5
	z M2.3,64.6C2.3,64.5,2.2,64.3,2.3,64.6C2.2,64.6,2.2,64.7,2.3,64.6z M7.1,64.5C7.2,64.4,7,64.3,7.1,64.5
	C6.7,64.1,6.9,64.8,7.1,64.5z M0.7,64.9c0.1,0,0.1,0.1,0.2,0.1c0-0.1,0-0.2,0.1-0.3c-0.1,0-0.2,0-0.3,0C0.7,64.8,0.7,64.9,0.7,64.9z
	 M6.8,64.9c0.1,0,0.2,0,0.3,0c0-0.2-0.1-0.2-0.3-0.2C6.8,64.8,6.8,64.9,6.8,64.9z M6.1,64.9c-0.1,0-0.2,0-0.2,0.1
	C6,65,6.1,65,6.1,64.9z M2.1,65.3c0.1,0,0.1,0,0.2,0c0-0.1,0-0.1,0-0.2c-0.1,0-0.1,0-0.2,0C2.1,65.2,2.1,65.3,2.1,65.3z M5.5,65.3
	C5.3,65.4,5.5,65.5,5.5,65.3c0.1,0,0.1,0,0.2,0c0-0.1,0-0.1,0-0.2C5.5,65.1,5.5,65.2,5.5,65.3z M0.8,65.4
	C0.8,65.4,0.7,65.3,0.8,65.4C0.7,65.5,0.8,65.5,0.8,65.4z M1.6,65.3c-0.1,0-0.2,0-0.2,0.1C1.5,65.4,1.6,65.4,1.6,65.3z M2.3,65.6
	c-0.2-0.1-0.3-0.2-0.5-0.3C1.7,65.6,2.1,65.9,2.3,65.6z M6.3,65.9c0-0.2,0.2-0.1,0.2-0.3C6.3,65.5,6,65.9,6.3,65.9z M5.5,65.7
	c-0.1,0-0.2,0-0.2,0.1C5.4,65.8,5.5,65.8,5.5,65.7z M1.5,66.1C1.4,66.5,1.8,66.1,1.5,66.1c0-0.1,0-0.1,0-0.2c-0.1,0-0.1,0-0.2,0
	C1.2,66.1,1.4,66.1,1.5,66.1z M5.5,65.9C5.3,66,5,65.8,5,66C5.2,66.1,5.4,66.2,5.5,65.9z M0.9,66.4C0.9,66.4,0.8,66.3,0.9,66.4
	C0.8,66.5,0.9,66.5,0.9,66.4z M1.5,66.5C1.5,66.5,1.3,66.6,1.5,66.5C1.4,66.6,1.5,66.6,1.5,66.5z M5.2,66.5
	C5.2,66.5,5,66.6,5.2,66.5C5.1,66.6,5.2,66.6,5.2,66.5z M5.7,66.5C5.7,66.5,5.5,66.6,5.7,66.5C5.6,66.6,5.7,66.6,5.7,66.5z
	 M5.4,66.6C5.4,66.6,5.2,66.7,5.4,66.6C5.3,66.7,5.4,66.7,5.4,66.6z M0.8,66.8C0.7,67.2,1.1,66.8,0.8,66.8
	C0.7,66.7,0.7,66.8,0.8,66.8z M4.4,67c0.1,0,0.1,0.1,0.2,0.1c0-0.1,0.1-0.1,0.1-0.2c-0.1,0-0.1-0.1-0.2-0.1
	C4.5,66.9,4.4,66.9,4.4,67z M1.7,67.3C1.6,67.3,1.5,67.3,1.7,67.3C1.6,67.4,1.7,67.3,1.7,67.3z M4.2,67.3
	C4.2,67.3,4.1,67.3,4.2,67.3C4.1,67.4,4.3,67.3,4.2,67.3z M1.6,67.5C1.6,67.5,1.4,67.5,1.6,67.5C1.5,67.6,1.6,67.5,1.6,67.5z
	 M4.5,68c0-0.2,0.3-0.4-0.1-0.5C4.5,67.8,4.2,67.9,4.5,68z M1.4,67.6C1.4,67.6,1.2,67.6,1.4,67.6C1.3,67.7,1.4,67.6,1.4,67.6z
	 M4.2,67.7C4.2,67.7,4.1,67.7,4.2,67.7C4.1,67.8,4.3,67.7,4.2,67.7z M5,68C5,67.9,4.9,68,5,68C4.9,68.1,5,68,5,68z M4.3,68.1
	C4.3,68,4.2,68.1,4.3,68.1C4.2,68.2,4.4,68.1,4.3,68.1z M3.6,68.7c0.2,0.2,0.4-0.3,0.7,0c-0.1-0.2-0.2-0.5-0.5-0.5
	C3.8,68.4,3.6,68.4,3.6,68.7z M0.7,68.5C0.7,68.4,0.5,68.5,0.7,68.5C0.6,68.6,0.7,68.5,0.7,68.5z M0.9,68.5
	C0.9,68.4,0.7,68.5,0.9,68.5C0.8,68.6,0.9,68.5,0.9,68.5z M4.7,68.7c-0.1,0-0.2,0-0.2,0.1C4.6,68.7,4.7,68.8,4.7,68.7z M3.4,69.2
	c0-0.2,0.3-0.1,0.3-0.3C3.5,68.8,3.2,69.2,3.4,69.2z M4.2,69.1c0.1,0,0.1,0,0.2,0C4.6,68.9,4.1,68.9,4.2,69.1
	C4.2,69.1,4.2,69.1,4.2,69.1z M3.8,69.2C3.8,69.2,3.7,69.3,3.8,69.2C3.8,69.4,3.9,69.3,3.8,69.2z M4.1,69.3
	C4.1,69.3,4,69.4,4.1,69.3C4,69.5,4.2,69.4,4.1,69.3z M3.2,69.5C3.2,69.5,3.2,69.4,3.2,69.5C3.1,69.6,3.2,69.7,3.2,69.5z M3.3,69.7
	c0.1,0,0.1,0.1,0,0.2c0.3,0,0.3-0.3,0.4-0.5C3.5,69.4,3.5,69.7,3.3,69.7z M4,69.7C4,69.7,3.9,69.6,4,69.7C3.9,69.8,4,69.8,4,69.7z
	 M3.1,70.6c0,0.2-0.1,0.2-0.1,0.3c0.2,0,0.3-0.1,0.3-0.3C3.3,70.6,3.2,70.6,3.1,70.6c0-0.2,0.1-0.2,0.1-0.3C3,70.4,3.5,69.6,3,69.7
	C2.9,69.9,3.1,70.4,3.1,70.6z M3.7,70C3.7,70.1,3.7,70.1,3.7,70C3.3,70.2,3.8,70.7,3.7,70C3.8,70.1,3.8,70,3.7,70
	C3.7,69.9,3.6,70,3.7,70z M4,70.1C4,70.1,3.9,70,4,70.1C3.9,70.2,4,70.2,4,70.1z M3.5,70.7C3.4,70.8,3.5,70.8,3.5,70.7
	C3.7,70.7,3.5,70.6,3.5,70.7z M98.6,23.3C98.6,23.3,98.5,23.4,98.6,23.3C98.6,23.4,98.7,23.4,98.6,23.3z M98.1,23.8
	C98.3,23.7,98.1,23.7,98.1,23.8L98.1,23.8z M98.1,23.8C98,23.9,98.2,23.9,98.1,23.8L98.1,23.8z M97.7,24.4
	C97.6,24.4,97.5,24.4,97.7,24.4C97.6,24.5,97.7,24.4,97.7,24.4z M41.4,25.5C41.3,25.4,41.2,25.5,41.4,25.5
	C41.3,25.6,41.4,25.5,41.4,25.5z M41.6,25.7C41.6,25.6,41.5,25.5,41.6,25.7C41.5,25.7,41.5,25.8,41.6,25.7z M41.3,25.8
	c-0.2,0.1-0.4,0.2-0.5,0.4c0.5,0,0,0.5-0.1,0.6C41.3,26.9,41.1,26.3,41.3,25.8z M40.7,26.8C40.6,26.8,40.6,26.9,40.7,26.8
	C40.7,26.9,40.7,26.9,40.7,26.8z M40.5,27.1c0.1,0,0.1-0.1,0.1-0.2C40.5,26.9,40.5,27,40.5,27.1z M40.3,27.5c0-0.2,0.3-0.1,0.2-0.4
	C40.4,27.2,40,27.4,40.3,27.5z M39.4,28.6c0.1,0,0.4,0,0.4-0.1c-0.2,0-0.2-0.1-0.3-0.2C39.5,28.4,39.5,28.5,39.4,28.6z M48.7,28.8
	C48.7,28.8,48.5,28.8,48.7,28.8C48.6,28.9,48.7,28.8,48.7,28.8z M39.1,29.3c0-0.1,0.4-0.3,0.1-0.4C39.2,29,38.8,29.2,39.1,29.3z
	 M94.4,29.7C94.4,29.6,94.3,29.7,94.4,29.7C94.4,29.8,94.5,29.7,94.4,29.7z M38.6,30.1C38.6,30,38.5,30.1,38.6,30.1
	C38.6,30.2,38.7,30.1,38.6,30.1z M38.4,30.2C38.4,30.2,38.3,30.3,38.4,30.2C38.4,30.4,38.5,30.3,38.4,30.2z M73.4,30.3
	C73.4,30.5,73.5,30.4,73.4,30.3C73.5,30.3,73.4,30.3,73.4,30.3z M60.5,30.5C60.5,30.5,60.5,30.4,60.5,30.5
	C60.4,30.5,60.4,30.5,60.5,30.5C60.5,30.5,60.5,30.5,60.5,30.5z M37.8,31.1C37.8,31.1,37.7,31.2,37.8,31.1
	C37.8,31.3,37.9,31.2,37.8,31.1z M37.8,31.5C37.5,31.2,37.5,31.9,37.8,31.5L37.8,31.5z M37.3,32.6c-0.1,0-0.2,0-0.2,0.1
	C37.1,32.7,37.3,32.7,37.3,32.6z M39,34c0-0.2,0.4-0.5,0.1-0.7C39,33.5,38.9,33.6,39,34C38.9,34,39,34,39,34z M66.1,33.5
	C66,33.5,66,33.5,66.1,33.5C66,33.6,66.1,33.6,66.1,33.5z M49,33.9C49.3,33.8,48.9,33.5,49,33.9L49,33.9z M49,33.9
	C48.6,34,49.3,34.2,49,33.9L49,33.9z M65.2,34.2C65.1,34.1,65.1,34.2,65.2,34.2C65.2,34.3,65.2,34.2,65.2,34.2z M48.6,34.6
	C48.6,34.6,48.4,34.7,48.6,34.6C48.5,34.8,48.6,34.7,48.6,34.6z M37.4,37.4c0.1,0,0.1-0.1,0.1-0.2C37.5,37.2,37.5,37.3,37.4,37.4z
	 M61.4,37.2C61.4,37.2,61.2,37.2,61.4,37.2C61.3,37.3,61.4,37.2,61.4,37.2z M34.1,37.4C34,37.4,34.1,37.5,34.1,37.4L34.1,37.4z
	 M37.3,37.4c0,0.2,0.1,0.2,0.1,0.3c-0.2,0-0.3,0.1-0.3,0.2c0.4,0.1,0.4-0.2,0.4-0.5C37.4,37.4,37.3,37.4,37.3,37.4z M37.1,38.3
	C37.1,38.2,37,38.2,37.1,38.3C37,38.3,37,38.4,37.1,38.3z M33.5,38.6C33.5,38.5,33.5,38.4,33.5,38.6C33.4,38.6,33.5,38.7,33.5,38.6z
	 M36.9,38.6C36.9,38.5,36.8,38.4,36.9,38.6C36.8,38.6,36.8,38.7,36.9,38.6z M33.1,39C33,38.8,32.6,39.1,33.1,39L33.1,39z M46.4,39.3
	c-0.1,0-0.2,0-0.2,0.1C46.3,39.4,46.4,39.4,46.4,39.3z M58.5,39.4C58.6,39.4,58.5,39.3,58.5,39.4L58.5,39.4z M85,40.4
	C85,40.4,84.9,40.5,85,40.4C85,40.5,85.1,40.5,85,40.4z M89.3,40.4C89.2,40.4,89.1,40.5,89.3,40.4C89.2,40.5,89.3,40.5,89.3,40.4z
	 M32.1,40.6C31.8,41.1,32.4,40.8,32.1,40.6L32.1,40.6z M89.3,40.6C89.2,40.6,89.1,40.7,89.3,40.6C89.2,40.7,89.3,40.7,89.3,40.6z
	 M32.2,41C32.1,41,32,41,32.2,41C32.1,41.1,32.2,41.1,32.2,41z M89.1,41.4C89.1,41.3,89,41.3,89.1,41.4C89,41.4,89,41.5,89.1,41.4z
	 M45.4,41.7c0.2,0,0.3-0.1,0.3-0.3C45.4,41.3,45.5,41.6,45.4,41.7z M31.8,41.6C31.4,41.5,31.8,41.9,31.8,41.6L31.8,41.6z M89,42.1
	C89,42,88.9,42,89,42.1C88.9,42.1,88.9,42.2,89,42.1z M30.7,43.4c-0.1,0.1-0.1,0.2-0.1,0.4c0,0,0.1,0,0.1,0
	C30.8,43.7,30.8,43.6,30.7,43.4C30.8,43.4,30.7,43.4,30.7,43.4z M88.7,43.5C88.7,43.5,88.6,43.4,88.7,43.5
	C88.6,43.6,88.6,43.7,88.7,43.5z M34.5,44.1c0.3,0,0.3-0.5,0.2-0.6C34.5,43.6,34.5,43.8,34.5,44.1z M9.3,43.8
	C9.3,43.8,9.2,43.9,9.3,43.8C9.2,44,9.3,43.9,9.3,43.8z M30.6,43.8C30.3,43.9,30.7,44.2,30.6,43.8L30.6,43.8z M88.5,44.3
	C88.4,44.3,88.3,44.4,88.5,44.3C88.4,44.4,88.5,44.4,88.5,44.3z M34.1,45c0.3,0,0.2-0.3,0.4-0.5c-0.1,0-0.1,0-0.2,0
	c-0.1,0-0.1,0-0.1,0.1C34.5,44.7,34,44.8,34.1,45z M34,45.2C34.2,45.1,34,45.1,34,45.2L34,45.2z M34,45.2
	C33.7,45.3,34.1,45.7,34,45.2L34,45.2z M24,46.2C24,46.1,24,46.1,24,46.2c-0.1-0.1-0.3-0.1-0.3-0.2C23.4,46.1,23.8,46.3,24,46.2z
	 M23.5,46.1c-0.3-0.1-0.1,0.3-0.4,0.3c0,0.1,0.1,0.2,0.3,0.2C23.3,46.3,23.5,46.3,23.5,46.1z M33.4,47.2c0.2-0.2-0.1-0.3,0.2-0.4
	c-0.1-0.3,0.3-0.5-0.1-0.5C33.6,46.6,33.2,46.9,33.4,47.2z M32.8,48.3c0.4,0,0.1-0.7,0.6-0.6c-0.1-0.1,0.1-0.5-0.1-0.5
	C33.1,47.6,32.7,47.8,32.8,48.3z M32.2,50.2c-0.3,0.1-0.5,0.6-0.4,0.8C32,50.8,32.1,50.6,32.2,50.2z M31.8,51
	C31.6,51,31.8,51.1,31.8,51L31.8,51z M31.7,51.3C31.7,51.2,31.5,51.3,31.7,51.3C31.6,51.4,31.7,51.3,31.7,51.3z M1.6,52.4
	c-0.2,0-0.3,0.5-0.1,0.6c0.2-0.2,0.2-0.6,0.2-1.1C1.4,52,1.4,52.3,1.6,52.4z M84.7,54.1C84.8,54,84.6,54,84.7,54.1L84.7,54.1z
	 M84.6,54.5C84.5,54.5,84.4,54.5,84.6,54.5C84.5,54.6,84.6,54.5,84.6,54.5z M1.2,54.6c-0.1,0.1-0.2,0.5,0,0.5
	C1.1,54.8,1.5,54.7,1.2,54.6z M29.8,56.9c0.2,0,0.2-0.1,0.2-0.3C29.9,56.7,29.9,56.8,29.8,56.9z M82.7,59.6
	C82.6,59.4,82.6,59.6,82.7,59.6L82.7,59.6z M0.2,61.6C0.2,61.6,0.1,61.7,0.2,61.6C0.1,61.7,0.3,61.7,0.2,61.6z M0.4,63.4
	C0.4,63.4,0.3,63.4,0.4,63.4C0.3,63.5,0.5,63.4,0.4,63.4z M0.3,63.8C0.3,63.7,0.3,63.5,0.3,63.8C0.2,63.8,0.3,63.9,0.3,63.8z
	 M0.2,64c-0.1,0-0.2-0.1-0.2,0C0,64.1,0.2,64.1,0.2,64z M0.1,64.6C0.1,64.5,0,64.6,0.1,64.6C0,64.7,0.2,64.6,0.1,64.6z M0.1,65
	C0.2,64.6-0.2,65,0.1,65L0.1,65z M0.1,65C0.1,65.1,0.1,65.1,0.1,65C0.2,65.1,0.2,65,0.1,65z M0.1,65.1C-0.2,65.2,0.2,65.5,0.1,65.1
	L0.1,65.1z M0.1,66.1C0.1,66.1,0,66.2,0.1,66.1C0,66.2,0.2,66.2,0.1,66.1z"/>
</svg>
